<?xml version="1.0" encoding="UTF-8" standalone="no"?>
<!DOCTYPE svg PUBLIC "-//W3C//DTD SVG 1.1//EN" "http://www.w3.org/Graphics/SVG/1.1/DTD/svg11.dtd">
<svg version="1.1" xmlns="http://www.w3.org/2000/svg" xmlns:xlink="http://www.w3.org/1999/xlink" preserveAspectRatio="xMidYMid meet" viewBox="0 0 640 640" width="640" height="640"><defs><path d="M315.39 143.77C362.95 143.77 407.65 162.76 441.29 197.24C474.93 231.72 493.43 277.58 493.43 326.35C493.43 375.11 474.91 420.97 441.29 455.47C407.67 489.97 362.95 508.94 315.39 508.94C267.83 508.94 223.13 489.95 189.49 455.47C155.85 420.99 137.35 375.13 137.35 326.35C137.35 277.57 155.87 231.72 189.49 197.24C223.11 162.76 267.83 143.77 315.39 143.77ZM474.69 326.37C474.69 236.28 403.23 162.99 315.39 162.99C227.55 162.99 156.09 236.28 156.09 326.37C156.09 416.45 227.55 489.74 315.39 489.74C403.23 489.74 474.69 416.45 474.69 326.37Z" id="b4EjDh1YTD"></path><path d="M363.49 412.61C359.47 416.64 352.93 416.65 348.91 412.63C344.88 408.61 344.87 402.07 348.89 398.04C353.22 393.71 374.84 372.04 413.76 333.05C286.33 333.18 215.53 333.25 201.37 333.27C195.67 333.27 191.04 328.65 191.04 322.96C191.03 317.26 195.65 312.64 201.35 312.63C215.5 312.62 286.3 312.54 413.74 312.42C374.75 273.49 353.09 251.86 348.76 247.54C344.73 243.52 344.72 236.98 348.74 232.95C350.76 230.93 353.4 229.93 356.03 229.93C358.65 229.93 361.31 230.94 363.31 232.96C371.58 241.2 437.67 307.17 445.94 315.42C449.96 319.44 449.97 325.98 445.95 330.01C445.95 330 371.74 404.35 363.49 412.61Z" id="fALHhtsal"></path></defs><g><g><g><use xlink:href="#b4EjDh1YTD" opacity="1" fill="#4f6d7a" fill-opacity="1"></use><g><use xlink:href="#b4EjDh1YTD" opacity="1" fill-opacity="0" stroke="#000000" stroke-width="1" stroke-opacity="0"></use></g></g><g><use xlink:href="#fALHhtsal" opacity="1" fill="#4f6d7a" fill-opacity="1"></use><g><use xlink:href="#fALHhtsal" opacity="1" fill-opacity="0" stroke="#000000" stroke-width="1" stroke-opacity="0"></use></g></g></g></g></svg>