<?xml version="1.0" encoding="UTF-8" standalone="no"?>
<!DOCTYPE svg PUBLIC "-//W3C//DTD SVG 1.1//EN" "http://www.w3.org/Graphics/SVG/1.1/DTD/svg11.dtd">
<svg version="1.1" xmlns="http://www.w3.org/2000/svg" xmlns:xlink="http://www.w3.org/1999/xlink" preserveAspectRatio="xMidYMid meet" viewBox="0 0 640 640" width="640" height="640"><defs><path d="M315.39 143.77C362.95 143.77 407.65 162.76 441.29 197.24C474.93 231.72 493.43 277.58 493.43 326.35C493.43 375.11 474.91 420.97 441.29 455.47C407.67 489.97 362.95 508.94 315.39 508.94C267.83 508.94 223.13 489.95 189.49 455.47C155.85 420.99 137.35 375.13 137.35 326.35C137.35 277.57 155.87 231.72 189.49 197.24C223.11 162.76 267.83 143.77 315.39 143.77ZM474.69 326.37C474.69 236.28 403.23 162.99 315.39 162.99C227.55 162.99 156.09 236.28 156.09 326.37C156.09 416.45 227.55 489.74 315.39 489.74C403.23 489.74 474.69 416.45 474.69 326.37Z" id="c2iFFLEza"></path><path d="M276.6 232.98C280.62 228.96 287.16 228.96 291.19 232.98C295.21 237.01 295.21 243.55 291.19 247.57C286.86 251.9 265.21 273.54 226.25 312.5C353.69 312.5 424.48 312.5 438.64 312.5C444.34 312.5 448.96 317.12 448.96 322.81C448.96 328.51 444.34 333.13 438.64 333.13C424.48 333.13 353.69 333.13 226.25 333.13C265.2 372.1 286.84 393.74 291.16 398.07C295.19 402.1 295.19 408.64 291.16 412.66C289.14 414.69 286.5 415.68 283.88 415.68C281.26 415.68 278.6 414.66 276.6 412.64C268.34 404.39 202.31 338.35 194.06 330.1C190.03 326.07 190.03 319.53 194.06 315.51C194.06 315.51 268.34 241.24 276.6 232.98Z" id="b2GkT3f5WQ"></path></defs><g><g><g><use xlink:href="#c2iFFLEza" opacity="1" fill="#f3f3f3" fill-opacity="1"></use><g><use xlink:href="#c2iFFLEza" opacity="1" fill-opacity="0" stroke="#000000" stroke-width="1" stroke-opacity="0"></use></g></g><g><use xlink:href="#b2GkT3f5WQ" opacity="1" fill="#f3f3f3" fill-opacity="1"></use><g><use xlink:href="#b2GkT3f5WQ" opacity="1" fill-opacity="0" stroke="#000000" stroke-width="1" stroke-opacity="0"></use></g></g></g></g></svg>