<?xml version="1.0" encoding="UTF-8" standalone="no"?>
<!DOCTYPE svg PUBLIC "-//W3C//DTD SVG 1.1//EN" "http://www.w3.org/Graphics/SVG/1.1/DTD/svg11.dtd">
<svg version="1.1" xmlns="http://www.w3.org/2000/svg" xmlns:xlink="http://www.w3.org/1999/xlink" preserveAspectRatio="xMidYMid meet" viewBox="0 0 640 640" width="640" height="640"><defs><path d="M564.23 331.09C564.23 472.98 454.89 588 320 588C185.11 588 75.77 472.98 75.77 331.09C75.77 189.2 185.11 74.17 320 74.17C454.89 74.17 564.23 189.2 564.23 331.09Z" id="c2UblzcRc"></path><path d="M551.62 331.09C551.62 464.84 447.92 573.26 320 573.26C192.08 573.26 88.38 464.84 88.38 331.09C88.38 197.34 192.08 88.92 320 88.92C447.92 88.92 551.62 197.34 551.62 331.09Z" id="eJ9yu7gz5"></path><path d="M150.48 310.88C151.31 310.14 151.77 309.73 151.86 309.65C152.62 308.97 190.56 278.47 236.18 241.86C290.4 198.35 319.44 175.34 320.04 175.38C320.73 175.42 412.7 248.88 488.18 309.66C488.27 309.73 488.72 310.09 489.52 310.75C484.45 315.95 481.62 318.84 481.06 319.42C476.41 324.2 472.42 328.16 472.21 328.24C472 328.31 437.84 301.09 396.3 267.74C354.77 234.39 320.44 207.09 320.03 207.08C319.61 207.07 285.27 234.34 243.72 267.69C202.16 301.03 168.03 328.32 167.86 328.32C167.69 328.32 163.71 324.39 159.02 319.6C159.02 319.6 156.17 316.69 150.48 310.88Z" id="a1yI9meugS"></path><path d="M197.52 476.06C196.47 474.04 196.47 473.68 196.47 398.23C196.47 393.18 196.47 367.92 196.47 322.44C234.55 290.89 255.7 273.36 259.93 269.86C294.84 240.94 323.57 217.28 323.78 217.28C323.99 217.28 352.7 240.93 387.59 269.83C391.82 273.34 412.96 290.85 451.01 322.39C451.01 367.88 451.01 393.15 451.01 398.21C451.01 473.79 451.01 474.04 449.96 476.06C449.19 477.54 448.31 478.37 446.73 479.09C444.59 480.05 443.9 480.07 404.34 480.07C401.66 480.07 388.25 480.07 364.12 480.07C364.12 459.63 364.12 448.27 364.12 446C364.11 412.84 364.09 411.88 363.1 410.36C362.54 409.51 361.33 408.38 360.42 407.85C358.8 406.93 357.78 406.9 323.74 406.9C289.7 406.9 288.68 406.93 287.06 407.85C286.15 408.38 284.94 409.51 284.38 410.36C283.39 411.88 283.36 412.84 283.36 446C283.36 448.27 283.36 459.63 283.36 480.07C259.21 480.07 245.79 480.07 243.11 480.07C203.38 480.07 202.83 480.06 200.71 479.08C199.18 478.37 198.27 477.5 197.52 476.06Z" id="e1JLyfyk5d"></path><path d="M222.34 202.41L241.04 202.41L259.73 202.41C259.56 209.29 259.46 213.12 259.44 213.89C259.28 220.2 259.12 225.38 259.09 225.4C259.07 225.42 251.12 232.88 241.43 241.98C231.74 251.08 223.48 258.82 223.07 259.18C222.37 259.8 222.34 258.43 222.34 231.12C222.34 227.29 222.34 217.72 222.34 202.41Z" id="alRoFsbhQ"></path></defs><g><g><use xlink:href="#c2UblzcRc" opacity="1" fill="#0a1a29" fill-opacity="1"></use><g><use xlink:href="#c2UblzcRc" opacity="1" fill-opacity="0" stroke="#000000" stroke-width="0.7" stroke-opacity="0"></use></g></g><g><use xlink:href="#eJ9yu7gz5" opacity="1" fill="#fbfcf8" fill-opacity="1"></use><g><use xlink:href="#eJ9yu7gz5" opacity="1" fill-opacity="0" stroke="#000000" stroke-width="1.02" stroke-opacity="0"></use></g></g><g><use xlink:href="#a1yI9meugS" opacity="1" fill="#0a1a29" fill-opacity="1"></use><g><use xlink:href="#a1yI9meugS" opacity="1" fill-opacity="0" stroke="#000000" stroke-width="0.4" stroke-opacity="0"></use></g></g><g><use xlink:href="#e1JLyfyk5d" opacity="1" fill="#0a1a29" fill-opacity="1"></use><g><use xlink:href="#e1JLyfyk5d" opacity="1" fill-opacity="0" stroke="#000000" stroke-width="0.46" stroke-opacity="0"></use></g></g><g><use xlink:href="#alRoFsbhQ" opacity="1" fill="#0a1a29" fill-opacity="1"></use><g><use xlink:href="#alRoFsbhQ" opacity="1" fill-opacity="0" stroke="#000000" stroke-width="0.31" stroke-opacity="0"></use></g></g></g></svg>