<?xml version="1.0" encoding="UTF-8" standalone="no"?>
<!DOCTYPE svg PUBLIC "-//W3C//DTD SVG 1.1//EN" "http://www.w3.org/Graphics/SVG/1.1/DTD/svg11.dtd">
<svg version="1.1" xmlns="http://www.w3.org/2000/svg" xmlns:xlink="http://www.w3.org/1999/xlink" preserveAspectRatio="xMidYMid meet" viewBox="0 0 640 640" width="640" height="640"><defs><path d="M349.85 512.1C231.62 512.1 135.78 415.49 135.78 296.33C135.78 177.16 231.62 80.56 349.85 80.56C468.07 80.56 563.91 177.16 563.91 296.33C563.91 415.49 468.07 512.1 349.85 512.1Z" id="cK0rFonZe"></path><path d="M128.64 296.33C128.64 173.19 227.68 73.37 349.85 73.37C472.01 73.37 571.05 173.19 571.05 296.33C570.91 419.41 471.96 519.15 349.85 519.29C227.68 519.29 128.64 419.47 128.64 296.33ZM142.91 296.33C142.91 411.52 235.56 504.91 349.85 504.91C464.13 504.91 556.78 411.52 556.78 296.33C556.65 181.19 464.08 87.88 349.85 87.75C235.56 87.75 142.91 181.14 142.91 296.33Z" id="b2nPr1xSwW"></path></defs><g><g><use xlink:href="#cK0rFonZe" opacity="1" fill="#e96245" fill-opacity="1"></use><g><use xlink:href="#cK0rFonZe" opacity="1" fill-opacity="0" stroke="#000000" stroke-width="1" stroke-opacity="0"></use></g></g><g><use xlink:href="#b2nPr1xSwW" opacity="1" fill="#ed816a" fill-opacity="1"></use><g><use xlink:href="#b2nPr1xSwW" opacity="1" fill-opacity="0" stroke="#000000" stroke-width="1" stroke-opacity="0"></use></g></g></g></svg>