<?xml version="1.0" encoding="UTF-8" standalone="no"?> <!-- Created with Vectornator for iOS (http://vectornator.io/) --><!DOCTYPE svg PUBLIC "-//W3C//DTD SVG 1.1//EN" "http://www.w3.org/Graphics/SVG/1.1/DTD/svg11.dtd">
<svg height="100%" style="fill-rule:nonzero;clip-rule:evenodd;stroke-linecap:round;stroke-linejoin:round;" xmlns:xlink="http://www.w3.org/1999/xlink" xmlns="http://www.w3.org/2000/svg" xml:space="preserve" width="100%" xmlns:vectornator="http://vectornator.io" version="1.1" viewBox="0 0 192.215 192.215">
<metadata>
<vectornator:setting key="DimensionsVisible" value="1"/>
<vectornator:setting key="PencilOnly" value="0"/>
<vectornator:setting key="SnapToPoints" value="0"/>
<vectornator:setting key="OutlineMode" value="0"/>
<vectornator:setting key="CMYKEnabledKey" value="0"/>
<vectornator:setting key="RulersVisible" value="1"/>
<vectornator:setting key="SnapToEdges" value="0"/>
<vectornator:setting key="GuidesVisible" value="1"/>
<vectornator:setting key="DisplayWhiteBackground" value="0"/>
<vectornator:setting key="doHistoryDisabled" value="0"/>
<vectornator:setting key="SnapToGuides" value="1"/>
<vectornator:setting key="TimeLapseWatermarkDisabled" value="0"/>
<vectornator:setting key="Units" value="Points"/>
<vectornator:setting key="DynamicGuides" value="0"/>
<vectornator:setting key="IsolateActiveLayer" value="0"/>
<vectornator:setting key="SnapToGrid" value="0"/>
</metadata>
<defs/>
<g id="Untitled" vectornator:layerName="Untitled">
<path d="M188.557+14.652C188.284+14.193+187.826+14.007+187.36+13.996C187.137+13.505+186.69+13.126+185.98+13.137C147.036+13.7+106.905+11.077+68.138+14.231C47.546+15.906+26.926+19.339+6.241+17.651C5.977+17.63+5.892+17.886+5.933+18.101C5.611+18.135+5.284+18.17+4.946+18.213C4.346+17.835+3.524+17.867+3.142+18.489C2.5+18.64+2.068+19.354+2.061+19.97C2.039+21.867+1.995+23.759+1.965+25.656C0.554+37.338+0.831+49.079+1.371+60.835C1.234+71.55+1.201+82.267+1.522+93.018C2.093+112.052-2.237+130.632+1.608+149.427C1.623+150.937+1.619+152.448+1.651+153.956C1.677+155.169+3.003+155.504+3.765+154.986C3.838+155.097+3.947+155.187+4.113+155.215C5.954+155.509+7.811+155.736+9.666+155.97C9.969+156.207+10.293+156.407+10.645+156.535C10.938+156.643+11.226+156.458+11.365+156.2C30.209+158.405+49.715+157.748+69.215+156.53C68.968+158.097+68.686+159.832+68.696+161.464C68.512+161.622+68.434+161.9+68.653+162.133C68.683+162.164+68.716+162.193+68.746+162.225C68.772+162.577+68.784+162.935+68.848+163.269C68.08+163.295+67.315+163.341+66.549+163.388C66.39+163.326+66.227+163.327+66.094+163.411C63.348+163.588+60.602+163.82+57.793+163.684C53.027+163.455+48.589+163.1+44.11+164.931C43.491+164.492+42.394+164.799+42.459+165.723C42.903+169.203+42.947+172.69+42.589+176.181C42.55+177.04+43.329+177.729+44.15+177.742C49.561+177.827+54.981+177.995+60.403+178.18C60.412+178.187+60.422+178.194+60.431+178.201C60.839+178.524+61.289+178.437+61.646+178.222C66.105+178.375+70.568+178.536+75.031+178.687C75.559+178.988+76.087+179.291+76.632+179.515C77.173+179.738+77.531+179.246+77.527+178.77C93.005+179.267+108.487+179.481+123.892+178.246C124.187+178.457+124.478+178.681+124.783+178.851C125.32+179.154+126.072+178.703+125.99+178.079C128.778+177.831+131.564+177.549+134.347+177.192C135.585+177.034+136.086+175.815+135.862+174.894C136.461+175.096+137.129+174.923+137.571+174.306C138.923+172.422+138.04+168.409+138.626+166.183C138.915+165.086+138.09+164.018+136.963+163.999C129.734+163.884+122.532+164.05+115.33+164.665C115.355+164.594+115.434+164.563+115.445+164.481C115.932+161.083+115.568+157.283+115.077+153.804C118.096+153.701+121.12+153.587+124.108+153.558C137.535+153.429+176.814+163.221+186.242+151.603C186.31+151.519+186.311+151.428+186.353+151.341C186.662+151.158+186.83+150.812+186.7+150.436C187.44+150.813+188.514+150.492+188.572+149.384C190.13+119.719+190.832+89.55+190.803+59.841C190.791+47.512+195.174+25.737+188.557+14.652ZM185.98+16.343C186+16.343+186.011+16.333+186.031+16.332C186.727+18.203+187.234+20.273+187.621+22.459C186.538+21.488+185.351+20.621+184.504+19.9C183.31+18.886+181.964+17.585+180.55+16.406C182.358+16.382+184.176+16.382+185.98+16.343ZM177.568+16.441C177.89+16.718+178.211+16.988+178.49+17.247C179.818+18.483+181.196+19.668+182.525+20.905C184.557+22.797+186.25+25.043+188.228+26.946C188.338+28.077+188.43+29.223+188.495+30.392C186.73+28.778+184.695+27.369+182.885+26.014C178.795+22.956+174.65+20.002+170.914+16.518C173.138+16.509+175.35+16.463+177.568+16.441ZM155.545+16.511C159.473+20.872+163.583+25.087+167.763+29.246C166.004+28.969+164.243+28.745+162.475+28.599C162.065+27.759+161.277+27.103+160.625+26.464C159.271+25.138+157.918+23.812+156.563+22.486C154.533+20.495+152.555+18.555+150.292+16.909C149.881+16.61+149.289+17.202+149.588+17.613C151.234+19.877+153.174+21.854+155.165+23.885C156.385+25.131+157.605+26.377+158.827+27.622C159.059+27.86+159.299+28.128+159.543+28.399C158.673+28.356+157.804+28.312+156.933+28.288C156.903+28.084+156.879+27.875+156.691+27.688C152.672+23.701+148.251+20.07+143.86+16.462C147.76+16.49+151.65+16.495+155.545+16.511ZM141.694+16.452C145.518+20.642+149.938+24.319+154.053+28.225C152.466+28.218+150.878+28.226+149.289+28.257C147.028+25.85+144.336+23.786+141.865+21.599C139.886+19.848+137.897+18.106+135.861+16.42C137.81+16.434+139.749+16.439+141.694+16.452ZM133.853+16.409C137.805+20.374+141.771+24.771+146.15+28.331C144.387+28.379+142.624+28.43+140.859+28.473C141.107+28.167+141.204+27.7+141.043+27.338C139.886+24.731+135.216+22.519+132.97+20.985C131.146+19.739+129.315+18.498+127.525+17.203C127.179+16.953+126.736+16.666+126.285+16.364C128.806+16.374+131.329+16.393+133.853+16.409ZM123.906+16.358C124.948+18.106+127.686+19.725+128.781+20.552C130.829+22.099+132.917+23.593+135.001+25.09C136.465+26.142+137.933+27.701+139.576+28.501C139.139+28.51+138.704+28.523+138.267+28.531C136.243+28.564+134.219+28.508+132.194+28.506C132.226+28.229+132.138+27.94+131.848+27.695C126.631+23.291+120.496+20.281+114.963+16.334C117.943+16.327+120.925+16.349+123.906+16.358ZM112.917+16.337C112.944+16.389+112.935+16.45+112.982+16.495C117.914+21.166+124.056+24.268+129.334+28.495C126.719+28.477+124.104+28.509+121.49+28.463C119.799+25.793+116.55+23.588+114.194+21.738C111.824+19.875+109.385+18.07+106.902+16.347C108.905+16.327+110.912+16.346+112.917+16.337ZM99.618+16.396C101.454+18.928+103.852+21.055+106.293+22.976C108.366+24.608+111.383+27.727+114.085+28.023C114.772+28.098+115.117+27.243+114.832+26.721C113.682+24.618+110.219+23.205+108.295+21.841C105.929+20.163+103.668+18.338+101.533+16.374C102.859+16.353+104.19+16.368+105.518+16.353C108.047+18.51+110.575+20.653+112.995+22.937C114.732+24.577+116.394+26.643+118.202+28.398C114.937+28.332+111.674+28.267+108.41+28.204C107.699+25.886+104.17+24.462+102.358+23.158C99.488+21.091+96.659+18.906+94.085+16.461C95.925+16.412+97.775+16.43+99.618+16.396ZM91.982+16.515C94.369+19.133+97.154+21.344+99.916+23.55C101.358+24.703+102.782+25.865+104.173+27.082C104.561+27.422+104.948+27.799+105.349+28.156C103.719+28.129+102.089+28.095+100.458+28.079C99.488+25.876+96.665+24.304+94.857+22.838C92.471+20.901+90.263+18.839+88.169+16.615C89.438+16.569+90.712+16.553+91.982+16.515ZM86.231+16.687C87.964+19.383+90.417+21.604+92.771+23.741C94.133+24.977+95.682+26.77+97.341+28.05C96.73+28.048+96.12+28.032+95.51+28.033C95.451+27.916+95.371+27.801+95.247+27.697C90.642+23.785+85.18+21.189+80.99+16.883C82.733+16.796+84.484+16.755+86.231+16.687ZM70.958+17.426C70.971+17.557+71.006+17.692+71.142+17.814C73.527+19.949+75.925+22.066+78.382+24.119C79.9+25.387+81.919+27.847+84.02+27.943C84.631+27.971+84.972+27.262+84.697+26.764C83.673+24.917+80.623+23.683+78.973+22.401C76.827+20.734+74.731+19.004+72.596+17.323C74.762+17.176+76.94+17.097+79.112+16.981C82.57+21.599+87.726+24.54+92.247+28.067C90.222+28.089+88.199+28.065+86.173+28.13C84.417+28.187+82.667+28.293+80.918+28.404C76.449+24.615+71.455+21.568+67.071+17.674C68.361+17.568+69.664+17.518+70.958+17.426ZM60.836+18.159C62.315+18.013+63.808+17.94+65.291+17.812C68.81+21.933+73.224+25.264+77.482+28.649C76.145+28.754+74.808+28.853+73.473+28.973C73.835+28.482+73.852+27.726+73.184+27.259C70.894+25.656+68.426+24.312+66.129+22.708C64.443+21.53+61.882+20.049+60.201+18.236C60.408+18.212+60.662+18.176+60.836+18.159ZM59.108+18.374C60.08+20.186+61.721+21.689+63.217+23.023C65.762+25.294+68.708+27.52+71.734+29.138C69.71+29.329+67.684+29.507+65.663+29.716C64.204+27.876+61.453+26.6+59.593+25.248C56.994+23.36+54.465+21.337+51.824+19.505C54.783+19.035+57.289+18.627+59.108+18.374ZM50.379+19.733C52.665+22.081+55.263+24.178+57.752+26.305C58.916+27.3+60.489+28.936+62.118+30.082C61.298+30.167+60.478+30.253+59.657+30.336C59.187+29.563+58.523+28.97+57.805+28.356C56.265+27.039+54.706+25.744+53.15+24.446C51.799+23.319+50.443+22.199+49.084+21.082C48.687+20.755+48.264+20.387+47.799+20.135C48.688+19.999+49.543+19.865+50.379+19.733ZM46.754+20.295C46.888+20.901+47.303+21.366+47.742+21.831C49.037+23.202+50.484+24.447+51.868+25.727C53.232+26.989+54.594+28.252+55.948+29.525C56.318+29.872+56.68+30.242+57.052+30.597C56.494+30.652+55.937+30.713+55.378+30.765C55.338+30.657+55.325+30.549+55.239+30.445C53.798+28.707+51.835+27.419+50.095+25.976C48.059+24.288+46.112+22.478+44.166+20.677C45.047+20.551+45.91+20.423+46.754+20.295ZM33.589+22.013C37.367+24.887+41.021+27.991+44.91+30.707C46.05+31.503+47.17+29.604+46.002+28.839C42.516+26.558+39.149+24.045+35.64+21.792C37.822+21.545+39.974+21.262+42.077+20.971C44.199+23.191+46.395+25.337+48.629+27.445C49.707+28.462+50.969+30.026+52.389+31.028C47.619+31.436+42.838+31.747+38.025+31.795C38.065+31.497+38.014+31.197+37.735+30.958C34.449+28.143+31.031+25.123+27.423+22.779C26.879+22.426+26.432+23.173+26.781+23.611C27.828+24.925+28.989+26.075+30.237+27.248C31.873+28.785+33.548+30.421+35.347+31.819C34.101+31.795+32.737+31.694+31.328+31.606C27.085+29.263+23.818+25.442+19.804+22.737C24.021+22.821+28.799+22.506+33.589+22.013ZM13.972+22.295C15.243+22.486+16.651+22.592+18.115+22.663C18.126+22.772+18.164+22.881+18.275+22.967C20.994+25.08+23.378+27.593+25.87+29.96C26.318+30.385+26.869+30.971+27.478+31.532C26.841+31.552+26.202+31.569+25.589+31.65C21.391+28.727+17.4+25.561+13.326+22.48C13.541+22.419+13.747+22.335+13.972+22.295ZM5.855+32.756C9.24+35.409+12.627+38.071+16.129+40.549C17.321+41.393+18.43+39.443+17.266+38.604C13.701+36.034+9.991+33.644+6.297+31.246C6.859+29.521+7.528+28.002+8.306+26.709C10.364+29.61+13.866+31.376+16.782+33.36C17.979+34.175+19.15+32.191+17.919+31.415C15.059+29.613+11.41+28.078+9.22+25.371C9.946+24.443+10.767+23.716+11.673+23.177C13.763+25.568+16.214+27.681+18.62+29.713C19.665+30.596+20.896+31.754+22.227+32.65C22.075+32.786+22.016+32.992+22.047+33.188C22.071+33.343+22.096+33.498+22.12+33.654C22.18+34.038+22.554+34.311+22.892+34.426C41.783+40.84+66.832+32.973+86.17+31.92C101.045+31.11+116.008+31.643+130.885+32.081C143.789+32.46+157.099+30.778+169.827+33.43C171.933+42.249+171.883+50.935+171.092+59.664C171.045+59.774+171.037+59.876+171.066+59.988C170.525+65.811+169.671+71.654+168.879+77.57C166.81+93.032+166.791+109.211+166.476+124.809C142.817+128.609+116.503+123.781+92.514+124.153C68.484+124.525+43.426+121.86+19.724+126.318C19.72+126.275+19.752+126.253+19.743+126.207C17.149+112.867+18.932+99.452+20.313+86.077C22.105+68.725+21.735+51.116+21.643+33.695C21.632+31.53+18.299+31.531+18.286+33.695C18.259+38.123+18.186+42.555+18.129+46.986C16.418+45.746+14.383+44.765+12.696+43.575C9.946+41.635+7.346+39.481+4.83+37.247C5.116+35.648+5.465+34.164+5.855+32.756ZM168.891+125.303C169.218+124.025+169.442+122.725+169.697+121.431C175.089+126.028+180.443+130.424+185.296+135.689C185.4+135.802+185.533+135.804+185.657+135.848C185.67+137.322+185.664+138.794+185.695+140.269C184.021+138.255+181.591+136.52+179.862+135.146C176.456+132.434+172.896+129.891+169.27+127.474C169.612+126.802+169.467+125.902+168.891+125.303ZM185.631+133.019C181.469+127.946+175.392+124.094+169.902+120.448C170.201+118.83+170.425+117.196+170.634+115.558C172.839+117.443+175.167+119.203+177.478+120.931C180.115+122.902+182.809+125.567+185.718+127.246C185.695+129.171+185.628+131.094+185.631+133.019ZM180.266+120.773C177.055+118.613+173.932+116.367+170.826+114.072C171.056+112.03+171.219+109.973+171.354+107.911C174.02+110.038+176.819+112.018+179.527+114.088C181.076+115.271+183.735+118.264+185.928+118.119C185.873+120.228+185.796+122.337+185.761+124.446C184.025+123.064+181.967+121.919+180.266+120.773ZM97.871+149.579C95.475+144.717+89.865+140.495+85.827+137.034C81.84+133.618+77.556+130.285+72.969+127.628C75.275+127.672+77.573+127.699+79.876+127.738C84.025+131.323+88.084+134.994+92.072+138.759C96.064+142.528+99.72+146.902+103.885+150.488C101.819+150.555+99.752+150.574+97.686+150.654C97.956+150.415+98.092+150.028+97.871+149.579ZM84.206+147.306C81.483+144.9+78.938+142.279+76.378+139.703C72.198+135.5+67.995+131.107+63.283+127.457C65.554+127.49+67.819+127.535+70.089+127.577C75.176+130.819+79.873+134.445+84.337+138.525C88.48+142.312+92.053+147.271+96.454+150.673C96.478+150.691+96.504+150.684+96.528+150.699C96.37+150.705+96.211+150.713+96.052+150.719C96.04+150.688+96.02+150.658+96.008+150.627C95.903+150.362+95.5+150.462+95.569+150.737C93.298+150.824+91.027+150.906+88.755+151.009C87.481+149.587+85.622+148.558+84.206+147.306ZM84.553+151.196C82.969+151.272+81.386+151.328+79.802+151.407C79.814+151.223+79.811+151.033+79.667+150.83C73.14+141.642+62.831+133.142+52.857+127.363C55.677+127.363+58.5+127.403+61.323+127.439C66.542+132.007+71.079+137.295+75.845+142.317C77.745+144.318+81.149+148.803+84.553+151.196ZM107.09+154.172C107.117+154.227+107.112+154.289+107.169+154.337C109.23+156.046+110.835+158.004+112.58+159.939C112.559+160.668+112.501+161.404+112.528+162.12C109.704+159.258+106.707+156.554+103.359+154.368C104.606+154.297+105.844+154.242+107.09+154.172ZM108.634+154.091C110.12+154.011+111.613+153.912+113.087+153.857C112.917+155.059+112.778+156.303+112.673+157.55C111.443+156.262+110.043+155.114+108.634+154.091ZM106.49+150.42C106.461+150.342+106.494+150.274+106.438+150.192C103.413+145.723+98.878+142.055+94.931+138.421C90.842+134.656+86.522+131.136+82.093+127.775C84.723+127.814+87.327+127.782+89.949+127.798C94.007+131.436+98.123+135.006+102.102+138.735C106.022+142.409+109.517+146.608+113.458+150.234C111.135+150.288+108.812+150.353+106.49+150.42ZM4.566+38.808C6.726+41.077+9.043+43.185+11.459+45.18C13.341+46.735+15.665+48.984+18.1+49.62C18.071+51.582+18.067+53.542+18.031+55.504C17.539+55.194+17.024+54.912+16.555+54.593C14.879+53.455+13.329+52.136+11.768+50.85C9.042+48.604+6.468+46.187+3.961+43.702C4.118+42.003+4.328+40.383+4.566+38.808ZM3.513+50.887C3.578+49.014+3.678+47.173+3.815+45.379C5.882+47.778+8.084+50.071+10.36+52.258C12.072+53.904+15.253+57.568+17.985+58.066C17.956+59.443+17.945+60.821+17.909+62.198C15.964+60.468+13.639+58.896+11.766+57.394C9.189+55.327+6.46+53.345+3.539+51.769C3.533+51.475+3.517+51.181+3.513+50.887ZM3.732+58.374C3.68+56.647+3.629+54.921+3.58+53.194C6.572+55.279+9.237+57.742+11.908+60.257C13.629+61.877+15.616+64.178+17.833+65.412C17.794+66.633+17.795+67.856+17.747+69.076C17.457+68.909+17.168+68.745+16.904+68.57C15.101+67.371+13.375+66.033+11.666+64.704C9.969+63.384+8.306+62.014+6.659+60.632C6.505+60.5+4.646+59.098+3.732+58.374ZM3.795+60.512C5.341+62.357+7.946+64.31+8.615+64.898C10.626+66.669+12.692+68.377+14.855+69.957C15.626+70.52+16.61+71.376+17.628+71.667C17.548+73.418+17.492+75.172+17.386+76.922C13.002+73.692+8.101+71.27+4.815+66.715C4.615+66.438+4.247+66.4+3.972+66.519C3.894+64.516+3.862+62.515+3.795+60.512ZM4.025+67.865C6.502+73.174+12.686+76.369+17.202+79.837C17.113+81.104+17.07+82.373+16.963+83.638C15.672+82.264+13.445+81.384+11.917+80.471C9.386+78.958+6.87+77.421+4.345+75.898C4.24+73.222+4.132+70.543+4.025+67.865ZM8.172+109.622C10.395+111.243+12.607+112.823+14.988+114.123C15.022+114.142+15.059+114.127+15.093+114.14C15.176+115.353+15.287+116.564+15.45+117.768C14.453+117.013+13.19+116.409+12.518+115.995C9.893+114.379+7.31+112.714+4.726+111.034C4.735+109.705+4.756+108.378+4.764+107.05C5.792+108.044+7.146+108.872+8.172+109.622ZM4.782+105.297C4.796+103.349+4.814+101.4+4.838+99.451C6.55+100.706+8.245+101.984+9.95+103.252C11.439+104.358+13.156+106.08+15.038+106.461C14.98+108.253+14.938+110.046+14.997+111.827C13.645+110.586+11.869+109.677+10.378+108.716C8.977+107.814+7.571+106.919+6.18+105.999C6.083+105.935+5.394+105.59+4.782+105.297ZM15.126+104.188C13.858+103.141+12.393+102.276+11.027+101.404C9.01+100.117+6.954+98.852+4.851+97.697C4.883+95.959+4.831+94.208+4.824+92.464C6.293+93.627+7.749+94.805+9.251+95.924C10.753+97.042+13.483+99.691+15.534+99.206C15.392+100.866+15.216+102.526+15.126+104.188ZM13.942+96.428C12.671+95.769+11.452+94.997+10.235+94.243C8.424+93.122+6.632+91.969+4.816+90.855C4.8+89.238+4.741+87.613+4.702+85.991C7.889+89.005+12.028+91.864+16.096+93.199C15.952+94.652+15.807+96.087+15.67+97.547C15.193+97.067+14.6+96.769+13.942+96.428ZM11.525+88.622C9.05+87.375+6.773+85.804+4.656+84.023C4.594+81.851+4.49+79.67+4.406+77.494C6.349+78.915+8.294+80.332+10.257+81.726C12.075+83.017+14.41+85.394+16.697+85.6C16.746+85.604+16.782+85.573+16.828+85.568C16.812+85.737+16.809+85.907+16.793+86.075C16.645+87.648+16.485+89.257+16.326+90.847C14.747+90.072+13.09+89.41+11.525+88.622ZM4.289+153.983C4.289+153.973+4.294+153.966+4.294+153.956C4.369+153.386+4.444+152.814+4.519+152.242C4.603+152.136+4.62+151.988+4.57+151.852C4.644+151.293+4.717+150.734+4.79+150.175C4.814+150.097+4.793+150.025+4.775+149.952C5.599+151.051+6.394+152.17+7.27+153.223C7.472+153.466+7.678+153.737+7.886+154.01C6.688+153.993+5.487+154.014+4.289+153.983ZM10.382+154.032C9.889+153.455+9.33+152.921+8.854+152.387C7.463+150.828+6.056+149.282+4.701+147.692C4.759+146.013+4.919+144.33+5.037+142.658C6.594+144.699+8.305+146.6+10.192+148.361C11.93+149.983+14.207+152.586+16.511+153.325C17.106+153.516+17.607+152.809+17.303+152.296C16.1+150.26+13.187+148.687+11.381+147.173C9.183+145.33+7.075+143.347+5.213+141.159C5.412+139.835+5.7+138.223+5.769+136.723C10.937+143.331+17.882+149.442+24.759+153.945C19.966+154.036+15.173+154.078+10.382+154.032ZM27.429+153.873C27.418+153.667+27.354+153.458+27.178+153.282C20.376+146.473+12.245+141.225+5.504+134.272C5.398+133.897+5.32+133.496+5.118+133.206C4.954+132.971+4.741+132.857+4.52+132.801C4.526+131.378+4.554+129.954+4.561+128.53C12.652+138.126+22.813+146.161+32.796+153.673C31.006+153.728+29.216+153.831+27.429+153.873ZM35.463+153.572C35.558+153.108+35.436+152.589+34.97+152.233C24.364+144.178+14.561+135.364+4.578+126.599C4.587+124.904+4.617+123.21+4.626+121.516C17.454+130.989+27.363+145.152+40.96+153.329C39.128+153.404+37.295+153.509+35.463+153.572ZM43.879+153.2C43.865+152.98+43.786+152.759+43.575+152.569C31.187+141.507+19.244+128.044+4.642+119.858C4.656+117.441+4.696+115.025+4.711+112.608C6.53+114.171+8.532+115.549+10.44+116.982C11.594+117.849+14.219+120.84+15.956+120.772C16.361+122.802+16.859+124.819+17.572+126.804C17.596+126.87+17.656+126.88+17.687+126.938C17.055+127.707+17.472+129.277+18.658+129.125C20.448+128.896+22.254+128.756+24.054+128.576C24.056+128.588+24.042+128.593+24.045+128.603C25.201+133.72+32.878+138.715+36.567+141.931C40.138+145.044+45.519+150.723+50.571+152.873C48.34+152.98+46.11+153.104+43.879+153.2ZM54.31+152.69C54.34+152.43+54.291+152.161+54.029+151.921C49.327+147.608+43.267+144.36+38.334+140.164C34.196+136.644+30.161+131.276+25.46+128.433C27.89+128.209+30.334+128.056+32.779+127.91C37.086+132.336+41.673+136.455+46.38+140.453C51.129+144.487+56.375+149.366+61.981+152.147C62.908+152.607+63.887+151.461+63.111+150.682C58.67+146.226+52.918+142.739+47.968+138.864C43.465+135.341+39.132+131.607+34.899+127.766C39.956+127.506+45.039+127.398+50.133+127.369C60.618+134.145+68.118+143.54+77.458+151.518C75.329+151.626+73.201+151.71+71.072+151.822C71.256+151.468+71.253+150.996+70.954+150.683C66.345+145.851+60.416+141.756+55.414+137.276C52.028+134.244+48.129+129.388+43.543+128.301C43.378+128.262+43.252+128.463+43.376+128.588C47.435+132.681+51.712+136.618+55.908+140.609C59.751+144.263+64.304+149.672+69.338+151.91C64.328+152.173+59.317+152.439+54.31+152.69ZM44.882+166.516C45.795+166.537+46.706+166.588+47.618+166.612C47.622+166.622+47.615+166.63+47.62+166.639C49.31+170.263+52.869+172.843+56.318+175.237C50.912+174.032+46.584+171.521+44.882+166.516ZM60.756+175.929C56.8+172.964+51.846+170.653+48.94+166.658C50.987+166.718+53.033+166.803+55.079+166.873C55.004+166.961+54.972+167.091+55.075+167.214C56.961+169.473+59.203+171.425+61.464+173.299C62.329+174.016+63.554+175.226+64.863+176.175C63.473+176.132+62.094+176.062+60.756+175.929ZM68.676+176.205C66.93+174.593+64.353+173.477+62.421+172.059C60.108+170.361+57.751+168.671+55.504+166.889C56.847+166.937+58.191+166.964+59.534+167.031C60.075+167.058+60.656+167.081+61.223+167.109C63.445+169.628+65.989+171.826+68.61+173.918C69.49+174.62+70.409+175.38+71.345+176.128C70.456+176.153+69.57+176.194+68.676+176.205ZM74.644+176.006C73.231+175.041+71.71+174.178+70.372+173.286C67.636+171.463+65.038+169.457+62.684+167.169C64.495+167.218+66.34+167.13+68.079+166.759C69.403+168.273+70.869+169.672+72.328+171.039C73.956+172.566+75.693+174.475+77.599+175.855C76.628+175.905+75.645+175.957+74.644+176.006ZM80.019+175.735C78.851+173.71+76.29+172.239+74.524+170.794C72.828+169.406+71.072+167.973+69.455+166.423C70.19+166.176+70.895+165.861+71.551+165.444C71.651+165.381+71.702+165.289+71.775+165.21C73.959+167.425+76.119+169.662+78.418+171.763C79.577+172.821+81.011+174.341+82.563+175.635C81.729+175.664+80.897+175.693+80.019+175.735ZM86.631+175.577C86.585+175.576+86.53+175.579+86.484+175.578C84.51+173.659+81.558+172.099+79.638+170.54C77.02+168.418+74.493+166.18+71.998+163.908C71.927+163.752+71.829+163.606+71.695+163.492C71.955+162.34+71.934+161.05+71.811+159.752C76.872+165.549+83.068+170.766+89.211+175.607C88.351+175.593+87.494+175.596+86.631+175.577ZM92.787+175.649C85.858+169.939+78.715+164.294+71.702+158.825C71.596+157.996+71.473+157.176+71.353+156.401C72.541+156.324+73.721+156.24+74.909+156.161C78.422+159.498+81.903+162.863+85.357+166.264C88.646+169.502+92.266+173.156+96.319+175.658C95.141+175.65+93.965+175.663+92.787+175.649ZM99.785+175.665C99.748+175.617+99.762+175.565+99.712+175.519C95.576+171.784+90.935+168.596+86.768+164.852C83.493+161.911+80.285+158.896+76.952+156.024C79.133+155.878+81.3+155.734+83.477+155.586C86.595+159.865+91.552+163.553+95.284+167.188C97.715+169.556+100.54+173.065+103.603+175.626C102.33+175.638+101.059+175.664+99.785+175.665ZM107.726+175.581C104.617+171.985+100.075+168.893+96.701+165.77C93.375+162.69+89.77+158.162+85.78+155.43C87.465+155.315+89.14+155.214+90.821+155.102C94.61+159.248+98.525+163.3+102.415+167.346C104.576+169.594+107.319+173.269+110.287+175.48C109.433+175.504+108.58+175.565+107.726+175.581ZM113.946+175.337C111.544+171.838+106.823+168.875+103.784+165.977C99.985+162.354+96.29+158.602+92.471+154.996C94.074+154.892+95.669+154.8+97.269+154.698C99.38+158.57+102.477+161.816+105.659+164.966C108.279+167.56+111.038+170.017+113.748+172.516C114.63+173.328+115.51+174.298+116.432+175.208C115.603+175.244+114.774+175.306+113.946+175.337ZM134.437+171.852C133.991+171.432+133.526+171.04+133.177+170.708C131.903+169.503+130.548+168.404+129.166+167.333C131.049+167.371+132.93+167.453+134.816+167.437C134.542+168.845+134.354+170.451+134.437+171.852ZM127.26+167.299C127.293+167.361+127.287+167.436+127.351+167.487C128.841+168.707+130.216+170.041+131.541+171.436C132.171+172.1+132.737+173.142+133.426+173.942C133.161+173.963+132.897+173.984+132.632+174.012C131.52+172.824+129.804+172.016+128.508+171.073C126.871+169.883+125.336+168.564+123.812+167.234C124.961+167.281+126.111+167.266+127.26+167.299ZM121.993+167.142C122.012+167.258+122.022+167.375+122.123+167.488C123.594+169.123+125.225+170.601+126.892+172.033C127.673+172.703+128.582+173.56+129.549+174.285C127.778+174.439+126.006+174.637+124.235+174.754C122.196+171.893+119.208+169.218+117.047+166.889C118.694+167.008+120.344+167.061+121.993+167.142ZM115.236+168.144C116.894+170.055+118.619+172.702+120.526+174.991C120.352+175.001+120.179+175.015+120.005+175.025C117.594+171.329+112.267+168.129+109.222+165.453C105.679+162.34+101.227+158.771+98.267+154.638C99.728+154.548+101.17+154.492+102.627+154.409C102.532+154.564+102.511+154.765+102.673+154.914C106.412+158.356+109.846+162.083+113.206+165.885C113.246+166.229+113.468+166.524+113.885+166.641C114.33+167.145+114.794+167.634+115.236+168.144ZM116.046+150.163C115.946+150.164+115.847+150.171+115.748+150.172C115.779+149.966+115.769+149.745+115.627+149.516C112.688+144.753+107.813+140.851+103.683+137.153C100.002+133.858+96.126+130.745+92.138+127.804C94.604+127.81+97.087+127.86+99.538+127.825C102.796+131.455+106.083+135.061+109.377+138.658C112.884+142.486+116.4+146.732+120.377+150.16C118.933+150.163+117.496+150.15+116.046+150.163ZM123.49+150.158L123.49+150.158C117.258+142.087+109.065+134.745+101.344+127.843C103.196+127.833+105.07+127.896+106.94+127.945C113.022+132.568+118.401+138.053+123.891+143.345C126.154+145.526+128.632+148.186+131.354+150.319C128.734+150.266+126.12+150.17+123.49+150.158ZM135.579+150.404C131.243+146.741+126.887+143.209+122.765+139.215C118.547+135.125+114.224+131.153+109.283+127.987C112.154+128.091+115.047+128.253+117.944+128.429C122.618+132.698+127.089+137.157+131.596+141.605C134.415+144.387+137.969+148.355+141.812+150.647C139.734+150.561+137.657+150.467+135.579+150.404ZM154.39+151.377C154.29+151.368+154.192+151.365+154.093+151.357C154.128+151.083+154.053+150.802+153.719+150.628C149.074+148.184+144.725+142.991+140.88+139.468C137.228+136.12+133.63+131.897+129.306+129.451C128.986+129.27+128.598+129.637+128.796+129.962C131.512+134.441+136.275+138.08+140.064+141.653C142.853+144.283+145.668+146.892+148.576+149.392C149.134+149.871+149.831+150.557+150.59+151.132C149.1+151.035+147.607+150.924+146.119+150.845C146.093+150.81+146.098+150.768+146.065+150.735C141.775+146.483+136.331+143.051+131.802+138.936C128.006+135.486+124.316+131.822+120.313+128.581C125.715+128.931+131.144+129.319+136.557+129.59C136.48+129.787+136.496+130.03+136.717+130.193C145.372+136.491+152.903+143.736+159.767+151.871C157.924+151.693+156.109+151.515+154.39+151.377ZM162.902+152.148C156.051+143.303+147.243+135.415+137.646+129.647C140.607+129.785+143.557+129.859+146.5+129.884C150.551+134.835+155.187+139.347+159.703+143.866C162.524+146.69+165.308+149.71+168.274+152.469C166.478+152.413+164.678+152.298+162.902+152.148ZM171.708+152.479C168.506+148.85+164.735+145.611+161.278+142.289C157.006+138.184+152.843+133.952+148.552+129.866C150.527+129.859+152.494+129.806+154.455+129.724C158.844+133.862+162.694+138.589+166.803+142.992C168.964+145.307+173.395+151.345+177.212+151.945C175.417+152.242+173.581+152.431+171.708+152.479ZM178.699+151.689C178.884+151.392+178.862+150.99+178.496+150.73C170.143+144.824+164.236+136.035+156.308+129.624C158.72+129.488+161.113+129.258+163.495+128.965C163.447+129.042+163.381+129.112+163.407+129.218C164.42+133.295+170.346+137.394+173.237+140.17C176.443+143.248+179.891+147.274+183.65+150.02C182.071+150.743+180.425+151.315+178.699+151.689ZM175.537+139.627C173.174+137.514+170.837+135.373+168.557+133.172C167.144+131.807+165.779+129.858+164.057+128.884C165.428+128.706+166.801+128.539+168.158+128.292C171.474+130.612+174.716+133.039+177.771+135.697C180.655+138.206+183.022+141.27+185.816+143.805C185.877+145.637+185.91+147.469+186.004+149.302C183.394+145.617+178.782+142.527+175.537+139.627ZM185.973+116.42C181.129+113.237+176.547+109.351+171.434+106.537C171.54+104.706+171.594+102.864+171.659+101.024C173.859+102.601+176.05+104.191+178.185+105.865C180.438+107.631+183.006+110.773+185.757+111.633C185.893+111.676+186.012+111.649+186.131+111.627C186.079+113.224+186.017+114.82+185.973+116.42ZM186.191+109.75C184.588+107.588+181.321+105.912+179.266+104.463C176.802+102.724+174.291+101.015+171.722+99.415C171.765+98.023+171.8+96.629+171.837+95.235C174.177+96.746+176.474+98.311+178.704+100.006C180.81+101.607+183.667+105.007+186.335+105.639C186.288+107.009+186.237+108.381+186.191+109.75ZM186.412+103.475C184.798+101.72+182.011+100.319+180.29+99.119C177.596+97.24+174.823+95.237+171.881+93.683C171.929+91.885+171.981+90.089+172.045+88.296C176.755+91.94+181.242+95.868+186.08+99.348C186.237+99.461+186.393+99.513+186.546+99.53C186.5+100.845+186.46+102.159+186.412+103.475ZM186.631+97.074C181.704+93.897+176.982+90.419+172.093+87.186C172.181+84.934+172.296+82.688+172.453+80.453C174.919+82.509+177.533+84.373+180.177+86.194C182.241+87.616+184.497+89.85+186.826+90.991C186.76+93.018+186.704+95.047+186.631+97.074ZM186.912+88.379C185.535+87.391+183.862+86.594+182.597+85.814C179.202+83.721+175.825+81.491+172.73+78.972C172.687+78.937+172.638+78.953+172.593+78.93C172.72+77.366+172.876+75.81+173.056+74.259C174.93+76.668+178.032+78.682+180.176+80.419C181.799+81.733+184.48+84.51+186.988+85.626C186.96+86.543+186.94+87.461+186.912+88.379ZM187.066+82.766C185.147+81.49+183.105+80.327+181.284+78.983C178.529+76.952+175.979+74.602+173.254+72.565C173.432+71.241+173.635+69.873+173.84+68.489C176.17+70.517+178.55+72.489+180.926+74.462C182.816+76.031+184.871+78.235+187.125+79.389C187.096+80.514+187.098+81.641+187.066+82.766ZM187.17+76.697C185.557+75.369+183.505+74.264+181.956+73.126C179.276+71.158+176.659+69.109+174.049+67.051C174.242+65.754+174.436+64.436+174.622+63.106C178.587+66.505+182.66+70.099+187.246+72.286C187.215+73.756+187.2+75.227+187.17+76.697ZM187.321+67.681C187.32+68.46+187.292+69.236+187.282+70.015C183.123+67.16+178.967+64.316+174.84+61.409C175.006+60.148+175.154+58.877+175.29+57.603C177.063+58.949+178.833+60.302+180.624+61.622C182.575+63.059+184.949+65.197+187.354+66.145C187.346+66.651+187.323+67.195+187.321+67.681ZM187.404+63.804C185.715+62.737+183.782+61.865+182.163+60.847C179.876+59.409+177.648+57.885+175.402+56.388C175.515+55.192+175.565+53.997+175.631+52.802C177.201+54.235+178.813+55.624+180.464+56.963C182.64+58.727+184.932+60.703+187.506+61.841C187.476+62.482+187.428+63.185+187.404+63.804ZM187.606+59.883C185.664+58.364+183.44+57.125+181.428+55.713C179.423+54.306+177.565+52.733+175.737+51.121C175.786+49.634+175.778+48.155+175.717+46.69C178.68+50.213+182.441+52.944+185.858+56.038C187.069+57.134+188.552+55.071+187.187+54.316C182.801+51.89+178.93+48.772+175.586+45.077C175.32+41.526+174.699+38.073+173.414+34.867C178.307+39.672+183.206+44.468+187.902+49.418C187.996+49.516+188.113+49.511+188.219+49.556C188.006+53.162+187.786+56.595+187.606+59.883ZM163.32+17.792C167.46+22.279+172.062+26.332+176.562+30.449C180.494+34.046+184.286+38.38+188.585+41.575C188.527+43.308+188.457+45.042+188.365+46.766C180.211+35.244+168.27+25.688+157.496+16.519C161.465+16.532+165.428+16.53+169.387+16.518C172.426+20.05+176.102+22.915+179.733+25.807C182.894+28.325+185.641+31.284+188.639+33.931C188.667+35.426+188.694+36.922+188.671+38.445C186.001+35.289+182.397+32.595+179.392+30.041C174.288+25.704+169.184+21.386+164.198+16.916C163.603+16.384+162.776+17.203+163.32+17.792Z" opacity="1" fill="#527689"/>
</g>
</svg>
