<?xml version="1.0" encoding="UTF-8" standalone="no"?>
<!DOCTYPE svg PUBLIC "-//W3C//DTD SVG 1.1//EN" "http://www.w3.org/Graphics/SVG/1.1/DTD/svg11.dtd">
<svg version="1.1" xmlns="http://www.w3.org/2000/svg" xmlns:xlink="http://www.w3.org/1999/xlink" preserveAspectRatio="xMidYMid meet" viewBox="0 0 640 640" width="640" height="640"><defs><path d="M35.98 2.22L89.66 562.77L331.3 636.69L572.94 562.77L626.62 2.22L35.98 2.22ZM517.57 115.52L510.18 182.5L332.84 252.32L332.38 252.47L503.88 252.47L484.19 460.09L333.14 500.73L181.18 459.38L171.33 354.72L246.55 354.72L251.47 408.96L332.38 427.8L416.51 405.99L422.2 318.75L166.41 318.04L166.41 317.9L166.1 318.04L160.57 252.47L332.99 186.33L342.99 182.5L153.95 182.5L145.03 115.52L517.57 115.52Z" id="aqbmqjCsJ"></path></defs><g><g><use xlink:href="#aqbmqjCsJ" opacity="1" fill="#0a1a29" fill-opacity="1"></use><g><use xlink:href="#aqbmqjCsJ" opacity="1" fill-opacity="0" stroke="#000000" stroke-width="0.25" stroke-opacity="0"></use></g></g></g></svg>