<?xml version="1.0" encoding="UTF-8" standalone="no"?>
<!DOCTYPE svg PUBLIC "-//W3C//DTD SVG 1.1//EN" "http://www.w3.org/Graphics/SVG/1.1/DTD/svg11.dtd">
<svg version="1.1" xmlns="http://www.w3.org/2000/svg" xmlns:xlink="http://www.w3.org/1999/xlink" preserveAspectRatio="xMidYMid meet" viewBox="0 0 640 640" width="640" height="640"><defs><path d="M113.79 40.34L563.45 40.34L563.45 553.45L113.79 553.45L113.79 40.34Z" id="ea4DyM5QlT"></path><path d="M35.98 2.76L89.66 563.31L331.3 637.24L572.94 563.31L626.62 2.76L35.98 2.76ZM517.57 116.06L510.18 183.05L332.84 252.87L332.38 253.01L503.88 253.01L484.19 460.63L333.14 501.28L181.18 459.92L171.33 355.26L246.55 355.26L251.47 409.51L332.38 428.34L416.51 406.53L422.2 319.29L166.41 318.58L166.41 318.44L166.1 318.58L160.57 253.01L332.99 186.87L342.99 183.05L153.95 183.05L145.03 116.06L517.57 116.06Z" id="a21XcL69Hl"></path><linearGradient id="gradientacFpqkDdd" gradientUnits="userSpaceOnUse" x1="331.3" y1="2.76" x2="331.3" y2="637.24"><stop style="stop-color: #6b4f7a;stop-opacity: 1" offset="0%"></stop><stop style="stop-color: #010000;stop-opacity: 1" offset="100%"></stop></linearGradient></defs><g><g><g><use xlink:href="#ea4DyM5QlT" opacity="1" fill="#f5f5fb" fill-opacity="1"></use></g><g><use xlink:href="#a21XcL69Hl" opacity="1" fill="url(#gradientacFpqkDdd)"></use><g><use xlink:href="#a21XcL69Hl" opacity="1" fill-opacity="0" stroke="#000000" stroke-width="0.25" stroke-opacity="0"></use></g></g></g></g></svg>