<?xml version="1.0" encoding="UTF-8" standalone="no"?> <!-- Created with Vectornator for iOS (http://vectornator.io/) --><!DOCTYPE svg PUBLIC "-//W3C//DTD SVG 1.1//EN" "http://www.w3.org/Graphics/SVG/1.1/DTD/svg11.dtd">
<svg height="100%" style="fill-rule:nonzero;clip-rule:evenodd;stroke-linecap:round;stroke-linejoin:round;" xmlns:xlink="http://www.w3.org/1999/xlink" xmlns="http://www.w3.org/2000/svg" xml:space="preserve" width="100%" xmlns:vectornator="http://vectornator.io" version="1.1" viewBox="0 0 640 640">
<metadata>
<vectornator:setting key="DimensionsVisible" value="1"/>
<vectornator:setting key="PencilOnly" value="0"/>
<vectornator:setting key="SnapToPoints" value="0"/>
<vectornator:setting key="OutlineMode" value="0"/>
<vectornator:setting key="CMYKEnabledKey" value="0"/>
<vectornator:setting key="RulersVisible" value="1"/>
<vectornator:setting key="SnapToEdges" value="0"/>
<vectornator:setting key="GuidesVisible" value="1"/>
<vectornator:setting key="DisplayWhiteBackground" value="0"/>
<vectornator:setting key="doHistoryDisabled" value="0"/>
<vectornator:setting key="SnapToGuides" value="1"/>
<vectornator:setting key="TimeLapseWatermarkDisabled" value="0"/>
<vectornator:setting key="Units" value="Points"/>
<vectornator:setting key="DynamicGuides" value="0"/>
<vectornator:setting key="IsolateActiveLayer" value="0"/>
<vectornator:setting key="SnapToGrid" value="0"/>
</metadata>
<defs>
<linearGradient y1="2.76" id="LinearGradient" x1="331.3" y2="637.24" x2="331.3" gradientUnits="userSpaceOnUse" gradientTransform="matrix(1 0 0 1 0 0)">
<stop stop-color="#6b4f7a" offset="0"/>
<stop stop-color="#010000" offset="1"/>
</linearGradient>
</defs>
<g id="Untitled" vectornator:layerName="Untitled" visibility="hidden">
<g opacity="1">
<path d="M113.79+40.34L563.45+40.34L563.45+553.45L113.79+553.45L113.79+40.34Z" opacity="1" fill="#f5f5fb"/>
<g opacity="1">
<path d="M35.98+2.76L89.66+563.31L331.3+637.24L572.94+563.31L626.62+2.76L35.98+2.76ZM517.57+116.06L510.18+183.05L332.84+252.87L332.38+253.01L503.88+253.01L484.19+460.63L333.14+501.28L181.18+459.92L171.33+355.26L246.55+355.26L251.47+409.51L332.38+428.34L416.51+406.53L422.2+319.29L166.41+318.58L166.41+318.44L166.1+318.58L160.57+253.01L332.99+186.87L342.99+183.05L153.95+183.05L145.03+116.06L517.57+116.06Z" opacity="1" fill="url(#LinearGradient)"/>
<path stroke="#000000" stroke-opacity="0" stroke-width="0.25" d="M35.98+2.76L89.66+563.31L331.3+637.24L572.94+563.31L626.62+2.76L35.98+2.76ZM517.57+116.06L510.18+183.05L332.84+252.87L332.38+253.01L503.88+253.01L484.19+460.63L333.14+501.28L181.18+459.92L171.33+355.26L246.55+355.26L251.47+409.51L332.38+428.34L416.51+406.53L422.2+319.29L166.41+318.58L166.41+318.44L166.1+318.58L160.57+253.01L332.99+186.87L342.99+183.05L153.95+183.05L145.03+116.06L517.57+116.06Z" fill="#000000" stroke-linecap="butt" fill-opacity="0" opacity="1" stroke-linejoin="miter"/>
</g>
</g>
</g>
<g id="Layer 1" vectornator:layerName="Layer 1">
<path d="M21.4419+5.92843C20.6864-7.77239+40.3847-14.5821+48.2383-3.32514C49.873-1.24677+50.94+1.27195+51.2958+3.89211C55.7093+115.184+79.2008+224.833+98.9114+334.118C102.099+357.731+100.704+381.586+101.663+405.312C109.421+443.022+105.672+481.65+105.829+519.837C104.242+532.624+115.05+545.616+109.223+557.941C104.898+566.363+92.3159+568.224+85.7382+561.414C77.9562+552.874+79.4865+539.798+76.3684+529.355C74.7181+487.774+79.8543+445.761+71.5833+404.622C70.7826+381.317+72.1467+357.865+68.7329+334.707C67.6035+325.552+64.0318+316.951+62.6149+307.853C48.1359+207.367+23.333+107.863+21.4419+5.92843L21.4419+5.92843Z" opacity="1" fill="#527689"/>
<path d="M93.0368+568.849C78.7211+565.536+79.0714+542.788+93.4894+539.934C95.9711+539.29+98.6183+539.299+101.095+539.961C168.683+564.653+239.139+581.701+304.673+611.81C310.876+614.582+317.47+616.08+323.933+618.006C326.226+618.958+328.275+620.493+329.833+622.427C340.081+633.958+325.474+652.34+311.742+645.747C309.754+645.311+307.782+644.794+305.842+644.176C302.265+642.975+298.772+641.539+295.208+640.302C289.216+638.069+283.549+635.078+277.661+632.597C217.593+607.352+154.216+591.138+93.0368+568.849L93.0368+568.849Z" opacity="1" fill="#527689"/>
<path d="M319.935+645.22C300.616+646.523+299.963+614.717+319.319+615.226C321.636+615.182+323.953+615.138+326.271+615.094C331.678+614.992+337.085+614.889+342.493+614.786C347.564+614.561+352.625+614.222+357.664+613.597C368.811+611.979+379.383+607.812+389.954+604.096C441.28+585.623+487.733+554.602+540.615+540.506C543.931+539.604+547.222+538.606+550.562+537.796C552.942+537.23+555.341+536.743+557.746+536.3C569.603+530.966+583.795+543.67+578.329+555.864C576.798+559.746+573.562+562.906+569.645+564.344C482.452+579.833+411.911+650.686+319.935+645.22L319.935+645.22Z" opacity="1" fill="#527689"/>
<path d="M603.366+4.19606C602.518-10.725+625.023-16.5346+631.488-3.05625C632.497-1.23383+633.119+0.801106+633.301+2.8761C633.903+135.832+635.859+270.58+602.096+400.238C598.225+422.01+594.582+443.824+589.952+465.454C587.706+477.595+584.428+489.673+584.296+502.098C584.318+508.147+584.308+514.196+584.31+520.246C584.31+523.843+584.31+527.44+584.31+531.037C584.31+533.041+584.31+535.044+584.31+537.048C586.338+553.117+561.504+559.483+555.65+544.353C551.647+526.7+555.312+507.682+555.102+489.714C559.522+460.201+567.033+431.22+571.297+401.665C573.443+389.656+576.22+377.773+578.705+365.832C607.231+247.555+602.726+124.976+603.366+4.19606L603.366+4.19606Z" opacity="1" fill="#527689"/>
<path d="M35.7573+23.3558C20.8362+24.2045+15.0266+1.69906+28.505-4.7662C34.6053-8.28315+42.2552-5.77248+48.7237-6.64419C223.23-1.82631+396.69-25.1668+570.814-29.347C587.971-27.3449+605.448-24.977+622.045-20.1011C631.516-15.9722+633.405-1.78486+625.345+4.67876C621.929+7.69766+617.092+8.99311+612.623+8.10096C599.467+5.31771+586.267+2.74333+572.957+0.827429C561.721+0.34934+550.443+0.698344+539.194+0.66333C493.467+5.60894+447.457+6.06604+401.568+8.32166C280.016+20.0266+157.875+25.0268+35.7573+23.3558L35.7573+23.3558Z" opacity="1" fill="#527689"/>
<path d="M125.017+116.562C125.323+95.0676+160.245+100.228+154.866+120.976C154.698+124.656+154.629+128.339+154.657+132.023C154.95+137.844+153.915+143.788+155.394+149.503C156.965+155.239+162.219+159.361+166.577+163.091C170.77+165.398+175.786+165.565+180.391+166.504C230.934+166.396+281.983+169.987+332.054+161.31C340.781+166.672+347.452+176.843+349.405+186.863C348.958+187.597+348.51+188.331+348.063+189.065C300.296+200.505+255.705+221.177+210.964+240.792C203.03+243.362+195+245.637+187.067+248.223C181.801+249.58+176.921+252.07+171.958+254.215C172.795+254.056+173.239+251.376+173.413+252.205C176.071+269.476+178.759+287.266+177.682+304.583C177.5+302.931+174.301+301.016+174.394+300.778C239.799+293.603+306.845+280.964+372.246+294.804C378.447+295.252+384.674+295.446+390.823+296.449C394.333+296.888+397.862+297.145+401.377+297.54C403.705+297.802+406.029+298.103+408.342+298.478C422.955+297.445+430.388+318.491+417.679+326.229C415.025+328.027+411.781+328.933+408.579+328.772C383.985+325.157+358.94+324.868+334.733+318.927C287.709+317.79+240.704+321.056+194.414+329.554C186.783+330.369+179.063+330.949+171.393+330.457C163.185+329.688+155.211+325.139+151.32+317.711C149.834+315.085+148.807+312.187+148.411+309.191C148.04+306.852+147.85+304.486+147.796+302.119C151.499+279.548+135.351+254.446+149.991+234.313C153.491+230.137+158.326+227.425+163.255+225.287C222.059+207.829+275.275+174.288+335.704+162.015C339.126+170.767+340.284+182.395+336.106+191.029C283.488+199.922+229.838+196.722+176.749+196.217C168.86+195.051+160.828+193.569+153.644+189.952C125.598+176.459+122.002+143.955+125.017+116.562L125.017+116.562Z" opacity="1" fill="#527689"/>
<path d="M392.256+311.214C392.057+288.709+428.298+294.443+422.256+315.998C422.256+318.857+422.257+321.715+422.255+324.574C422.263+329.757+422.127+334.951+422.622+340.119C423.405+359.115+428.514+377.729+432.368+396.116C431.474+401.265+428.767+405.946+425.615+410.037C423.99+411.903+422.185+413.566+420.112+414.925C396.993+424.347+370.832+423.466+347.456+432.599C344.984+434.704+344.092+438.406+341.302+440.414C339.548+442.105+337.603+443.583+335.585+444.942C331.649+447.592+327.093+449.386+322.355+449.846C293.628+450.919+265.453+435.492+243.804+417.909C234.377+402.11+236.275+382.329+230.413+365.202C231.449+366.564+233.753+369.141+235.018+369.355C214.186+371.456+193.256+375.507+172.526+377.028C175.394+374.377+176.066+369.711+179.142+367.427C194.023+399.094+208.496+438.176+194.343+472.45C183.695+489.188+157.995+470.385+169.526+455.007C169.439+451.389+169.543+447.77+169.75+444.158C170.257+438.663+169.712+433.158+168.578+427.771C168.65+401.951+138.926+378.601+155.906+354.041C157.791+351.668+160.405+349.688+163.461+349.179C189.667+345.472+216.475+338.626+242.938+340.832C246.92+342.03+250.634+344.238+253.413+347.355C259.27+352.934+259.411+361.146+261.859+368.304C262.94+372.165+263.938+376.055+264.638+380.006C265.297+383.635+265.787+387.293+266.27+390.949C262.933+405.445+282.442+404.907+290.75+411.947C301.036+415.798+319.13+428.572+324.465+413.447C326.309+411.349+328.49+409.572+330.793+408.002C335.402+404.646+340.928+403.059+346.305+401.422C365.855+395.281+386.646+393.867+406.277+388.617C408.023+390.836+404.627+395.497+402.846+397.605C393.814+370.208+391.531+340.251+392.256+311.214L392.256+311.214Z" opacity="1" fill="#527689"/>
<path d="M181.629+479.315C164.856+480.249+161.097+453.644+177.478+449.909C232.309+449.302+283.589+473.563+335.063+489.627C337.227+490.119+339.504+489.909+341.628+489.33C384.754+473.338+427.295+452.874+473.338+446.772C475.941+446.4+478.526+445.909+481.092+445.335C494.556+437.653+511.488+454.243+502.022+467.192C500.312+469.712+497.812+471.685+494.964+472.763C444.982+479.565+398.257+499.183+351.613+517.465C347.145+518.791+342.495+519.482+337.84+519.625C332.513+519.9+327.368+518.319+322.24+517.136C276.284+501.83+230.525+482.182+181.629+479.315L181.629+479.315Z" opacity="1" fill="#527689"/>
<path d="M498.413+456.447C499.158+470.03+479.733+476.92+471.766+465.889C463.155+452.569+471.249+434.8+468.414+420.14C465.963+370.13+481.146+321.621+493.336+273.711C494.047+272.138+496.395+276.339+496.97+277.161C446.176+271.393+395.011+266.099+343.73+266.566C336.101+260.17+327.462+248.96+331.064+238.471C332.295+237.297+333.525+236.122+334.756+234.947C399.381+214.558+457.856+165.216+528.009+167.079C543.555+172.054+538.785+196.852+522.644+196.445C520.174+196.973+517.674+197.342+515.174+197.696C511.591+198.206+507.989+198.57+504.401+199.047C498.715+199.795+493.003+200.473+487.42+201.826C439.647+218.23+395.795+244.844+348.082+261.755C337.57+262.612+340.122+248.312+340.931+241.832C341.511+239.867+341.944+237.815+343.73+236.566C395.918+236.209+447.936+241.147+499.672+247.475C503.153+248.137+506.649+249.064+509.747+250.842C514.562+253.608+518.743+257.718+521.086+262.797C522.921+267.155+523.158+272.021+522.954+276.686C514.052+310.558+506.567+344.937+499.249+379.269C497.503+404.943+498.8+430.727+498.413+456.447L498.413+456.447Z" opacity="1" fill="#527689"/>
<path d="M532.401+181.157C532.682+203.445+496.649+198.135+502.401+176.693C502.401+172.516+502.401+168.338+502.401+164.161C502.401+158.302+502.401+152.443+502.401+146.584C503.004+131.99+500.592+116.29+505.442+102.48C507.423+104.135+508.849+106.531+510.9+108.202C511.247+109.182+510.364+109.331+509.637+109.585C503.276+109.693+496.885+109.19+490.537+110.158C398.562+123.338+305.713+126.086+212.956+126.41C204.265+126.697+195.592+127.366+186.899+127.593C181.686+127.726+176.47+127.639+171.256+127.666C168.404+127.666+165.552+127.666+162.7+127.666C146.048+132.195+135.571+107.106+151.367+99.4294C153.649+98.2035+156.251+97.6191+158.837+97.666C265.683+95.098+372.957+97.1127+479.008+81.2108C487.182+80.3324+495.393+79.5399+503.626+79.6287C512.02+79.6374+520.562+81.7442+527.54+86.5351C530.776+88.7994+533.425+92.1872+534.108+96.1597C532.245+124.332+532.054+152.757+532.401+181.157L532.401+181.157Z" opacity="1" fill="#527689"/>
</g>
</svg>
