<?xml version="1.0" encoding="UTF-8" standalone="no"?>
<!DOCTYPE svg PUBLIC "-//W3C//DTD SVG 1.1//EN" "http://www.w3.org/Graphics/SVG/1.1/DTD/svg11.dtd">
<svg version="1.1" xmlns="http://www.w3.org/2000/svg" xmlns:xlink="http://www.w3.org/1999/xlink" preserveAspectRatio="xMidYMid meet" viewBox="0 0 640 640" width="640" height="640"><defs><path d="M181.33 0C175.44 0 170.67 4.78 170.67 10.67C170.67 15.64 170.67 40.53 170.67 85.33C74.67 85.33 21.33 85.33 10.67 85.33C4.78 85.33 0 90.11 0 96C0 149.33 0 576 0 629.33C0 635.22 4.78 640 10.67 640C41.6 640 289.07 640 320 640C325.89 640 330.67 635.22 330.67 629.33C330.67 567.47 330.67 72.53 330.67 10.67C330.67 4.78 325.89 0 320 0C292.27 0 195.2 0 181.33 0ZM309.33 554.67L192 554.67L192 533.33L309.33 533.33L309.33 554.67ZM21.33 160L170.67 160L170.67 480L21.33 480L21.33 160ZM309.33 117.33L192 117.33L192 85.33L309.33 85.33L309.33 117.33ZM21.33 501.33L170.67 501.33L170.67 533.33L21.33 533.33L21.33 501.33ZM192 512L192 138.67L309.33 138.67L309.33 512L192 512ZM309.33 21.33L309.33 64L192 64L192 21.33L309.33 21.33ZM170.67 106.67L170.67 138.67L21.33 138.67L21.33 106.67L170.67 106.67ZM21.33 554.67L170.67 554.67L170.67 618.67L21.33 618.67L21.33 554.67ZM192 618.67L192 576L309.33 576L309.33 618.67L192 618.67Z" id="e2N4kJYgyc"></path><path d="M511.66 93.31C510.94 90.56 509.16 88.21 506.7 86.78C504.25 85.35 501.33 84.96 498.58 85.7C482.58 89.96 354.58 124.1 338.58 128.36C332.92 129.88 329.53 135.68 331.01 141.35C343.81 190.42 446.21 582.95 459.01 632.02C459.72 634.77 461.51 637.12 463.97 638.55C466.42 639.97 469.34 640.35 472.08 639.61C488.08 635.35 616.08 601.21 632.08 596.95C637.74 595.44 641.12 589.65 639.66 583.98C614.06 485.85 524.46 142.38 511.66 93.31ZM371.33 211.39L510.72 174.23L515.73 193.43L376.35 230.65L371.33 211.39ZM521.12 214.13L582.98 451.43L443.65 488.61L381.78 251.29L521.12 214.13ZM588.42 472.08L599.34 513.94L459.95 551.1L449.07 509.26L588.42 472.08ZM493.72 109.07L505.33 153.6L365.94 190.75L354.34 146.24L493.72 109.07ZM476.95 616.27L465.33 571.73L604.72 534.56L616.33 579.07L476.95 616.27Z" id="b4gcNbHBcF"></path><path d="M53.33 191.12C47.44 191.12 42.67 195.9 42.67 201.79C42.67 210.32 42.67 278.59 42.67 287.12C42.67 293.01 47.44 297.79 53.33 297.79C61.87 297.79 130.13 297.79 138.67 297.79C144.56 297.79 149.33 293.01 149.33 287.12C149.33 278.59 149.33 210.32 149.33 201.79C149.33 195.9 144.56 191.12 138.67 191.12C121.6 191.12 61.87 191.12 53.33 191.12ZM128 276.46L64 276.46L64 212.46L128 212.46L128 276.46Z" id="b7EIUECix"></path></defs><g><g><g><use xlink:href="#e2N4kJYgyc" opacity="1" fill="#eaeaea" fill-opacity="1"></use><g><use xlink:href="#e2N4kJYgyc" opacity="1" fill-opacity="0" stroke="#000000" stroke-width="1" stroke-opacity="0"></use></g></g><g><use xlink:href="#b4gcNbHBcF" opacity="1" fill="#eaeaea" fill-opacity="1"></use><g><use xlink:href="#b4gcNbHBcF" opacity="1" fill-opacity="0" stroke="#000000" stroke-width="1" stroke-opacity="0"></use></g></g><g><use xlink:href="#b7EIUECix" opacity="1" fill="#eaeaea" fill-opacity="1"></use><g><use xlink:href="#b7EIUECix" opacity="1" fill-opacity="0" stroke="#000000" stroke-width="1" stroke-opacity="0"></use></g></g></g></g></svg>