<?xml version="1.0" encoding="UTF-8" standalone="no"?> <!-- Created with Vectornator for iOS (http://vectornator.io/) --><!DOCTYPE svg PUBLIC "-//W3C//DTD SVG 1.1//EN" "http://www.w3.org/Graphics/SVG/1.1/DTD/svg11.dtd">
<svg height="100%" style="fill-rule:nonzero;clip-rule:evenodd;stroke-linecap:round;stroke-linejoin:round;" xmlns:xlink="http://www.w3.org/1999/xlink" xmlns="http://www.w3.org/2000/svg" xml:space="preserve" width="100%" xmlns:vectornator="http://vectornator.io" version="1.1" viewBox="0 0 46.416 46.417">
<metadata>
<vectornator:setting key="DimensionsVisible" value="1"/>
<vectornator:setting key="PencilOnly" value="0"/>
<vectornator:setting key="SnapToPoints" value="0"/>
<vectornator:setting key="OutlineMode" value="0"/>
<vectornator:setting key="CMYKEnabledKey" value="0"/>
<vectornator:setting key="RulersVisible" value="1"/>
<vectornator:setting key="SnapToEdges" value="0"/>
<vectornator:setting key="GuidesVisible" value="1"/>
<vectornator:setting key="DisplayWhiteBackground" value="0"/>
<vectornator:setting key="doHistoryDisabled" value="0"/>
<vectornator:setting key="SnapToGuides" value="1"/>
<vectornator:setting key="TimeLapseWatermarkDisabled" value="0"/>
<vectornator:setting key="Units" value="Points"/>
<vectornator:setting key="DynamicGuides" value="0"/>
<vectornator:setting key="IsolateActiveLayer" value="0"/>
<vectornator:setting key="SnapToGrid" value="0"/>
</metadata>
<defs/>
<g id="Untitled" vectornator:layerName="Untitled">
<g opacity="1">
<path d="M5.739+36.142C9.981+38.895+18.843+38.796+22.596+35.295C23.403+34.543+22.811+31.399+22.811+30.46C22.811+27.549+22.811+24.638+22.811+21.727C22.811+19.233+14.626+20.511+12.985+20.511C12.907+20.511+12.824+20.523+12.739+20.545C12.606+20.579+12.34+20.649+12.15+20.72C12.021+20.768+11.911+20.83+11.836+20.906C10.791+21.95+10.873+24.704+11.238+26.066C11.338+26.439+11.858+26.794+12.248+26.794C15.6+26.794+16.189+31.351+12.917+31.247C6.705+31.049+7.433+20.568+9.418+16.947C11.595+12.975+15.524+15.817+18.607+15.8C19.159+15.797+19.62+15.683+19.647+15.693C19.664+15.699+19.68+15.704+19.696+15.709C19.733+15.72+19.769+15.723+19.803+15.72C19.863+15.715+19.861+15.682+19.799+15.67C19.737+15.658+19.762+15.628+19.854+15.602C19.909+15.586+19.963+15.57+20.017+15.546C20.991+15.126+22.186+10.733+21.62+10.064C20.328+8.54+17.06+8.573+15.289+8.418C9.529+7.912+4.172+9.844+1.655+15.299C-1.282+21.666-0.538+32.07+5.739+36.142ZM2.356+20.625C2.398+20.074+2.774+19.321+3.173+18.939C3.238+18.877+3.304+18.814+3.369+18.752C3.768+18.371+4.148+17.842+4.223+17.572C4.297+17.301+4.055+17.405+3.666+17.798C3.52+17.946+3.373+18.094+3.227+18.242C2.838+18.635+2.528+18.912+2.533+18.863C2.537+18.833+2.54+18.802+2.544+18.772C2.678+17.793+2.907+16.858+3.229+15.979C3.419+15.46+3.925+14.737+4.313+14.342C5.382+13.253+6.449+12.171+7.51+11.096C7.899+10.703+8.62+10.196+9.145+10.022C9.578+9.879+10.032+9.763+10.508+9.678C10.875+9.613+11.247+9.565+11.624+9.532C12.174+9.484+12.449+9.486+12.236+9.5C12.023+9.514+11.652+9.732+11.406+9.979C11.16+10.227+11.215+10.352+11.531+10.276C11.847+10.199+12.258+9.999+12.442+9.812C12.627+9.626+13.225+9.466+13.777+9.489C14.117+9.503+14.456+9.526+14.795+9.556C15.346+9.607+15.743+9.714+15.688+9.767C15.633+9.822+15.979+9.868+16.458+9.884C16.937+9.903+17.494+9.959+17.704+10.001C17.831+10.027+17.957+10.054+18.082+10.082C20.122+10.538+19.718+11.081+19.272+12.961C18.776+15.053+19.701+14.497+17.633+14.077C16.323+13.81+14.869+13.757+13.538+13.879C11.964+14.024+10.129+14.342+8.907+15.454C5.393+18.651+4.445+28.095+8.696+31.153C10.731+32.617+14.044+33.13+15.844+31.589C16.264+31.231+16.819+30.527+17.221+30.149C17.296+30.078+17.371+30.006+17.447+29.935C17.848+29.556+18.174+29.236+18.174+29.217C18.174+29.199+17.855+29.498+17.459+29.884C17.382+29.96+17.305+30.035+17.227+30.112C16.832+30.498+16.689+30.535+16.828+30.16C16.908+29.945+16.972+29.714+17.019+29.464C17.221+28.376+17.043+26.343+15.786+25.946C15.517+25.862+15.211+25.832+14.904+25.81C14.412+25.779+14.086+25.667+14.17+25.588C14.256+25.509+14.324+25.363+14.324+25.263C14.324+25.163+14.193+25.213+14.031+25.375C13.87+25.537+13.47+25.608+13.304+25.358C13.218+25.228+13.17+25.061+13.17+24.838C13.17+24.603+13.138+24.266+13.106+23.889C13.061+23.366+13.324+22.653+13.667+22.298C14.01+21.945+14.736+21.659+15.288+21.659C15.774+21.659+16.261+21.659+16.747+21.659C17.3+21.659+17.67+21.736+17.575+21.831C17.479+21.926+17.536+22.004+17.702+22.004C17.868+22.004+18.086+21.926+18.188+21.831C18.29+21.736+18.398+21.658+18.43+21.658C18.449+21.658+18.467+21.658+18.487+21.658C18.861+21.658+19.175+21.648+19.441+21.638C19.968+21.621+20.312+21.742+20.212+21.834C20.112+21.927+20.196+22.003+20.4+22.003C20.604+22.003+20.854+22.339+20.866+22.763C20.872+22.977+20.873+23.232+20.873+23.532C20.873+26.21+20.873+28.887+20.873+31.566C20.873+32.613+20.873+33.661+20.873+34.709C20.873+36.651+14.974+36.748+13.488+36.725C9.423+36.662+6.676+35.095+4.915+32.703C4.588+32.26+4.4+31.834+4.451+31.789C4.501+31.742+4.438+31.45+4.329+31.132C4.22+30.814+4.094+30.602+4.034+30.661C3.998+30.698+3.962+30.734+3.926+30.768C3.908+30.788+3.89+30.807+3.872+30.826C3.843+30.858+3.627+30.487+3.434+29.978C3.243+29.47+3.238+28.925+3.389+28.776C3.54+28.626+3.657+28.473+3.651+28.435C3.645+28.397+3.549+28.454+3.437+28.558C3.325+28.663+3.197+28.783+3.153+28.827C3.11+28.871+3.004+28.677+2.924+28.39C2.845+28.104+2.946+27.715+3.138+27.526C3.33+27.336+3.457+26.906+3.431+26.563C3.405+26.221+3.206+26.132+2.98+26.366C2.753+26.599+2.509+26.436+2.451+26.002C2.393+25.568+2.584+24.984+2.857+24.702C3.13+24.42+3.353+23.744+3.375+23.193C3.381+23.059+3.387+22.927+3.393+22.797C3.422+22.246+3.195+22.064+2.864+22.39C2.534+22.717+2.262+22.535+2.28+21.982C2.296+21.529+2.321+21.077+2.356+20.625Z" opacity="1" fill="#527689"/>
<path d="M31.762+13.534C31.494+8.523+23.677+9.238+23.427+13.914C23.311+16.079+24.758+17.216+26.478+17.444C27.025+17.515+27.592+17.499+27.74+17.514C27.827+17.525+27.916+17.531+28.008+17.531C28.031+17.531+28.057+17.528+28.079+17.525C28.119+17.518+28.116+17.496+28.076+17.465C28.035+17.435+28.448+17.35+28.969+17.163C30.448+16.631+31.667+15.446+31.763+13.67C31.764+13.656+31.76+13.646+31.755+13.636C31.746+13.618+31.747+13.588+31.755+13.57C31.759+13.557+31.762+13.546+31.762+13.534ZM25.431+14.146C25.41+14.059+25.391+13.972+25.377+13.885C25.343+13.675+25.342+13.461+25.367+13.248C25.411+12.896+25.811+12.33+26.171+11.963C26.529+11.596+26.628+11.374+26.411+11.508C26.195+11.642+26.31+11.436+26.785+11.25C27.059+11.143+27.364+11.104+27.69+11.157C27.824+11.178+27.949+11.215+28.068+11.261C28.27+11.34+28.107+11.754+27.719+12.148C27.213+12.663+26.706+13.176+26.2+13.691C25.816+14.085+25.468+14.291+25.431+14.146ZM29.628+14.96C29.313+15.877+28.625+16.613+27.503+16.428C27.377+16.407+27.258+16.374+27.144+16.331C26.952+16.258+26.818+16.161+26.831+16.15C26.844+16.138+26.779+15.982+26.709+15.791C26.641+15.6+26.531+15.51+26.44+15.599C26.35+15.687+26.048+15.53+25.849+15.189C25.65+14.849+25.829+14.289+26.173+13.973C26.517+13.659+26.968+12.978+27.336+12.567C27.478+12.408+27.636+12.263+27.807+12.135C28.248+11.804+29.062+11.941+29.345+12.415C29.455+12.602+29.548+12.802+29.62+13.009C29.804+13.529+29.807+14.437+29.628+14.96Z" opacity="1" fill="#527689"/>
<path d="M45.387+32.008C43.937+31.823+41.949+31.508+41.949+29.715C41.949+28.818+41.594+23.777+42.933+23.777C43.775+23.777+44.927+23.956+45.597+23.281C46.538+22.33+46.087+20.686+46.087+19.423C46.087+18.148+45.399+17.965+44.475+17.967C43.922+17.968+43.023+17.889+42.583+17.554C41.011+16.351+42.947+14.157+41.57+12.922C40.895+12.318+38.384+12.804+37.593+12.804C34.387+12.804+34.322+13.417+34.322+16.574C34.322+18.204+33.308+18.424+32.364+18.933C31.879+19.197+31.547+19.164+31.406+18.755C31.304+18.457+31.156+18.241+30.943+18.151C29.615+17.59+26.942+17.968+25.502+18.096C24.246+18.207+23.686+18.721+23.686+19.906C23.686+22.718+23.686+25.533+23.686+28.346C23.686+30.804+22.964+34.585+23.894+36.891C24.33+37.972+29.529+37.206+30.651+36.808C32.27+36.235+31.408+31.962+31.408+30.621C31.408+28.298+31.408+25.975+31.408+23.651C31.408+23.599+31.41+23.539+31.414+23.469C31.42+23.369+31.746+23.613+32.23+23.877C33.354+24.492+34.324+24.404+34.324+26.713C34.324+29.834+33.865+33.067+35.72+35.748C37.533+38.37+42.769+38.08+45.31+37.082C46.7+36.538+46.84+32.195+45.387+32.008ZM27.877+36.384C27.674+36.384+27.488+36.375+27.32+36.36C27.014+36.33+26.773+36.228+26.773+36.179C26.773+36.13+26.742+36.123+26.705+36.161C26.667+36.199+26.393+36.171+26.15+35.996C25.908+35.822+26.012+35.376+26.283+35.102C26.554+34.83+26.773+34.581+26.773+34.55C26.773+34.518+26.547+34.729+26.269+35.022C25.992+35.314+25.585+35.145+25.561+34.609C25.536+34.073+25.843+33.349+26.174+32.996C26.505+32.642+26.773+31.908+26.773+31.354C26.773+31.203+26.773+31.048+26.773+30.894C26.773+30.342+26.514+30.156+26.195+30.477C25.877+30.8+25.617+30.615+25.617+30.061C25.617+29.289+25.617+28.514+25.617+27.741C25.617+27.188+25.877+26.475+26.195+26.149C26.514+25.823+26.773+25.406+26.773+25.217C26.773+25.029+26.514+25.113+26.195+25.404C25.877+25.695+25.617+25.484+25.617+24.93C25.617+24.49+25.617+24.048+25.617+23.608C25.617+23.055+25.877+22.362+26.195+22.059C26.514+21.756+26.773+21.46+26.773+21.396C26.773+21.333+26.513+21.536+26.194+21.847C25.875+22.159+25.617+21.965+25.617+21.412C25.617+20.736+25.617+20.059+25.617+19.384C25.617+19.28+25.619+19.194+25.621+19.121C25.625+18.975+25.989+18.86+26.443+18.86C26.716+18.86+26.991+18.86+27.265+18.86C27.631+18.86+27.939+18.85+28.197+18.85C28.713+18.85+29.015+19.089+28.905+19.198C28.795+19.305+28.771+19.392+28.854+19.392C28.937+19.392+29.061+19.337+29.133+19.268C29.204+19.201+29.409+19.406+29.446+19.765C29.466+19.947+29.473+20.162+29.473+20.42C29.473+23.992+29.473+27.564+29.473+31.135C29.476+33.144+30.423+36.384+27.877+36.384ZM41.03+36.712C39.675+36.601+38.681+36.112+37.962+35.377C37.574+34.982+37.425+34.513+37.523+34.417C37.622+34.32+37.668+34.118+37.63+33.963C37.592+33.808+37.465+33.787+37.337+33.919C37.207+34.051+36.896+33.759+36.723+33.234C36.619+32.922+36.535+32.594+36.466+32.258C36.357+31.716+36.561+31.018+36.862+30.707C37.164+30.395+37.41+29.704+37.41+29.161C37.41+28.619+37.152+28.439+36.836+28.759C36.519+29.079+36.278+28.982+36.307+28.541C36.332+28.101+36.591+27.506+36.883+27.211C37.175+26.917+37.41+26.576+37.41+26.45C37.41+26.372+37.41+26.295+37.41+26.221C37.41+26.198+37.408+26.174+37.406+26.151C37.403+26.112+37.173+26.323+36.89+26.622C36.608+26.92+36.403+26.714+36.383+26.162C36.381+26.107+36.378+26.053+36.374+25.999C36.346+25.447+36.362+24.89+36.497+24.745C36.633+24.6+36.626+24.373+36.448+24.296C36.341+24.249+36.226+24.222+36.107+24.222C36.088+24.222+36.068+24.222+36.05+24.222C36.019+24.222+35.821+23.784+35.402+23.425C34.964+23.051+34.342+22.83+33.462+22.83C32.959+22.83+32.912+19.633+34.035+19.358C34.568+19.226+35.304+18.84+35.573+18.378C35.657+18.233+35.73+18.092+35.795+17.952C35.903+17.71+36.293+17.22+36.69+16.869C37.087+16.516+37.409+16.158+37.409+16.068C37.409+15.976+37.107+16.194+36.735+16.554C36.363+16.914+36.176+16.786+36.223+16.253C36.27+15.72+36.579+14.974+36.979+14.592C37.247+14.336+37.511+14.083+37.768+13.836C37.777+13.827+37.787+13.817+37.797+13.807C37.814+13.791+37.74+13.779+37.637+13.779C37.533+13.779+37.18+14.038+36.851+14.357C36.522+14.675+36.256+14.921+36.256+14.907C36.256+14.891+36.503+14.635+36.807+14.332C37.11+14.029+37.101+14.008+36.799+14.297C36.496+14.587+36.255+14.723+36.254+14.6C36.253+14.528+36.253+14.454+36.253+14.377C36.253+14.247+36.238+14.137+36.215+14.044C36.169+13.865+36.515+13.748+37.067+13.748C37.6+13.748+38.132+13.748+38.666+13.748C38.83+13.748+38.978+13.754+39.105+13.766C39.347+13.788+39.457+13.923+39.356+14.02C39.255+14.118+39.295+14.197+39.446+14.197C39.597+14.197+39.758+14.162+39.805+14.12C39.853+14.077+40.127+14.439+40.095+14.991C40.073+15.375+40.014+15.852+40.014+16.429C40.015+17.929+40.745+18.515+42.064+18.897C42.151+18.928+42.272+18.947+42.449+18.947C44.824+18.947+44.154+20.4+44.154+22.354C44.154+22.471+44.174+22.567+44.202+22.642C44.263+22.793+44.233+22.849+44.054+22.839C43.961+22.834+43.853+22.831+43.725+22.831C43.391+22.831+43.064+22.812+42.74+22.908C39.512+23.846+40.017+26.23+40.017+29.253C40.017+30.149+39.732+31.869+40.742+32.42C41.266+32.707+44.224+33.053+44.224+33.403C44.22+36.165+44.385+36.987+41.03+36.712Z" opacity="1" fill="#527689"/>
</g>
</g>
</svg>
