<?xml version="1.0" encoding="UTF-8" standalone="no"?>
<svg
   xmlns:dc="http://purl.org/dc/elements/1.1/"
   xmlns:cc="http://creativecommons.org/ns#"
   xmlns:rdf="http://www.w3.org/1999/02/22-rdf-syntax-ns#"
   xmlns:svg="http://www.w3.org/2000/svg"
   xmlns="http://www.w3.org/2000/svg"
   xmlns:sodipodi="http://sodipodi.sourceforge.net/DTD/sodipodi-0.dtd"
   xmlns:inkscape="http://www.inkscape.org/namespaces/inkscape"
   inkscape:version="1.0beta2 (2b71d25, 2019-12-03)"
   sodipodi:docname="goHome.svg"
   version="1.0"
   viewBox="0 0 463.89 438.88"
   id="svg2">
  <defs
     id="defs19" />
  <sodipodi:namedview
     inkscape:current-layer="layer5"
     inkscape:window-maximized="0"
     inkscape:window-y="36"
     inkscape:window-x="212"
     inkscape:cy="284.75967"
     inkscape:cx="280.56858"
     inkscape:zoom="1.8461844"
     showgrid="false"
     id="namedview17"
     inkscape:window-height="1277"
     inkscape:window-width="1735"
     inkscape:pageshadow="2"
     inkscape:pageopacity="0"
     guidetolerance="10"
     gridtolerance="10"
     objecttolerance="10"
     borderopacity="1"
     inkscape:document-rotation="0"
     bordercolor="#666666"
     pagecolor="#ffffff" />
  <metadata
     id="metadata14">
    <rdf:RDF>
      <cc:Work>
        <dc:format>image/svg+xml</dc:format>
        <dc:type
           rdf:resource="http://purl.org/dc/dcmitype/StillImage" />
        <cc:license
           rdf:resource="http://creativecommons.org/publicdomain/zero/1.0/" />
        <dc:publisher>
          <cc:Agent
             rdf:about="http://openclipart.org/">
            <dc:title>Openclipart</dc:title>
          </cc:Agent>
        </dc:publisher>
        <dc:title></dc:title>
        <dc:date>2008-10-08T17:41:00</dc:date>
        <dc:description>black home icon</dc:description>
        <dc:source>http://openclipart.org/detail/19535/home-by-dynnamitt</dc:source>
        <dc:creator>
          <cc:Agent>
            <dc:title>dynnamitt</dc:title>
          </cc:Agent>
        </dc:creator>
        <dc:subject>
          <rdf:Bag>
            <rdf:li>clip art</rdf:li>
            <rdf:li>clipart</rdf:li>
            <rdf:li>home</rdf:li>
            <rdf:li>house</rdf:li>
            <rdf:li>icon</rdf:li>
            <rdf:li>image</rdf:li>
            <rdf:li>media</rdf:li>
            <rdf:li>png</rdf:li>
            <rdf:li>public domain</rdf:li>
            <rdf:li>silhouette</rdf:li>
            <rdf:li>svg</rdf:li>
          </rdf:Bag>
        </dc:subject>
      </cc:Work>
      <cc:License
         rdf:about="http://creativecommons.org/publicdomain/zero/1.0/">
        <cc:permits
           rdf:resource="http://creativecommons.org/ns#Reproduction" />
        <cc:permits
           rdf:resource="http://creativecommons.org/ns#Distribution" />
        <cc:permits
           rdf:resource="http://creativecommons.org/ns#DerivativeWorks" />
      </cc:License>
    </rdf:RDF>
  </metadata>
  <ellipse
     ry="212.79358"
     rx="216.8922"
     cy="225.96625"
     cx="227.4023"
     id="path21"
     style="fill:#9eaec7;stroke-width:0.696788" />
  <ellipse
     ry="202.71342"
     rx="207.75076"
     cy="224.94"
     cx="227.06779"
     id="path25"
     style="fill:#f2f2f2;stroke-width:1.01844" />
  <g
     inkscape:label="Layer 1"
     id="layer4"
     inkscape:groupmode="layer" />
  <g
     inkscape:label="Layer 2"
     id="layer5"
     inkscape:groupmode="layer">
    <path
       style="fill:#9eaec7;fill-opacity:1;stroke-width:0.402473"
       d="m 84.066191,221.3805 -7.285713,-7.971 1.179313,-1.12835 c 0.648622,-0.6206 33.018219,-28.51244 71.932439,-61.98186 46.26089,-39.78815 71.02728,-60.833868 71.54507,-60.796808 0.58825,0.0421 79.04915,67.209658 143.43586,122.790288 l 1.14893,0.99179 -7.22053,7.93428 c -3.97129,4.36386 -7.36925,7.99033 -7.55103,8.05883 -0.18177,0.0685 -29.3212,-24.82531 -64.75429,-55.31957 -35.43309,-30.49426 -64.71541,-55.45403 -65.07184,-55.46616 -0.35643,-0.0121 -29.65163,24.9263 -65.10046,55.41874 -35.44882,30.49244 -64.569314,55.4408 -64.712211,55.4408 -0.142906,0 -3.538395,-3.58695 -7.545538,-7.97098 z"
       id="path18"
       inkscape:connector-curvature="0" />
    <path
       style="fill:#9eaec7;fill-opacity:1;stroke-width:0.456523"
       d="m 110.84296,375.98366 c -1.39021,-0.6672 -2.21876,-1.4789 -2.8977,-2.83871 -0.94639,-1.8955 -0.9508,-2.23504 -0.9508,-73.1502 v -71.24586 l 57.56476,-49.42168 c 31.66061,-27.18193 57.72129,-49.42168 57.91262,-49.42168 0.19133,0 26.23706,22.22894 57.87943,49.39765 l 57.53156,49.39766 v 71.26988 c 0,71.0443 -0.003,71.27594 -0.95513,73.18289 -0.69346,1.3889 -1.49568,2.16671 -2.92817,2.83906 -1.94097,0.91103 -2.56581,0.92607 -38.45352,0.92607 h -36.48049 l -0.003,-32.02856 c -0.003,-31.16661 -0.0266,-32.06798 -0.92302,-33.49362 -0.50671,-0.80578 -1.60125,-1.86702 -2.43233,-2.35831 -1.46896,-0.86837 -2.39568,-0.89326 -33.26978,-0.89326 -30.8741,0 -31.80083,0.0249 -33.26978,0.89326 -0.83108,0.49129 -1.92562,1.55253 -2.43233,2.35831 -0.8965,1.42564 -0.92134,2.32701 -0.92302,33.49362 l -0.002,32.02856 -36.51097,-3.6e-4 c -36.03723,-3.5e-4 -36.53622,-0.0125 -38.45784,-0.93472 z"
       id="path843"
       inkscape:connector-curvature="0" />
    <path
       style="fill:#9eaec7;fill-opacity:1;stroke-width:0.310462"
       d="m 115.29948,161.54094 v -20.81266 h 13.55234 13.55234 l -0.2135,8.32126 c -0.11743,4.57669 -0.22983,8.33202 -0.24977,8.34517 -0.0199,0.0131 -5.78297,5.42036 -12.80673,12.01603 -7.02376,6.59568 -13.00992,12.20605 -13.30258,12.4675 -0.50599,0.45203 -0.5321,-0.54597 -0.5321,-20.3373 z"
       id="path845"
       inkscape:connector-curvature="0" />
  </g>
</svg>
