<?xml version="1.0" encoding="UTF-8" standalone="no"?>
<!DOCTYPE svg PUBLIC "-//W3C//DTD SVG 1.1//EN" "http://www.w3.org/Graphics/SVG/1.1/DTD/svg11.dtd">
<svg version="1.1" xmlns="http://www.w3.org/2000/svg" xmlns:xlink="http://www.w3.org/1999/xlink" preserveAspectRatio="xMidYMid meet" viewBox="0 0 640 640" width="640" height="640"><defs><path d="M107.56 310.12C108.45 309.27 153.11 270.79 206.8 224.61C270.62 169.72 304.79 140.68 305.5 140.73C306.31 140.79 414.56 233.46 503.39 310.14C503.5 310.23 504.03 310.69 504.98 311.51C499 318.08 495.68 321.72 495.02 322.45C489.54 328.47 484.85 333.48 484.6 333.57C484.35 333.67 444.15 299.32 395.26 257.25C346.38 215.18 305.98 180.75 305.49 180.73C304.99 180.71 264.58 215.12 215.67 257.19C166.76 299.25 126.59 333.67 126.39 333.67C126.19 333.67 121.51 328.73 115.98 322.68C115.98 322.68 112.63 319.01 105.93 311.68C106.91 310.75 107.45 310.23 107.56 310.12Z" id="aoEgOcKa"></path><path d="M147.61 431.14C147.61 424.58 147.61 391.82 147.61 332.84C195.26 291.93 221.74 269.2 227.03 264.66C270.71 227.16 306.67 196.47 306.93 196.47C307.19 196.47 343.13 227.14 386.78 264.63C392.07 269.17 418.53 291.89 466.16 332.78C466.16 391.77 466.16 424.55 466.16 431.1C466.16 529.12 466.15 529.44 464.84 532.07C463.88 533.99 462.77 535.06 460.8 535.99C458.12 537.24 457.26 537.26 407.75 537.26C404.39 537.26 387.61 537.26 357.42 537.26C357.41 510.75 357.41 496.02 357.41 493.08C357.41 450.08 357.38 448.83 356.14 446.87C355.44 445.76 353.93 444.29 352.78 443.61C350.76 442.42 349.48 442.38 306.88 442.38C264.29 442.38 263.01 442.42 260.98 443.61C259.84 444.29 258.33 445.76 257.63 446.87C256.39 448.83 256.36 450.08 256.35 493.08C256.35 496.02 256.35 510.75 256.35 537.26C226.13 537.26 209.34 537.26 205.98 537.26C156.26 537.26 155.57 537.25 152.92 535.97C151.01 535.05 149.86 533.93 148.93 532.06C147.62 529.44 147.61 528.97 147.61 431.14Z" id="d2ijV9jFs7"></path><path d="M177.77 211.41C188.99 211.41 195.22 211.41 196.47 211.41C196.29 218.29 196.19 222.12 196.17 222.89C196.01 229.2 195.85 234.38 195.83 234.4C195.8 234.42 187.85 241.88 178.16 250.98C168.47 260.08 160.21 267.82 159.81 268.18C159.11 268.8 159.07 267.43 159.07 240.12C159.07 236.29 159.07 226.72 159.07 211.41C161.56 211.41 167.8 211.41 177.77 211.41Z" id="d15n1xI2C"></path></defs><g><g><use xlink:href="#aoEgOcKa" opacity="1" fill="#9eaec7" fill-opacity="1"></use><g><use xlink:href="#aoEgOcKa" opacity="1" fill-opacity="0" stroke="#000000" stroke-width="1" stroke-opacity="0"></use></g></g><g><use xlink:href="#d2ijV9jFs7" opacity="1" fill="#9eaec7" fill-opacity="1"></use><g><use xlink:href="#d2ijV9jFs7" opacity="1" fill-opacity="0" stroke="#000000" stroke-width="1" stroke-opacity="0"></use></g></g><g><use xlink:href="#d15n1xI2C" opacity="1" fill="#9eaec7" fill-opacity="1"></use><g><use xlink:href="#d15n1xI2C" opacity="1" fill-opacity="0" stroke="#000000" stroke-width="1" stroke-opacity="0"></use></g></g></g></svg>