<?xml version="1.0" encoding="UTF-8" standalone="no"?> <!-- Created with Vectornator for iOS (http://vectornator.io/) --><!DOCTYPE svg PUBLIC "-//W3C//DTD SVG 1.1//EN" "http://www.w3.org/Graphics/SVG/1.1/DTD/svg11.dtd">
<svg height="100%" style="fill-rule:nonzero;clip-rule:evenodd;stroke-linecap:round;stroke-linejoin:round;" xmlns:xlink="http://www.w3.org/1999/xlink" xmlns="http://www.w3.org/2000/svg" xml:space="preserve" width="100%" xmlns:vectornator="http://vectornator.io" version="1.1" viewBox="0 0 46.345 46.345">
<metadata>
<vectornator:setting key="DimensionsVisible" value="1"/>
<vectornator:setting key="PencilOnly" value="0"/>
<vectornator:setting key="SnapToPoints" value="0"/>
<vectornator:setting key="OutlineMode" value="0"/>
<vectornator:setting key="CMYKEnabledKey" value="0"/>
<vectornator:setting key="RulersVisible" value="1"/>
<vectornator:setting key="SnapToEdges" value="0"/>
<vectornator:setting key="GuidesVisible" value="1"/>
<vectornator:setting key="DisplayWhiteBackground" value="0"/>
<vectornator:setting key="doHistoryDisabled" value="0"/>
<vectornator:setting key="SnapToGuides" value="1"/>
<vectornator:setting key="TimeLapseWatermarkDisabled" value="0"/>
<vectornator:setting key="Units" value="Points"/>
<vectornator:setting key="DynamicGuides" value="0"/>
<vectornator:setting key="IsolateActiveLayer" value="0"/>
<vectornator:setting key="SnapToGrid" value="0"/>
</metadata>
<defs/>
<g id="Untitled" vectornator:layerName="Untitled">
<g opacity="1">
<path d="M30.995+0.385C24.158+0.385+17.322+0.385+10.485+0.385C7.625+0.385+3.024-0.616+2.339+3.14C2.328+3.201+2.348+3.244+2.354+3.295C3.41+15.208+4.47+27.097+5.53+38.985C5.997+44.229+13.022+44.419+17.107+45.552C23.189+47.24+27.313+45.949+33.327+44.282C37.964+42.996+40.423+42.324+40.874+37.267C41.52+30.034+42.166+22.799+42.812+15.566C43.095+12.404+43.377+9.243+43.66+6.081C43.738+5.214+44.406+2.444+43.663+1.633C41.2-1.055+34.182+0.385+30.995+0.385ZM4.364+3.718C4.353+3.591+4.341+3.465+4.33+3.339C4.325+3.277+4.319+3.215+4.312+3.153C4.303+3.051+4.435+2.501+4.906+2.213C5.163+2.056+5.49+1.924+5.875+1.814C6.406+1.662+6.536+1.918+6.149+2.312C5.803+2.665+5.453+3.022+5.098+3.383C4.71+3.777+4.382+3.927+4.364+3.718ZM5.699+5.077C5.563+5.217+5.427+5.356+5.29+5.496C4.903+5.89+4.897+5.886+5.285+5.491C5.422+5.351+5.559+5.211+5.695+5.072C6.081+4.678+6.083+4.68+5.699+5.077ZM40.858+15.73C40.212+22.963+39.566+30.196+38.92+37.43C38.725+39.615+38.635+41.446+36.092+42.151C32.606+43.118+29.118+44.085+25.631+45.051C25.387+45.119+25.143+45.17+24.9+45.209C24.491+45.274+23.866+45.215+23.509+45.116C23.153+45.017+22.788+45.013+22.694+45.109C22.6+45.204+22.077+45.241+21.532+45.151C21.257+45.105+20.982+45.051+20.708+44.992C20.168+44.874+19.851+44.632+19.992+44.482C20.133+44.332+19.815+44.089+19.284+43.942L18.904+43.837C18.372+43.69+17.823+43.684+17.679+43.822C17.535+43.962+17.201+44.01+16.932+43.929C16.769+43.881+16.606+43.834+16.443+43.789C16.08+43.688+15.585+43.585+15.013+43.468C14.472+43.358+14.171+43.129+14.34+42.959C14.509+42.79+14.45+42.6+14.21+42.532L13.775+42.411C13.701+42.39+13.628+42.365+13.556+42.336C13.437+42.288+13.176+42.396+12.968+42.586C12.76+42.777+12.157+42.826+11.628+42.666C11.083+42.501+10.55+42.314+10.06+42.098C9.555+41.874+9.485+41.322+9.872+40.928C10.215+40.58+10.559+40.232+10.903+39.882C11.291+39.489+11.596+39.068+11.585+38.942C11.574+38.815+11.235+39.017+10.831+39.393C10.373+39.818+9.915+40.242+9.456+40.665C9.051+41.04+8.454+41.157+8.19+40.859C7.926+40.561+8.118+39.963+8.526+39.59C9.241+38.941+9.956+38.29+10.67+37.639C11.078+37.267+11.377+36.619+11.339+36.196C11.301+35.771+10.943+35.732+10.538+36.109C9.77+36.824+9.004+37.541+8.237+38.256C7.833+38.633+7.465+38.494+7.416+37.944C7.346+37.159+7.276+36.374+7.206+35.589C7.157+35.039+7.185+34.528+7.269+34.449C7.319+34.402+7.37+34.355+7.421+34.307C8.336+33.361+9.247+32.423+10.158+31.487C10.543+31.091+10.828+30.477+10.796+30.115C10.764+29.754+10.42+29.776+10.029+30.166C9.24+30.95+8.463+31.725+7.699+32.483C7.307+32.872+6.951+32.741+6.902+32.19C6.892+32.081+6.883+31.972+6.873+31.863C6.824+31.313+7.102+30.551+7.493+30.161C7.892+29.765+8.291+29.366+8.694+28.968C8.811+28.84+8.928+28.711+9.046+28.583C9.24+28.371+9.076+28.509+8.679+28.893C8.256+29.3+7.851+29.692+7.493+30.038C7.096+30.421+6.748+30.454+6.718+30.113C6.687+29.772+6.982+29.18+7.375+28.792C8.15+28.027+8.926+27.264+9.701+26.498C10.095+26.11+10.385+25.483+10.35+25.1C10.316+24.714+9.977+24.724+9.592+25.12C8.811+25.926+8.03+26.732+7.249+27.539C6.865+27.935+6.52+27.891+6.48+27.436C6.44+26.983+6.719+26.293+7.104+25.898C7.902+25.076+8.685+24.271+9.446+23.487C9.831+23.092+10.105+22.336+10.057+21.799C10.009+21.262+9.651+21.142+9.258+21.53C8.487+22.29+7.711+23.054+6.933+23.822C6.539+24.21+6.182+24.078+6.132+23.528C6.106+23.232+6.079+22.935+6.053+22.638C6.004+22.088+6.288+21.332+6.687+20.95C7.46+20.209+8.231+19.463+9.003+18.715C9.399+18.33+9.705+17.85+9.687+17.643C9.668+17.435+9.338+17.586+8.949+17.978C8.17+18.764+7.392+19.551+6.613+20.338C6.225+20.731+5.87+20.603+5.821+20.053C5.804+19.864+5.787+19.674+5.77+19.485C5.721+18.935+5.995+18.169+6.381+17.775C7.163+16.978+7.942+16.186+8.719+15.396C9.106+15.003+9.396+14.405+9.365+14.062C9.334+13.718+8.987+13.751+8.59+14.136C7.921+14.783+7.139+15.54+6.272+16.38C5.875+16.764+5.869+16.757+6.26+16.367C7.058+15.57+7.86+14.784+8.587+14.077C8.983+13.692+8.977+13.687+8.577+14.068C7.822+14.788+7.051+15.535+6.263+16.301C5.867+16.686+5.51+16.594+5.466+16.095C5.422+15.596+5.707+14.879+6.102+14.494C6.867+13.749+7.64+12.997+8.423+12.234C8.819+11.849+9.109+11.203+9.073+10.791C9.036+10.379+8.69+10.36+8.298+10.749C7.521+11.52+6.745+12.291+5.969+13.061C5.577+13.45+5.219+13.321+5.17+12.77C5.164+12.694+5.157+12.617+5.15+12.541C5.101+11.991+5.384+11.235+5.783+10.853C6.567+10.101+7.338+9.361+8.098+8.634C8.496+8.252+8.818+7.926+8.817+7.905C8.814+7.886+8.49+8.179+8.091+8.561C7.342+9.279+6.57+10.02+5.777+10.781C5.379+11.163+5.023+11.104+4.982+10.647C4.941+10.19+5.232+9.51+5.63+9.127C6.407+8.381+7.179+7.642+7.944+6.909C8.343+6.527+8.661+6.161+8.655+6.091C8.649+6.022+8.329+6.283+7.941+6.677C7.185+7.444+6.405+8.237+5.604+9.056C5.218+9.451+4.864+9.325+4.815+8.776C4.769+8.263+4.724+7.751+4.678+7.238C4.629+6.688+4.903+5.922+5.289+5.527C6.116+4.683+6.941+3.842+7.766+3.001C8.153+2.607+8.542+2.023+8.743+1.762C8.943+1.502+9.623+1.337+10.176+1.324C14.477+1.217+19.767+1.752+21.051+1.752C27.529+1.752+34.006+1.752+40.484+1.752C43.398+1.751+41.006+14.078+40.858+15.73Z" opacity="1" fill="#527689"/>
<path d="M35.735+27.634C36.757+26.537+37.773+25.448+38.774+24.374C39.15+23.97+39.489+23.275+39.529+22.823C39.569+22.371+39.283+22.32+38.89+22.708C37.872+23.715+36.849+24.73+35.82+25.752C35.427+26.142+35.156+26.01+35.247+25.465C35.48+24.086+35.885+22.311+35.823+20.946C35.799+20.394+35.754+19.858+35.879+19.739C36.004+19.621+36.049+19.53+35.977+19.53C35.904+19.53+35.784+19.589+35.707+19.662C35.631+19.735+35.376+19.347+34.889+19.089C33.867+18.549+32.169+18.867+31.121+18.867C28.525+18.867+25.93+18.867+23.332+18.867C23.122+18.867+22.911+18.867+22.701+18.867C22.352+18.867+22.008+18.81+21.933+18.738C21.858+18.666+21.745+18.658+21.667+18.733C21.589+18.808+21.279+18.868+20.973+18.868C20.788+18.868+20.604+18.868+20.419+18.868C19.87+18.868+19.398+18.79+19.002+18.658C18.478+18.484+18.442+17.877+18.835+17.49C19.398+16.934+19.961+16.379+20.525+15.823C20.918+15.435+21.685+15.142+22.235+15.18C25.617+15.414+31.847+16.052+34.743+14.888C35.255+14.682+35.651+14.402+35.699+14.402C35.747+14.402+36.113+14.097+36.516+13.721C37.016+13.255+37.518+12.788+38.018+12.323L39.575+10.877C39.744+10.706+39.912+10.536+40.079+10.367C40.357+10.086+40.339+9.648+39.966+9.545C39.593+9.441+38.95+9.728+38.546+10.103C38.103+10.515+37.659+10.926+37.216+11.337C36.812+11.713+36.566+11.597+36.601+11.072C36.636+10.547+36.743+9.96+36.959+9.759C37.177+9.558+37.109+9.394+36.808+9.394C36.507+9.394+36.124+9.205+35.88+9.077C35.745+9.007+35.587+8.956+35.402+8.931C31.42+8.37+27.236+8.732+23.215+8.732C21.726+8.732+9.43+7.569+9.678+10.345C9.931+13.182+10.184+16.02+10.438+18.857C10.676+21.519+10.297+24.382+13.374+25.192C16.298+25.962+20.227+25.242+23.277+25.242C24.609+25.242+28.325+24.495+28.098+27.024C27.774+30.649+25.243+31.883+22.726+31.441C22.182+31.344+21.998+30.962+22.292+30.685C22.586+30.407+22.815+30.164+22.803+30.142C22.791+30.12+22.538+30.339+22.238+30.633C21.937+30.927+21.268+31.02+20.783+30.755C20.548+30.627+20.32+30.484+20.099+30.326C19.649+30.006+19.66+29.383+20.065+29.008C20.381+28.715+20.698+28.422+21.014+28.128C21.419+27.753+21.6+27.281+21.361+27.158C21.212+27.081+21.055+27.039+20.895+27.039C20.792+27.039+20.692+27.039+20.597+27.039C20.432+27.039+19.971+27.343+19.566+27.719C19.458+27.821+19.35+27.92+19.242+28.021C18.837+28.397+18.325+28.443+18.138+28.1C17.951+27.756+17.934+27.371+18.053+27.26C18.171+27.151+18.135+27.081+18.003+27.17C17.872+27.259+17.587+26.932+17.097+26.676C15.907+26.06+13.672+26.149+12.895+26.516C10.443+27.673+11.529+31.085+11.717+33.193C12.044+36.868+18.486+37.275+21.065+37.986C23.604+38.687+25.385+37.828+27.951+37.117C28.128+37.068+28.337+37.019+28.57+36.968C28.913+36.894+29.008+37.03+28.783+37.27C28.557+37.507+28.434+37.685+28.511+37.664C28.585+37.643+28.834+37.435+29.066+37.202C29.298+36.968+29.921+36.692+30.455+36.569C30.988+36.445+31.251+36.49+31.049+36.694C30.848+36.898+31.115+36.943+31.647+36.796L32.504+36.56C33.036+36.413+33.779+35.971+34.165+35.576C35.437+34.267+36.769+32.901+38.124+31.511C38.51+31.116+38.862+30.349+38.912+29.799L38.924+29.668C38.973+29.118+38.697+28.99+38.309+29.382C37.377+30.32+36.462+31.242+35.559+32.152C35.17+32.544+34.914+32.494+34.956+32.036C34.998+31.578+35.328+30.887+35.717+30.494C36.656+29.546+37.574+28.619+38.456+27.728C38.846+27.334+39.176+26.838+39.195+26.619C39.214+26.4+39.142+26.315+39.033+26.432C38.969+26.503+38.902+26.575+38.835+26.644C37.773+27.77+36.74+28.866+35.725+29.942C35.346+30.342+35.051+30.221+35.055+29.67C35.055+29.57+35.057+29.472+35.057+29.373C35.053+28.814+35.358+28.039+35.735+27.634ZM18.402+16.034C18.326+16.112+18.25+16.19+18.174+16.268C17.789+16.664+17.477+16.493+17.836+16.074C17.936+15.957+18.058+15.846+18.2+15.744C18.65+15.423+18.787+15.639+18.402+16.034ZM32.738+31.312C32.442+34.634+31.73+34.7+28.542+35.583C23.667+36.936+23.529+37.09+18.831+35.791C15.913+34.983+13.754+33.872+13.474+30.733C13.315+28.947+14.885+25.241+16.395+29.31C17.584+32.516+20.586+32.912+23.717+32.913C26.419+32.914+29.629+31.576+29.897+28.587C30.108+26.235+30.192+23.877+27.151+23.877C24.047+23.877+20.944+23.877+17.841+23.877C11.59+23.877+12.543+20.297+12.108+15.424C11.914+13.248+10.553+10.096+13.462+10.096C16.651+10.096+19.84+10.096+23.028+10.096C25.391+10.096+27.754+10.096+30.117+10.096C30.985+10.096+34.665+9.744+34.568+10.839C34.493+11.685+34.416+12.53+34.339+13.377C34.089+16.164+16.377+10.324+15.254+16.496C14.253+21.994+24.217+20.234+27.22+20.234C28.287+20.234+33.794+19.452+33.65+21.07C33.348+24.483+33.042+27.897+32.738+31.312Z" opacity="1" fill="#527689"/>
<path d="M39.415+14.303C39.445+14.297+39.672+14.095+39.92+13.852C40.169+13.609+40.372+13.393+40.374+13.368C40.376+13.344+40.151+13.546+39.87+13.819C39.59+14.093+39.385+14.309+39.415+14.303Z" opacity="1" fill="#527689"/>
<path d="M39.176+14.342C39.26+14.33+39.563+14.089+39.854+13.804C40.147+13.52+40.387+13.232+40.393+13.16C40.4+13.088+40.096+13.328+39.713+13.695C39.331+14.064+39.092+14.355+39.176+14.342Z" opacity="1" fill="#527689"/>
</g>
</g>
</svg>
