<?xml version="1.0" encoding="UTF-8" standalone="no"?>
<!DOCTYPE svg PUBLIC "-//W3C//DTD SVG 1.1//EN" "http://www.w3.org/Graphics/SVG/1.1/DTD/svg11.dtd">
<svg version="1.1" xmlns="http://www.w3.org/2000/svg" xmlns:xlink="http://www.w3.org/1999/xlink" preserveAspectRatio="xMidYMid meet" viewBox="0 0 640 640" width="640" height="640"><defs><path d="M14.36 8.44L73.76 569.72L323.99 631.14L570.69 569.72L630.09 8.44L14.36 8.44Z" id="hIYybRY0Y"></path><linearGradient id="gradienti2U2FtVS3A" gradientUnits="userSpaceOnUse" x1="322.22" y1="8.44" x2="322.22" y2="631.14"><stop style="stop-color: #6b4f7a;stop-opacity: 1" offset="0%"></stop><stop style="stop-color: #010000;stop-opacity: 1" offset="100%"></stop></linearGradient><path d="M324.49 8.04L324.49 630.74L571.19 569.32L630.59 8.04L324.49 8.04Z" id="a27k0XPauT"></path><linearGradient id="gradientfbFSPLPQO" gradientUnits="userSpaceOnUse" x1="477.54" y1="8.04" x2="477.54" y2="630.74"><stop style="stop-color: #6b4f7a;stop-opacity: 1" offset="0%"></stop><stop style="stop-color: #010000;stop-opacity: 1" offset="100%"></stop></linearGradient><path d="M507.56 201.88L244.74 201.87L249.14 245.45L506.32 245.45L485.53 488.93L324.27 531.44L151.19 482.65L151.19 383.91L258.71 383.91L258.71 413.32L324.3 431.68L386.44 413.3L390.96 340.4L152.86 340.4L125.98 108.15L507.56 108.15L507.56 201.88Z" id="e18o6v9wNs"></path></defs><g><g><g><use xlink:href="#hIYybRY0Y" opacity="0.78" fill="url(#gradienti2U2FtVS3A)"></use><g><use xlink:href="#hIYybRY0Y" opacity="0.78" fill-opacity="0" stroke="#000000" stroke-width="1" stroke-opacity="0"></use></g></g><g><use xlink:href="#a27k0XPauT" opacity="1" fill="url(#gradientfbFSPLPQO)"></use><g><use xlink:href="#a27k0XPauT" opacity="1" fill-opacity="0" stroke="#000000" stroke-width="1" stroke-opacity="0"></use></g></g><g><use xlink:href="#e18o6v9wNs" opacity="1" fill="#ffffff" fill-opacity="1"></use><g><use xlink:href="#e18o6v9wNs" opacity="1" fill-opacity="0" stroke="#000000" stroke-width="1" stroke-opacity="0"></use></g></g></g></g></svg>