<?xml version="1.0" encoding="UTF-8" standalone="no"?>
<!DOCTYPE svg PUBLIC "-//W3C//DTD SVG 1.1//EN" "http://www.w3.org/Graphics/SVG/1.1/DTD/svg11.dtd">
<svg version="1.1" xmlns="http://www.w3.org/2000/svg" xmlns:xlink="http://www.w3.org/1999/xlink" preserveAspectRatio="xMidYMid meet" viewBox="0 0 640 640" width="640" height="640"><defs><path d="M375.96 258.69C393.45 258.73 379.04 258.77 343.95 258.77C308.85 258.77 294.54 258.73 312.15 258.69C329.75 258.64 358.47 258.64 375.96 258.69Z" id="b3Gdncq2A"></path><path d="M232.92 292.46C232.74 292.32 227.51 233.38 221.28 161.49C215.06 89.59 209.43 27.52 208.79 23.56C208.71 23.08 208.31 20.68 207.61 16.36C287.97 16.36 332.61 16.36 341.54 16.36C415.21 16.36 475.48 17.11 475.49 18.02C475.53 21.77 453.25 275.21 452.13 283.75C452.05 284.37 451.65 287.46 450.92 293.03C418.8 303.75 400.95 309.71 397.38 310.9C367.94 320.73 342.86 328.69 341.64 328.59C340.42 328.5 315.54 320.38 286.34 310.57C257.14 300.75 233.1 292.6 232.92 292.46ZM412.43 245.34C414.62 220.85 415.83 207.24 416.07 204.52C418.08 182.07 420.3 157.97 421.02 150.96C421.1 150.11 421.54 145.86 422.32 138.22L360.71 138.22L299.11 138.22C298.26 132.05 297.79 128.63 297.7 127.94C296.93 122.29 296.29 115.31 296.29 112.43C296.29 112.08 296.29 110.34 296.29 107.2L360.16 107.2L424.02 107.2C424.84 102.22 425.3 99.45 425.39 98.89C426.14 94.32 426.77 85.85 426.78 80.06C426.79 79.36 426.79 75.85 426.81 69.53C375.71 69.53 347.32 69.53 341.64 69.53C274.97 69.53 256.48 70.14 256.5 72.3C256.51 73.83 258.49 97.01 260.9 123.82C263.3 150.63 265.28 173.31 265.3 174.23C265.31 175.14 291.74 175.89 324.02 175.89C327.93 175.89 347.5 175.89 382.72 175.89C381.95 182.87 381.53 186.74 381.44 187.52C380.74 193.92 379.68 203.19 379.08 208.14C379.01 208.73 378.65 211.73 378 217.12L359.92 221.89L341.84 226.66L323.61 221.82L305.39 216.98L303.9 203.08L302.41 189.18L284.76 189.18L267.11 189.18C268.07 203.47 268.61 211.41 268.72 213C269.6 226.1 271.05 238.81 271.94 241.25C273.21 244.72 280.46 247.67 305.39 254.85C322.89 259.9 338.71 264.1 340.54 264.19C342.36 264.28 359.28 260.07 378.14 254.84C382.71 253.58 394.14 250.41 412.43 245.34Z" id="d8OYzeQqU"></path></defs><g><g><use xlink:href="#b3Gdncq2A" opacity="1" fill="#9eaec7" fill-opacity="1"></use><g><use xlink:href="#b3Gdncq2A" opacity="1" fill-opacity="0" stroke="#000000" stroke-width="0.08" stroke-opacity="0"></use></g></g><g><use xlink:href="#d8OYzeQqU" opacity="1" fill="#0a1a29" fill-opacity="1"></use><g><use xlink:href="#d8OYzeQqU" opacity="1" fill-opacity="0" stroke="#000000" stroke-width="0.53" stroke-opacity="0"></use></g></g></g></svg>