<?xml version="1.0" encoding="UTF-8" standalone="no"?>
<!DOCTYPE svg PUBLIC "-//W3C//DTD SVG 1.1//EN" "http://www.w3.org/Graphics/SVG/1.1/DTD/svg11.dtd">
<svg version="1.1" xmlns="http://www.w3.org/2000/svg" xmlns:xlink="http://www.w3.org/1999/xlink" preserveAspectRatio="xMidYMid meet" viewBox="0 0 640 640" width="640" height="640"><defs><path d="M534.16 240.58C531.76 240.58 529.4 240.69 527.07 240.91C533.25 224.64 564.14 143.32 619.76 -3.07L225.85 -3.07C281.38 143.19 312.24 224.45 318.41 240.7C317.05 240.63 315.69 240.58 314.31 240.58C277.04 240.58 246.82 267.54 246.82 300.8C246.82 327.69 266.57 350.45 293.82 358.2C279.42 380.45 261.31 400.49 240.75 417.8C212.79 441.34 180.79 459.19 146.18 470.19C104.98 451.3 85.52 409.28 103.08 372.45C105.06 368.29 107.08 364.07 109.02 359.87C138.87 353.66 161.11 329.77 161.11 301.24C161.11 267.97 130.9 241.01 93.63 241.01C56.35 241.01 26.14 267.97 26.14 301.24C26.14 321.64 37.51 339.65 54.89 350.55C38.19 384.49 13.64 420.01 5.99 461.17C-3.18 510.51 5.96 562.89 53.77 592.46C165.13 661.34 286.01 549.76 413.46 521.71C459.65 511.55 510.35 513.19 551.05 492.15C581.61 476.36 601.76 450.18 607.47 420.79C613.12 391.76 604.89 362.85 585.95 339.41C595.74 328.95 601.65 315.5 601.65 300.8C601.65 300.8 601.65 300.8 601.65 300.8C581.5 260.65 559.01 240.58 534.16 240.58ZM381.8 300.8C381.8 278.96 368.76 259.83 349.26 249.28C354.18 240.41 378.73 196.1 422.94 116.33C467.22 196.94 491.82 241.73 496.74 250.69C478.61 261.48 466.67 279.9 466.67 300.8C466.67 301.24 466.7 301.68 466.71 302.11C461.05 302.04 432.74 301.68 381.79 301.02L381.79 301.02C381.79 300.92 381.8 300.85 381.8 300.8Z" id="aGZkES0SL"></path><linearGradient id="gradientaFi6Nfnwm" gradientUnits="userSpaceOnUse" x1="311.28" y1="-3.07" x2="311.28" y2="614.56"><stop style="stop-color: #6b4f7a;stop-opacity: 1" offset="0%"></stop><stop style="stop-color: #010000;stop-opacity: 1" offset="100%"></stop></linearGradient><path d="M550.38 227.17C556.58 210.84 587.6 129.19 643.44 -17.78L203.54 -17.78C259.47 129.49 290.53 211.31 296.75 227.67C259.2 235.13 231.03 265.08 231.03 300.8C231.03 327.63 246.91 351.2 270.73 364.44C259.27 379.67 245.69 393.99 230.13 407.1C205.45 427.88 177.95 443.64 148.3 454C118.45 437.27 105.82 405.7 118.93 378.2C119.04 377.99 119.86 376.26 119.96 376.05C120.6 374.7 121.24 373.35 121.88 372C154.68 361.8 178.28 333.94 178.28 301.24C178.28 259.91 140.62 226.3 94.31 226.3C48.01 226.3 10.35 259.91 10.35 301.24C10.35 322.09 19.95 340.98 35.41 354.58C32.61 359.91 29.66 365.33 26.63 370.88C12.49 396.79 -3.53 426.16 -9.59 458.77C-21.62 523.53 -2.21 575.3 45.07 604.55C73.76 622.29 102.9 629.27 132.22 629.27C187.43 629.27 243.27 604.52 297.9 580.3C337.24 562.87 377.92 544.84 418.1 535.99C433.05 532.7 448.43 530.72 464.72 528.63C497.02 524.47 530.42 520.17 560 504.88C594.29 487.15 617.76 457.42 624.4 423.3C630.1 394.02 623.24 364.69 606.51 339.81C614.31 328.44 618.82 315.08 618.82 300.8C618.82 300.8 618.82 300.8 618.82 300.8C599.13 256.06 576.31 231.52 550.38 227.17ZM534.85 346.32C506.72 346.32 483.84 325.9 483.84 300.8C483.84 275.7 506.72 255.28 534.85 255.28C562.97 255.28 585.85 275.7 585.85 300.8C585.85 300.8 585.85 300.8 585.85 300.8C570.6 331.15 553.6 346.32 534.85 346.32ZM515.28 227.94C511.71 228.71 508.24 229.67 504.87 230.82C499.46 220.97 472.4 171.7 423.69 83.03C374.84 171.18 347.7 220.15 342.27 229.95C338.75 228.87 335.13 227.98 331.42 227.32C325.96 212.94 298.66 141.05 249.52 11.64L597.45 11.64L597.45 11.64C548.15 141.42 520.75 213.52 515.28 227.94ZM366 300.8C366 325.9 343.12 346.32 315 346.32C286.87 346.32 263.99 325.9 263.99 300.8C263.99 275.7 286.87 255.28 315 255.28C315 255.28 315 255.28 315 255.28C349 268.9 366 284.07 366 300.8ZM145.32 301.24C145.32 326.33 122.44 346.76 94.31 346.76C66.19 346.76 43.31 326.33 43.31 301.24C43.31 276.14 66.19 255.72 94.31 255.72C94.31 255.72 94.31 255.72 94.31 255.72C128.32 269.33 145.32 284.5 145.32 301.24ZM543.48 479.42C519.4 491.86 490.56 495.58 460.01 499.51C443.65 501.61 426.73 503.79 410.2 507.43C366.5 517.05 324.17 535.81 283.23 553.96C201.31 590.27 130.56 621.63 63.85 580.37C14.98 550.15 17.24 494.22 22.93 463.58C28.21 435.19 42.47 409.04 56.27 383.76C58.66 379.38 60.97 375.09 63.25 370.83C70.09 373.28 77.37 374.94 84.95 375.69C70.91 417.05 92.99 462.02 139.34 483.27C139.76 483.46 141.87 484.43 145.68 486.18C149.71 484.9 151.95 484.18 152.4 484.04C189.04 472.4 222.8 453.71 252.75 428.5C272.11 412.2 288.74 394.17 302.42 374.9C306.53 375.45 310.72 375.74 315 375.74C361.3 375.74 398.97 342.13 398.97 300.8C398.97 278.58 388.06 258.6 370.79 244.86C374.3 238.51 391.89 206.77 423.56 149.63C455.54 207.86 473.31 240.21 476.87 246.68C460.87 260.33 450.88 279.54 450.88 300.8C450.88 342.13 488.54 375.74 534.85 375.74C552.63 375.74 569.14 370.77 582.73 362.31C592.17 379.55 595.68 398.95 591.92 418.27C591.92 418.27 591.92 418.27 591.92 418.27C576.84 450.14 560.69 470.52 543.48 479.42Z" id="dJdxCs8Id"></path></defs><g><g><g><use xlink:href="#aGZkES0SL" opacity="1" fill="url(#gradientaFi6Nfnwm)"></use><g><use xlink:href="#aGZkES0SL" opacity="1" fill-opacity="0" stroke="#000000" stroke-width="1" stroke-opacity="0"></use></g></g><g><use xlink:href="#dJdxCs8Id" opacity="1" fill="#ffffff" fill-opacity="1"></use><g><use xlink:href="#dJdxCs8Id" opacity="1" fill-opacity="0" stroke="#000000" stroke-width="1" stroke-opacity="0"></use></g></g></g></g></svg>