<?xml version="1.0" encoding="UTF-8" standalone="no"?> <!-- Created with Vectornator for iOS (http://vectornator.io/) --><!DOCTYPE svg PUBLIC "-//W3C//DTD SVG 1.1//EN" "http://www.w3.org/Graphics/SVG/1.1/DTD/svg11.dtd">
<svg height="100%" style="fill-rule:nonzero;clip-rule:evenodd;stroke-linecap:round;stroke-linejoin:round;" xmlns:xlink="http://www.w3.org/1999/xlink" xmlns="http://www.w3.org/2000/svg" xml:space="preserve" width="100%" xmlns:vectornator="http://vectornator.io" version="1.1" viewBox="0 0 640 640">
<metadata>
<vectornator:setting key="DimensionsVisible" value="1"/>
<vectornator:setting key="PencilOnly" value="0"/>
<vectornator:setting key="SnapToPoints" value="0"/>
<vectornator:setting key="OutlineMode" value="0"/>
<vectornator:setting key="CMYKEnabledKey" value="0"/>
<vectornator:setting key="RulersVisible" value="1"/>
<vectornator:setting key="SnapToEdges" value="0"/>
<vectornator:setting key="GuidesVisible" value="1"/>
<vectornator:setting key="DisplayWhiteBackground" value="0"/>
<vectornator:setting key="doHistoryDisabled" value="0"/>
<vectornator:setting key="SnapToGuides" value="1"/>
<vectornator:setting key="TimeLapseWatermarkDisabled" value="0"/>
<vectornator:setting key="Units" value="Points"/>
<vectornator:setting key="DynamicGuides" value="0"/>
<vectornator:setting key="IsolateActiveLayer" value="0"/>
<vectornator:setting key="SnapToGrid" value="0"/>
</metadata>
<defs>
<linearGradient y1="-3.07" id="LinearGradient" x1="311.28" y2="614.56" x2="311.28" gradientUnits="userSpaceOnUse" gradientTransform="matrix(1 0 0 1 0 0)">
<stop stop-color="#6b4f7a" offset="0"/>
<stop stop-color="#010000" offset="1"/>
</linearGradient>
</defs>
<g id="Untitled" vectornator:layerName="Untitled" visibility="hidden">
<g opacity="1">
<g opacity="1">
<path d="M534.16+240.58C531.76+240.58+529.4+240.69+527.07+240.91C533.25+224.64+564.14+143.32+619.76-3.07L225.85-3.07C281.38+143.19+312.24+224.45+318.41+240.7C317.05+240.63+315.69+240.58+314.31+240.58C277.04+240.58+246.82+267.54+246.82+300.8C246.82+327.69+266.57+350.45+293.82+358.2C279.42+380.45+261.31+400.49+240.75+417.8C212.79+441.34+180.79+459.19+146.18+470.19C104.98+451.3+85.52+409.28+103.08+372.45C105.06+368.29+107.08+364.07+109.02+359.87C138.87+353.66+161.11+329.77+161.11+301.24C161.11+267.97+130.9+241.01+93.63+241.01C56.35+241.01+26.14+267.97+26.14+301.24C26.14+321.64+37.51+339.65+54.89+350.55C38.19+384.49+13.64+420.01+5.99+461.17C-3.18+510.51+5.96+562.89+53.77+592.46C165.13+661.34+286.01+549.76+413.46+521.71C459.65+511.55+510.35+513.19+551.05+492.15C581.61+476.36+601.76+450.18+607.47+420.79C613.12+391.76+604.89+362.85+585.95+339.41C595.74+328.95+601.65+315.5+601.65+300.8L601.65+300.8C581.5+260.65+559.01+240.58+534.16+240.58ZM381.8+300.8C381.8+278.96+368.76+259.83+349.26+249.28C354.18+240.41+378.73+196.1+422.94+116.33C467.22+196.94+491.82+241.73+496.74+250.69C478.61+261.48+466.67+279.9+466.67+300.8C466.67+301.24+466.7+301.68+466.71+302.11C461.05+302.04+432.74+301.68+381.79+301.02L381.79+301.02C381.79+300.92+381.8+300.85+381.8+300.8Z" opacity="1" fill="url(#LinearGradient)"/>
<path stroke="#000000" stroke-opacity="0" stroke-width="1" d="M534.16+240.58C531.76+240.58+529.4+240.69+527.07+240.91C533.25+224.64+564.14+143.32+619.76-3.07L225.85-3.07C281.38+143.19+312.24+224.45+318.41+240.7C317.05+240.63+315.69+240.58+314.31+240.58C277.04+240.58+246.82+267.54+246.82+300.8C246.82+327.69+266.57+350.45+293.82+358.2C279.42+380.45+261.31+400.49+240.75+417.8C212.79+441.34+180.79+459.19+146.18+470.19C104.98+451.3+85.52+409.28+103.08+372.45C105.06+368.29+107.08+364.07+109.02+359.87C138.87+353.66+161.11+329.77+161.11+301.24C161.11+267.97+130.9+241.01+93.63+241.01C56.35+241.01+26.14+267.97+26.14+301.24C26.14+321.64+37.51+339.65+54.89+350.55C38.19+384.49+13.64+420.01+5.99+461.17C-3.18+510.51+5.96+562.89+53.77+592.46C165.13+661.34+286.01+549.76+413.46+521.71C459.65+511.55+510.35+513.19+551.05+492.15C581.61+476.36+601.76+450.18+607.47+420.79C613.12+391.76+604.89+362.85+585.95+339.41C595.74+328.95+601.65+315.5+601.65+300.8L601.65+300.8C581.5+260.65+559.01+240.58+534.16+240.58ZM381.8+300.8C381.8+278.96+368.76+259.83+349.26+249.28C354.18+240.41+378.73+196.1+422.94+116.33C467.22+196.94+491.82+241.73+496.74+250.69C478.61+261.48+466.67+279.9+466.67+300.8C466.67+301.24+466.7+301.68+466.71+302.11C461.05+302.04+432.74+301.68+381.79+301.02L381.79+301.02C381.79+300.92+381.8+300.85+381.8+300.8Z" fill="#000000" stroke-linecap="butt" fill-opacity="0" opacity="1" stroke-linejoin="miter"/>
</g>
<g opacity="1">
<path d="M550.38+227.17C556.58+210.84+587.6+129.19+643.44-17.78L203.54-17.78C259.47+129.49+290.53+211.31+296.75+227.67C259.2+235.13+231.03+265.08+231.03+300.8C231.03+327.63+246.91+351.2+270.73+364.44C259.27+379.67+245.69+393.99+230.13+407.1C205.45+427.88+177.95+443.64+148.3+454C118.45+437.27+105.82+405.7+118.93+378.2C119.04+377.99+119.86+376.26+119.96+376.05C120.6+374.7+121.24+373.35+121.88+372C154.68+361.8+178.28+333.94+178.28+301.24C178.28+259.91+140.62+226.3+94.31+226.3C48.01+226.3+10.35+259.91+10.35+301.24C10.35+322.09+19.95+340.98+35.41+354.58C32.61+359.91+29.66+365.33+26.63+370.88C12.49+396.79-3.53+426.16-9.59+458.77C-21.62+523.53-2.21+575.3+45.07+604.55C73.76+622.29+102.9+629.27+132.22+629.27C187.43+629.27+243.27+604.52+297.9+580.3C337.24+562.87+377.92+544.84+418.1+535.99C433.05+532.7+448.43+530.72+464.72+528.63C497.02+524.47+530.42+520.17+560+504.88C594.29+487.15+617.76+457.42+624.4+423.3C630.1+394.02+623.24+364.69+606.51+339.81C614.31+328.44+618.82+315.08+618.82+300.8L618.82+300.8C599.13+256.06+576.31+231.52+550.38+227.17ZM534.85+346.32C506.72+346.32+483.84+325.9+483.84+300.8C483.84+275.7+506.72+255.28+534.85+255.28C562.97+255.28+585.85+275.7+585.85+300.8L585.85+300.8C570.6+331.15+553.6+346.32+534.85+346.32ZM515.28+227.94C511.71+228.71+508.24+229.67+504.87+230.82C499.46+220.97+472.4+171.7+423.69+83.03C374.84+171.18+347.7+220.15+342.27+229.95C338.75+228.87+335.13+227.98+331.42+227.32C325.96+212.94+298.66+141.05+249.52+11.64L597.45+11.64L597.45+11.64C548.15+141.42+520.75+213.52+515.28+227.94ZM366+300.8C366+325.9+343.12+346.32+315+346.32C286.87+346.32+263.99+325.9+263.99+300.8C263.99+275.7+286.87+255.28+315+255.28L315+255.28C349+268.9+366+284.07+366+300.8ZM145.32+301.24C145.32+326.33+122.44+346.76+94.31+346.76C66.19+346.76+43.31+326.33+43.31+301.24C43.31+276.14+66.19+255.72+94.31+255.72L94.31+255.72C128.32+269.33+145.32+284.5+145.32+301.24ZM543.48+479.42C519.4+491.86+490.56+495.58+460.01+499.51C443.65+501.61+426.73+503.79+410.2+507.43C366.5+517.05+324.17+535.81+283.23+553.96C201.31+590.27+130.56+621.63+63.85+580.37C14.98+550.15+17.24+494.22+22.93+463.58C28.21+435.19+42.47+409.04+56.27+383.76C58.66+379.38+60.97+375.09+63.25+370.83C70.09+373.28+77.37+374.94+84.95+375.69C70.91+417.05+92.99+462.02+139.34+483.27C139.76+483.46+141.87+484.43+145.68+486.18C149.71+484.9+151.95+484.18+152.4+484.04C189.04+472.4+222.8+453.71+252.75+428.5C272.11+412.2+288.74+394.17+302.42+374.9C306.53+375.45+310.72+375.74+315+375.74C361.3+375.74+398.97+342.13+398.97+300.8C398.97+278.58+388.06+258.6+370.79+244.86C374.3+238.51+391.89+206.77+423.56+149.63C455.54+207.86+473.31+240.21+476.87+246.68C460.87+260.33+450.88+279.54+450.88+300.8C450.88+342.13+488.54+375.74+534.85+375.74C552.63+375.74+569.14+370.77+582.73+362.31C592.17+379.55+595.68+398.95+591.92+418.27L591.92+418.27C576.84+450.14+560.69+470.52+543.48+479.42Z" opacity="1" fill="#ffffff"/>
<path stroke="#000000" stroke-opacity="0" stroke-width="1" d="M550.38+227.17C556.58+210.84+587.6+129.19+643.44-17.78L203.54-17.78C259.47+129.49+290.53+211.31+296.75+227.67C259.2+235.13+231.03+265.08+231.03+300.8C231.03+327.63+246.91+351.2+270.73+364.44C259.27+379.67+245.69+393.99+230.13+407.1C205.45+427.88+177.95+443.64+148.3+454C118.45+437.27+105.82+405.7+118.93+378.2C119.04+377.99+119.86+376.26+119.96+376.05C120.6+374.7+121.24+373.35+121.88+372C154.68+361.8+178.28+333.94+178.28+301.24C178.28+259.91+140.62+226.3+94.31+226.3C48.01+226.3+10.35+259.91+10.35+301.24C10.35+322.09+19.95+340.98+35.41+354.58C32.61+359.91+29.66+365.33+26.63+370.88C12.49+396.79-3.53+426.16-9.59+458.77C-21.62+523.53-2.21+575.3+45.07+604.55C73.76+622.29+102.9+629.27+132.22+629.27C187.43+629.27+243.27+604.52+297.9+580.3C337.24+562.87+377.92+544.84+418.1+535.99C433.05+532.7+448.43+530.72+464.72+528.63C497.02+524.47+530.42+520.17+560+504.88C594.29+487.15+617.76+457.42+624.4+423.3C630.1+394.02+623.24+364.69+606.51+339.81C614.31+328.44+618.82+315.08+618.82+300.8L618.82+300.8C599.13+256.06+576.31+231.52+550.38+227.17ZM534.85+346.32C506.72+346.32+483.84+325.9+483.84+300.8C483.84+275.7+506.72+255.28+534.85+255.28C562.97+255.28+585.85+275.7+585.85+300.8L585.85+300.8C570.6+331.15+553.6+346.32+534.85+346.32ZM515.28+227.94C511.71+228.71+508.24+229.67+504.87+230.82C499.46+220.97+472.4+171.7+423.69+83.03C374.84+171.18+347.7+220.15+342.27+229.95C338.75+228.87+335.13+227.98+331.42+227.32C325.96+212.94+298.66+141.05+249.52+11.64L597.45+11.64L597.45+11.64C548.15+141.42+520.75+213.52+515.28+227.94ZM366+300.8C366+325.9+343.12+346.32+315+346.32C286.87+346.32+263.99+325.9+263.99+300.8C263.99+275.7+286.87+255.28+315+255.28L315+255.28C349+268.9+366+284.07+366+300.8ZM145.32+301.24C145.32+326.33+122.44+346.76+94.31+346.76C66.19+346.76+43.31+326.33+43.31+301.24C43.31+276.14+66.19+255.72+94.31+255.72L94.31+255.72C128.32+269.33+145.32+284.5+145.32+301.24ZM543.48+479.42C519.4+491.86+490.56+495.58+460.01+499.51C443.65+501.61+426.73+503.79+410.2+507.43C366.5+517.05+324.17+535.81+283.23+553.96C201.31+590.27+130.56+621.63+63.85+580.37C14.98+550.15+17.24+494.22+22.93+463.58C28.21+435.19+42.47+409.04+56.27+383.76C58.66+379.38+60.97+375.09+63.25+370.83C70.09+373.28+77.37+374.94+84.95+375.69C70.91+417.05+92.99+462.02+139.34+483.27C139.76+483.46+141.87+484.43+145.68+486.18C149.71+484.9+151.95+484.18+152.4+484.04C189.04+472.4+222.8+453.71+252.75+428.5C272.11+412.2+288.74+394.17+302.42+374.9C306.53+375.45+310.72+375.74+315+375.74C361.3+375.74+398.97+342.13+398.97+300.8C398.97+278.58+388.06+258.6+370.79+244.86C374.3+238.51+391.89+206.77+423.56+149.63C455.54+207.86+473.31+240.21+476.87+246.68C460.87+260.33+450.88+279.54+450.88+300.8C450.88+342.13+488.54+375.74+534.85+375.74C552.63+375.74+569.14+370.77+582.73+362.31C592.17+379.55+595.68+398.95+591.92+418.27L591.92+418.27C576.84+450.14+560.69+470.52+543.48+479.42Z" fill="#000000" stroke-linecap="butt" fill-opacity="0" opacity="1" stroke-linejoin="miter"/>
</g>
</g>
</g>
<g id="Layer 1" vectornator:layerName="Layer 1">
<path stroke="#000000" stroke-width="1" d="M118.175+242.806C128.114+245.506+127.397+261.4+117.25+263.183C95.3868+260.334+68.8078+255.007+52.8703+275.582C48.5602+280.659+45.0921+286.817+44.3768+293.534C45.7838+323.783+71.2901+360.233+104.091+359.776C109.857+357.986+115.465+354.895+119.766+350.605C132.746+335.657+136.975+312.477+129.944+293.93C126.547+284.473+121.583+275.632+115.234+267.846C110.91+263.725+107.404+258.634+102.145+255.597C99.98+254.208+97.7261+252.932+95.3261+251.993C75.6203+252.075+84.1029+221.438+101.17+231.619C105.6+233.128+109.786+235.307+113.702+237.858C120.708+242.01+125.82+248.424+131.426+254.174C137.003+261.278+142.253+268.788+145.851+277.114C174.639+321.348+133.398+402.495+77.0284+376.1C45.7111+358.845+18.8778+323.124+24.251+286.022C33.7602+245.54+81.995+230.061+118.175+242.806L118.175+242.806Z" fill="#4f6d7a" stroke-linecap="butt" opacity="1" stroke-linejoin="round"/>
<path stroke="#000000" stroke-width="1" d="M356.737+238.672C366.787+249.525+346.917+264.009+339.658+251.134C339.72+251.444+336.531+250.153+335.639+250.273C312.924+246.873+288.113+255.507+272.521+272.315C241.303+318.17+309.995+384.954+352.352+345.36C365.003+328.167+364.375+305.084+357.036+285.849C353.408+275.247+349.193+264.587+341.831+255.959C339.428+253.162+336.593+250.703+333.457+248.76C316.013+250.871+316.8+222.189+334.266+227.111C338.503+227.522+342.379+229.502+345.97+231.667C379.984+259.541+395.718+315.346+371.802+354.495C346.455+390.662+287.113+382.858+263.038+349.09C243.026+325.144+236.523+288.741+254.219+261.631C275.766+234.741+315.955+220.962+349.031+232.394C352.075+233.83+354.632+236.073+356.737+238.672L356.737+238.672Z" fill="#4f6d7a" stroke-linecap="butt" opacity="1" stroke-linejoin="round"/>
<path stroke="#000000" stroke-width="1" d="M545.331+230.131C561.808+231.322+554.809+257.16+539.596+250.999C537.157+250.856+534.714+250.804+532.271+250.823C527.868+250.837+523.467+251.263+519.128+251.988C501.464+258.101+480.179+268.985+476.856+289.52C471.872+316.305+482.658+347.758+508.36+359.915C537.225+371.804+573.503+362.098+588.34+333.248C594.899+323.395+602.187+312.954+601.152+300.48C598.965+277.194+573.986+263.521+553.844+257.294C545.267+254.859+536.333+252.966+527.381+253.943C523.122+254.821+518.942+256.388+515.313+258.811C513.665+259.951+512.251+261.384+510.815+262.771C499.358+278.737+480.205+253.502+498.215+245.519C502.535+241.411+507.752+238.334+513.281+236.154C556.311+223.816+615.195+251.368+622.276+298.182C622.218+332.818+596.646+364.999+566.719+380.373C542.451+388.481+513.426+388.379+491.182+374.586C456.998+352.469+444.858+303.447+462.544+267.254C480.172+240.835+513.682+225.592+545.331+230.131L545.331+230.131Z" fill="#4f6d7a" stroke-linecap="butt" opacity="1" stroke-linejoin="round"/>
<path stroke="#000000" stroke-width="1" d="M350.818+258.349C348.948+271.099+328.188+268.232+329.853+255.452C330.434+250.977+331.809+246.576+334.092+242.669C361.023+202.566+384.786+160.664+407.721+118.203C409.34+116.461+410.463+113.752+413.133+113.422C418.471+112.869+423.878+114.56+428.624+116.888C432.929+123.456+435.607+131.575+440.224+138.241C467.502+169.45+480.383+210.912+509.243+240.622C507.717+242.335+503.13+239.659+500.872+241.552C534.56+173.468+564.204+103.501+593.108+33.3481C599.067+23.3145+606.216+13.8985+615.068+6.24092C617.417+9.31993+613.848+17.0946+618.78+19.291C549.025+20.851+479.252+14.7149+409.471+17.902C351.669+11.6491+293.693+16.209+235.799+17.4449C227.392+17.279+219.051+15.9389+210.74+14.751C206.777+9.10559+204.199-1.52465+208.905-7.10992C215.248-6.3252+221.064-3.47756+226.617-0.474293C306.917+49.185+333.469+151.015+333.745+239.935C332.975+248.733+342.638+256.276+338.889+265.024C336.408+271.027+328.054+273.207+322.956+269.182C316.502+263.509+315.461+253.86+313.209+246.064C312.227+160.453+290.068+55.767+206.589+13.7531C206.468+9.3467+208.648+5.21423+209.662+1.02066C210.854-1.39299+211.463-4.88784+214.235-6.16293C221.53-5.14461+228.844-3.92473+236.217-3.75172C294.143-5.08124+352.162-9.52931+409.999-3.29714C479.657-6.44092+549.29-0.485483+618.936-1.78614C623.053-1.68701+627.119-0.314628+630.315+2.31837C633.663+6.63351+633.314+12.7286+632.425+17.8227C625.469+26.2176+616.844+33.7386+611.617+43.6732C582.887+114.01+553.18+184.077+519.086+252.075C517.102+255.25+514.354+258.266+510.754+259.552C506.405+260.552+501.47+260.45+497.474+258.292C464.101+227.765+450.761+182.015+421.374+148.04C417.557+141.606+413.959+134.984+411.106+128.067C413.725+125.456+421.549+129.634+425.204+129.866C403.206+171.366+380.185+212.209+353.65+251.027C352.272+253.27+350.959+255.664+350.818+258.349L350.818+258.349Z" fill="#4f6d7a" stroke-linecap="butt" opacity="1" stroke-linejoin="round"/>
<path stroke="#000000" stroke-width="1" d="M285.303+352.823C297.205+342.234+310.996+364.218+296.706+371.021C295.106+372.646+293.919+374.614+292.821+376.596C288.636+383.891+285.121+391.552+280.53+398.6C256.721+445.277+206.279+473.097+156.424+482.859C149.472+483.529+142.412+483.274+135.508+482.267C128.147+480.497+121.243+477.005+114.861+472.996C84.6961+449.354+82.0626+406.82+81.6037+371.446C82.1578+368.45+82.1578+365.184+83.6841+362.451C90.9677+349.517+109.648+362.377+102.6+374.72C102.5+377.475+102.603+380.233+102.567+382.989C104.07+401.826+106.163+421.082+113.589+438.647C119.058+450.702+130.506+461.43+144.23+461.888C150.715+462.512+157.157+461.517+163.493+460.222C207.117+447.779+249.351+421.376+267.713+378.196C270.238+374.138+272.315+369.827+274.672+365.674C277.414+360.793+280.959+356.368+285.303+352.823L285.303+352.823Z" fill="#4f6d7a" stroke-linecap="butt" opacity="1" stroke-linejoin="round"/>
<path stroke="#000000" stroke-width="1" d="M585.373+364.478C573.825+355.232+591.123+338.024+600.437+349.488C602.697+351.366+604.46+353.78+605.866+356.344C621.091+392.851+621.128+440.213+595.793+472.224C588.503+479.971+578.356+483.894+568.522+487.295C550.685+492.307+532.419+495.639+514.562+500.635C504.632+503.839+494.673+506.956+484.815+510.386C411.787+540.453+332.458+553.59+262.702+591.65C256.568+594.296+250.466+597.011+244.417+599.845C230.028+604.834+216.496+612.363+201.47+615.447C172.179+620.698+142.334+625.526+112.492+623.751C92.2566+620.398+73.0049+610.957+58.1756+596.767C0.00060896+543.372-9.55764+445.402+39.6892+383.074C45.9788+372.583+52.6675+362.268+60.6174+352.943C62.26+351.169+64.0036+349.49+65.6119+347.683C70.8183+335.71+90.5657+341.678+86.5942+354.505C70.3107+375.958+52.5831+397.531+40.5496+422.024C31.1561+445.403+27.4822+471.174+29.893+496.262C35.8325+538.533+60.4771+583.155+101.906+599.287C136.216+608.199+172.699+598.892+206.698+592.139C247.085+577.198+284.572+555.655+325.039+540.849C405.366+519.094+481.744+484.525+563.141+466.732C569.524+464.246+576.645+462.197+581.224+456.759C598.692+430.474+599.44+391.811+585.373+364.478L585.373+364.478Z" fill="#4f6d7a" stroke-linecap="butt" opacity="1" stroke-linejoin="round"/>
</g>
</svg>
