<?xml version="1.0" encoding="UTF-8" standalone="no"?>
<!DOCTYPE svg PUBLIC "-//W3C//DTD SVG 1.1//EN" "http://www.w3.org/Graphics/SVG/1.1/DTD/svg11.dtd">
<svg version="1.1" xmlns="http://www.w3.org/2000/svg" xmlns:xlink="http://www.w3.org/1999/xlink" preserveAspectRatio="xMidYMid meet" viewBox="0 0 640 640" width="640" height="640"><defs><path d="M534.85 241.27C532.45 241.27 530.09 241.38 527.76 241.6C533.94 225.33 564.83 144.01 620.45 -2.38L226.54 -2.38C282.07 143.88 312.93 225.14 319.1 241.39C317.74 241.32 316.38 241.27 315 241.27C277.73 241.27 247.51 268.23 247.51 301.49C247.51 328.38 267.25 351.14 294.51 358.89C280.11 381.14 262 401.18 241.44 418.49C213.48 442.03 181.48 459.88 146.87 470.88C105.67 451.99 86.21 409.97 103.77 373.14C105.75 368.98 107.77 364.76 109.71 360.56C139.56 354.34 161.8 330.46 161.8 301.93C161.8 268.66 131.59 241.7 94.32 241.7C57.04 241.7 26.83 268.66 26.83 301.93C26.83 322.33 38.2 340.34 55.58 351.23C38.88 385.18 14.33 420.7 6.68 461.86C-2.49 511.2 6.65 563.58 54.46 593.15C165.82 662.03 286.7 550.45 414.15 522.4C460.34 512.24 511.04 513.88 551.74 492.84C582.3 477.05 602.45 450.87 608.16 421.48C613.81 392.45 605.58 363.54 586.64 340.1C596.43 329.64 602.34 316.19 602.34 301.49C602.34 301.49 602.34 301.49 602.34 301.49C582.19 261.34 559.7 241.27 534.85 241.27ZM382.49 301.49C382.49 279.65 369.45 260.52 349.95 249.97C354.87 241.1 379.42 196.79 423.63 117.02C467.91 197.63 492.51 242.42 497.43 251.38C479.3 262.17 467.36 280.59 467.36 301.49C467.36 301.93 467.39 302.37 467.4 302.8C461.74 302.73 433.43 302.36 382.48 301.71L382.48 301.71C382.48 301.61 382.49 301.54 382.49 301.49Z" id="a5djW1ucy"></path><path d="M550.38 227.87C556.58 211.54 587.6 129.89 643.44 -17.09L203.54 -17.09C259.47 130.18 290.53 212 296.75 228.36C259.2 235.82 231.03 265.77 231.03 301.49C231.03 328.32 246.91 351.89 270.73 365.13C259.27 380.36 245.69 394.69 230.13 407.79C205.45 428.57 177.95 444.33 148.3 454.7C118.45 437.96 105.82 406.39 118.93 378.89C119.04 378.68 119.86 376.96 119.96 376.74C120.6 375.4 121.24 374.05 121.88 372.69C154.68 362.49 178.28 334.63 178.28 301.93C178.28 260.61 140.62 226.99 94.31 226.99C48.01 226.99 10.35 260.61 10.35 301.93C10.35 322.78 19.95 341.67 35.41 355.27C32.61 360.6 29.66 366.02 26.63 371.57C12.49 397.48 -3.53 426.85 -9.59 459.46C-21.62 524.22 -2.21 576 45.07 605.24C73.76 622.99 102.9 629.97 132.22 629.96C187.43 629.96 243.27 605.21 297.9 581C337.24 563.56 377.92 545.53 418.1 536.68C433.05 533.39 448.43 531.41 464.72 529.32C497.02 525.16 530.42 520.86 560 505.57C594.29 487.85 617.76 458.11 624.4 424C630.1 394.71 623.24 365.38 606.51 340.5C614.31 329.13 618.82 315.78 618.82 301.49C618.82 301.49 618.82 301.49 618.82 301.49C599.13 256.76 576.31 232.21 550.38 227.87ZM534.85 347.01C506.72 347.01 483.84 326.59 483.84 301.49C483.84 276.4 506.72 255.98 534.85 255.98C562.97 255.98 585.85 276.4 585.85 301.49C585.85 301.49 585.85 301.49 585.85 301.49C570.6 331.84 553.6 347.01 534.85 347.01ZM515.28 228.63C511.71 229.4 508.24 230.36 504.87 231.51C499.46 221.66 472.4 172.4 423.69 83.72C374.84 171.87 347.7 220.84 342.27 230.64C338.75 229.56 335.13 228.67 331.42 228.01C325.96 213.63 298.66 141.74 249.52 12.33L597.45 12.33L597.45 12.33C548.15 142.11 520.75 214.21 515.28 228.63ZM366 301.49C366 326.59 343.12 347.01 315 347.01C286.87 347.01 263.99 326.59 263.99 301.49C263.99 276.4 286.87 255.98 315 255.98C315 255.98 315 255.98 315 255.98C349 269.59 366 284.76 366 301.49ZM145.32 301.93C145.32 327.03 122.44 347.45 94.31 347.45C66.19 347.45 43.31 327.03 43.31 301.93C43.31 276.83 66.19 256.41 94.31 256.41C94.31 256.41 94.31 256.41 94.31 256.41C128.32 270.02 145.32 285.19 145.32 301.93ZM543.48 480.11C519.4 492.56 490.56 496.27 460.01 500.2C443.65 502.31 426.73 504.48 410.2 508.12C366.5 517.74 324.17 536.5 283.23 554.65C201.31 590.96 130.56 622.32 63.85 581.06C14.98 550.84 17.24 494.92 22.93 464.27C28.21 435.88 42.47 409.73 56.27 384.45C58.66 380.07 60.97 375.78 63.25 371.53C70.09 373.97 77.37 375.63 84.95 376.39C70.91 417.74 92.99 462.71 139.34 483.96C139.76 484.15 141.87 485.12 145.68 486.87C149.71 485.59 151.95 484.88 152.4 484.73C189.04 473.09 222.8 454.4 252.75 429.19C272.11 412.89 288.74 394.86 302.42 375.59C306.53 376.14 310.72 376.43 315 376.43C361.3 376.43 398.97 342.82 398.97 301.49C398.97 279.27 388.06 259.29 370.79 245.55C374.3 239.2 391.89 207.46 423.56 150.32C455.54 208.55 473.31 240.9 476.87 247.37C460.87 261.02 450.88 280.23 450.88 301.49C450.88 342.82 488.54 376.43 534.85 376.43C552.63 376.43 569.14 371.46 582.73 363C592.17 380.24 595.68 399.64 591.92 418.96C591.92 418.96 591.92 418.96 591.92 418.96C576.84 450.83 560.69 471.21 543.48 480.11Z" id="a2TgqIMaJ"></path></defs><g><g><use xlink:href="#a5djW1ucy" opacity="1" fill="#0a1a29" fill-opacity="1"></use><g><use xlink:href="#a5djW1ucy" opacity="1" fill-opacity="0" stroke="#000000" stroke-width="1" stroke-opacity="0"></use></g></g><g><use xlink:href="#a2TgqIMaJ" opacity="1" fill="#ffffff" fill-opacity="1"></use><g><use xlink:href="#a2TgqIMaJ" opacity="1" fill-opacity="0" stroke="#000000" stroke-width="1" stroke-opacity="0"></use></g></g></g></svg>