<?xml version="1.0" encoding="UTF-8" standalone="no"?>
<!DOCTYPE svg PUBLIC "-//W3C//DTD SVG 1.1//EN" "http://www.w3.org/Graphics/SVG/1.1/DTD/svg11.dtd">
<svg version="1.1" xmlns="http://www.w3.org/2000/svg" xmlns:xlink="http://www.w3.org/1999/xlink" preserveAspectRatio="xMidYMid meet" viewBox="0 0 640 640" width="640" height="640"><defs><path d="M5.71 286.47L5.71 3.34L320 3.34L634.29 3.34L634.29 286.47L634.29 569.61L320 569.61L5.71 569.61L5.71 286.47ZM345.41 469.89C347.63 461.07 349.5 410.99 349.55 358.59C349.56 352.24 349.59 320.48 349.65 263.32L318.25 263.32L286.85 263.32C286.12 322.93 285.72 356.05 285.64 362.68C284.51 454.5 283.85 462.6 276.89 469.52C264.52 481.82 244.63 479.59 228.93 464.15C221.74 457.08 214.37 451.88 212.55 452.58C199.12 457.77 167.8 475.83 167.8 478.37C167.79 486.75 186.11 506.52 201.34 514.56C232.7 531.12 272.47 532.79 305.43 518.93C325.21 510.62 339.56 493.02 345.41 469.89ZM586.12 458.76C589.57 415.77 570.98 393.89 508.75 367.69C456.65 345.76 445.84 333.37 464.29 316.74C476.41 305.83 495.07 307.48 510.35 320.82C511.2 321.57 515.48 325.3 523.17 332.02C537.51 323.7 545.48 319.07 547.07 318.15C560.21 310.52 570.98 303.04 571 301.51C571.09 294.52 534.92 267.08 521.03 263.61C473.96 251.84 425.44 264.89 406.17 294.5C385.77 325.87 394.88 371.7 425.71 392.83C432.8 397.69 455.79 408.84 476.79 417.61C497.96 426.46 516.91 436.8 519.29 440.81C526.25 452.52 524.29 461.75 513.18 469.63C492.05 484.6 451.3 476.25 434.81 453.58C434.37 452.98 432.17 449.96 428.22 444.53C414.73 451.3 407.24 455.07 405.74 455.82C375.7 470.9 375.08 471.61 382.63 482C414.21 525.42 486.14 541.29 542.57 517.28C570.45 505.42 583.81 487.46 586.12 458.76Z" id="a1T3aAwGS"></path></defs><g><g><use xlink:href="#a1T3aAwGS" opacity="1" fill="#0a1a29" fill-opacity="1"></use><g><use xlink:href="#a1T3aAwGS" opacity="1" fill-opacity="0" stroke="#000000" stroke-width="0.37" stroke-opacity="0"></use></g></g></g></svg>