<?xml version="1.0" encoding="UTF-8" standalone="no"?> <!-- Created with Vectornator for iOS (http://vectornator.io/) --><!DOCTYPE svg PUBLIC "-//W3C//DTD SVG 1.1//EN" "http://www.w3.org/Graphics/SVG/1.1/DTD/svg11.dtd">
<svg height="100%" style="fill-rule:nonzero;clip-rule:evenodd;stroke-linecap:round;stroke-linejoin:round;" xmlns:xlink="http://www.w3.org/1999/xlink" xmlns="http://www.w3.org/2000/svg" xml:space="preserve" width="100%" xmlns:vectornator="http://vectornator.io" version="1.1" viewBox="0 0 640 640">
<metadata>
<vectornator:setting key="DimensionsVisible" value="1"/>
<vectornator:setting key="PencilOnly" value="0"/>
<vectornator:setting key="SnapToPoints" value="0"/>
<vectornator:setting key="OutlineMode" value="0"/>
<vectornator:setting key="CMYKEnabledKey" value="0"/>
<vectornator:setting key="RulersVisible" value="1"/>
<vectornator:setting key="SnapToEdges" value="0"/>
<vectornator:setting key="GuidesVisible" value="1"/>
<vectornator:setting key="DisplayWhiteBackground" value="0"/>
<vectornator:setting key="doHistoryDisabled" value="0"/>
<vectornator:setting key="SnapToGuides" value="1"/>
<vectornator:setting key="TimeLapseWatermarkDisabled" value="0"/>
<vectornator:setting key="Units" value="Points"/>
<vectornator:setting key="DynamicGuides" value="0"/>
<vectornator:setting key="IsolateActiveLayer" value="0"/>
<vectornator:setting key="SnapToGrid" value="0"/>
</metadata>
<defs>
<linearGradient y1="2.65" id="LinearGradient" x1="320" y2="568.92" x2="320" gradientUnits="userSpaceOnUse" gradientTransform="matrix(1 0 0 1 0 0)">
<stop stop-color="#6b4f7a" offset="0"/>
<stop stop-color="#010000" offset="1"/>
</linearGradient>
</defs>
<g id="Untitled" vectornator:layerName="Untitled" visibility="hidden">
<g opacity="1">
<path d="M5.71+285.78L5.71+2.65L320+2.65L634.29+2.65L634.29+285.78L634.29+568.92L320+568.92L5.71+568.92L5.71+285.78ZM345.41+469.2C347.63+460.38+349.5+410.3+349.55+357.9C349.56+351.55+349.59+319.79+349.65+262.63L318.25+262.63L286.85+262.63C286.12+322.24+285.72+355.36+285.64+361.99C284.51+453.81+283.85+461.91+276.89+468.83C264.52+481.13+244.63+478.91+228.93+463.47C221.74+456.39+214.37+451.19+212.55+451.89C199.12+457.08+167.8+475.14+167.8+477.68C167.79+486.06+186.11+505.83+201.34+513.87C232.7+530.43+272.47+532.1+305.43+518.24C325.21+509.93+339.56+492.33+345.41+469.2ZM586.12+458.07C589.57+415.08+570.98+393.2+508.75+367C456.65+345.07+445.84+332.68+464.29+316.05C476.41+305.14+495.07+306.79+510.35+320.13C511.2+320.88+515.48+324.61+523.17+331.33C537.51+323.01+545.48+318.38+547.07+317.46C560.21+309.83+570.98+302.35+571+300.82C571.09+293.83+534.92+266.39+521.03+262.92C473.96+251.15+425.44+264.2+406.17+293.81C385.77+325.18+394.88+371.01+425.71+392.14C432.8+397+455.79+408.15+476.79+416.93C497.96+425.77+516.91+436.11+519.29+440.12C526.25+451.83+524.29+461.06+513.18+468.94C492.05+483.91+451.3+475.56+434.81+452.89C434.37+452.29+432.17+449.27+428.22+443.84C414.73+450.61+407.24+454.38+405.74+455.13C375.7+470.21+375.08+470.92+382.63+481.31C414.21+524.73+486.14+540.6+542.57+516.59C570.45+504.73+583.81+486.77+586.12+458.07Z" fill-rule="evenodd" fill="url(#LinearGradient)" opacity="1"/>
<path stroke="#000000" fill-rule="evenodd" stroke-opacity="0" stroke-width="0.37" d="M5.71+285.78L5.71+2.65L320+2.65L634.29+2.65L634.29+285.78L634.29+568.92L320+568.92L5.71+568.92L5.71+285.78ZM345.41+469.2C347.63+460.38+349.5+410.3+349.55+357.9C349.56+351.55+349.59+319.79+349.65+262.63L318.25+262.63L286.85+262.63C286.12+322.24+285.72+355.36+285.64+361.99C284.51+453.81+283.85+461.91+276.89+468.83C264.52+481.13+244.63+478.91+228.93+463.47C221.74+456.39+214.37+451.19+212.55+451.89C199.12+457.08+167.8+475.14+167.8+477.68C167.79+486.06+186.11+505.83+201.34+513.87C232.7+530.43+272.47+532.1+305.43+518.24C325.21+509.93+339.56+492.33+345.41+469.2ZM586.12+458.07C589.57+415.08+570.98+393.2+508.75+367C456.65+345.07+445.84+332.68+464.29+316.05C476.41+305.14+495.07+306.79+510.35+320.13C511.2+320.88+515.48+324.61+523.17+331.33C537.51+323.01+545.48+318.38+547.07+317.46C560.21+309.83+570.98+302.35+571+300.82C571.09+293.83+534.92+266.39+521.03+262.92C473.96+251.15+425.44+264.2+406.17+293.81C385.77+325.18+394.88+371.01+425.71+392.14C432.8+397+455.79+408.15+476.79+416.93C497.96+425.77+516.91+436.11+519.29+440.12C526.25+451.83+524.29+461.06+513.18+468.94C492.05+483.91+451.3+475.56+434.81+452.89C434.37+452.29+432.17+449.27+428.22+443.84C414.73+450.61+407.24+454.38+405.74+455.13C375.7+470.21+375.08+470.92+382.63+481.31C414.21+524.73+486.14+540.6+542.57+516.59C570.45+504.73+583.81+486.77+586.12+458.07Z" fill="#000000" stroke-linecap="butt" fill-opacity="0" opacity="1" stroke-linejoin="miter"/>
</g>
</g>
<g id="Layer 1" vectornator:layerName="Layer 1">
<path stroke="#000000" fill-rule="evenodd" stroke-width="1" d="M347.224+260.774C352.565+260.47+354.15+268.78+349.07+270.459C332.778+274.233+316.643+262.134+300.898+270.105C298.142+271.649+293.226+270.423+291.3+272.924C290.079+327.068+300.944+382.463+287.059+435.954C284.685+442.653+281.425+449.021+277.775+455.107C274.195+459.812+270.619+464.838+265.583+468.092C256.331+474.533+244.588+475.652+233.831+473.009C226.08+471.821+221.595+464.063+218.842+458.073C219.314+457.778+219.574+458.568+219.077+458.68C206.588+467.95+189.688+468.892+176.787+477.033C185.566+491.882+196.239+510.329+211.999+520.271C237.023+524.694+266.515+530.403+288.192+512.529C292.78+509.99+297.874+508.326+301.989+504.978C309.985+498.815+316.074+490.503+320.371+481.42C341.01+424.708+333.568+362.479+345.542+303.822C346.631+292.399+342.689+280.245+347.042+269.247C348.897+265.936+354.319+266.224+355.812+269.713C356.712+280.493+354.058+291.888+355.622+302.954C343.665+363.37+351.075+427.435+329.437+485.706C325.36+494.112+320.162+502.094+313.253+508.454C291.157+525.3+263.28+541.314+234.436+532.946C225.465+532.861+216.113+533.495+207.818+529.346C189.608+517.82+176.139+498.628+167.684+479.042C167.257+476.365+167.764+473.483+169.338+471.245C182.669+459.225+202.415+458.706+217.214+449.164C229.76+446.699+228.575+466.531+241.385+464.058C244.53+464.341+247.748+464.549+250.862+463.891C255.297+462.477+259.827+460.506+263.211+457.228C269.497+450.739+273.66+442.637+276.998+434.32C290.539+382.042+281.001+327.945+280.607+274.772C281.087+271.232+282.269+267.52+285.028+265.085C294.291+260.154+305.576+258.032+316.028+256.995C326.384+258.767+336.535+261.997+347.224+260.774L347.224+260.774Z" fill="#4f6d7a" stroke-linecap="butt" opacity="1" stroke-linejoin="miter"/>
<path stroke="#000000" fill-rule="evenodd" stroke-width="1" d="M565.345+297.921C572.781+292.573+577.38+306.468+568.486+308.344C566.936+309.713+565.259+310.917+563.54+312.063C561.195+313.546+558.779+314.904+556.33+316.206C552.546+318.08+548.766+319.973+545.102+322.075C536.733+323.394+533.73+335.528+525.292+335.171C520.459+334.132+520.443+327.346+524.385+325.039C535.754+312.847+553.214+309.126+565.345+297.921L565.345+297.921Z" fill="#4f6d7a" stroke-linecap="butt" opacity="1" stroke-linejoin="miter"/>
<path stroke="#000000" fill-rule="evenodd" stroke-width="1" d="M573.558+298.607C574.255+306.31+561.73+305.121+563.394+297.6C563.235+296.192+563.243+294.722+562.746+293.377C557.669+284.853+548.622+279.816+539.65+276.273C507.661+267.465+471.813+263.246+440.284+276.243C419.807+287.061+405.881+307.615+405.178+331.031C405.818+363.388+430.107+387.263+457.735+400.346C462.916+403.583+466.515+408.729+471.64+412.02C477.15+414.74+483.763+415.204+488.515+419.536C494.882+425.454+499.978+432.664+505.765+439.121C508.114+443.349+509.869+447.938+510.96+452.651C511.728+456.354+511.726+460.263+510.526+463.877C510.803+474.548+494.727+469.896+500.859+461.197C501.418+459.715+501.69+458.128+501.446+456.551C500.895+452.328+499.254+448.272+497.346+444.496C488.949+434.116+480.695+423.15+466.717+420.676C445.346+401.07+413.329+391.225+402.215+361.886C391.574+337.872+394.227+309.67+409.658+288.408C429.074+265.63+459.878+255.074+489.357+258.74C511.873+258.643+535.242+261.889+555.26+272.653C560.061+275.475+564.305+279.2+567.921+283.424C571.86+287.479+573.431+293.08+573.558+298.607L573.558+298.607Z" fill="#4f6d7a" stroke-linecap="butt" opacity="1" stroke-linejoin="miter"/>
<path stroke="#000000" fill-rule="evenodd" stroke-width="1" d="M493.324+447.487C487.417+442.392+497.378+434.536+501.383+441.196C503.096+442.56+504.519+444.3+505.453+446.284C510.325+457.869+503.603+471.417+491.934+475.532C472.634+483.817+442.417+474.865+434.694+456.048C419.21+468.402+393.016+458.467+381.431+477.33C386.046+489.465+399.578+498.077+408.487+507.541C420.323+515.893+435.167+518.846+446.682+527.703C450.321+529.341+454.218+534.705+450.556+538.221C449.398+539.383+447.648+539.907+446.042+539.573C442.227+538.551+440.3+534.315+436.654+532.875C410.819+523.229+387.896+506.856+372.544+483.779C371.424+481.093+371.149+478.061+371.788+475.22C381.376+450.256+412.263+458.173+431.269+447.135C433.161+446.563+435.206+446.584+437.119+447.044C439.593+447.62+441.411+449.555+443.005+451.404C452.014+468.549+482.352+475.975+495.788+460.079C497.11+457.165+497.082+453.775+496.628+450.661C496.041+449.251+494.351+448.578+493.324+447.487L493.324+447.487Z" fill="#4f6d7a" stroke-linecap="butt" opacity="1" stroke-linejoin="miter"/>
<path stroke="#000000" fill-rule="evenodd" stroke-width="1" d="M521.449+327.026C526.616+333.315+514.884+339.232+512.166+331.603C510.732+329.994+509.435+328.253+508.398+326.36C507.399+324.509+506.622+322.392+504.89+321.074C495.659+311.689+471.328+311.85+468.288+326.632C468.811+330.393+471.995+333.28+474.618+335.761C504.015+346.387+526.984+368.877+556.005+380.326C558.507+381.985+560.703+384.116+562.473+386.538C567.117+393.356+567.749+401.768+569.863+409.512C570.574+411.922+571.504+414.264+572.59+416.528C579.782+424.501+564.284+431.128+563.339+420.411C562.424+418.487+561.617+416.511+560.931+414.494C559.436+410.149+558.62+405.62+557.703+401.131C556.575+397.295+555.663+392.982+552.541+390.202C523.109+377.497+498.616+355.506+468.661+343.75C465.393+341.119+462.568+337.892+460.497+334.237C457.885+329.936+457.772+324.501+459.532+319.87C470.595+298.663+507.688+300.065+517.508+322.088C518.596+323.906+520.085+325.421+521.449+327.026L521.449+327.026Z" fill="#4f6d7a" stroke-linecap="butt" opacity="1" stroke-linejoin="miter"/>
<path stroke="#000000" fill-rule="evenodd" stroke-width="1" d="M558.284+400.865C556.405+392.446+570.187+393.018+568.84+401.46C569.195+402.65+569.548+403.862+570.173+404.944C591.274+431.855+595.647+471.988+580.061+502.536C578.456+505.151+576.184+507.282+573.697+509.047C535.551+532.464+491.449+551.444+445.836+541.272C439.436+540.765+432.914+541.22+426.568+540.136C419.147+537.691+424.962+526.933+431.65+530.578C433.054+530.693+434.459+530.792+435.865+530.871C457.642+530.816+479.787+538.405+500.919+529.811C504.926+528.835+509.076+528.862+513.107+528.07C532.961+519.794+552.912+510.157+570.827+498.346C585.422+470.729+580.704+434.091+561.469+409.802C559.868+407.04+559.119+403.916+558.284+400.865L558.284+400.865Z" fill="#4f6d7a" stroke-linecap="butt" opacity="1" stroke-linejoin="miter"/>
<path stroke="#000000" fill-rule="evenodd" stroke-width="1" d="M633.736+4.81354C640.592+4.55498+639.936+15.8472+633.155+14.8531C613.81+15.1451+594.534+17.7139+575.147+16.888C407.081+9.115+238.325+3.82464+70.4722+17.9737C60.4356+18.6903+50.3418+17.8364+40.3038+18.4547C30.1794+20.7856+20.0416+23.7786+9.57268+23.9622C6.87069+23.8093+4.24916+23.038+1.70847+22.1532C-4.39679+23.0888-12.4067+13.858-5.20395+10.0272C1.21812+7.83661+6.51173+16.3278+13.2284+13.8331C22.0234+12.8267+30.4871+10.3157+39.1109+8.51079C48.6053+7.82677+58.1502+8.45987+67.6606+8.13861C236.516-6.25464+406.3-0.972833+575.379+6.85251C594.884+7.6954+614.269+4.97728+633.736+4.81354L633.736+4.81354Z" fill="#4f6d7a" stroke-linecap="butt" opacity="1" stroke-linejoin="miter"/>
<path stroke="#000000" fill-rule="evenodd" stroke-width="1" d="M624.968+15.5611C620.28+9.20513+631.903+3.79654+634.292+11.2929C635.755+13.1182+636.869+15.237+637.448+17.5088C638.151+20.2539+638.139+23.1179+637.974+25.9268C631.708+81.624+631.917+137.742+627.891+193.612C630.152+298.068+632.765+402.641+626.531+507.067C627.913+524.085+630.618+540.993+631.273+558.062C631.997+563.755+622.94+565.505+621.491+559.952C620.288+542.962+618.405+525.976+616.546+509.013C616.021+493.522+618.18+478.105+617.985+462.615C623.178+394.041+618.582+325.328+619.854+256.677C615.111+208.68+619.554+160.472+622.484+112.512C622.838+83.4175+624.301+54.3722+627.971+25.4805C628.683+21.7759+627.791+18.14+624.968+15.5611L624.968+15.5611Z" fill="#4f6d7a" stroke-linecap="butt" opacity="1" stroke-linejoin="miter"/>
<path stroke="#000000" fill-rule="evenodd" stroke-width="1" d="M640.076+580.831C632.404+584.331+631.617+568.353+638.345+572.758C639.893+574.727+642.864+576.122+642.927+578.926C614.492+587.609+583.315+586.814+553.606+589.104C537.476+589.268+521.327+589.448+505.202+588.976C398.058+579.552+290.189+581.38+182.87+585.792C140.248+579.302+96.2639+578.695+54.9075+565.768C47.9219+566.456+41.0163+565.016+34.3426+562.97C29.3126+562.96+27.2209+555.59+31.8495+553.322C40.195+551.132+48.7261+558.171+57.4401+556.092C97.5827+568.79+140.335+568.964+181.68+575.684C288.642+571.579+396.163+569.362+502.956+578.779C519.69+579.561+536.466+579.161+553.213+579.073C583.134+577.761+613.435+575.731+642.708+570.156C644.229+573.777+640.863+577.329+640.076+580.831L640.076+580.831Z" fill="#4f6d7a" stroke-linecap="butt" opacity="1" stroke-linejoin="miter"/>
<path stroke="#000000" fill-rule="evenodd" stroke-width="1" d="M4.77173+3.04404C4.45933-2.56909+13.363-3.82692+14.613+1.65504C13.0563+42.081+12.9493+82.5374+14.1319+123.024C10.6501+211.356+9.83331+300.175+17.7713+388.276C19.3913+430.927+18.1445+473.837+25.3974+516.076C25.1165+536.395+27.1859+556.612+27.7111+576.905C28.3726+581.421+22.1529+584.379+19.1152+580.946C13.56+560.99+17.3563+537.727+15.4026+516.907C8.11678+474.609+9.36449+431.63+7.75269+388.917C-0.00615652+301.966+0.44362+214.29+4.05168+127.111C3.52502+85.7127+2.32369+44.4061+4.77173+3.04404L4.77173+3.04404Z" fill="#4f6d7a" stroke-linecap="butt" opacity="1" stroke-linejoin="miter"/>
<path stroke="#000000" fill-rule="evenodd" stroke-width="1" d="M-131.428+767.797C-139.069+767.827-136.937+755.56-129.645+757.757C-128.259+757.757-126.873+757.757-125.487+757.757C-123.646+757.932-121.612+757.386-119.855+758.205C-113.243+761.351-119.192+770.759-125.487+767.797C-127.467+767.797-129.447+767.797-131.428+767.797L-131.428+767.797Z" fill="#4f6d7a" stroke-linecap="butt" opacity="1" stroke-linejoin="miter"/>
</g>
</svg>
