<?xml version="1.0" encoding="UTF-8" standalone="no"?>
<!DOCTYPE svg PUBLIC "-//W3C//DTD SVG 1.1//EN" "http://www.w3.org/Graphics/SVG/1.1/DTD/svg11.dtd">
<svg version="1.1" xmlns="http://www.w3.org/2000/svg" xmlns:xlink="http://www.w3.org/1999/xlink" preserveAspectRatio="xMidYMid meet" viewBox="0 0 640 640" width="640" height="640"><defs><path d="M5.71 285.78L5.71 2.65L320 2.65L634.29 2.65L634.29 285.78L634.29 568.92L320 568.92L5.71 568.92L5.71 285.78ZM345.41 469.2C347.63 460.38 349.5 410.3 349.55 357.9C349.56 351.55 349.59 319.79 349.65 262.63L318.25 262.63L286.85 262.63C286.12 322.24 285.72 355.36 285.64 361.99C284.51 453.81 283.85 461.91 276.89 468.83C264.52 481.13 244.63 478.91 228.93 463.47C221.74 456.39 214.37 451.19 212.55 451.89C199.12 457.08 167.8 475.14 167.8 477.68C167.79 486.06 186.11 505.83 201.34 513.87C232.7 530.43 272.47 532.1 305.43 518.24C325.21 509.93 339.56 492.33 345.41 469.2ZM586.12 458.07C589.57 415.08 570.98 393.2 508.75 367C456.65 345.07 445.84 332.68 464.29 316.05C476.41 305.14 495.07 306.79 510.35 320.13C511.2 320.88 515.48 324.61 523.17 331.33C537.51 323.01 545.48 318.38 547.07 317.46C560.21 309.83 570.98 302.35 571 300.82C571.09 293.83 534.92 266.39 521.03 262.92C473.96 251.15 425.44 264.2 406.17 293.81C385.77 325.18 394.88 371.01 425.71 392.14C432.8 397 455.79 408.15 476.79 416.93C497.96 425.77 516.91 436.11 519.29 440.12C526.25 451.83 524.29 461.06 513.18 468.94C492.05 483.91 451.3 475.56 434.81 452.89C434.37 452.29 432.17 449.27 428.22 443.84C414.73 450.61 407.24 454.38 405.74 455.13C375.7 470.21 375.08 470.92 382.63 481.31C414.21 524.73 486.14 540.6 542.57 516.59C570.45 504.73 583.81 486.77 586.12 458.07Z" id="bYgQR7JJJ"></path><linearGradient id="gradienta1J2MhrZoA" gradientUnits="userSpaceOnUse" x1="320" y1="2.65" x2="320" y2="568.92"><stop style="stop-color: #6b4f7a;stop-opacity: 1" offset="0%"></stop><stop style="stop-color: #010000;stop-opacity: 1" offset="100%"></stop></linearGradient></defs><g><g><g><use xlink:href="#bYgQR7JJJ" opacity="0.71" fill="url(#gradienta1J2MhrZoA)"></use><g><use xlink:href="#bYgQR7JJJ" opacity="0.71" fill-opacity="0" stroke="#000000" stroke-width="0.37" stroke-opacity="0"></use></g></g></g></g></svg>