<?xml version="1.0" encoding="UTF-8" standalone="no"?>
<!DOCTYPE svg PUBLIC "-//W3C//DTD SVG 1.1//EN" "http://www.w3.org/Graphics/SVG/1.1/DTD/svg11.dtd">
<svg version="1.1" xmlns="http://www.w3.org/2000/svg" xmlns:xlink="http://www.w3.org/1999/xlink" preserveAspectRatio="xMidYMid meet" viewBox="0 0 640 640" width="640" height="640"><defs><path d="M347.58 15.44C431.58 57.85 515.6 100.2 599.58 142.64C615.38 150.59 625.95 166.3 625.78 182.56C625.78 208.08 625.78 412.21 625.78 437.73C625.9 454.67 614.29 470.75 597.63 478.52C513.91 520.7 430.23 562.93 346.52 605.11C329.46 613.83 307.26 613.16 290.74 603.73C265.64 590.72 240.5 577.79 215.39 564.8C210.26 562.06 204.48 559.89 200.86 555.45C204.06 551.59 209.79 551.11 214.44 549.43C224.92 546.45 234.54 541.67 244.16 537.03C246.6 535.54 249.57 536.11 251.9 537.45C273.37 548.44 294.64 559.76 316.17 570.65C320.77 573.02 325.42 569.87 329.35 567.92C411.5 526.43 493.76 485.09 575.9 443.58C578.95 442.28 580.63 439.39 580.38 436.41C580.44 352.23 580.4 268.04 580.41 183.87C580.76 180.49 578.57 177.38 575.15 176C491.72 134.01 408.33 91.96 324.91 49.97C321.96 48.15 318.05 48.14 315.09 49.95C231.67 91.96 148.3 134.05 64.88 176.03C61.47 177.42 59.18 180.48 59.59 183.87C59.6 268.04 59.59 352.23 59.59 436.42C59.29 439.4 61.1 442.23 64.13 443.51C86.39 454.79 108.68 465.99 130.95 477.23C143.5 483.26 158.91 486.85 172.73 482.23C184.93 478.32 193.48 467.19 193.25 455.62C193.37 371.93 193.19 288.23 193.34 204.56C193.03 200.85 196.98 197.78 201.02 198.13C211.71 198.06 222.42 198 233.12 198.15C237.58 198.06 240.66 202.06 240.1 205.81C240.06 290.02 240.22 374.24 240.03 458.45C240.06 480.89 229.74 505.32 206.51 516.3C177.89 529.55 142.51 526.74 114.24 514.03C89.76 503.12 66.4 490.23 42.36 478.54C25.65 470.81 14.1 454.66 14.22 437.73C14.22 412.22 14.22 208.08 14.22 182.56C14.04 165.96 25.03 149.97 41.31 142.13C125.02 99.92 208.71 57.67 292.41 15.44C309.12 6.89 330.88 6.85 347.58 15.44Z" id="c2CxOjTQT8"></path><linearGradient id="gradientb1jNB4L1x" gradientUnits="userSpaceOnUse" x1="320" y1="9.01" x2="320" y2="611.25"><stop style="stop-color: #6b4f7a;stop-opacity: 1" offset="0%"></stop><stop style="stop-color: #010000;stop-opacity: 1" offset="100%"></stop></linearGradient><path d="M486.7 200.16C512.05 213.71 526.1 242.13 526.55 269.91C525.84 273.65 521.87 275.72 518.24 275.46C507.68 275.45 497.13 275.6 486.57 275.39C482.09 275.56 479.49 271.49 478.93 267.58C475.9 254.3 468.55 241.14 455.87 234.73C436.4 225.11 413.82 225.6 392.6 225.8C377.1 226.61 360.43 227.93 347.3 236.92C337.22 243.73 334.16 257.47 337.76 268.54C341.15 276.49 350.45 279.05 358.06 281.41C401.91 292.72 448.37 291.6 491.38 306.48C509.18 312.55 526.6 324.34 532.7 342.73C540.67 367.37 537.18 396.82 519.4 416.6C504.98 432.88 483.99 441.74 463.04 446.55C435.18 452.68 406.27 452.84 377.98 450.12C351.38 447.12 323.69 440.23 303.15 422.36C285.59 407.32 277.02 383.89 277.87 361.27C278.07 357.45 281.93 354.79 285.64 355.1C296.27 355.02 306.9 354.99 317.53 355.12C321.77 354.82 324.92 358.44 325.14 362.38C327.1 375.04 331.92 388.33 343.12 395.84C364.72 409.58 391.83 408.64 416.57 409.03C437.06 408.13 460.07 407.86 476.79 394.5C485.62 386.88 488.23 374.13 485.85 363.17C483.26 353.91 473.44 349.59 465.01 346.77C421.72 333.27 374.74 338.17 331.88 322.9C314.48 316.84 297.65 305.37 290.97 287.74C281.64 262.79 285.91 231.92 305.55 212.81C324.7 193.8 352.35 186.47 378.63 183.85C415.01 181.55 453.96 182.49 486.7 200.16Z" id="dmaBs6XRZ"></path><linearGradient id="gradientb14ZNY06Uk" gradientUnits="userSpaceOnUse" x1="407.28" y1="182.94" x2="407.28" y2="451.8"><stop style="stop-color: #6b4f7a;stop-opacity: 1" offset="0%"></stop><stop style="stop-color: #010000;stop-opacity: 1" offset="100%"></stop></linearGradient></defs><g><g><g><use xlink:href="#c2CxOjTQT8" opacity="0.81" fill="url(#gradientb1jNB4L1x)"></use><g><use xlink:href="#c2CxOjTQT8" opacity="0.81" fill-opacity="0" stroke="#000000" stroke-width="1" stroke-opacity="0"></use></g></g><g><use xlink:href="#dmaBs6XRZ" opacity="0.81" fill="url(#gradientb14ZNY06Uk)"></use><g><use xlink:href="#dmaBs6XRZ" opacity="0.81" fill-opacity="0" stroke="#000000" stroke-width="1" stroke-opacity="0"></use></g></g></g></g></svg>