<?xml version="1.0" encoding="UTF-8" standalone="no"?>
<!DOCTYPE svg PUBLIC "-//W3C//DTD SVG 1.1//EN" "http://www.w3.org/Graphics/SVG/1.1/DTD/svg11.dtd">
<svg version="1.1" xmlns="http://www.w3.org/2000/svg" xmlns:xlink="http://www.w3.org/1999/xlink" preserveAspectRatio="xMidYMid meet" viewBox="0 0 640 640" width="640" height="640"><defs><path d="M347.58 16.13C431.58 58.54 515.6 100.89 599.58 143.33C615.38 151.28 625.95 166.99 625.78 183.25C625.78 208.77 625.78 412.9 625.78 438.42C625.9 455.36 614.29 471.44 597.63 479.21C513.91 521.39 430.23 563.62 346.52 605.8C329.46 614.52 307.26 613.85 290.74 604.42C265.64 591.41 240.5 578.48 215.39 565.49C210.26 562.75 204.48 560.58 200.86 556.14C204.06 552.28 209.79 551.8 214.44 550.11C224.92 547.14 234.54 542.36 244.16 537.72C246.6 536.23 249.57 536.8 251.9 538.14C273.37 549.13 294.64 560.45 316.17 571.34C320.77 573.71 325.42 570.56 329.35 568.61C411.5 527.12 493.76 485.78 575.9 444.27C578.95 442.97 580.63 440.08 580.38 437.1C580.44 352.92 580.4 268.73 580.41 184.56C580.76 181.18 578.57 178.07 575.15 176.69C491.72 134.7 408.33 92.65 324.91 50.66C321.96 48.84 318.05 48.83 315.09 50.64C231.67 92.65 148.3 134.74 64.88 176.72C61.47 178.11 59.18 181.17 59.59 184.56C59.6 268.73 59.59 352.92 59.59 437.11C59.29 440.09 61.1 442.92 64.13 444.2C86.39 455.48 108.68 466.68 130.95 477.92C143.5 483.95 158.91 487.54 172.73 482.92C184.93 479.01 193.48 467.88 193.25 456.3C193.37 372.62 193.19 288.92 193.34 205.25C193.03 201.54 196.98 198.47 201.02 198.82C211.71 198.75 222.42 198.69 233.12 198.84C237.58 198.75 240.66 202.75 240.1 206.5C240.06 290.71 240.22 374.93 240.03 459.14C240.06 481.58 229.74 506.01 206.51 516.99C177.89 530.24 142.51 527.43 114.24 514.72C89.76 503.8 66.4 490.92 42.36 479.22C25.65 471.5 14.1 455.35 14.22 438.42C14.22 412.91 14.22 208.77 14.22 183.25C14.04 166.65 25.03 150.66 41.31 142.82C125.02 100.61 208.71 58.36 292.41 16.13C309.12 7.58 330.88 7.54 347.58 16.13Z" id="a24qkyCy51"></path><path d="M486.7 200.16C512.05 213.71 526.1 242.13 526.55 269.91C525.84 273.65 521.87 275.72 518.24 275.46C507.68 275.45 497.13 275.6 486.57 275.39C482.09 275.56 479.49 271.49 478.93 267.58C475.9 254.3 468.55 241.14 455.87 234.73C436.4 225.11 413.82 225.6 392.6 225.8C377.1 226.61 360.43 227.93 347.3 236.92C337.22 243.73 334.16 257.47 337.76 268.54C341.15 276.49 350.45 279.05 358.06 281.41C401.91 292.72 448.37 291.6 491.38 306.48C509.18 312.55 526.6 324.34 532.7 342.73C540.67 367.37 537.18 396.82 519.4 416.6C504.98 432.88 483.99 441.74 463.04 446.55C435.18 452.68 406.27 452.84 377.98 450.12C351.38 447.12 323.69 440.23 303.15 422.36C285.59 407.32 277.02 383.89 277.87 361.27C278.07 357.45 281.93 354.79 285.64 355.1C296.27 355.02 306.9 354.99 317.53 355.12C321.77 354.82 324.92 358.44 325.14 362.38C327.1 375.04 331.92 388.33 343.12 395.84C364.72 409.58 391.83 408.64 416.57 409.03C437.06 408.13 460.07 407.86 476.79 394.5C485.62 386.88 488.23 374.13 485.85 363.17C483.26 353.91 473.44 349.59 465.01 346.77C421.72 333.27 374.74 338.17 331.88 322.9C314.48 316.84 297.65 305.37 290.97 287.74C281.64 262.79 285.91 231.92 305.55 212.81C324.7 193.8 352.35 186.47 378.63 183.85C415.01 181.55 453.96 182.49 486.7 200.16Z" id="cVjfywbL"></path></defs><g><g><use xlink:href="#a24qkyCy51" opacity="1" fill="#0a1a29" fill-opacity="1"></use><g><use xlink:href="#a24qkyCy51" opacity="1" fill-opacity="0" stroke="#000000" stroke-width="1" stroke-opacity="0"></use></g></g><g><use xlink:href="#cVjfywbL" opacity="1" fill="#0a1a29" fill-opacity="1"></use><g><use xlink:href="#cVjfywbL" opacity="1" fill-opacity="0" stroke="#000000" stroke-width="1" stroke-opacity="0"></use></g></g></g></svg>