<?xml version="1.0" encoding="UTF-8" standalone="no"?> <!-- Created with Vectornator for iOS (http://vectornator.io/) --><!DOCTYPE svg PUBLIC "-//W3C//DTD SVG 1.1//EN" "http://www.w3.org/Graphics/SVG/1.1/DTD/svg11.dtd">
<svg height="100%" style="fill-rule:nonzero;clip-rule:evenodd;stroke-linecap:round;stroke-linejoin:round;" xmlns:xlink="http://www.w3.org/1999/xlink" xmlns="http://www.w3.org/2000/svg" xml:space="preserve" width="100%" xmlns:vectornator="http://vectornator.io" version="1.1" viewBox="0 0 640 640">
<metadata>
<vectornator:setting key="DimensionsVisible" value="1"/>
<vectornator:setting key="PencilOnly" value="0"/>
<vectornator:setting key="SnapToPoints" value="0"/>
<vectornator:setting key="OutlineMode" value="0"/>
<vectornator:setting key="CMYKEnabledKey" value="0"/>
<vectornator:setting key="RulersVisible" value="1"/>
<vectornator:setting key="SnapToEdges" value="0"/>
<vectornator:setting key="GuidesVisible" value="1"/>
<vectornator:setting key="DisplayWhiteBackground" value="0"/>
<vectornator:setting key="doHistoryDisabled" value="0"/>
<vectornator:setting key="SnapToGuides" value="1"/>
<vectornator:setting key="TimeLapseWatermarkDisabled" value="0"/>
<vectornator:setting key="Units" value="Points"/>
<vectornator:setting key="DynamicGuides" value="0"/>
<vectornator:setting key="IsolateActiveLayer" value="0"/>
<vectornator:setting key="SnapToGrid" value="0"/>
</metadata>
<defs>
<linearGradient y1="9.01" id="LinearGradient" x1="320" y2="611.25" x2="320" gradientUnits="userSpaceOnUse" gradientTransform="matrix(1 0 0 1 0 0)">
<stop stop-color="#6b4f7a" offset="0"/>
<stop stop-color="#010000" offset="1"/>
</linearGradient>
<linearGradient y1="182.94" id="LinearGradient_2" x1="407.28" y2="451.8" x2="407.28" gradientUnits="userSpaceOnUse" gradientTransform="matrix(1 0 0 1 0 0)">
<stop stop-color="#6b4f7a" offset="0"/>
<stop stop-color="#010000" offset="1"/>
</linearGradient>
</defs>
<g id="Untitled" vectornator:layerName="Untitled" visibility="hidden">
<g opacity="1">
<g opacity="1">
<path d="M347.58+15.44C431.58+57.85+515.6+100.2+599.58+142.64C615.38+150.59+625.95+166.3+625.78+182.56C625.78+208.08+625.78+412.21+625.78+437.73C625.9+454.67+614.29+470.75+597.63+478.52C513.91+520.7+430.23+562.93+346.52+605.11C329.46+613.83+307.26+613.16+290.74+603.73C265.64+590.72+240.5+577.79+215.39+564.8C210.26+562.06+204.48+559.89+200.86+555.45C204.06+551.59+209.79+551.11+214.44+549.43C224.92+546.45+234.54+541.67+244.16+537.03C246.6+535.54+249.57+536.11+251.9+537.45C273.37+548.44+294.64+559.76+316.17+570.65C320.77+573.02+325.42+569.87+329.35+567.92C411.5+526.43+493.76+485.09+575.9+443.58C578.95+442.28+580.63+439.39+580.38+436.41C580.44+352.23+580.4+268.04+580.41+183.87C580.76+180.49+578.57+177.38+575.15+176C491.72+134.01+408.33+91.96+324.91+49.97C321.96+48.15+318.05+48.14+315.09+49.95C231.67+91.96+148.3+134.05+64.88+176.03C61.47+177.42+59.18+180.48+59.59+183.87C59.6+268.04+59.59+352.23+59.59+436.42C59.29+439.4+61.1+442.23+64.13+443.51C86.39+454.79+108.68+465.99+130.95+477.23C143.5+483.26+158.91+486.85+172.73+482.23C184.93+478.32+193.48+467.19+193.25+455.62C193.37+371.93+193.19+288.23+193.34+204.56C193.03+200.85+196.98+197.78+201.02+198.13C211.71+198.06+222.42+198+233.12+198.15C237.58+198.06+240.66+202.06+240.1+205.81C240.06+290.02+240.22+374.24+240.03+458.45C240.06+480.89+229.74+505.32+206.51+516.3C177.89+529.55+142.51+526.74+114.24+514.03C89.76+503.12+66.4+490.23+42.36+478.54C25.65+470.81+14.1+454.66+14.22+437.73C14.22+412.22+14.22+208.08+14.22+182.56C14.04+165.96+25.03+149.97+41.31+142.13C125.02+99.92+208.71+57.67+292.41+15.44C309.12+6.89+330.88+6.85+347.58+15.44Z" opacity="0.81" fill="url(#LinearGradient)"/>
<path stroke="#000000" stroke-opacity="0" stroke-width="1" d="M347.58+15.44C431.58+57.85+515.6+100.2+599.58+142.64C615.38+150.59+625.95+166.3+625.78+182.56C625.78+208.08+625.78+412.21+625.78+437.73C625.9+454.67+614.29+470.75+597.63+478.52C513.91+520.7+430.23+562.93+346.52+605.11C329.46+613.83+307.26+613.16+290.74+603.73C265.64+590.72+240.5+577.79+215.39+564.8C210.26+562.06+204.48+559.89+200.86+555.45C204.06+551.59+209.79+551.11+214.44+549.43C224.92+546.45+234.54+541.67+244.16+537.03C246.6+535.54+249.57+536.11+251.9+537.45C273.37+548.44+294.64+559.76+316.17+570.65C320.77+573.02+325.42+569.87+329.35+567.92C411.5+526.43+493.76+485.09+575.9+443.58C578.95+442.28+580.63+439.39+580.38+436.41C580.44+352.23+580.4+268.04+580.41+183.87C580.76+180.49+578.57+177.38+575.15+176C491.72+134.01+408.33+91.96+324.91+49.97C321.96+48.15+318.05+48.14+315.09+49.95C231.67+91.96+148.3+134.05+64.88+176.03C61.47+177.42+59.18+180.48+59.59+183.87C59.6+268.04+59.59+352.23+59.59+436.42C59.29+439.4+61.1+442.23+64.13+443.51C86.39+454.79+108.68+465.99+130.95+477.23C143.5+483.26+158.91+486.85+172.73+482.23C184.93+478.32+193.48+467.19+193.25+455.62C193.37+371.93+193.19+288.23+193.34+204.56C193.03+200.85+196.98+197.78+201.02+198.13C211.71+198.06+222.42+198+233.12+198.15C237.58+198.06+240.66+202.06+240.1+205.81C240.06+290.02+240.22+374.24+240.03+458.45C240.06+480.89+229.74+505.32+206.51+516.3C177.89+529.55+142.51+526.74+114.24+514.03C89.76+503.12+66.4+490.23+42.36+478.54C25.65+470.81+14.1+454.66+14.22+437.73C14.22+412.22+14.22+208.08+14.22+182.56C14.04+165.96+25.03+149.97+41.31+142.13C125.02+99.92+208.71+57.67+292.41+15.44C309.12+6.89+330.88+6.85+347.58+15.44Z" fill="#000000" stroke-linecap="butt" fill-opacity="0" opacity="0.81" stroke-linejoin="miter"/>
</g>
<g opacity="1">
<path d="M486.7+200.16C512.05+213.71+526.1+242.13+526.55+269.91C525.84+273.65+521.87+275.72+518.24+275.46C507.68+275.45+497.13+275.6+486.57+275.39C482.09+275.56+479.49+271.49+478.93+267.58C475.9+254.3+468.55+241.14+455.87+234.73C436.4+225.11+413.82+225.6+392.6+225.8C377.1+226.61+360.43+227.93+347.3+236.92C337.22+243.73+334.16+257.47+337.76+268.54C341.15+276.49+350.45+279.05+358.06+281.41C401.91+292.72+448.37+291.6+491.38+306.48C509.18+312.55+526.6+324.34+532.7+342.73C540.67+367.37+537.18+396.82+519.4+416.6C504.98+432.88+483.99+441.74+463.04+446.55C435.18+452.68+406.27+452.84+377.98+450.12C351.38+447.12+323.69+440.23+303.15+422.36C285.59+407.32+277.02+383.89+277.87+361.27C278.07+357.45+281.93+354.79+285.64+355.1C296.27+355.02+306.9+354.99+317.53+355.12C321.77+354.82+324.92+358.44+325.14+362.38C327.1+375.04+331.92+388.33+343.12+395.84C364.72+409.58+391.83+408.64+416.57+409.03C437.06+408.13+460.07+407.86+476.79+394.5C485.62+386.88+488.23+374.13+485.85+363.17C483.26+353.91+473.44+349.59+465.01+346.77C421.72+333.27+374.74+338.17+331.88+322.9C314.48+316.84+297.65+305.37+290.97+287.74C281.64+262.79+285.91+231.92+305.55+212.81C324.7+193.8+352.35+186.47+378.63+183.85C415.01+181.55+453.96+182.49+486.7+200.16Z" opacity="0.81" fill="url(#LinearGradient_2)"/>
<path stroke="#000000" stroke-opacity="0" stroke-width="1" d="M486.7+200.16C512.05+213.71+526.1+242.13+526.55+269.91C525.84+273.65+521.87+275.72+518.24+275.46C507.68+275.45+497.13+275.6+486.57+275.39C482.09+275.56+479.49+271.49+478.93+267.58C475.9+254.3+468.55+241.14+455.87+234.73C436.4+225.11+413.82+225.6+392.6+225.8C377.1+226.61+360.43+227.93+347.3+236.92C337.22+243.73+334.16+257.47+337.76+268.54C341.15+276.49+350.45+279.05+358.06+281.41C401.91+292.72+448.37+291.6+491.38+306.48C509.18+312.55+526.6+324.34+532.7+342.73C540.67+367.37+537.18+396.82+519.4+416.6C504.98+432.88+483.99+441.74+463.04+446.55C435.18+452.68+406.27+452.84+377.98+450.12C351.38+447.12+323.69+440.23+303.15+422.36C285.59+407.32+277.02+383.89+277.87+361.27C278.07+357.45+281.93+354.79+285.64+355.1C296.27+355.02+306.9+354.99+317.53+355.12C321.77+354.82+324.92+358.44+325.14+362.38C327.1+375.04+331.92+388.33+343.12+395.84C364.72+409.58+391.83+408.64+416.57+409.03C437.06+408.13+460.07+407.86+476.79+394.5C485.62+386.88+488.23+374.13+485.85+363.17C483.26+353.91+473.44+349.59+465.01+346.77C421.72+333.27+374.74+338.17+331.88+322.9C314.48+316.84+297.65+305.37+290.97+287.74C281.64+262.79+285.91+231.92+305.55+212.81C324.7+193.8+352.35+186.47+378.63+183.85C415.01+181.55+453.96+182.49+486.7+200.16Z" fill="#000000" stroke-linecap="butt" fill-opacity="0" opacity="0.81" stroke-linejoin="miter"/>
</g>
</g>
</g>
<g id="Layer 1" vectornator:layerName="Layer 1">
<path stroke="#000000" stroke-width="1" d="M198.144+209.609C199.139+192.552+223.515+185.375+233.575+199.192C235.806+201.928+237.289+205.265+237.826+208.754C237.928+221.857+239.5+234.976+240.209+248.129C237.741+323.849+246.149+399.859+237.829+475.349C235.25+485.437+231.154+495.416+223.891+503.076C218.514+509.97+210.821+514.765+202.603+517.552C167.001+527.753+130.756+512.731+95.5518+507.346C79.2374+497.572+61.4512+490.655+45.0569+481.26C39.3747+476.122+33.65+470.697+29.9913+463.868C22.4331+440.928+19.0796+416.409+18.4484+392.249C13.6642+368.139+14.0125+343.544+14.2456+319.069C8.23321+268.55+13.4243+217.799+19.6747+167.569C20.6548+162.647+22.8136+158.007+25.7717+153.964C36.9444+141.669+51.2678+133.064+64.8128+123.764C96.3343+107.363+133.487+102.256+161.302+79.0489C165.197+76.4735+169.46+74.5266+173.547+72.2827C220.858+55.5596+264.401+29.8797+309.68+8.7953C313.335+7.35781+317.213+6.43861+321.138+6.2076C325.558+6.0355+330.018+6.80733+334.119+8.46659C361.342+22.309+390.563+31.3775+416.179+48.474C429.032+54.3521+442.432+58.6048+455.61+63.577C483.102+79.8529+511.269+95.5808+537.074+114.566C538.713+115.393+540.285+116.388+542.022+116.998C566.213+120.161+586.012+134.828+606.07+147.462C613.558+152.268+618.027+160.519+620.188+168.958C620.862+178.305+623.287+187.556+622.645+196.997C616.188+217.86+613.091+239.44+618.663+261.013C616.814+277.997+622.926+293.248+628.983+308.712C630.57+314.471+631.13+320.428+631.642+326.358C631.896+330.704+631.965+335.126+631.005+339.398C630.357+342.395+629.878+345.441+628.908+348.358C620.314+361.376+626.008+376.796+624.905+391.182C624.804+394.435+624.176+397.665+623.382+400.805C623.299+400.51+623.216+398.941+623.504+399.409C623.65+416.275+619.475+432.884+620.41+449.778C619.616+453.513+618.044+457.084+615.741+460.137C598.651+477.01+575.086+485.51+554.324+497.147C550.311+499.93+545.94+502.148+541.929+504.93C483.042+553.262+406.041+567.94+336.657+594.734C331.726+597.928+327.945+603.047+321.924+604.622C318.182+606.003+314.173+606.718+310.18+606.561C281.043+602.791+261.322+572.439+230.648+573.338C228.055+572.382+224.458+573.097+223.177+569.865C219.037+562.812+217.186+554.7+215.437+546.794C212.65+532.56+232.278+524.724+243.164+531.917C253.979+537.644+256.625+554.204+247.737+562.636C244.091+553.462+242.271+541.962+237.682+534C265.851+534.73+289.227+552.413+312.142+566.794C309.996+566.735+307.804+567.421+305.935+568.436C312.88+560.43+323.31+556.943+332.726+552.735C396.356+530.568+465.573+515.547+518.942+472.156C524.268+468.482+529.933+465.329+535.384+461.849C552.355+453.445+569.007+444.56+585.234+434.805C582.82+437.001+581.733+440.567+581.243+443.512C578.823+429.858+582.813+416.433+583.874+402.972C584.135+402.88+584.016+404.091+583.885+404.448C583.016+399.627+583.694+394.588+584.912+389.869C584.755+371.907+581.163+352.756+590.767+336.297C591.08+334.309+591.98+332.354+591.821+330.323C592.035+316.713+583.791+305.247+580.786+292.401C579.02+259.442+569.667+225.297+582.842+193.33C582.585+188.154+580.723+183.067+581.304+177.863C579.789+175.76+583.714+179.809+583.654+180.537C566.65+170.032+550.344+157.389+529.824+155.047C526.122+153.908+522.619+152.231+519.221+150.391C494.574+132.727+467.938+117.91+442.401+101.617C427.656+95.4182+412.161+91.0743+397.714+84.0045C384.926+75.293+370.202+69.8296+357.24+61.6198C343.844+58.2553+330.83+51.9254+318.609+45.2538C320.76+46.0012+323.098+46.0066+325.295+45.4336C281.683+65.9876+239.299+91.5004+193.195+107.169C189.765+109.009+186.253+110.74+182.91+112.734C154.479+136.481+117.104+143.038+84.3985+158.626C75.6515+164.907+66.4565+170.342+58.4472+177.689C55.6641+180.079+58.9547+176.006+58.9627+174.827C53.4047+222.213+48.3877+270.026+54.2649+317.655C53.4915+361.301+57.7717+404.93+66.168+447.666C62.3009+440.849+69.7254+449.774+69.9719+450.193C83.8124+455.203+96.9798+462.09+109.491+469.902C136.202+472.478+162.844+484.764+189.701+479.707C193.164+479.041+194.587+475.681+196.571+473.018C197.041+470.283+199.137+467.927+198.953+465.1C205.065+393.277+198.003+321.245+200.188+249.319C199.653+236.077+197.4+222.845+198.144+209.609L198.144+209.609Z" fill="#4f6d7a" stroke-linecap="butt" opacity="1" stroke-linejoin="round"/>
<path stroke="#000000" stroke-width="1" d="M294.256+351.161C314.663+334.274+340.016+370.002+317.58+383.551C320.423+378.145+320.6+379.941+320.194+384.756C320.085+384.424+318.851+383.064+319.756+383.645C323.199+385.71+325.317+389.425+328.951+391.191C372.951+412.591+427.64+420.028+472.423+396.597C475.062+394.529+477.628+392.282+479.816+389.73C482.429+381.311+485.951+372.899+486.478+364.035C487.334+365.541+485.657+363.378+485.515+362.784C483.885+360.201+482.75+357.126+480.7+354.872C473.707+350.818+466.052+347.984+458.454+345.282C415.735+325.075+362.291+335.482+324.885+303.227C317.623+296.284+313.061+287.07+309.604+277.767C304.361+251.721+307.005+217.429+331.392+201.458C358.223+186.982+389.532+196.996+418.418+196.047C453.079+191.629+505.581+195.308+511.995+238.738C512.885+241.718+513.761+244.702+514.37+247.758C513.187+245.97+509.802+243.499+508.246+241.896C531.316+247.88+522.368+285.61+499.026+280.662C492.309+279.55+486.3+275.593+481.893+270.486C478.946+266.861+476.963+262.523+475.768+258.026C474.992+255.152+474.33+252.249+473.391+249.421C474.698+240.463+467.32+237.231+459.66+237.121C445.27+231.224+429.93+237.53+415.057+235.949C394.184+236.554+372.568+231.008+352.121+235.515C348.418+238.769+349.446+244.162+348.349+248.49C347.593+253.396+346.839+258.399+347.16+263.368C347.974+267.292+350.078+271.068+352.373+274.322C375.038+290.214+404.097+288.983+430.126+294.609C457.38+302.568+486.958+308.996+509.484+327.134C516.37+334.782+521.687+344.029+524.944+353.77C528.919+374.687+521.564+397.061+510.824+414.889C506.523+420.239+501.38+424.894+495.88+428.979C437.028+463.458+360.732+454.899+303.193+422.139C296.357+416.098+288.495+410.61+284.408+402.166C276.957+385.667+278.357+362.343+294.256+351.161L294.256+351.161Z" fill="#4f6d7a" stroke-linecap="butt" opacity="1" stroke-linejoin="round"/>
<path stroke="#000000" stroke-width="1" d="M464.688+145.321C488.243+133.521+505.148+173.606+480.238+182.171C480.136+181.874+482.409+180.353+481.398+181.432C477.277+187.198+472.36+193.547+464.896+194.825C446.759+199.701+432.648+174.86+445.96+161.678C447.444+159.793+448.912+157.894+450.469+156.068C454.257+151.418+459.143+147.631+464.688+145.321L464.688+145.321Z" fill="#4f6d7a" stroke-linecap="butt" opacity="1" stroke-linejoin="round"/>
</g>
</svg>
