<?xml version="1.0" encoding="UTF-8" standalone="no"?>
<!DOCTYPE svg PUBLIC "-//W3C//DTD SVG 1.1//EN" "http://www.w3.org/Graphics/SVG/1.1/DTD/svg11.dtd">
<svg version="1.1" xmlns="http://www.w3.org/2000/svg" xmlns:xlink="http://www.w3.org/1999/xlink" preserveAspectRatio="xMidYMid meet" viewBox="0 0 640 640" width="640" height="640"><defs><path d="M74.17 510.09C62.79 496.4 55.33 485.17 44.37 465.2C24.51 429.03 14.83 400.74 9.87 364.39C6.32 338.39 7.33 300.85 12.28 275.09C24.43 211.79 56.94 155.86 107.55 111.18C152.91 71.14 205.3 46.64 270.01 35.22C292.85 31.19 357.41 32.4 381.03 37.29C503.51 62.67 595.46 145.12 626.33 257.22C635.2 289.45 638.33 330.59 634.37 362.96C614.42 525.89 458.74 643.08 287.54 624.04C203.69 614.72 127.21 573.87 74.17 510.09ZM620.53 334.01C620.76 309.81 619.05 295.49 613.11 271.99C590.11 180.95 515.26 105.37 417.46 74.43C383.45 63.67 370.12 61.82 322.99 61.38C270.63 60.88 249.38 64.19 208.84 79.14C95.26 121.05 18.76 225.97 22.84 334.21C27.73 463.89 136.31 574.9 278.2 595.3C297.92 598.14 341.56 598.61 361.16 596.19C507.71 578.14 619.26 465.37 620.53 334.01Z" id="davyo2PeZ"></path><path d="M114.31 391.41C119.73 342.86 127.16 276.23 130.8 243.36C131.24 239.38 133.45 219.45 137.42 183.59C161.6 183.83 175.04 183.96 177.72 183.98C209.01 184.28 219.74 185.11 225.68 187.69C240.56 194.14 250.42 206.51 256 225.71C263.14 250.26 263.66 277.56 257.6 309.78C249.4 353.38 231.03 385.05 207.44 396.25C202.28 398.7 192.43 400.01 174.21 400.68C151.76 401.49 148.23 402.09 147.72 405.17C147.39 407.12 145.95 419.57 144.51 432.84C143.08 446.11 141.31 462.15 140.57 468.48C140.48 469.25 140.03 473.09 139.23 480L121.83 479.85L104.44 479.69C109.7 432.61 112.99 403.18 114.31 391.41ZM215.68 328.73C223.95 308.46 227.79 264.17 222.66 248.23C217.93 233.54 207.21 228.24 181.56 227.94C173.68 227.84 167.22 228.63 167.22 229.68C167.21 231.6 155.15 340.7 153.92 350.05C153.87 350.37 153.66 352.02 153.26 354.98C163.74 355.07 169.56 355.12 170.72 355.13C182.24 355.24 190.55 354.2 195.16 352.09C204.17 347.95 211.02 340.15 215.68 328.73Z" id="dmm5vURcW"></path><path d="M284.31 118.26C284.95 113.43 285.34 113.33 302.03 113.48C314.87 113.59 319.07 114.31 319.05 116.37C319.03 117.88 317.32 133.92 315.25 152.02C313.19 170.11 311.49 186.64 311.47 188.76C311.46 192.28 313.36 192.62 334.33 192.84C366.4 193.18 378.22 198.43 386.76 216.14C388.83 220.43 390.88 227.58 391.33 232.03C392.88 247.48 390.35 282.56 383.12 345.82C382.63 350.06 380.21 371.26 375.85 409.42L358.05 409.87L340.26 410.32C344.3 375.08 346.54 355.51 346.99 351.59C357.51 259.71 357.83 251.41 351.22 243.43C347.82 239.33 305.18 236.73 305.17 240.62C305.16 243.45 287.6 400.49 286.69 405.89C286.11 409.31 284.18 409.71 269.04 409.58C259.7 409.49 252.05 408.8 252.05 408.03C252.06 406.47 283.28 126.06 284.31 118.26Z" id="b7Z4JHuV4M"></path><path d="M415.12 199C415.16 198.67 415.39 197.02 415.8 194.06C439.69 194.3 452.97 194.43 455.62 194.45C485.15 194.74 497.54 195.66 503.54 198.01C527.2 207.25 539.82 236.02 539.65 280.31C539.42 338.66 515.93 393.16 485.18 406.73C480.05 408.99 469.03 410.43 451.77 411.09C450.06 411.15 441.47 411.48 426.02 412.07L421.79 451.27L417.56 490.47C407.09 490.37 401.27 490.32 400.11 490.31C390.51 490.23 382.66 489.61 382.66 488.95C382.67 487.4 414.21 205.59 415.12 199ZM502.4 283.36C502.48 266.29 502.11 262.28 499.96 257C494.38 243.34 484.33 238.62 460.28 238.38C447.76 238.26 445.95 238.7 445.37 242.07C444.36 247.99 431.97 359.7 431.96 362.99C431.95 365.32 436 365.76 452.38 365.22C470.57 364.61 473.53 363.98 479.28 359.45C493.87 347.95 502.23 320.45 502.4 283.36Z" id="c9Tql83fj"></path><path d="M590.46 436.21C591.55 434.28 592.45 432.92 592.44 433.2C592.44 433.48 591.55 435.29 590.45 437.23C589.36 439.16 588.46 440.51 588.46 440.23C588.46 439.95 589.36 438.14 590.46 436.21Z" id="aqZoTMmiT"></path><path d="M489.88 543.45C512.66 529.12 533.64 511.53 551.28 491.99C564.63 477.21 576.18 461.34 585.51 444.99C587.11 442.18 588.45 440.01 588.48 440.17C588.51 440.35 588.7 440.21 588.98 439.79C589.22 439.42 589.45 439.17 589.49 439.24C589.58 439.41 583.86 449.35 581.35 453.38C561.91 484.54 535.81 512.01 504.71 534.07C496.86 539.63 485.5 546.93 484.75 546.89C484.59 546.88 484.99 546.54 485.63 546.13C486.27 545.73 488.19 544.52 489.88 543.45Z" id="a2NN976eM"></path><path d="M355.47 261.95C355.46 259.58 355.39 256.92 355.32 256.05C354.99 252.28 354.21 249.5 352.69 246.77C351.65 244.88 350.78 243.86 349.13 242.54C347.88 241.55 347.98 241.49 349.65 242.21C351.11 242.84 352.08 243.93 353.3 246.3C355.11 249.82 355.67 253.74 355.55 261.95C355.54 262.24 355.52 263.67 355.49 266.26C355.48 263.96 355.47 262.52 355.47 261.95Z" id="c8fooogRr"></path><path d="M267.42 409.19C277.64 409.39 282.41 409.19 284.33 408.5C286.07 407.87 286.55 407.18 286.89 404.85C287.97 397.54 302.93 263.97 305.08 242.58C305.27 240.64 305.39 239.98 305.59 239.8C305.73 239.66 305.89 239.59 305.95 239.63C306.01 239.67 301.78 277.92 296.54 324.62C295.9 330.28 292.73 358.58 287.01 409.53C278.21 409.49 273.31 409.47 272.34 409.46C264.26 409.43 257.66 409.31 257.66 409.19C257.66 409.08 262.05 409.08 267.42 409.19Z" id="f5jsUXD2"></path><path d="M174.34 191.07C176.51 191.15 174.73 191.18 170.39 191.14C166.06 191.11 164.28 191.04 166.45 191C168.62 190.95 172.17 190.98 174.34 191.07Z" id="g2wNqFYvR"></path><path d="M171.53 236.48C171.79 236.57 171.53 236.64 170.95 236.63C170.37 236.62 170.16 236.55 170.48 236.46C170.8 236.38 171.28 236.39 171.53 236.48Z" id="dn63Tuu5F"></path><path d="M411.24 235.03C411.39 233.72 411.48 233.42 411.64 233.6C411.81 233.8 411.77 234.53 411.37 238.07C395.11 382.82 383.71 485.07 383.57 487.34C383.52 488.26 383.52 488.27 384.26 488.47C386.18 489 392.66 489.29 405.04 489.41C405.94 489.41 410.43 489.46 418.53 489.53C418.59 488.93 418.63 488.59 418.64 488.53C418.7 487.97 420.6 470.38 422.86 449.42C426.78 413.13 426.99 411.32 427.29 411.24C427.58 411.17 427.61 411.26 427.53 411.91C427.48 412.33 425.49 430.17 423.09 451.57C422.8 454.16 421.35 467.13 418.74 490.47L400.7 490.38L382.66 490.29C401.52 321.83 411.05 236.75 411.24 235.03Z" id="a3tgvTwXk"></path><path d="M346.58 350.53C352.94 294.7 353.56 289 354.68 276.07C354.92 273.28 355.12 271.38 355.13 271.85C355.14 273.09 354.47 281.38 353.73 289.04C352.32 303.81 350.35 321.59 344.26 374.81C342.1 393.67 340.33 409.34 340.33 409.63C340.32 409.92 340.22 410.16 340.1 410.15C339.98 410.15 339.88 410.04 339.88 409.91C339.88 409.54 342.19 389.02 346.58 350.53Z" id="blcYEopz9"></path><path d="M443.74 262.9C445.66 246.22 446.26 241.45 446.52 240.63C446.54 240.59 446.61 240.36 446.75 239.95C446.7 240.43 446.68 240.7 446.67 240.76C446.33 244.51 433.08 362.27 432.99 362.27C432.93 362.27 432.92 361.82 432.97 361.26C433.57 354.19 440.07 294.79 443.74 262.9Z" id="aRgobfit8"></path><path d="M481.31 240.15C476.61 239.21 475.21 239.13 461.4 239.01C449.92 238.91 447.56 238.83 448.1 238.56C449.37 237.91 451.35 237.7 457.3 237.59C466.17 237.44 475.42 238.17 480.75 239.46C483.83 240.2 489.11 242.12 489.11 242.49C489.1 242.69 488.61 242.55 487.47 242.03C486.1 241.4 483.29 240.54 481.31 240.15Z" id="g6rGOeWEf"></path><path d="M485.46 352.65C486.02 352 486.52 351.53 486.56 351.61C486.71 351.89 483.31 355.6 481.3 357.34C477.62 360.53 475.13 361.88 471.34 362.73C468.72 363.32 468.21 363.15 470.46 362.44C476.43 360.56 481.4 357.32 485.46 352.65Z" id="b4pYsVInDQ"></path><path d="M251.66 405.31C251.9 403.01 252 402.51 252.23 402.51C252.57 402.51 252.57 402.46 252.25 405.35C252.11 406.63 252.04 407.75 252.09 407.84C252.25 408.14 253.8 408.43 256.5 408.69C259.92 409.01 258.86 409.3 254.32 409.31C251.2 409.31 251.19 409.3 251.28 408.7C251.33 408.37 251.5 406.85 251.66 405.31Z" id="cQgCdwCSx"></path></defs><g><g><use xlink:href="#davyo2PeZ" opacity="1" fill="#0a1a29" fill-opacity="1"></use><g><use xlink:href="#davyo2PeZ" opacity="1" fill-opacity="0" stroke="#000000" stroke-width="0.17" stroke-opacity="0"></use></g></g><g><use xlink:href="#dmm5vURcW" opacity="1" fill="#0a1a29" fill-opacity="1"></use><g><use xlink:href="#dmm5vURcW" opacity="1" fill-opacity="0" stroke="#000000" stroke-width="0.17" stroke-opacity="0"></use></g></g><g><use xlink:href="#b7Z4JHuV4M" opacity="1" fill="#0a1a29" fill-opacity="1"></use><g><use xlink:href="#b7Z4JHuV4M" opacity="1" fill-opacity="0" stroke="#000000" stroke-width="0.17" stroke-opacity="0"></use></g></g><g><use xlink:href="#c9Tql83fj" opacity="1" fill="#0a1a29" fill-opacity="1"></use><g><use xlink:href="#c9Tql83fj" opacity="1" fill-opacity="0" stroke="#000000" stroke-width="0.17" stroke-opacity="0"></use></g></g><g><use xlink:href="#aqZoTMmiT" opacity="1" fill="#9eaec7" fill-opacity="1"></use><g><use xlink:href="#aqZoTMmiT" opacity="1" fill-opacity="0" stroke="#000000" stroke-width="0.04" stroke-opacity="0"></use></g></g><g><use xlink:href="#a2NN976eM" opacity="1" fill="#9eaec7" fill-opacity="1"></use><g><use xlink:href="#a2NN976eM" opacity="1" fill-opacity="0" stroke="#000000" stroke-width="0.02" stroke-opacity="0"></use></g></g><g><use xlink:href="#c8fooogRr" opacity="1" fill="#9eaec7" fill-opacity="1"></use><g><use xlink:href="#c8fooogRr" opacity="1" fill-opacity="0" stroke="#000000" stroke-width="0.02" stroke-opacity="0"></use></g></g><g><use xlink:href="#f5jsUXD2" opacity="1" fill="#9eaec7" fill-opacity="1"></use><g><use xlink:href="#f5jsUXD2" opacity="1" fill-opacity="0" stroke="#000000" stroke-width="0.02" stroke-opacity="0"></use></g></g><g><use xlink:href="#g2wNqFYvR" opacity="1" fill="#9eaec7" fill-opacity="1"></use><g><use xlink:href="#g2wNqFYvR" opacity="1" fill-opacity="0" stroke="#000000" stroke-width="0.03" stroke-opacity="0"></use></g></g><g><use xlink:href="#dn63Tuu5F" opacity="1" fill="#9eaec7" fill-opacity="1"></use><g><use xlink:href="#dn63Tuu5F" opacity="1" fill-opacity="0" stroke="#000000" stroke-width="0.03" stroke-opacity="0"></use></g></g><g><use xlink:href="#a3tgvTwXk" opacity="1" fill="#9eaec7" fill-opacity="1"></use><g><use xlink:href="#a3tgvTwXk" opacity="1" fill-opacity="0" stroke="#000000" stroke-width="0.02" stroke-opacity="0"></use></g></g><g><use xlink:href="#blcYEopz9" opacity="1" fill="#9eaec7" fill-opacity="1"></use><g><use xlink:href="#blcYEopz9" opacity="1" fill-opacity="0" stroke="#000000" stroke-width="0.02" stroke-opacity="0"></use></g></g><g><use xlink:href="#aRgobfit8" opacity="1" fill="#9eaec7" fill-opacity="1"></use><g><use xlink:href="#aRgobfit8" opacity="1" fill-opacity="0" stroke="#000000" stroke-width="0.02" stroke-opacity="0"></use></g></g><g><use xlink:href="#g6rGOeWEf" opacity="1" fill="#9eaec7" fill-opacity="1"></use><g><use xlink:href="#g6rGOeWEf" opacity="1" fill-opacity="0" stroke="#000000" stroke-width="0.02" stroke-opacity="0"></use></g></g><g><use xlink:href="#b4pYsVInDQ" opacity="1" fill="#9eaec7" fill-opacity="1"></use><g><use xlink:href="#b4pYsVInDQ" opacity="1" fill-opacity="0" stroke="#000000" stroke-width="0.02" stroke-opacity="0"></use></g></g><g><use xlink:href="#cQgCdwCSx" opacity="1" fill="#9eaec7" fill-opacity="1"></use><g><use xlink:href="#cQgCdwCSx" opacity="1" fill-opacity="0" stroke="#000000" stroke-width="0.02" stroke-opacity="0"></use></g></g></g></svg>