<?xml version="1.0" encoding="UTF-8" standalone="no"?> <!-- Created with Vectornator for iOS (http://vectornator.io/) --><!DOCTYPE svg PUBLIC "-//W3C//DTD SVG 1.1//EN" "http://www.w3.org/Graphics/SVG/1.1/DTD/svg11.dtd">
<svg height="100%" style="fill-rule:nonzero;clip-rule:evenodd;stroke-linecap:round;stroke-linejoin:round;" xmlns:xlink="http://www.w3.org/1999/xlink" xmlns="http://www.w3.org/2000/svg" xml:space="preserve" width="100%" xmlns:vectornator="http://vectornator.io" version="1.1" viewBox="0 0 640 640">
<metadata>
<vectornator:setting key="DimensionsVisible" value="1"/>
<vectornator:setting key="PencilOnly" value="0"/>
<vectornator:setting key="SnapToPoints" value="0"/>
<vectornator:setting key="OutlineMode" value="0"/>
<vectornator:setting key="CMYKEnabledKey" value="0"/>
<vectornator:setting key="RulersVisible" value="1"/>
<vectornator:setting key="SnapToEdges" value="0"/>
<vectornator:setting key="GuidesVisible" value="1"/>
<vectornator:setting key="DisplayWhiteBackground" value="0"/>
<vectornator:setting key="doHistoryDisabled" value="0"/>
<vectornator:setting key="SnapToGuides" value="1"/>
<vectornator:setting key="TimeLapseWatermarkDisabled" value="0"/>
<vectornator:setting key="Units" value="Points"/>
<vectornator:setting key="DynamicGuides" value="0"/>
<vectornator:setting key="IsolateActiveLayer" value="0"/>
<vectornator:setting key="SnapToGrid" value="0"/>
</metadata>
<defs>
<linearGradient y1="32.8" id="LinearGradient" x1="321.91" y2="626.07" x2="321.91" gradientUnits="userSpaceOnUse" gradientTransform="matrix(1 0 0 1 0 0)">
<stop stop-color="#6b4f7a" offset="0"/>
<stop stop-color="#010000" offset="1"/>
</linearGradient>
<linearGradient y1="182.9" id="LinearGradient_2" x1="183.11" y2="479.31" x2="183.11" gradientUnits="userSpaceOnUse" gradientTransform="matrix(1 0 0 1 0 0)">
<stop stop-color="#6b4f7a" offset="0"/>
<stop stop-color="#010000" offset="1"/>
</linearGradient>
<linearGradient y1="113.44" id="LinearGradient_3" x1="321.91" y2="410.32" x2="321.91" gradientUnits="userSpaceOnUse" gradientTransform="matrix(1 0 0 1 0 0)">
<stop stop-color="#6b4f7a" offset="0"/>
<stop stop-color="#010000" offset="1"/>
</linearGradient>
<linearGradient y1="194.06" id="LinearGradient_4" x1="461.15" y2="490.47" x2="461.15" gradientUnits="userSpaceOnUse" gradientTransform="matrix(1 0 0 1 0 0)">
<stop stop-color="#6b4f7a" offset="0"/>
<stop stop-color="#010000" offset="1"/>
</linearGradient>
</defs>
<g id="Untitled" vectornator:layerName="Untitled" visibility="hidden">
<g opacity="1">
<g opacity="1">
<path d="M74.17+510.09C62.79+496.4+55.33+485.17+44.37+465.2C24.51+429.03+14.83+400.74+9.87+364.39C6.32+338.39+7.33+300.85+12.28+275.09C24.43+211.79+56.94+155.86+107.55+111.18C152.91+71.14+205.3+46.64+270.01+35.22C292.85+31.19+357.41+32.4+381.03+37.29C503.51+62.67+595.46+145.12+626.33+257.22C635.2+289.45+638.33+330.59+634.37+362.96C614.42+525.89+458.74+643.08+287.54+624.04C203.69+614.72+127.21+573.87+74.17+510.09ZM620.53+334.01C620.76+309.81+619.05+295.49+613.11+271.99C590.11+180.95+515.26+105.37+417.46+74.43C383.45+63.67+370.12+61.82+322.99+61.38C270.63+60.88+249.38+64.19+208.84+79.14C95.26+121.05+18.76+225.97+22.84+334.21C27.73+463.89+136.31+574.9+278.2+595.3C297.92+598.14+341.56+598.61+361.16+596.19C507.71+578.14+619.26+465.37+620.53+334.01Z" opacity="0.78" fill="url(#LinearGradient)"/>
<path stroke="#000000" stroke-opacity="0" stroke-width="0.17" d="M74.17+510.09C62.79+496.4+55.33+485.17+44.37+465.2C24.51+429.03+14.83+400.74+9.87+364.39C6.32+338.39+7.33+300.85+12.28+275.09C24.43+211.79+56.94+155.86+107.55+111.18C152.91+71.14+205.3+46.64+270.01+35.22C292.85+31.19+357.41+32.4+381.03+37.29C503.51+62.67+595.46+145.12+626.33+257.22C635.2+289.45+638.33+330.59+634.37+362.96C614.42+525.89+458.74+643.08+287.54+624.04C203.69+614.72+127.21+573.87+74.17+510.09ZM620.53+334.01C620.76+309.81+619.05+295.49+613.11+271.99C590.11+180.95+515.26+105.37+417.46+74.43C383.45+63.67+370.12+61.82+322.99+61.38C270.63+60.88+249.38+64.19+208.84+79.14C95.26+121.05+18.76+225.97+22.84+334.21C27.73+463.89+136.31+574.9+278.2+595.3C297.92+598.14+341.56+598.61+361.16+596.19C507.71+578.14+619.26+465.37+620.53+334.01Z" fill="#000000" stroke-linecap="butt" fill-opacity="0" opacity="0.78" stroke-linejoin="miter"/>
</g>
<g opacity="1">
<path d="M114.31+390.72C119.73+342.17+127.16+275.54+130.8+242.67C131.24+238.69+133.45+218.76+137.42+182.9C161.6+183.14+175.04+183.27+177.72+183.29C209.01+183.59+219.74+184.42+225.68+187C240.56+193.45+250.42+205.82+256+225.02C263.14+249.57+263.66+276.87+257.6+309.09C249.4+352.69+231.03+384.36+207.44+395.56C202.28+398.01+192.43+399.32+174.21+399.99C151.76+400.8+148.23+401.4+147.72+404.48C147.39+406.43+145.95+418.88+144.51+432.15C143.08+445.42+141.31+461.46+140.57+467.79C140.48+468.56+140.03+472.4+139.23+479.31L121.83+479.16L104.44+479C109.7+431.92+112.99+402.49+114.31+390.72ZM215.68+328.04C223.95+307.77+227.79+263.48+222.66+247.54C217.93+232.85+207.21+227.55+181.56+227.25C173.68+227.15+167.22+227.94+167.22+228.99C167.21+230.91+155.15+340.01+153.92+349.36C153.87+349.69+153.66+351.33+153.26+354.29C163.74+354.38+169.56+354.43+170.72+354.44C182.24+354.55+190.55+353.51+195.16+351.4C204.17+347.26+211.02+339.46+215.68+328.04Z" opacity="0.78" fill="url(#LinearGradient_2)"/>
<path stroke="#000000" stroke-opacity="0" stroke-width="0.17" d="M114.31+390.72C119.73+342.17+127.16+275.54+130.8+242.67C131.24+238.69+133.45+218.76+137.42+182.9C161.6+183.14+175.04+183.27+177.72+183.29C209.01+183.59+219.74+184.42+225.68+187C240.56+193.45+250.42+205.82+256+225.02C263.14+249.57+263.66+276.87+257.6+309.09C249.4+352.69+231.03+384.36+207.44+395.56C202.28+398.01+192.43+399.32+174.21+399.99C151.76+400.8+148.23+401.4+147.72+404.48C147.39+406.43+145.95+418.88+144.51+432.15C143.08+445.42+141.31+461.46+140.57+467.79C140.48+468.56+140.03+472.4+139.23+479.31L121.83+479.16L104.44+479C109.7+431.92+112.99+402.49+114.31+390.72ZM215.68+328.04C223.95+307.77+227.79+263.48+222.66+247.54C217.93+232.85+207.21+227.55+181.56+227.25C173.68+227.15+167.22+227.94+167.22+228.99C167.21+230.91+155.15+340.01+153.92+349.36C153.87+349.69+153.66+351.33+153.26+354.29C163.74+354.38+169.56+354.43+170.72+354.44C182.24+354.55+190.55+353.51+195.16+351.4C204.17+347.26+211.02+339.46+215.68+328.04Z" fill="#000000" stroke-linecap="butt" fill-opacity="0" opacity="0.78" stroke-linejoin="miter"/>
</g>
<g opacity="1">
<path d="M284.31+118.26C284.95+113.43+285.34+113.33+302.03+113.48C314.87+113.59+319.07+114.31+319.05+116.37C319.03+117.88+317.32+133.92+315.25+152.02C313.19+170.11+311.49+186.64+311.47+188.76C311.46+192.28+313.36+192.62+334.33+192.84C366.4+193.18+378.22+198.43+386.76+216.14C388.83+220.43+390.88+227.58+391.33+232.03C392.88+247.48+390.35+282.56+383.12+345.82C382.63+350.06+380.21+371.26+375.85+409.42L358.05+409.87L340.26+410.32C344.3+375.08+346.54+355.51+346.99+351.59C357.51+259.71+357.83+251.41+351.22+243.43C347.82+239.33+305.18+236.73+305.17+240.62C305.16+243.45+287.6+400.49+286.69+405.89C286.11+409.31+284.18+409.71+269.04+409.58C259.7+409.49+252.05+408.8+252.05+408.03C252.06+406.47+283.28+126.06+284.31+118.26Z" opacity="0.78" fill="url(#LinearGradient_3)"/>
<path stroke="#000000" stroke-opacity="0" stroke-width="0.17" d="M284.31+118.26C284.95+113.43+285.34+113.33+302.03+113.48C314.87+113.59+319.07+114.31+319.05+116.37C319.03+117.88+317.32+133.92+315.25+152.02C313.19+170.11+311.49+186.64+311.47+188.76C311.46+192.28+313.36+192.62+334.33+192.84C366.4+193.18+378.22+198.43+386.76+216.14C388.83+220.43+390.88+227.58+391.33+232.03C392.88+247.48+390.35+282.56+383.12+345.82C382.63+350.06+380.21+371.26+375.85+409.42L358.05+409.87L340.26+410.32C344.3+375.08+346.54+355.51+346.99+351.59C357.51+259.71+357.83+251.41+351.22+243.43C347.82+239.33+305.18+236.73+305.17+240.62C305.16+243.45+287.6+400.49+286.69+405.89C286.11+409.31+284.18+409.71+269.04+409.58C259.7+409.49+252.05+408.8+252.05+408.03C252.06+406.47+283.28+126.06+284.31+118.26Z" fill="#000000" stroke-linecap="butt" fill-opacity="0" opacity="0.78" stroke-linejoin="miter"/>
</g>
<g opacity="1">
<path d="M415.12+199C415.16+198.67+415.39+197.02+415.8+194.06C439.69+194.3+452.97+194.43+455.62+194.45C485.15+194.74+497.54+195.66+503.54+198.01C527.2+207.25+539.82+236.02+539.65+280.31C539.42+338.66+515.93+393.16+485.18+406.73C480.05+408.99+469.03+410.43+451.77+411.09C450.06+411.15+441.47+411.48+426.02+412.07L421.79+451.27L417.56+490.47C407.09+490.37+401.27+490.32+400.11+490.31C390.51+490.23+382.66+489.61+382.66+488.95C382.67+487.4+414.21+205.59+415.12+199ZM502.4+283.36C502.48+266.29+502.11+262.28+499.96+257C494.38+243.34+484.33+238.62+460.28+238.38C447.76+238.26+445.95+238.7+445.37+242.07C444.36+247.99+431.97+359.7+431.96+362.99C431.95+365.32+436+365.76+452.38+365.22C470.57+364.61+473.53+363.98+479.28+359.45C493.87+347.95+502.23+320.45+502.4+283.36Z" opacity="0.78" fill="url(#LinearGradient_4)"/>
<path stroke="#000000" stroke-opacity="0" stroke-width="0.17" d="M415.12+199C415.16+198.67+415.39+197.02+415.8+194.06C439.69+194.3+452.97+194.43+455.62+194.45C485.15+194.74+497.54+195.66+503.54+198.01C527.2+207.25+539.82+236.02+539.65+280.31C539.42+338.66+515.93+393.16+485.18+406.73C480.05+408.99+469.03+410.43+451.77+411.09C450.06+411.15+441.47+411.48+426.02+412.07L421.79+451.27L417.56+490.47C407.09+490.37+401.27+490.32+400.11+490.31C390.51+490.23+382.66+489.61+382.66+488.95C382.67+487.4+414.21+205.59+415.12+199ZM502.4+283.36C502.48+266.29+502.11+262.28+499.96+257C494.38+243.34+484.33+238.62+460.28+238.38C447.76+238.26+445.95+238.7+445.37+242.07C444.36+247.99+431.97+359.7+431.96+362.99C431.95+365.32+436+365.76+452.38+365.22C470.57+364.61+473.53+363.98+479.28+359.45C493.87+347.95+502.23+320.45+502.4+283.36Z" fill="#000000" stroke-linecap="butt" fill-opacity="0" opacity="0.78" stroke-linejoin="miter"/>
</g>
<g opacity="1">
<path d="M590.46+436.21C591.55+434.28+592.45+432.92+592.44+433.2C592.44+433.48+591.55+435.29+590.45+437.23C589.36+439.16+588.46+440.51+588.46+440.23C588.46+439.95+589.36+438.14+590.46+436.21Z" opacity="0.78" fill="#9eaec7"/>
<path stroke="#000000" stroke-opacity="0" stroke-width="0.04" d="M590.46+436.21C591.55+434.28+592.45+432.92+592.44+433.2C592.44+433.48+591.55+435.29+590.45+437.23C589.36+439.16+588.46+440.51+588.46+440.23C588.46+439.95+589.36+438.14+590.46+436.21Z" fill="#000000" stroke-linecap="butt" fill-opacity="0" opacity="0.78" stroke-linejoin="miter"/>
</g>
<g opacity="1">
<path d="M489.88+543.45C512.66+529.12+533.64+511.53+551.28+491.99C564.63+477.21+576.18+461.34+585.51+444.99C587.11+442.18+588.45+440.01+588.48+440.17C588.51+440.35+588.7+440.21+588.98+439.79C589.22+439.42+589.45+439.17+589.49+439.24C589.58+439.41+583.86+449.35+581.35+453.38C561.91+484.54+535.81+512.01+504.71+534.07C496.86+539.63+485.5+546.93+484.75+546.89C484.59+546.88+484.99+546.54+485.63+546.13C486.27+545.73+488.19+544.52+489.88+543.45Z" opacity="0.78" fill="#9eaec7"/>
<path stroke="#000000" stroke-opacity="0" stroke-width="0.02" d="M489.88+543.45C512.66+529.12+533.64+511.53+551.28+491.99C564.63+477.21+576.18+461.34+585.51+444.99C587.11+442.18+588.45+440.01+588.48+440.17C588.51+440.35+588.7+440.21+588.98+439.79C589.22+439.42+589.45+439.17+589.49+439.24C589.58+439.41+583.86+449.35+581.35+453.38C561.91+484.54+535.81+512.01+504.71+534.07C496.86+539.63+485.5+546.93+484.75+546.89C484.59+546.88+484.99+546.54+485.63+546.13C486.27+545.73+488.19+544.52+489.88+543.45Z" fill="#000000" stroke-linecap="butt" fill-opacity="0" opacity="0.78" stroke-linejoin="miter"/>
</g>
<g opacity="1">
<path d="M355.47+261.95C355.46+259.58+355.39+256.92+355.32+256.05C354.99+252.28+354.21+249.5+352.69+246.77C351.65+244.88+350.78+243.86+349.13+242.54C347.88+241.55+347.98+241.49+349.65+242.21C351.11+242.84+352.08+243.93+353.3+246.3C355.11+249.82+355.67+253.74+355.55+261.95C355.54+262.24+355.52+263.67+355.49+266.26C355.48+263.96+355.47+262.52+355.47+261.95Z" opacity="0.78" fill="#9eaec7"/>
<path stroke="#000000" stroke-opacity="0" stroke-width="0.02" d="M355.47+261.95C355.46+259.58+355.39+256.92+355.32+256.05C354.99+252.28+354.21+249.5+352.69+246.77C351.65+244.88+350.78+243.86+349.13+242.54C347.88+241.55+347.98+241.49+349.65+242.21C351.11+242.84+352.08+243.93+353.3+246.3C355.11+249.82+355.67+253.74+355.55+261.95C355.54+262.24+355.52+263.67+355.49+266.26C355.48+263.96+355.47+262.52+355.47+261.95Z" fill="#000000" stroke-linecap="butt" fill-opacity="0" opacity="0.78" stroke-linejoin="miter"/>
</g>
<g opacity="1">
<path d="M267.42+409.19C277.64+409.39+282.41+409.19+284.33+408.5C286.07+407.87+286.55+407.18+286.89+404.85C287.97+397.54+302.93+263.97+305.08+242.58C305.27+240.64+305.39+239.98+305.59+239.8C305.73+239.66+305.89+239.59+305.95+239.63C306.01+239.67+301.78+277.92+296.54+324.62C295.9+330.28+292.73+358.58+287.01+409.53C278.21+409.49+273.31+409.47+272.34+409.46C264.26+409.43+257.66+409.31+257.66+409.19C257.66+409.08+262.05+409.08+267.42+409.19Z" opacity="0.78" fill="#9eaec7"/>
<path stroke="#000000" stroke-opacity="0" stroke-width="0.02" d="M267.42+409.19C277.64+409.39+282.41+409.19+284.33+408.5C286.07+407.87+286.55+407.18+286.89+404.85C287.97+397.54+302.93+263.97+305.08+242.58C305.27+240.64+305.39+239.98+305.59+239.8C305.73+239.66+305.89+239.59+305.95+239.63C306.01+239.67+301.78+277.92+296.54+324.62C295.9+330.28+292.73+358.58+287.01+409.53C278.21+409.49+273.31+409.47+272.34+409.46C264.26+409.43+257.66+409.31+257.66+409.19C257.66+409.08+262.05+409.08+267.42+409.19Z" fill="#000000" stroke-linecap="butt" fill-opacity="0" opacity="0.78" stroke-linejoin="miter"/>
</g>
<g opacity="1">
<path d="M174.34+191.07C176.51+191.15+174.73+191.18+170.39+191.14C166.06+191.11+164.28+191.04+166.45+191C168.62+190.95+172.17+190.98+174.34+191.07Z" opacity="0.78" fill="#9eaec7"/>
<path stroke="#000000" stroke-opacity="0" stroke-width="0.03" d="M174.34+191.07C176.51+191.15+174.73+191.18+170.39+191.14C166.06+191.11+164.28+191.04+166.45+191C168.62+190.95+172.17+190.98+174.34+191.07Z" fill="#000000" stroke-linecap="butt" fill-opacity="0" opacity="0.78" stroke-linejoin="miter"/>
</g>
<g opacity="1">
<path d="M171.53+236.48C171.79+236.57+171.53+236.64+170.95+236.63C170.37+236.62+170.16+236.55+170.48+236.46C170.8+236.38+171.28+236.39+171.53+236.48Z" opacity="0.78" fill="#9eaec7"/>
<path stroke="#000000" stroke-opacity="0" stroke-width="0.03" d="M171.53+236.48C171.79+236.57+171.53+236.64+170.95+236.63C170.37+236.62+170.16+236.55+170.48+236.46C170.8+236.38+171.28+236.39+171.53+236.48Z" fill="#000000" stroke-linecap="butt" fill-opacity="0" opacity="0.78" stroke-linejoin="miter"/>
</g>
<g opacity="1">
<path d="M411.24+235.03C411.39+233.72+411.48+233.42+411.64+233.6C411.81+233.8+411.77+234.53+411.37+238.07C395.11+382.82+383.71+485.07+383.57+487.34C383.52+488.26+383.52+488.27+384.26+488.47C386.18+489+392.66+489.29+405.04+489.41C405.94+489.41+410.43+489.46+418.53+489.53C418.59+488.93+418.63+488.59+418.64+488.53C418.7+487.97+420.6+470.38+422.86+449.42C426.78+413.13+426.99+411.32+427.29+411.24C427.58+411.17+427.61+411.26+427.53+411.91C427.48+412.33+425.49+430.17+423.09+451.57C422.8+454.16+421.35+467.13+418.74+490.47L400.7+490.38L382.66+490.29C401.52+321.83+411.05+236.75+411.24+235.03Z" opacity="0.78" fill="#9eaec7"/>
<path stroke="#000000" stroke-opacity="0" stroke-width="0.02" d="M411.24+235.03C411.39+233.72+411.48+233.42+411.64+233.6C411.81+233.8+411.77+234.53+411.37+238.07C395.11+382.82+383.71+485.07+383.57+487.34C383.52+488.26+383.52+488.27+384.26+488.47C386.18+489+392.66+489.29+405.04+489.41C405.94+489.41+410.43+489.46+418.53+489.53C418.59+488.93+418.63+488.59+418.64+488.53C418.7+487.97+420.6+470.38+422.86+449.42C426.78+413.13+426.99+411.32+427.29+411.24C427.58+411.17+427.61+411.26+427.53+411.91C427.48+412.33+425.49+430.17+423.09+451.57C422.8+454.16+421.35+467.13+418.74+490.47L400.7+490.38L382.66+490.29C401.52+321.83+411.05+236.75+411.24+235.03Z" fill="#000000" stroke-linecap="butt" fill-opacity="0" opacity="0.78" stroke-linejoin="miter"/>
</g>
<g opacity="1">
<path d="M346.58+350.53C352.94+294.7+353.56+289+354.68+276.07C354.92+273.28+355.12+271.38+355.13+271.85C355.14+273.09+354.47+281.38+353.73+289.04C352.32+303.81+350.35+321.59+344.26+374.81C342.1+393.67+340.33+409.34+340.33+409.63C340.32+409.92+340.22+410.16+340.1+410.15C339.98+410.15+339.88+410.04+339.88+409.91C339.88+409.54+342.19+389.02+346.58+350.53Z" opacity="0.78" fill="#9eaec7"/>
<path stroke="#000000" stroke-opacity="0" stroke-width="0.02" d="M346.58+350.53C352.94+294.7+353.56+289+354.68+276.07C354.92+273.28+355.12+271.38+355.13+271.85C355.14+273.09+354.47+281.38+353.73+289.04C352.32+303.81+350.35+321.59+344.26+374.81C342.1+393.67+340.33+409.34+340.33+409.63C340.32+409.92+340.22+410.16+340.1+410.15C339.98+410.15+339.88+410.04+339.88+409.91C339.88+409.54+342.19+389.02+346.58+350.53Z" fill="#000000" stroke-linecap="butt" fill-opacity="0" opacity="0.78" stroke-linejoin="miter"/>
</g>
<g opacity="1">
<path d="M443.74+262.9C445.66+246.22+446.26+241.45+446.52+240.63C446.54+240.59+446.61+240.36+446.75+239.95C446.7+240.43+446.68+240.7+446.67+240.76C446.33+244.51+433.08+362.27+432.99+362.27C432.93+362.27+432.92+361.82+432.97+361.26C433.57+354.19+440.07+294.79+443.74+262.9Z" opacity="0.78" fill="#9eaec7"/>
<path stroke="#000000" stroke-opacity="0" stroke-width="0.02" d="M443.74+262.9C445.66+246.22+446.26+241.45+446.52+240.63C446.54+240.59+446.61+240.36+446.75+239.95C446.7+240.43+446.68+240.7+446.67+240.76C446.33+244.51+433.08+362.27+432.99+362.27C432.93+362.27+432.92+361.82+432.97+361.26C433.57+354.19+440.07+294.79+443.74+262.9Z" fill="#000000" stroke-linecap="butt" fill-opacity="0" opacity="0.78" stroke-linejoin="miter"/>
</g>
<g opacity="1">
<path d="M481.31+240.15C476.61+239.21+475.21+239.13+461.4+239.01C449.92+238.91+447.56+238.83+448.1+238.56C449.37+237.91+451.35+237.7+457.3+237.59C466.17+237.44+475.42+238.17+480.75+239.46C483.83+240.2+489.11+242.12+489.11+242.49C489.1+242.69+488.61+242.55+487.47+242.03C486.1+241.4+483.29+240.54+481.31+240.15Z" opacity="0.78" fill="#9eaec7"/>
<path stroke="#000000" stroke-opacity="0" stroke-width="0.02" d="M481.31+240.15C476.61+239.21+475.21+239.13+461.4+239.01C449.92+238.91+447.56+238.83+448.1+238.56C449.37+237.91+451.35+237.7+457.3+237.59C466.17+237.44+475.42+238.17+480.75+239.46C483.83+240.2+489.11+242.12+489.11+242.49C489.1+242.69+488.61+242.55+487.47+242.03C486.1+241.4+483.29+240.54+481.31+240.15Z" fill="#000000" stroke-linecap="butt" fill-opacity="0" opacity="0.78" stroke-linejoin="miter"/>
</g>
<g opacity="1">
<path d="M485.46+352.65C486.02+352+486.52+351.53+486.56+351.61C486.71+351.89+483.31+355.6+481.3+357.34C477.62+360.53+475.13+361.88+471.34+362.73C468.72+363.32+468.21+363.15+470.46+362.44C476.43+360.56+481.4+357.32+485.46+352.65Z" opacity="0.78" fill="#9eaec7"/>
<path stroke="#000000" stroke-opacity="0" stroke-width="0.02" d="M485.46+352.65C486.02+352+486.52+351.53+486.56+351.61C486.71+351.89+483.31+355.6+481.3+357.34C477.62+360.53+475.13+361.88+471.34+362.73C468.72+363.32+468.21+363.15+470.46+362.44C476.43+360.56+481.4+357.32+485.46+352.65Z" fill="#000000" stroke-linecap="butt" fill-opacity="0" opacity="0.78" stroke-linejoin="miter"/>
</g>
<g opacity="1">
<path d="M251.66+405.31C251.9+403.01+252+402.51+252.23+402.51C252.57+402.51+252.57+402.46+252.25+405.35C252.11+406.63+252.04+407.75+252.09+407.84C252.25+408.14+253.8+408.43+256.5+408.69C259.92+409.01+258.86+409.3+254.32+409.31C251.2+409.31+251.19+409.3+251.28+408.7C251.33+408.37+251.5+406.85+251.66+405.31Z" opacity="0.78" fill="#9eaec7"/>
<path stroke="#000000" stroke-opacity="0" stroke-width="0.02" d="M251.66+405.31C251.9+403.01+252+402.51+252.23+402.51C252.57+402.51+252.57+402.46+252.25+405.35C252.11+406.63+252.04+407.75+252.09+407.84C252.25+408.14+253.8+408.43+256.5+408.69C259.92+409.01+258.86+409.3+254.32+409.31C251.2+409.31+251.19+409.3+251.28+408.7C251.33+408.37+251.5+406.85+251.66+405.31Z" fill="#000000" stroke-linecap="butt" fill-opacity="0" opacity="0.78" stroke-linejoin="miter"/>
</g>
</g>
</g>
<g id="Layer 1" vectornator:layerName="Layer 1">
<path stroke="#000000" stroke-width="1" d="M304.259+38.7573C312.049+50.0123+292.978+61.9315+286.275+49.9973C288.087+50.2941+289.936+50.9591+291.521+51.8822C267.497+62.2144+241.434+67.9976+217.003+77.7288C199.999+83.3924+183.593+90.645+167.354+98.2235C126.145+114.113+89.2427+142.592+68.1814+181.953C62.823+190.178+56.7622+198.018+52.2275+206.733C32.916+259.625+20.3902+319.168+35.7692+374.772C37.7662+402.009+49.9708+426.694+64.3517+449.397C94.2184+494.95+143.081+522.79+193.958+538.9C206.011+544.242+218.3+549.021+230.694+553.52C248.394+561.032+266.377+568.315+285.442+571.516C363.791+580.277+443.829+566.78+516.672+537.221C523.747+533.7+530.988+530.396+537.528+525.918C558.738+508.027+582.045+490.597+596.025+466.168C603.256+451.364+606.609+435.139+609.935+419.12C633.857+337.802+618.45+244.872+564.456+178.713C526.62+128.284+469.699+93.8292+409.16+77.8739C363.146+62.8644+311.806+60.8811+265.532+75.6448C263.83+76.0759+262.021+76.0732+260.32+75.6371C254.105+74.2655+250.472+66.6917+253.291+60.9857C254.361+58.6077+256.346+56.6606+258.744+55.6358C320.448+34.806+387.845+45.2203+447.581+67.7135C515.813+93.1671+573.916+143.178+609.007+206.997C643.765+273.259+651.37+352.238+630.566+424.029C626.964+441.727+622.958+459.565+614.879+475.846C609.448+487.43+600.421+496.581+592.043+506.044C577.28+519.524+563.226+534.036+546.621+545.317C466.526+586.83+373.087+601.481+283.617+592.703C273.013+590.99+262.651+588.17+252.444+584.868C198.054+560.838+137.158+547.744+90.5901+509.023C51.5698+476.536+20.8802+430.496+15.0489+379.273C-1.33057+318.558+11.7353+253.357+33.8986+195.959C61.3219+146.141+100.008+100.011+155.265+80.4623C171.852+72.8846+188.354+64.922+205.744+59.3537C231.532+48.7743+258.847+42.6101+284.62+32.0772C287.096+31.3717+289.697+30.9051+292.267+31.3922C297.139+31.9851+301.834+34.3665+304.259+38.7573L304.259+38.7573Z" fill="#4f6d7a" stroke-linecap="butt" opacity="1" stroke-linejoin="round"/>
<path stroke="#000000" stroke-width="1" d="M153.935+193.827C145.37+179.392+171.39+170.558+174.337+187.091C175.891+191.058+176.148+195.405+175.735+199.61C163.325+285.983+144.617+371.445+136.625+458.434C133.504+468.688+132.446+480.345+125.789+489.12C121.231+494.292+111.949+493.106+108.838+486.955C105.779+481.964+108.692+476.147+111.184+471.659C113.289+463.641+115.904+455.718+117.096+447.49C123.643+364.293+142.402+282.869+154.416+200.437C154.064+197.692+156.048+195.38+153.935+193.827L153.935+193.827Z" fill="#4f6d7a" stroke-linecap="butt" opacity="1" stroke-linejoin="round"/>
<path stroke="#000000" stroke-width="1" d="M170.44+202.846C166.887+219.099+141.782+207.864+151.08+193.978C153.323+189.737+157.056+186.328+161.597+184.717C168.656+181.579+176.76+180.781+184.315+182.329C235.503+201.202+248.265+272.428+229.365+318.562C213.843+361.642+171.566+395.804+124.477+392.799C109.885+390.869+115.254+367.837+129.294+371.706C131.107+371.646+132.904+371.383+134.708+371.225C138.351+370.874+141.998+370.512+145.604+369.873C156.983+367.786+167.699+362.841+176.723+355.604C195.705+342.078+206.713+320.689+213.797+299.051C220.962+265.872+213.631+218.425+179.572+202.896C175.762+202.181+171.816+203.231+168.42+204.668C168.678+204.143+170.421+201.376+170.44+202.846L170.44+202.846Z" fill="#4f6d7a" stroke-linecap="butt" opacity="1" stroke-linejoin="round"/>
<path stroke="#000000" stroke-width="1" d="M301.298+84.7306C306.341+77.1394+319.015+78.8926+321.898+87.5931C322.762+89.8371+322.953+92.3463+322.438+94.7005C322.132+98.1986+318.632+100.133+318.513+103.425C309.549+155.832+299.923+208.134+289.408+260.254C281.324+305.07+277.088+353.526+257.309+394.593C252.046+399.549+242.74+397.977+239.306+391.553C237.708+388.807+237.235+385.404+238.024+382.31C242.701+365.787+248.304+349.546+252.458+332.862C266.66+253.412+281.816+174.101+296.14+94.6884C297.18+91.0441+298.995+87.6899+301.298+84.7306L301.298+84.7306Z" fill="#4f6d7a" stroke-linecap="butt" opacity="1" stroke-linejoin="round"/>
<path stroke="#000000" stroke-width="1" d="M284.197+225.204C272.719+230.089+264.114+211.859+275.187+206.111C278.016+204.607+281.195+203.81+284.308+203.163C313.602+202.461+350.275+191.84+372.877+216.456C377.867+221.98+379.522+229.56+380.607+236.709C380.589+298.081+346.343+353.977+342.629+414.911C342.279+416.805+341.398+418.597+340.113+420.031C336.259+424.603+328.536+424.727+324.537+420.281C322.812+418.48+321.76+416.053+321.628+413.563C324.713+354.901+355.218+301.174+359.827+242.713C359.416+238.461+359.334+233.519+356.718+229.975C336.655+214.358+307.386+224.012+284.197+225.204L284.197+225.204Z" fill="#4f6d7a" stroke-linecap="butt" opacity="1" stroke-linejoin="round"/>
<path stroke="#000000" stroke-width="1" d="M436.329+230.357C424.989+246.082+405.798+219.267+425.009+212.717C432.071+208.087+441.434+212.602+444.15+220.091C445.694+224.563+444.906+229.439+444.285+234.012C441.908+243.517+439.285+252.981+436.746+262.454C420.621+342.588+387.723+418.78+380.373+500.75C380.076+502.192+379.474+503.571+378.618+504.768C374.624+510.884+364.512+510.529+360.957+504.149C359.779+502.243+359.247+499.96+359.425+497.729C369.082+404.372+406.071+317.079+424.133+225.487C426.312+230.423+431.834+232.958+436.479+229.513C436.971+229.581+436.338+230.092+436.329+230.357L436.329+230.357Z" fill="#4f6d7a" stroke-linecap="butt" opacity="1" stroke-linejoin="round"/>
<path stroke="#000000" stroke-width="1" d="M429.612+238.753C419.854+252.833+401.026+232.457+414.982+222.605C416.88+219.538+419.234+216.763+421.898+214.335C444.578+192.803+487.791+183.589+506.796+214.749C544.507+273.141+507.561+347.822+462.355+390.487C453.814+397.814+444.248+403.936+433.871+408.318C425.419+412.056+416.107+413.854+406.882+412.78C402.736+412.423+398.577+411.933+394.548+410.862C375.457+409.925+384.708+380.507+400.835+390.624C403.996+391.279+407.216+391.611+410.432+391.841C415.741+392.481+420.965+390.901+425.76+388.757C439.1+383.067+450.712+373.802+460.089+362.815C485.564+331.348+507.867+291.51+499.497+249.609C496.484+235.93+489.013+221.93+475.921+215.654C458.218+214.406+438.803+223.415+429.612+238.753L429.612+238.753Z" fill="#4f6d7a" stroke-linecap="butt" opacity="1" stroke-linejoin="round"/>
</g>
</svg>
