<?xml version="1.0" encoding="UTF-8" standalone="no"?>
<!DOCTYPE svg PUBLIC "-//W3C//DTD SVG 1.1//EN" "http://www.w3.org/Graphics/SVG/1.1/DTD/svg11.dtd">
<svg version="1.1" xmlns="http://www.w3.org/2000/svg" xmlns:xlink="http://www.w3.org/1999/xlink" preserveAspectRatio="xMidYMid meet" viewBox="0 0 640 640" width="640" height="640"><defs><path d="M19.13 356.62C14.31 322.72 18.22 281.49 29.79 244.48C37.64 219.34 57.18 196.25 79.97 185.19C95.87 177.47 98.6 177.28 213.53 176.26C221.35 176.19 260.46 175.84 330.86 175.21L330.86 165.29L330.86 155.36L255.5 155.36L180.13 155.36C180.13 130.99 180.13 117.45 180.13 114.74C180.13 71.05 183.44 57.91 197.72 44.95C210.22 33.61 228.54 27.35 265.06 21.92C323.68 13.21 394.85 17.23 427.57 31.1C448.56 40 469.28 62.83 474.33 82.61C476.57 91.36 478.16 128.25 478.16 171.44C478.16 253.53 475.22 270.93 458.23 289.21C437.3 311.75 435.08 312.17 327.43 314.1C245.2 315.58 227.73 316.77 216.65 321.65C195.59 330.94 178.82 345.97 167.98 365.28C158.41 382.31 157.82 385.69 156.69 429.67C156.61 432.77 156.21 448.24 155.5 476.09C137.71 475.92 127.83 475.82 125.85 475.8C109.54 475.64 91.99 474.26 86.83 472.73C49.28 461.59 29.14 427.06 19.13 356.62ZM243.03 60.83C225.08 60.83 214.39 71.37 214.39 89.05C214.39 107.53 224.71 118.22 242.55 118.22C252.06 118.22 258.18 115.88 264.21 109.94C282.89 91.53 269.65 60.83 243.03 60.83Z" id="g1kEsqn0Ty"></path><path d="M183.3 585.73C182.65 584.9 179.42 580.73 173.61 573.22C172.96 520.39 172.6 491.04 172.53 485.17C171.34 388.22 172.63 378.89 190 359.39C210.72 336.14 217.49 334.81 316 334.73C413.91 334.65 428.02 332.45 453.47 313.32C462.8 306.31 472.24 294.52 479.32 281.03C490.22 260.27 490.47 258.8 490.47 216.2C490.47 213.29 490.47 198.76 490.47 172.6C509.69 172.6 520.37 172.6 522.51 172.6C560.69 172.6 573.64 176.32 590.46 192.1C606.21 206.87 616.23 229.46 624.45 268.73C636.57 326.58 631.62 375.44 608.73 424.12C596.52 450.09 583.99 463.38 566.18 469.24C558.39 471.81 515.59 473.08 436.87 473.08C429.02 473.08 389.8 473.08 319.19 473.08L319.19 483.21L319.19 493.34L394.94 493.34L470.68 493.34C469.89 515.11 469.45 527.21 469.36 529.63C467.85 571.44 460.93 588.14 438.92 603.17C399.86 629.86 326.41 641.56 271.24 629.89C227.1 620.55 199.55 606.72 183.3 585.73ZM431.68 546.29C425.72 535.26 418.11 530.7 405.47 530.58C390.23 530.44 382.65 534.93 377.51 547.16C368.8 567.89 382.06 587.87 404.53 587.87C415.29 587.87 419.68 585.82 426.8 577.48C436.48 566.13 437.81 557.64 431.68 546.29Z" id="a170UenTly"></path><path d="M28.58 48.89C28.9 48.13 29.46 47.63 30.21 47.42C30.5 47.33 30.66 47.32 30.4 47.4C30.15 47.48 30.01 47.54 29.79 47.67C29.15 48.06 28.67 48.7 28.42 49.51C28.38 49.62 28.36 49.69 28.36 49.66C28.35 49.56 28.47 49.15 28.58 48.89Z" id="i29UUPJk0C"></path><path d="M28.66 52.33C28.55 52.09 28.43 51.77 28.43 51.7C28.43 51.68 28.49 51.8 28.56 51.96C28.93 52.81 29.63 53.45 30.43 53.67C30.58 53.71 30.6 53.73 30.54 53.73C30.48 53.73 30.33 53.7 30.19 53.66C29.49 53.45 28.98 53.01 28.66 52.33Z" id="m4DG2qCmF6"></path><path d="M362.69 470.21C363.46 470.29 362.92 470.36 361.5 470.36C360.08 470.36 359.45 470.3 360.11 470.22C360.76 470.13 361.93 470.13 362.69 470.21Z" id="b2ieckKlRu"></path><path d="M358.09 330.83C358.34 330.93 358.13 331.01 357.62 331.01C357.12 331.01 356.91 330.93 357.16 330.83C357.42 330.73 357.83 330.73 358.09 330.83Z" id="b2JnF1vmZi"></path></defs><g><g><use xlink:href="#g1kEsqn0Ty" opacity="1" fill="#0a1a29" fill-opacity="1"></use><g><use xlink:href="#g1kEsqn0Ty" opacity="1" fill-opacity="0" stroke="#000000" stroke-width="0.36" stroke-opacity="0"></use></g></g><g><use xlink:href="#a170UenTly" opacity="1" fill="#0a1a29" fill-opacity="1"></use><g><use xlink:href="#a170UenTly" opacity="1" fill-opacity="0" stroke="#000000" stroke-width="0.36" stroke-opacity="0"></use></g></g><g><use xlink:href="#i29UUPJk0C" opacity="1" fill="#9eaec7" fill-opacity="1"></use><g><use xlink:href="#i29UUPJk0C" opacity="1" fill-opacity="0" stroke="#000000" stroke-width="0.03" stroke-opacity="0"></use></g></g><g><use xlink:href="#m4DG2qCmF6" opacity="1" fill="#9eaec7" fill-opacity="1"></use><g><use xlink:href="#m4DG2qCmF6" opacity="1" fill-opacity="0" stroke="#000000" stroke-width="0.03" stroke-opacity="0"></use></g></g><g><use xlink:href="#b2ieckKlRu" opacity="1" fill="#9eaec7" fill-opacity="1"></use><g><use xlink:href="#b2ieckKlRu" opacity="1" fill-opacity="0" stroke="#000000" stroke-width="0.04" stroke-opacity="0"></use></g></g><g><use xlink:href="#b2JnF1vmZi" opacity="1" fill="#9eaec7" fill-opacity="1"></use><g><use xlink:href="#b2JnF1vmZi" opacity="1" fill-opacity="0" stroke="#000000" stroke-width="0.04" stroke-opacity="0"></use></g></g></g></svg>