<?xml version="1.0" encoding="UTF-8" standalone="no"?>
<!DOCTYPE svg PUBLIC "-//W3C//DTD SVG 1.1//EN" "http://www.w3.org/Graphics/SVG/1.1/DTD/svg11.dtd">
<svg version="1.1" xmlns="http://www.w3.org/2000/svg" xmlns:xlink="http://www.w3.org/1999/xlink" preserveAspectRatio="xMidYMid meet" viewBox="0 0 640 640" width="640" height="640"><defs><path d="M19.13 356.62C14.31 322.72 18.22 281.49 29.79 244.48C37.64 219.34 57.18 196.25 79.97 185.19C95.87 177.47 98.6 177.28 213.53 176.26C221.35 176.19 260.46 175.84 330.86 175.21L330.86 165.29L330.86 155.36L255.5 155.36L180.13 155.36C180.13 130.99 180.13 117.45 180.13 114.74C180.13 71.05 183.44 57.91 197.72 44.95C210.22 33.61 228.54 27.35 265.06 21.92C323.68 13.21 394.85 17.23 427.57 31.1C448.56 40 469.28 62.83 474.33 82.61C476.57 91.36 478.16 128.25 478.16 171.44C478.16 253.53 475.22 270.93 458.23 289.21C437.3 311.75 435.08 312.17 327.43 314.1C245.2 315.58 227.73 316.77 216.65 321.65C195.59 330.94 178.82 345.97 167.98 365.28C158.41 382.31 157.82 385.69 156.69 429.67C156.61 432.77 156.21 448.24 155.5 476.09C137.71 475.92 127.83 475.82 125.85 475.8C109.54 475.64 91.99 474.26 86.83 472.73C49.28 461.59 29.14 427.06 19.13 356.62ZM243.03 60.83C225.08 60.83 214.39 71.37 214.39 89.05C214.39 107.53 224.71 118.22 242.55 118.22C252.06 118.22 258.18 115.88 264.21 109.94C282.89 91.53 269.65 60.83 243.03 60.83Z" id="a4iR0esfdX"></path><linearGradient id="gradienta6c2d3R0" gradientUnits="userSpaceOnUse" x1="247.63" y1="17.33" x2="247.63" y2="476.09"><stop style="stop-color: #6b4f7a;stop-opacity: 1" offset="0%"></stop><stop style="stop-color: #010000;stop-opacity: 1" offset="100%"></stop></linearGradient><path d="M183.3 586.42C182.65 585.59 179.42 581.42 173.61 573.91C172.96 521.08 172.6 491.73 172.53 485.86C171.34 388.91 172.63 379.58 190 360.08C210.72 336.83 217.49 335.5 316 335.42C413.91 335.34 428.02 333.14 453.47 314.01C462.8 307 472.24 295.21 479.32 281.72C490.22 260.96 490.47 259.49 490.47 216.89C490.47 213.98 490.47 199.45 490.47 173.29C509.69 173.29 520.37 173.29 522.51 173.29C560.69 173.29 573.64 177.01 590.46 192.79C606.21 207.56 616.23 230.15 624.45 269.42C636.57 327.27 631.62 376.12 608.73 424.81C596.52 450.78 583.99 464.07 566.18 469.93C558.39 472.5 515.59 473.77 436.87 473.77C429.02 473.77 389.8 473.77 319.19 473.77L319.19 483.9L319.19 494.03L394.94 494.03L470.68 494.03C469.89 515.8 469.45 527.9 469.36 530.32C467.85 572.13 460.93 588.83 438.92 603.86C399.86 630.54 326.41 642.25 271.24 630.58C227.1 621.24 199.55 607.41 183.3 586.42ZM431.68 546.98C425.72 535.95 418.11 531.39 405.47 531.27C390.23 531.13 382.65 535.62 377.51 547.85C368.8 568.58 382.06 588.56 404.53 588.56C415.29 588.56 419.68 586.51 426.8 578.17C436.48 566.82 437.81 558.33 431.68 546.98Z" id="c5mYtw7bv"></path><linearGradient id="gradienth1fjcZbXY" gradientUnits="userSpaceOnUse" x1="401.53" y1="173.29" x2="401.53" y2="635.09"><stop style="stop-color: #6b4f7a;stop-opacity: 1" offset="0%"></stop><stop style="stop-color: #010000;stop-opacity: 1" offset="100%"></stop></linearGradient><path d="M28.58 48.89C28.9 48.13 29.46 47.63 30.21 47.42C30.5 47.33 30.66 47.32 30.4 47.4C30.15 47.48 30.01 47.54 29.79 47.67C29.15 48.06 28.67 48.7 28.42 49.51C28.38 49.62 28.36 49.69 28.36 49.66C28.35 49.56 28.47 49.15 28.58 48.89Z" id="afYw0GDyf"></path><path d="M28.66 52.33C28.55 52.09 28.43 51.77 28.43 51.7C28.43 51.68 28.49 51.8 28.56 51.96C28.93 52.81 29.63 53.45 30.43 53.67C30.58 53.71 30.6 53.73 30.54 53.73C30.48 53.73 30.33 53.7 30.19 53.66C29.49 53.45 28.98 53.01 28.66 52.33Z" id="bCstY6apX"></path><path d="M362.69 470.21C363.46 470.29 362.92 470.36 361.5 470.36C360.08 470.36 359.45 470.3 360.11 470.22C360.76 470.13 361.93 470.13 362.69 470.21Z" id="a1A9naULFA"></path><path d="M358.09 330.83C358.34 330.93 358.13 331.01 357.62 331.01C357.12 331.01 356.91 330.93 357.16 330.83C357.42 330.73 357.83 330.73 358.09 330.83Z" id="i9NmOUK0gB"></path></defs><g><g><g><use xlink:href="#a4iR0esfdX" opacity="0.8" fill="url(#gradienta6c2d3R0)"></use><g><use xlink:href="#a4iR0esfdX" opacity="0.8" fill-opacity="0" stroke="#000000" stroke-width="0.36" stroke-opacity="0"></use></g></g><g><use xlink:href="#c5mYtw7bv" opacity="0.81" fill="url(#gradienth1fjcZbXY)"></use><g><use xlink:href="#c5mYtw7bv" opacity="0.81" fill-opacity="0" stroke="#000000" stroke-width="0.36" stroke-opacity="0"></use></g></g><g><use xlink:href="#afYw0GDyf" opacity="1" fill="#9eaec7" fill-opacity="1"></use><g><use xlink:href="#afYw0GDyf" opacity="1" fill-opacity="0" stroke="#000000" stroke-width="0.03" stroke-opacity="0"></use></g></g><g><use xlink:href="#bCstY6apX" opacity="1" fill="#9eaec7" fill-opacity="1"></use><g><use xlink:href="#bCstY6apX" opacity="1" fill-opacity="0" stroke="#000000" stroke-width="0.03" stroke-opacity="0"></use></g></g><g><use xlink:href="#a1A9naULFA" opacity="1" fill="#9eaec7" fill-opacity="1"></use><g><use xlink:href="#a1A9naULFA" opacity="1" fill-opacity="0" stroke="#000000" stroke-width="0.04" stroke-opacity="0"></use></g></g><g><use xlink:href="#i9NmOUK0gB" opacity="1" fill="#9eaec7" fill-opacity="1"></use><g><use xlink:href="#i9NmOUK0gB" opacity="1" fill-opacity="0" stroke="#000000" stroke-width="0.04" stroke-opacity="0"></use></g></g></g></g></svg>