<?xml version="1.0" encoding="UTF-8" standalone="no"?> <!-- Created with Vectornator for iOS (http://vectornator.io/) --><!DOCTYPE svg PUBLIC "-//W3C//DTD SVG 1.1//EN" "http://www.w3.org/Graphics/SVG/1.1/DTD/svg11.dtd">
<svg height="100%" style="fill-rule:nonzero;clip-rule:evenodd;stroke-linecap:round;stroke-linejoin:round;" xmlns:xlink="http://www.w3.org/1999/xlink" xmlns="http://www.w3.org/2000/svg" xml:space="preserve" width="100%" xmlns:vectornator="http://vectornator.io" version="1.1" viewBox="0 0 640 640">
<metadata>
<vectornator:setting key="DimensionsVisible" value="1"/>
<vectornator:setting key="PencilOnly" value="0"/>
<vectornator:setting key="SnapToPoints" value="0"/>
<vectornator:setting key="OutlineMode" value="0"/>
<vectornator:setting key="CMYKEnabledKey" value="0"/>
<vectornator:setting key="RulersVisible" value="1"/>
<vectornator:setting key="SnapToEdges" value="0"/>
<vectornator:setting key="GuidesVisible" value="1"/>
<vectornator:setting key="DisplayWhiteBackground" value="0"/>
<vectornator:setting key="doHistoryDisabled" value="0"/>
<vectornator:setting key="SnapToGuides" value="1"/>
<vectornator:setting key="TimeLapseWatermarkDisabled" value="0"/>
<vectornator:setting key="Units" value="Points"/>
<vectornator:setting key="DynamicGuides" value="0"/>
<vectornator:setting key="IsolateActiveLayer" value="0"/>
<vectornator:setting key="SnapToGrid" value="0"/>
</metadata>
<defs>
<linearGradient y1="17.33" id="LinearGradient" x1="247.63" y2="476.09" x2="247.63" gradientUnits="userSpaceOnUse" gradientTransform="matrix(1 0 0 1 0 0)">
<stop stop-color="#6b4f7a" offset="0"/>
<stop stop-color="#010000" offset="1"/>
</linearGradient>
<linearGradient y1="173.29" id="LinearGradient_2" x1="401.53" y2="635.09" x2="401.53" gradientUnits="userSpaceOnUse" gradientTransform="matrix(1 0 0 1 0 0)">
<stop stop-color="#6b4f7a" offset="0"/>
<stop stop-color="#010000" offset="1"/>
</linearGradient>
</defs>
<g id="Untitled" vectornator:layerName="Untitled" visibility="hidden">
<g opacity="1">
<g opacity="1">
<path d="M19.13+356.62C14.31+322.72+18.22+281.49+29.79+244.48C37.64+219.34+57.18+196.25+79.97+185.19C95.87+177.47+98.6+177.28+213.53+176.26C221.35+176.19+260.46+175.84+330.86+175.21L330.86+165.29L330.86+155.36L255.5+155.36L180.13+155.36C180.13+130.99+180.13+117.45+180.13+114.74C180.13+71.05+183.44+57.91+197.72+44.95C210.22+33.61+228.54+27.35+265.06+21.92C323.68+13.21+394.85+17.23+427.57+31.1C448.56+40+469.28+62.83+474.33+82.61C476.57+91.36+478.16+128.25+478.16+171.44C478.16+253.53+475.22+270.93+458.23+289.21C437.3+311.75+435.08+312.17+327.43+314.1C245.2+315.58+227.73+316.77+216.65+321.65C195.59+330.94+178.82+345.97+167.98+365.28C158.41+382.31+157.82+385.69+156.69+429.67C156.61+432.77+156.21+448.24+155.5+476.09C137.71+475.92+127.83+475.82+125.85+475.8C109.54+475.64+91.99+474.26+86.83+472.73C49.28+461.59+29.14+427.06+19.13+356.62ZM243.03+60.83C225.08+60.83+214.39+71.37+214.39+89.05C214.39+107.53+224.71+118.22+242.55+118.22C252.06+118.22+258.18+115.88+264.21+109.94C282.89+91.53+269.65+60.83+243.03+60.83Z" opacity="0.8" fill="url(#LinearGradient)"/>
<path stroke="#000000" stroke-opacity="0" stroke-width="0.36" d="M19.13+356.62C14.31+322.72+18.22+281.49+29.79+244.48C37.64+219.34+57.18+196.25+79.97+185.19C95.87+177.47+98.6+177.28+213.53+176.26C221.35+176.19+260.46+175.84+330.86+175.21L330.86+165.29L330.86+155.36L255.5+155.36L180.13+155.36C180.13+130.99+180.13+117.45+180.13+114.74C180.13+71.05+183.44+57.91+197.72+44.95C210.22+33.61+228.54+27.35+265.06+21.92C323.68+13.21+394.85+17.23+427.57+31.1C448.56+40+469.28+62.83+474.33+82.61C476.57+91.36+478.16+128.25+478.16+171.44C478.16+253.53+475.22+270.93+458.23+289.21C437.3+311.75+435.08+312.17+327.43+314.1C245.2+315.58+227.73+316.77+216.65+321.65C195.59+330.94+178.82+345.97+167.98+365.28C158.41+382.31+157.82+385.69+156.69+429.67C156.61+432.77+156.21+448.24+155.5+476.09C137.71+475.92+127.83+475.82+125.85+475.8C109.54+475.64+91.99+474.26+86.83+472.73C49.28+461.59+29.14+427.06+19.13+356.62ZM243.03+60.83C225.08+60.83+214.39+71.37+214.39+89.05C214.39+107.53+224.71+118.22+242.55+118.22C252.06+118.22+258.18+115.88+264.21+109.94C282.89+91.53+269.65+60.83+243.03+60.83Z" fill="#000000" stroke-linecap="butt" fill-opacity="0" opacity="0.8" stroke-linejoin="miter"/>
</g>
<g opacity="1">
<path d="M183.3+586.42C182.65+585.59+179.42+581.42+173.61+573.91C172.96+521.08+172.6+491.73+172.53+485.86C171.34+388.91+172.63+379.58+190+360.08C210.72+336.83+217.49+335.5+316+335.42C413.91+335.34+428.02+333.14+453.47+314.01C462.8+307+472.24+295.21+479.32+281.72C490.22+260.96+490.47+259.49+490.47+216.89C490.47+213.98+490.47+199.45+490.47+173.29C509.69+173.29+520.37+173.29+522.51+173.29C560.69+173.29+573.64+177.01+590.46+192.79C606.21+207.56+616.23+230.15+624.45+269.42C636.57+327.27+631.62+376.12+608.73+424.81C596.52+450.78+583.99+464.07+566.18+469.93C558.39+472.5+515.59+473.77+436.87+473.77C429.02+473.77+389.8+473.77+319.19+473.77L319.19+483.9L319.19+494.03L394.94+494.03L470.68+494.03C469.89+515.8+469.45+527.9+469.36+530.32C467.85+572.13+460.93+588.83+438.92+603.86C399.86+630.54+326.41+642.25+271.24+630.58C227.1+621.24+199.55+607.41+183.3+586.42ZM431.68+546.98C425.72+535.95+418.11+531.39+405.47+531.27C390.23+531.13+382.65+535.62+377.51+547.85C368.8+568.58+382.06+588.56+404.53+588.56C415.29+588.56+419.68+586.51+426.8+578.17C436.48+566.82+437.81+558.33+431.68+546.98Z" opacity="0.81" fill="url(#LinearGradient_2)"/>
<path stroke="#000000" stroke-opacity="0" stroke-width="0.36" d="M183.3+586.42C182.65+585.59+179.42+581.42+173.61+573.91C172.96+521.08+172.6+491.73+172.53+485.86C171.34+388.91+172.63+379.58+190+360.08C210.72+336.83+217.49+335.5+316+335.42C413.91+335.34+428.02+333.14+453.47+314.01C462.8+307+472.24+295.21+479.32+281.72C490.22+260.96+490.47+259.49+490.47+216.89C490.47+213.98+490.47+199.45+490.47+173.29C509.69+173.29+520.37+173.29+522.51+173.29C560.69+173.29+573.64+177.01+590.46+192.79C606.21+207.56+616.23+230.15+624.45+269.42C636.57+327.27+631.62+376.12+608.73+424.81C596.52+450.78+583.99+464.07+566.18+469.93C558.39+472.5+515.59+473.77+436.87+473.77C429.02+473.77+389.8+473.77+319.19+473.77L319.19+483.9L319.19+494.03L394.94+494.03L470.68+494.03C469.89+515.8+469.45+527.9+469.36+530.32C467.85+572.13+460.93+588.83+438.92+603.86C399.86+630.54+326.41+642.25+271.24+630.58C227.1+621.24+199.55+607.41+183.3+586.42ZM431.68+546.98C425.72+535.95+418.11+531.39+405.47+531.27C390.23+531.13+382.65+535.62+377.51+547.85C368.8+568.58+382.06+588.56+404.53+588.56C415.29+588.56+419.68+586.51+426.8+578.17C436.48+566.82+437.81+558.33+431.68+546.98Z" fill="#000000" stroke-linecap="butt" fill-opacity="0" opacity="0.81" stroke-linejoin="miter"/>
</g>
<g opacity="1">
<path d="M28.58+48.89C28.9+48.13+29.46+47.63+30.21+47.42C30.5+47.33+30.66+47.32+30.4+47.4C30.15+47.48+30.01+47.54+29.79+47.67C29.15+48.06+28.67+48.7+28.42+49.51C28.38+49.62+28.36+49.69+28.36+49.66C28.35+49.56+28.47+49.15+28.58+48.89Z" opacity="1" fill="#9eaec7"/>
<path stroke="#000000" stroke-opacity="0" stroke-width="0.03" d="M28.58+48.89C28.9+48.13+29.46+47.63+30.21+47.42C30.5+47.33+30.66+47.32+30.4+47.4C30.15+47.48+30.01+47.54+29.79+47.67C29.15+48.06+28.67+48.7+28.42+49.51C28.38+49.62+28.36+49.69+28.36+49.66C28.35+49.56+28.47+49.15+28.58+48.89Z" fill="#000000" stroke-linecap="butt" fill-opacity="0" opacity="1" stroke-linejoin="miter"/>
</g>
<g opacity="1">
<path d="M28.66+52.33C28.55+52.09+28.43+51.77+28.43+51.7C28.43+51.68+28.49+51.8+28.56+51.96C28.93+52.81+29.63+53.45+30.43+53.67C30.58+53.71+30.6+53.73+30.54+53.73C30.48+53.73+30.33+53.7+30.19+53.66C29.49+53.45+28.98+53.01+28.66+52.33Z" opacity="1" fill="#9eaec7"/>
<path stroke="#000000" stroke-opacity="0" stroke-width="0.03" d="M28.66+52.33C28.55+52.09+28.43+51.77+28.43+51.7C28.43+51.68+28.49+51.8+28.56+51.96C28.93+52.81+29.63+53.45+30.43+53.67C30.58+53.71+30.6+53.73+30.54+53.73C30.48+53.73+30.33+53.7+30.19+53.66C29.49+53.45+28.98+53.01+28.66+52.33Z" fill="#000000" stroke-linecap="butt" fill-opacity="0" opacity="1" stroke-linejoin="miter"/>
</g>
<g opacity="1">
<path d="M362.69+470.21C363.46+470.29+362.92+470.36+361.5+470.36C360.08+470.36+359.45+470.3+360.11+470.22C360.76+470.13+361.93+470.13+362.69+470.21Z" opacity="1" fill="#9eaec7"/>
<path stroke="#000000" stroke-opacity="0" stroke-width="0.04" d="M362.69+470.21C363.46+470.29+362.92+470.36+361.5+470.36C360.08+470.36+359.45+470.3+360.11+470.22C360.76+470.13+361.93+470.13+362.69+470.21Z" fill="#000000" stroke-linecap="butt" fill-opacity="0" opacity="1" stroke-linejoin="miter"/>
</g>
<g opacity="1">
<path d="M358.09+330.83C358.34+330.93+358.13+331.01+357.62+331.01C357.12+331.01+356.91+330.93+357.16+330.83C357.42+330.73+357.83+330.73+358.09+330.83Z" opacity="1" fill="#9eaec7"/>
<path stroke="#000000" stroke-opacity="0" stroke-width="0.04" d="M358.09+330.83C358.34+330.93+358.13+331.01+357.62+331.01C357.12+331.01+356.91+330.93+357.16+330.83C357.42+330.73+357.83+330.73+358.09+330.83Z" fill="#000000" stroke-linecap="butt" fill-opacity="0" opacity="1" stroke-linejoin="miter"/>
</g>
</g>
</g>
<g id="Layer 1" vectornator:layerName="Layer 1">
<path stroke="#000000" stroke-width="1" d="M160.719+470.162C162.557+481.027+146.132+486.528+141.065+476.741C133.25+423.742+142.212+365.504+173.162+320.724C178.013+314.99+184.369+310.755+190.716+306.883C197.542+303.562+205.265+303.713+212.633+302.813C286.468+303.386+364.949+310.045+432.328+273.98C448.367+259.95+460.232+240.957+465.944+220.446C472.618+181.022+462.68+141.432+463.202+101.908C462.209+95.7862+461.483+89.6134+460.298+83.5226C458.858+77.1753+457.232+70.6754+452.429+65.9503C443.308+56.3896+432.176+48.7489+420.116+43.356C413.451+40.5258+406.312+38.9979+399.246+37.5451C349.159+32.375+296.355+31.6413+248.169+47.8475C237.167+54.3987+226.042+61.2129+216.368+69.6745C197.602+88.352+186.627+113.448+186.36+139.987C186.939+139.205+182.171+136.398+184.439+136.914C225.703+131.915+267.256+146.004+308.362+137.528C312.421+137.58+316.626+137.034+320.541+138.395C323.671+139.388+326.622+141.261+328.551+143.954C332.078+156.273+335.637+172.382+328.194+184.181C326.672+186.065+324.604+187.429+322.434+188.456C317.886+190.849+312.573+190.162+307.728+191.51C232.267+212.462+153.31+167.386+79.1074+196.401C53.5098+233.593+35.0474+276.445+31.4454+321.884C26.1003+357.79+27.2819+396.027+44.0796+428.942C51.6762+442.059+65.1112+451.34+79.4873+455.472C102.326+459.053+124.951+463.076+148.037+459.204C161.052+450.417+174.044+472.35+159.08+478.161C139.545+481.776+118.855+484.385+99.2286+479.431C63.2761+479.648+27.2285+456.964+17.7834+421.142C-6.56775+342.183+14.4229+253.369+60.3042+186.138C63.4022+181.276+68.3279+177.905+73.4264+175.413C108.45+162.964+146.631+164.366+183.175+167.478C223.117+175.323+265.045+180.604+305.025+170.422C308.069+170.093+311.416+168.939+314.382+169.442C312.857+169.513+310.621+173.777+311.37+170.208C311.091+164.511+309.231+158.558+310.635+152.975C311.795+154.836+312.058+158.013+314.856+158.468C270.998+166.988+226.445+153.837+182.303+157.921C178.581+157.687+174.903+156.396+171.929+154.129C168.811+151.826+166.785+148.309+165.83+144.596C163.452+111.128+177.874+78.2856+201.364+54.7245C238.819+17.3018+294.104+13.6767+344.068+13.3056C390.014+11.1022+443.118+17.6257+472.505+57.3762C477.387+63.5742+479.04+71.4525+480.989+78.91C482.353+85.4035+483.031+92.0135+484.152+98.5478C483.608+155.147+505.132+219.826+465.469+268.601C460.607+275.242+455.616+281.905+449.382+287.337C445.991+290.307+442.435+293.116+438.542+295.406C433.087+298.575+426.844+299.845+420.967+301.969C351.769+333.631+274.934+321.331+201.621+325.255C197.252+327.152+193.323+330.528+189.836+333.808C171.947+357.589+166.14+388.077+160.007+416.596C160.34+434.41+159.879+452.349+160.719+470.162L160.719+470.162Z" fill="#4f6d7a" stroke-linecap="butt" opacity="1" stroke-linejoin="round"/>
<path stroke="#000000" stroke-width="1" d="M267.444+74.3381C266.658+88.3785+243.327+85.1159+246.643+71.571C248.597+73.6184+250.405+78.1669+253.202+77.9668C240.808+81.7402+233.104+112.593+251.792+109.776C260.358+105.418+267.302+97.14+268.988+87.587C269.679+85.5461+266.608+79.7997+266.311+80.1296C247.528+82.9402+251.964+52.1251+269.708+59.2785C275.328+60.1166+280.445+63.413+283.67+68.0724C289.162+75.5574+291.323+85.422+289.192+94.4887C284.232+120.75+248.335+145.275+226.741+121.397C208.096+98.6499+228.064+52.0338+259.162+58.2991C264.617+61.4255+268.644+67.9349+267.444+74.3381L267.444+74.3381Z" fill="#4f6d7a" stroke-linecap="butt" opacity="1" stroke-linejoin="round"/>
<path stroke="#000000" stroke-width="1" d="M409.527+527.42C420.724+536.045+404.756+553.488+395.391+542.975C397.047+542.558+398.899+543.009+400.569+543.301C393.924+550.17+386.873+558.656+385.669+568.367C387.941+571.877+395.578+575.945+400.677+575.58C409.249+569.747+410.899+558.381+412.134+548.852C412.388+549.214+412.931+550.673+413.146+550.852C405.573+548.68+391.274+547.26+392.602+535.871C393.286+527.272+403.764+524.268+410.705+527.7C423.982+529.331+436.808+540.703+432.747+555.117C432.269+558.192+431.655+561.245+430.93+564.27C429.366+570.804+426.936+577.208+422.994+582.697C411.199+603.637+381.955+598.062+368.952+581.714C356.542+560.743+375.32+533.56+394.008+523.591C399.409+522.461+405.511+523.411+409.527+527.42L409.527+527.42Z" fill="#4f6d7a" stroke-linecap="butt" opacity="1" stroke-linejoin="round"/>
<path stroke="#000000" stroke-width="1" d="M487.459+179.379C486.877+169.096+502.182+164.75+507.082+173.812C508.006+175.305+508.548+177.031+508.645+178.785C507.862+222.414+510.661+271.496+481.118+307.276C454.386+347.293+404.095+354.467+360.719+363.522C316.758+374.498+271.615+366.123+227.134+366.691C218.186+369.995+207.716+371.497+200.853+378.674C198.966+380.746+196.862+382.796+195.85+385.468C178.127+432.883+182.687+484.565+184.019+534.159C185.244+542.419+186.309+550.726+187.71+558.954C190.398+566.214+192.147+574.062+196.823+580.384C203.744+589.638+213.586+596+224.022+600.642C229.087+602.824+234.328+604.602+239.726+605.752C280.144+612.83+321.573+613.592+362.51+612.897C387.092+606.947+413.075+601.066+433.986+586.156C436.668+583.97+439.119+581.48+441.147+578.67C453.539+556.002+467.192+532.429+468.25+505.954C470.297+506.836+471.202+510.149+472.672+511.538C468.73+511.9+464.742+511.448+460.805+511.981C414.179+520.374+368.027+501.818+321.591+509.502C318.596+509.156+315.579+508.283+313.157+506.422C304.318+499.293+308.462+487.123+306.172+477.455C306.457+471.304+310.2+465.344+316.019+463.044C325.554+460.122+335.846+460.423+345.725+459.235C379.432+459.426+413.08+458.419+446.703+456.595C482.523+451.669+518.582+447.754+554.807+448.172C558.599+447.46+562.603+447.162+566.137+445.533C603.953+416.237+613.521+363.793+603.042+319.157C600.821+286.194+594.784+253.733+593.774+220.695C593.217+214.253+592.049+207.818+590.337+201.591C579.575+193.191+563.64+192.267+550.357+189.536C545.794+188.729+541.153+188.994+536.545+188.957C532.353+188.909+528.155+189.071+523.967+188.822C520.906+188.63+517.882+188.099+514.891+187.438C502.395+190.15+494.939+171.476+507.332+166.515C538.415+167.103+572.223+167.215+600.651+182.289C605.345+185.566+608.787+190.479+610.668+195.853C612.54+202.369+613.809+209.071+614.617+215.8C615.828+250.021+621.75+283.684+624.222+317.821C631.488+349.078+628.292+382.186+617.583+412.236C608.628+431.958+594.567+449.739+577.668+463.214C571.99+466.842+565.243+467.887+558.737+469.037C522.339+469.305+486+472.23+449.994+477.597C415.944+479.511+381.872+480.667+347.734+480.39C339.736+480.671+331.813+482.12+323.826+482.459C325.402+481.69+326.742+480.011+327.159+478.184C328.153+483.293+329.214+488.789+328.151+493.92C327.308+491.129+325.269+488.999+322.276+488.641C367.331+479.954+412.388+499.026+457.738+490.983C461.852+490.472+466.002+490.447+470.141+490.508C474.379+490.412+478.901+490.928+482.494+493.355C485.637+495.815+487.747+499.416+489.052+503.138C490.159+534.399+473.99+562.719+459.502+589.33C457.023+593.023+454.112+596.421+450.877+599.472C427.055+619.864+395.004+626.824+365.264+633.911C321.618+635.046+277.407+634.023+234.346+626.257C227.827+624.839+221.507+622.641+215.389+619.997C203.357+614.521+191.817+607.423+183.263+597.164C174.954+588.489+171.303+576.811+167.637+565.669C165.3+556.462+164.689+546.901+163.057+537.551C161.392+482.67+156.061+424.715+178.449+373.054C183.698+364.841+191.032+357.674+200.077+353.793C208.865+350.457+217.654+346.495+227.075+345.407C235.78+345.219+244.501+345.206+253.207+345.396C310.526+353.387+368.463+343.786+423.097+326.267C429.528+323.598+435.88+320.681+441.645+316.737C458.174+304.876+470.887+288.094+478.917+269.473C487.509+240.318+487.307+209.518+487.459+179.379L487.459+179.379Z" fill="#4f6d7a" stroke-linecap="butt" opacity="1" stroke-linejoin="round"/>
</g>
</svg>
