<?xml version="1.0" encoding="UTF-8" standalone="no"?>
<!DOCTYPE svg PUBLIC "-//W3C//DTD SVG 1.1//EN" "http://www.w3.org/Graphics/SVG/1.1/DTD/svg11.dtd">
<svg version="1.1" xmlns="http://www.w3.org/2000/svg" xmlns:xlink="http://www.w3.org/1999/xlink" preserveAspectRatio="xMidYMid meet" viewBox="0 0 640 640" width="640" height="640"><defs><path d="M268.69 311.21C268.69 338.97 292.12 361.48 321.02 361.48C349.93 361.48 373.36 338.97 373.36 311.21C373.33 283.45 349.92 260.96 321.02 260.93C292.12 260.93 268.69 283.44 268.69 311.21ZM289.62 311.21C289.62 294.55 303.68 281.04 321.02 281.04C338.37 281.04 352.43 294.55 352.43 311.21C352.43 327.86 338.37 341.37 321.02 341.37C303.68 341.37 289.62 327.86 289.62 311.21Z" id="b3QY7Pb7R"></path><path d="M547.95 270.36C592.72 223.85 608.31 185.8 593.02 160.38C571.04 123.85 497.2 130.62 412.14 159.66C395.76 74.39 364.93 9.55 321.02 9.55C277.12 9.55 246.3 74.39 229.96 159.67C144.9 130.63 71.03 123.86 49.07 160.38C33.79 185.8 49.38 223.85 94.15 270.36C108.23 284.79 123.17 298.43 138.89 311.21C123.15 323.98 108.2 337.62 94.11 352.05C49.37 398.57 33.78 436.61 49.06 462.04C59.53 479.47 81.84 487.04 111.55 487.04C152.12 485.13 192.12 476.92 229.96 462.73C246.3 548.03 277.12 612.86 321.02 612.86C364.93 612.86 395.76 548.03 412.1 462.74C449.94 476.92 489.92 485.13 530.5 487.04C560.19 487.04 582.5 479.46 592.98 462.04C608.26 436.61 592.68 398.57 547.91 352.05C533.82 337.62 518.89 323.99 503.17 311.21C518.9 298.43 533.85 284.79 547.95 270.36ZM532.58 256.71C518.21 271.4 502.94 285.24 486.84 298.18C467.51 283.24 446.46 268.44 423.87 254.1C422.23 228.64 419.48 203.56 415.66 179.69C500.02 150.6 561.53 148.31 574.86 170.43C584.69 186.74 568.87 219 532.58 256.71ZM321.02 402.81C307.32 396.05 293.36 388.74 279.15 380.87C265.14 373.09 251.61 365.04 238.44 356.88C237.67 342.14 237.28 326.91 237.28 311.21C237.28 295.5 237.67 280.27 238.44 265.54C251.61 257.37 265.14 249.32 279.15 241.54C293.34 233.68 307.3 226.37 321.02 219.61C334.74 226.39 348.72 233.69 362.9 241.54C376.92 249.32 390.44 257.37 403.62 265.54C404.38 280.27 404.77 295.5 404.77 311.21C404.77 326.91 404.38 342.14 403.62 356.88C390.44 365.04 376.92 373.09 362.9 380.87C348.7 388.73 334.75 396.04 321.02 402.81ZM395.69 435.49C379.18 429.22 361.92 422.01 344.1 413.81C353.94 408.78 363.71 403.62 373.33 398.3C382.95 392.96 392.62 387.37 401.98 381.76C400.45 400.68 398.33 418.63 395.69 435.49ZM246.33 435.45C243.72 418.59 241.61 400.64 240.05 381.73C249.41 387.32 258.94 392.83 268.66 398.26C278.31 403.62 288.08 408.74 297.93 413.77C280.13 421.96 262.85 429.18 246.33 435.45ZM171.81 311.21C185.94 300.43 200.98 289.78 216.95 279.26C216.57 289.92 216.35 300.59 216.35 311.21C216.35 321.83 216.57 332.49 216.95 343.15C201.01 332.63 185.97 322 171.81 311.21ZM246.36 186.91C262.86 193.17 280.09 200.4 297.89 208.57C288.07 213.58 278.34 218.75 268.72 224.08C258.96 229.51 249.42 235.03 240.08 240.65C241.61 221.71 243.72 203.76 246.36 186.91ZM395.73 186.97C398.33 203.83 400.45 221.78 402.01 240.7C392.63 235.06 383.08 229.53 373.36 224.12C363.75 218.79 353.99 213.67 344.15 208.64C361.95 200.46 379.22 193.24 395.73 186.97ZM470.25 311.21C456.12 321.97 441.08 332.62 425.11 343.15C425.48 332.49 425.7 321.83 425.7 311.21C425.7 300.59 425.48 289.92 425.11 279.26C441.04 289.78 456.08 300.41 470.25 311.21ZM392.26 166.76C368.84 175.52 344.83 185.78 321.08 197.15C297.28 185.78 273.26 175.52 249.9 166.76C265.72 82.03 294.39 29.66 321.02 29.66C347.67 29.66 376.34 82.02 392.26 166.76ZM67.2 170.43C73.11 160.6 88.5 155.58 111.16 155.58C150.68 157.58 189.61 165.73 226.42 179.71C222.61 203.54 219.86 228.61 218.21 254.06C195.62 268.4 174.57 283.22 155.25 298.14C139.15 285.22 123.88 271.38 109.51 256.71C73.21 219 57.4 186.74 67.2 170.43ZM109.51 365.7C123.88 351.01 139.15 337.17 155.25 324.24C174.57 339.17 195.62 353.97 218.21 368.31C219.86 393.77 222.61 418.85 226.42 442.72C142.03 471.81 80.52 474.1 67.2 451.98C57.4 435.67 73.21 403.41 109.51 365.7ZM249.85 455.66C273.26 446.9 297.28 436.65 321.08 425.28C344.88 436.65 368.9 446.9 392.31 455.66C376.33 540.4 347.67 592.75 321.02 592.75C294.39 592.75 265.73 540.4 249.85 455.66ZM415.63 442.69C419.45 418.85 422.2 393.77 423.84 368.28C446.43 353.94 467.48 339.12 486.81 324.21C502.91 337.13 518.18 350.99 532.55 365.68C568.84 403.41 584.66 435.67 574.86 451.98C561.54 474.1 499.99 471.81 415.63 442.69Z" id="a13L26Kmj"></path></defs><g><g><use xlink:href="#b3QY7Pb7R" opacity="1" fill="#0a1a29" fill-opacity="1"></use><g><use xlink:href="#b3QY7Pb7R" opacity="1" fill-opacity="0" stroke="#000000" stroke-width="1" stroke-opacity="0"></use></g></g><g><use xlink:href="#a13L26Kmj" opacity="1" fill="#0a1a29" fill-opacity="1"></use><g><use xlink:href="#a13L26Kmj" opacity="1" fill-opacity="0" stroke="#000000" stroke-width="1" stroke-opacity="0"></use></g></g></g></svg>