<?xml version="1.0" encoding="UTF-8" standalone="no"?>
<!DOCTYPE svg PUBLIC "-//W3C//DTD SVG 1.1//EN" "http://www.w3.org/Graphics/SVG/1.1/DTD/svg11.dtd">
<svg version="1.1" xmlns="http://www.w3.org/2000/svg" xmlns:xlink="http://www.w3.org/1999/xlink" preserveAspectRatio="xMidYMid meet" viewBox="0 0 640 640" width="640" height="640"><defs><path d="M268.69 311.21C268.69 338.97 292.12 361.48 321.02 361.48C349.93 361.48 373.36 338.97 373.36 311.21C373.33 283.45 349.92 260.96 321.02 260.93C292.12 260.93 268.69 283.44 268.69 311.21ZM289.62 311.21C289.62 294.55 303.68 281.04 321.02 281.04C338.37 281.04 352.43 294.55 352.43 311.21C352.43 327.86 338.37 341.37 321.02 341.37C303.68 341.37 289.62 327.86 289.62 311.21Z" id="jDD0oEe5"></path><linearGradient id="gradientb26oCTK0R9" gradientUnits="userSpaceOnUse" x1="321.02" y1="360.73" x2="321.02" y2="255.44"><stop style="stop-color: #6b4f7a;stop-opacity: 1" offset="0%"></stop><stop style="stop-color: #00e7f0;stop-opacity: 1" offset="100%"></stop></linearGradient><path d="M546.9 270.36C591.67 223.85 607.26 185.8 591.98 160.38C570 123.85 496.16 130.62 411.09 159.66C394.71 74.39 363.89 9.55 319.98 9.55C276.08 9.55 245.26 74.39 228.92 159.67C143.86 130.63 69.98 123.86 48.03 160.38C32.75 185.8 48.34 223.85 93.11 270.36C107.19 284.79 122.13 298.43 137.84 311.21C122.11 323.98 107.16 337.62 93.06 352.05C48.33 398.57 32.74 436.61 48.02 462.04C58.49 479.47 80.8 487.04 110.5 487.04C151.08 485.13 191.07 476.92 228.92 462.73C245.26 548.03 276.08 612.86 319.98 612.86C363.89 612.86 394.71 548.03 411.05 462.74C448.9 476.92 488.88 485.13 529.46 487.04C559.15 487.04 581.46 479.46 591.94 462.04C607.22 436.61 591.63 398.57 546.86 352.05C532.78 337.62 517.84 323.99 502.13 311.21C517.86 298.43 532.81 284.79 546.9 270.36ZM531.54 256.71C517.17 271.4 501.9 285.24 485.8 298.18C466.47 283.24 445.42 268.44 422.83 254.1C421.19 228.64 418.43 203.56 414.62 179.69C498.98 150.6 560.49 148.31 573.82 170.43C583.65 186.74 567.83 219 531.54 256.71ZM319.98 402.81C306.28 396.05 292.32 388.74 278.11 380.87C264.1 373.09 250.57 365.04 237.4 356.88C236.63 342.14 236.24 326.91 236.24 311.21C236.24 295.5 236.63 280.27 237.4 265.54C250.57 257.37 264.1 249.32 278.11 241.54C292.29 233.68 306.25 226.37 319.98 219.61C333.7 226.39 347.68 233.69 361.85 241.54C375.87 249.32 389.4 257.37 402.57 265.54C403.34 280.27 403.72 295.5 403.72 311.21C403.72 326.91 403.34 342.14 402.57 356.88C389.4 365.04 375.87 373.09 361.85 380.87C347.66 388.73 333.71 396.04 319.98 402.81ZM394.65 435.49C378.13 429.22 360.88 422.01 343.05 413.81C352.89 408.78 362.67 403.62 372.29 398.3C381.91 392.96 391.58 387.37 400.93 381.76C399.41 400.68 397.29 418.63 394.65 435.49ZM245.29 435.45C242.68 418.59 240.56 400.64 239.01 381.73C248.36 387.32 257.9 392.83 267.61 398.26C277.27 403.62 287.04 408.74 296.88 413.77C279.09 421.96 261.81 429.18 245.29 435.45ZM170.77 311.21C184.89 300.43 199.94 289.78 215.9 279.26C215.52 289.92 215.3 300.59 215.3 311.21C215.3 321.83 215.52 332.49 215.9 343.15C199.97 332.63 184.93 322 170.77 311.21ZM245.32 186.91C261.82 193.17 279.05 200.4 296.85 208.57C287.03 213.58 277.3 218.75 267.68 224.08C257.92 229.51 248.37 235.03 239.04 240.65C240.56 221.71 242.68 203.76 245.32 186.91ZM394.68 186.97C397.29 203.83 399.41 221.78 400.96 240.7C391.59 235.06 382.04 229.53 372.32 224.12C362.71 218.79 352.95 213.67 343.11 208.64C360.9 200.46 378.17 193.24 394.68 186.97ZM469.2 311.21C455.08 321.97 440.03 332.62 424.07 343.15C424.44 332.49 424.66 321.83 424.66 311.21C424.66 300.59 424.44 289.92 424.07 279.26C440 289.78 455.04 300.41 469.2 311.21ZM391.22 166.76C367.79 175.52 343.79 185.78 320.04 197.15C296.24 185.78 272.22 175.52 248.85 166.76C264.67 82.03 293.34 29.66 319.98 29.66C346.63 29.66 375.3 82.02 391.22 166.76ZM66.15 170.43C72.07 160.6 87.45 155.58 110.12 155.58C149.64 157.58 188.57 165.73 225.38 179.71C221.57 203.54 218.82 228.61 217.17 254.06C194.58 268.4 173.53 283.22 154.21 298.14C138.11 285.22 122.83 271.38 108.47 256.71C72.17 219 56.36 186.74 66.15 170.43ZM108.47 365.7C122.83 351.01 138.1 337.17 154.21 324.24C173.53 339.17 194.58 353.97 217.17 368.31C218.82 393.77 221.57 418.85 225.38 442.72C140.99 471.81 79.48 474.1 66.15 451.98C56.36 435.67 72.17 403.41 108.47 365.7ZM248.8 455.66C272.22 446.9 296.24 436.65 320.04 425.28C343.84 436.65 367.85 446.9 391.27 455.66C375.29 540.4 346.63 592.75 319.98 592.75C293.34 592.75 264.68 540.4 248.8 455.66ZM414.59 442.69C418.4 418.85 421.15 393.77 422.8 368.28C445.39 353.94 466.44 339.12 485.76 324.21C501.86 337.13 517.14 350.99 531.5 365.68C567.8 403.41 583.61 435.67 573.82 451.98C560.5 474.1 498.95 471.81 414.59 442.69Z" id="g1eh5bhbT2"></path><linearGradient id="gradientb25dmIw6CV" gradientUnits="userSpaceOnUse" x1="319.98" y1="608.38" x2="319.98" y2="-23.39"><stop style="stop-color: #6b4f7a;stop-opacity: 1" offset="0%"></stop><stop style="stop-color: #00e7f0;stop-opacity: 1" offset="100%"></stop></linearGradient></defs><g><g><g><use xlink:href="#jDD0oEe5" opacity="0.79" fill="url(#gradientb26oCTK0R9)"></use><g><use xlink:href="#jDD0oEe5" opacity="0.79" fill-opacity="0" stroke="#000000" stroke-width="1" stroke-opacity="0"></use></g></g><g><use xlink:href="#g1eh5bhbT2" opacity="0.78" fill="url(#gradientb25dmIw6CV)"></use><g><use xlink:href="#g1eh5bhbT2" opacity="0.78" fill-opacity="0" stroke="#000000" stroke-width="1" stroke-opacity="0"></use></g></g></g></g></svg>