<?xml version="1.0" encoding="UTF-8" standalone="no"?> <!-- Created with Vectornator for iOS (http://vectornator.io/) --><!DOCTYPE svg PUBLIC "-//W3C//DTD SVG 1.1//EN" "http://www.w3.org/Graphics/SVG/1.1/DTD/svg11.dtd">
<svg height="100%" style="fill-rule:nonzero;clip-rule:evenodd;stroke-linecap:round;stroke-linejoin:round;" xmlns:xlink="http://www.w3.org/1999/xlink" xmlns="http://www.w3.org/2000/svg" xml:space="preserve" width="100%" xmlns:vectornator="http://vectornator.io" version="1.1" viewBox="0 0 203.496 203.496">
<metadata>
<vectornator:setting key="DimensionsVisible" value="1"/>
<vectornator:setting key="PencilOnly" value="0"/>
<vectornator:setting key="SnapToPoints" value="0"/>
<vectornator:setting key="OutlineMode" value="0"/>
<vectornator:setting key="CMYKEnabledKey" value="0"/>
<vectornator:setting key="RulersVisible" value="1"/>
<vectornator:setting key="SnapToEdges" value="0"/>
<vectornator:setting key="GuidesVisible" value="1"/>
<vectornator:setting key="DisplayWhiteBackground" value="0"/>
<vectornator:setting key="doHistoryDisabled" value="0"/>
<vectornator:setting key="SnapToGuides" value="1"/>
<vectornator:setting key="TimeLapseWatermarkDisabled" value="0"/>
<vectornator:setting key="Units" value="Points"/>
<vectornator:setting key="DynamicGuides" value="0"/>
<vectornator:setting key="IsolateActiveLayer" value="0"/>
<vectornator:setting key="SnapToGrid" value="0"/>
</metadata>
<defs/>
<g id="Untitled" vectornator:layerName="Untitled">
<path d="M185.93+62.885C185.623+62.958+185.444+63.191+185.326+63.457C182.994+63.739+180.799+64.508+178.804+65.602C178.684+65.327+178.494+65.08+178.16+64.931C165.176+59.131+150.653+57.318+135.797+57.858C134.277+45.058+130.096+33.109+120.088+23.776C121.613+19.822+121.784+15.332+120.101+11.17C117.403+4.5+105.417-4.749+99.128+2.858C92.371+4.141+87.658+10.393+87.205+17.125C78.296+22.29+71.848+30.378+67.167+39.801C50.903+34.509+34.552+34.204+23.347+46.553C23.261+46.647+23.284+46.747+23.235+46.845C21.597+46.496+19.849+46.558+18.025+47.226C17.897+47.273+17.839+47.383+17.745+47.463C13.081+48.597+8.313+51.228+5.471+55.045C5.365+55.033+5.258+55.031+5.152+55.019C4.52+54.944+4.328+55.812+4.717+56.177C3.297+58.53+2.558+61.257+3.021+64.363C4.07+71.397+11.411+78.836+18.888+79.459C18.911+79.521+18.876+79.572+18.913+79.635C21.378+83.833+24.058+87.844+26.924+91.683C16.425+99.761+8.855+110.134+9.106+123.272C8.999+123.406+8.91+123.561+8.921+123.77C8.985+124.968+9.161+126.09+9.386+127.179C9.395+127.246+9.396+127.311+9.406+127.379C9.411+127.413+9.442+127.418+9.45+127.449C13.492+145.746+39.755+148.708+61.413+147.541C64.237+160.144+66.862+173.539+78.113+180.916C77.771+182.092+77.513+183.294+77.455+184.538C77.02+193.962+84.9+204.524+95.077+203.416C102.716+202.585+108.789+195.175+110.501+187.58C111.456+187.409+112.191+186.957+112.708+186.289C112.975+186.231+113.24+186.093+113.48+185.827C120.262+178.296+124.8+170.035+127.908+161.311C128.219+161.315+128.501+161.202+128.74+161.036C137.175+165.784+148.89+165.067+157.826+162.686C163.5+161.174+177.169+156.941+176.117+149.221C176.412+148.983+176.633+148.639+176.688+148.18C178.198+135.596+173.962+123.888+166.767+113.182C173.407+108.277+179.335+102.728+184.117+96.352C207.02+98.585+204.592+58.412+185.93+62.885ZM135.221+103.535C135.4+98.171+135.767+92.577+136.073+86.903C145.201+94.391+154.438+102.843+161.514+112.152C153.13+117.611+143.839+121.822+134.314+125.435C134.778+118.186+134.977+110.852+135.221+103.535ZM133.133+79.618C126.051+74.142+119.075+69.206+113.041+64.862C119.624+63.668+126.243+62.719+132.855+62.215C133.306+67.94+133.316+73.778+133.133+79.618ZM132.955+84.371C132.663+90.849+132.236+97.291+132.03+103.535C131.776+111.21+131.58+118.963+131.062+126.641C123.447+129.415+115.737+131.867+108.264+134.298C103.753+135.766+97.284+137.694+89.814+139.524C79.017+133.329+68.698+126.541+59.024+118.899C58.537+110.815+58.471+103.32+58.552+97.435C58.633+91.564+59.003+85.004+59.811+78.223C69.427+74.822+79.042+72.342+87.153+70.44C94.236+68.779+101.447+67.103+108.718+65.672C112.622+68.513+116.215+71.267+119.377+73.738C123.563+77.011+128.202+80.559+132.955+84.371ZM91.287+12.372C95.163+12.692+99.125+13.159+102.98+12.895C103.693+12.846+103.961+11.705+103.16+11.562C99.59+10.922+95.866+10.895+92.208+10.81C93.032+9.568+94.057+8.44+95.207+7.421C95.215+7.42+95.219+7.427+95.228+7.426C99.796+6.684+104.16+6.982+108.715+7.635C109.714+7.778+110.181+6.351+109.145+6.075C105.405+5.08+101.524+5.035+97.708+5.525C98.249+5.169+98.795+4.818+99.365+4.505C99.641+4.681+99.975+4.764+100.367+4.542C108.295+0.0629999+117.151+7.244+118.433+15.206C119.665+22.855+114.386+30.189+106.852+31.725C101.466+32.823+96.289+30.565+93.101+26.527C96.591+26.873+100.14+27.38+103.64+27.302C104.24+27.288+104.433+26.306+103.788+26.206C100.051+25.631+96.178+25.709+92.406+25.563C92.391+25.563+92.387+25.575+92.373+25.576C91.418+24.136+90.685+22.522+90.285+20.759C90.222+20.483+90.229+20.227+90.184+19.956C94.242+20.068+98.263+20.421+102.317+20.72C103.008+20.771+103.179+19.607+102.483+19.496C98.386+18.848+94.194+18.761+90.043+18.832C89.854+16.462+90.34+14.306+91.287+12.372ZM87.357+20.555C87.409+20.881+87.402+21.209+87.476+21.534C89.796+31.643+100.432+37.28+110.117+33.762C114.188+32.284+117.287+29.295+119.201+25.683C127.397+35.177+131.025+46.298+132.447+58.028C124.27+58.516+116.025+59.655+107.897+61.247C97.832+54.317+84.116+45.864+70.065+40.793C74.258+32.488+79.86+25.336+87.357+20.555ZM68.864+43.319C81.136+47.594+93.287+54.884+103.714+62.122C91.061+64.832+78.788+68.445+67.673+72.006C65.345+72.752+62.878+73.584+60.328+74.502C61.838+63.892+64.45+52.944+68.864+43.319ZM9.64+71.16C11.886+71.136+14.08+71.398+16.256+72.066C16.775+72.225+16.984+71.432+16.478+71.259C14.005+70.415+11.495+70.142+8.902+70.283C7.615+68.582+6.757+66.629+6.376+64.615C10.144+64.89+13.917+65.247+17.696+65.22C18.668+65.213+18.607+63.865+17.696+63.751C13.868+63.271+9.999+63.185+6.146+63.007C6.108+62.055+6.176+61.101+6.414+60.158C6.743+58.854+7.3+57.73+7.987+56.714C10.992+57.078+14.003+57.311+17.044+57.19C18.021+57.151+18.03+55.672+17.044+55.666C14.38+55.647+11.726+55.529+9.075+55.342C10.655+53.601+12.706+52.269+14.843+51.071C16.237+51.085+17.631+51.119+19.027+51.092C19.84+51.077+19.842+49.843+19.027+49.828C18.388+49.816+17.751+49.841+17.113+49.838C17.489+49.642+17.867+49.441+18.239+49.248C18.265+49.249+18.274+49.271+18.301+49.27C33.808+48.888+35.532+73.902+20.936+75.994C16.807+76.588+12.534+74.454+9.64+71.16ZM21.258+79.421C21.697+79.368+22.137+79.306+22.571+79.198C30.552+77.21+34.815+68.058+33.943+60.402C33.376+55.424+30.072+49.81+25.458+47.598C37.137+38.008+51.522+37.927+65.955+42.368C61.278+52.716+58.597+64.45+57.12+75.693C47.85+79.218+37.8+83.89+29.289+89.936C26.516+86.563+23.836+83.063+21.258+79.421ZM56.349+116.781C47.4+109.476+39.075+101.338+31.391+92.319C38.864+86.966+47.702+82.736+56.695+79.358C56.137+84.441+55.786+89.393+55.628+94C55.367+101.599+55.653+109.207+56.349+116.781ZM11.239+125.786C11.789+112.398+18.805+102.123+28.898+94.191C37.016+104.551+46.486+113.659+56.861+121.751C57.761+129.446+59.107+137.087+60.79+144.634C38.502+146.754+16.661+143.728+11.239+125.786ZM59.359+123.722C67.561+129.909+76.292+135.471+85.287+140.593C78.062+142.223+70.133+143.671+62.205+144.5C60.81+137.657+59.912+130.551+59.359+123.722ZM94.087+200.624C90.871+200.751+88.007+199.413+85.715+197.323C89.021+197.214+92.246+197.46+95.546+197.924C96.028+197.992+96.257+197.285+95.754+197.171C92.227+196.375+88.571+196.289+84.973+196.548C83.535+195.036+82.399+193.208+81.592+191.274C85.639+191.323+89.683+191.401+93.73+191.26C94.567+191.231+94.569+189.988+93.73+189.959C89.543+189.813+85.358+189.901+81.17+189.95C81.157+189.95+81.154+189.962+81.142+189.962C80.577+188.221+80.259+186.434+80.341+184.701C84.586+184.748+88.827+184.832+93.07+184.65C93.907+184.614+93.908+183.385+93.07+183.349C88.895+183.17+84.719+183.249+80.542+183.296C80.872+181.123+81.708+179.269+82.847+177.661C82.931+177.707+83.005+177.768+83.119+177.757C87.309+177.357+91.506+177.316+95.709+177.5C96.642+177.541+96.61+176.157+95.709+176.068C91.704+175.674+87.763+175.849+83.798+176.422C86.713+173.175+91.138+171.291+95.729+170.738C95.974+170.708+96.15+170.554+96.283+170.368C112.184+170.557+111.076+199.951+94.087+200.624ZM111.248+183.591C111.127+183.725+111.066+183.869+110.999+184.012C111.027+183.2+111.019+182.395+110.928+181.61C109.86+172.297+100.457+165.679+91.435+168.329C90.926+168.478+90.664+168.83+90.562+169.222C85.468+170.19+81.095+173.917+78.92+178.699C70.767+172.193+65.815+160.467+62.836+147.453C71.403+146.917+79.143+145.77+84.323+144.719C86.305+144.317+88.33+143.891+90.378+143.446C101.705+149.614+113.392+155.107+124.998+160.158C122.028+168.522+117.694+176.428+111.248+183.591ZM125.852+157.571C115.245+152.882+104.937+147.866+94.991+142.408C106.503+139.774+118.747+136.42+130.644+131.995C129.839+140.759+128.465+149.37+125.852+157.571ZM173.747+147.213C173.361+147.503+173.104+147.995+173.191+148.624C174.266+156.357+156.279+160.057+151.329+160.785C144.054+161.855+135.636+161.783+128.819+158.574C131.661+149.665+133.096+140.301+133.916+130.739C144.545+126.579+154.787+121.539+163.821+115.334C170.544+125.088+174.711+135.737+173.747+147.213ZM164.561+110.05C156.914+99.695+146.651+90.324+136.309+82.106C136.602+75.39+136.703+68.614+136.203+62.01C149.679+61.3+163.079+62.583+175.995+67.522C172.69+70.28+170.403+74.203+170.058+78.872C169.524+86.11+173.673+92.943+180.243+95.419C175.683+101.126+170.377+105.927+164.561+110.05ZM182.101+92.986C180.117+92.421+178.441+91.333+177.049+89.963C179.024+90.02+180.998+90.089+182.977+90.084C183.841+90.082+183.837+88.773+182.977+88.745C180.608+88.668+178.243+88.67+175.875+88.676C174.842+87.338+174.113+85.78+173.621+84.147C176.952+84.616+180.28+85.097+183.626+85.457C184.214+85.52+184.358+84.503+183.767+84.416C180.295+83.904+176.812+83.516+173.326+83.117C172.95+81.406+172.889+79.625+173.183+77.873C176.89+77.992+180.587+78.085+184.298+78.054C184.887+78.049+184.882+77.168+184.298+77.143C180.657+76.988+177.026+76.957+173.385+76.948C173.926+74.684+174.966+72.72+176.341+71.04C180.097+71.131+183.838+71.269+187.59+71.598C188.178+71.65+188.323+70.647+187.731+70.557C184.322+70.041+180.867+69.79+177.418+69.883C179.727+67.569+182.714+65.89+185.95+64.895C194.313+66.255+198.713+72.423+198.001+80.935C197.319+89.087+190.398+95.347+182.101+92.986Z" opacity="1" fill="#527689"/>
</g>
</svg>
