<?xml version="1.0" encoding="UTF-8" standalone="no"?> <!-- Created with Vectornator for iOS (http://vectornator.io/) --><!DOCTYPE svg PUBLIC "-//W3C//DTD SVG 1.1//EN" "http://www.w3.org/Graphics/SVG/1.1/DTD/svg11.dtd">
<svg height="100%" style="fill-rule:nonzero;clip-rule:evenodd;stroke-linecap:round;stroke-linejoin:round;" xmlns:xlink="http://www.w3.org/1999/xlink" xmlns="http://www.w3.org/2000/svg" xml:space="preserve" width="100%" xmlns:vectornator="http://vectornator.io" version="1.1" viewBox="0 0 492.892 492.892">
<metadata>
<vectornator:setting key="DimensionsVisible" value="1"/>
<vectornator:setting key="PencilOnly" value="0"/>
<vectornator:setting key="SnapToPoints" value="0"/>
<vectornator:setting key="OutlineMode" value="0"/>
<vectornator:setting key="CMYKEnabledKey" value="0"/>
<vectornator:setting key="RulersVisible" value="1"/>
<vectornator:setting key="SnapToEdges" value="0"/>
<vectornator:setting key="GuidesVisible" value="1"/>
<vectornator:setting key="DisplayWhiteBackground" value="0"/>
<vectornator:setting key="doHistoryDisabled" value="0"/>
<vectornator:setting key="SnapToGuides" value="1"/>
<vectornator:setting key="TimeLapseWatermarkDisabled" value="0"/>
<vectornator:setting key="Units" value="Points"/>
<vectornator:setting key="DynamicGuides" value="0"/>
<vectornator:setting key="IsolateActiveLayer" value="0"/>
<vectornator:setting key="SnapToGrid" value="0"/>
</metadata>
<defs/>
<g id="Untitled" vectornator:layerName="Untitled">
<path d="M232.855+19.773C235.407+14.603+240.672+11.33+246.438+11.33C252.204+11.329+257.47+14.602+260.022+19.772L319.105+139.469C324.661+150.724+335.399+158.527+347.821+160.331L479.921+179.534C485.627+180.364+490.367+184.36+492.15+189.844C493.93+195.327+492.446+201.347+488.317+205.372L392.736+298.553C383.748+307.316+379.647+319.939+381.767+332.309L404.32+463.856C405.294+469.539+402.958+475.282+398.293+478.668C393.629+482.059+387.445+482.504+382.342+479.821L264.186+417.715C253.076+411.875+239.803+411.875+228.691+417.717L110.546+479.82C105.442+482.503+99.258+482.054+94.594+478.666C89.929+475.277+87.594+469.533+88.568+463.852L111.131+332.315C113.254+319.941+109.152+307.316+100.162+298.551L4.575+205.373C0.447+201.348-1.04+195.328+0.742+189.845C2.524+184.362+7.264+180.366+12.97+179.535L145.066+160.333C157.488+158.527+168.227+150.725+173.783+139.468L232.855+19.773Z" opacity="1" fill="#7a5c4f"/>
</g>
</svg>
