<?xml version="1.0" encoding="UTF-8" standalone="no"?> <!-- Created with Vectornator for iOS (http://vectornator.io/) --><!DOCTYPE svg PUBLIC "-//W3C//DTD SVG 1.1//EN" "http://www.w3.org/Graphics/SVG/1.1/DTD/svg11.dtd">
<svg height="100%" style="fill-rule:nonzero;clip-rule:evenodd;stroke-linecap:round;stroke-linejoin:round;" xmlns:xlink="http://www.w3.org/1999/xlink" xmlns="http://www.w3.org/2000/svg" xml:space="preserve" width="100%" xmlns:vectornator="http://vectornator.io" version="1.1" viewBox="0 0 512 512">
<metadata>
<vectornator:setting key="DimensionsVisible" value="1"/>
<vectornator:setting key="PencilOnly" value="0"/>
<vectornator:setting key="SnapToPoints" value="0"/>
<vectornator:setting key="OutlineMode" value="0"/>
<vectornator:setting key="CMYKEnabledKey" value="0"/>
<vectornator:setting key="RulersVisible" value="1"/>
<vectornator:setting key="SnapToEdges" value="0"/>
<vectornator:setting key="GuidesVisible" value="1"/>
<vectornator:setting key="DisplayWhiteBackground" value="0"/>
<vectornator:setting key="doHistoryDisabled" value="0"/>
<vectornator:setting key="SnapToGuides" value="1"/>
<vectornator:setting key="TimeLapseWatermarkDisabled" value="0"/>
<vectornator:setting key="Units" value="Points"/>
<vectornator:setting key="DynamicGuides" value="0"/>
<vectornator:setting key="IsolateActiveLayer" value="0"/>
<vectornator:setting key="SnapToGrid" value="0"/>
</metadata>
<defs/>
<g id="Untitled" vectornator:layerName="Untitled" visibility="hidden">
<path d="M512+256C512+279.155+508.928+301.599+503.16+322.936C489.681+372.83+461.5+416.684+423.539+449.567C378.64+488.469+320.073+512+256+512C114.615+512+0+397.385+0+256C0+114.615+114.615+0+256+0C397.385+0+512+114.615+512+256Z" opacity="1" fill="#0078cf"/>
<g opacity="1">
<path d="M503.16+322.936C489.681+372.83+461.5+416.684+423.539+449.567C419.83+449.766+415.953+449.86+411.93+449.86C358.776+449.86+329.237+416.643+314.556+391.722L362.747+362.768C362.747+362.768+379.141+397.605+409.872+397.605C440.613+397.605+452.911+387.355+452.911+363.792C452.911+335.099+353.52+324.859+338.15+275.676C322.78+226.493+343.27+156.808+415.002+161.939C459.828+165.136+485.042+187.152+497.653+203.212L449.838+237.756C439.588+208.05+397.583+208.05+389.38+232.636C381.188+257.233+408.846+271.569+451.886+285.915C473.997+293.282+491.781+306.876+503.16+322.936Z" opacity="1" fill="#f2f2f2"/>
<path d="M300.943+169.786L83.106+169.786L83.106+221.202L162.935+221.202L162.935+444.45L221.115+444.45L221.115+221.202L300.943+221.202L300.943+169.786Z" opacity="1" fill="#f2f2f2"/>
</g>
</g>
<g id="Layer 1" vectornator:layerName="Layer 1">
<path stroke="#000000" stroke-opacity="0" stroke-width="1" d="M66.2573+171.502C65.7441+149.957+100.891+153.857+96.2573+174.824C96.2573+177.501+96.2573+180.177+96.2573+182.854C96.2573+187.877+96.2573+192.901+96.2573+197.924C95.2249+206.716+98.3433+216.367+94.4938+224.688C87.3011+239.861+62.6947+230.88+66.2573+214.644C66.2573+212.031+66.2573+209.417+66.2573+206.803C66.2573+202.342+66.2573+197.881+66.2573+193.42C66.2573+186.114+66.2573+178.808+66.2573+171.502L66.2573+171.502Z" fill="#000000" stroke-linecap="butt" fill-opacity="0" opacity="1" stroke-linejoin="miter"/>
<path stroke="#000000" stroke-opacity="0" stroke-width="1" d="M96.805+222.104C97.4316+243.247+62.7696+240.097+66.805+219.376C66.805+216.183+66.805+212.99+66.805+209.798C66.8051+204.066+66.8047+198.334+66.8052+192.602C67.9817+183.177+64.1525+172.89+68.1211+163.898C75.7887+147.651+101.306+158.528+96.4856+175.438C96.5179+177.691+96.6819+179.94+96.7382+182.192C96.8597+187.026+96.7824+191.861+96.805+196.696C96.805+205.165+96.805+213.635+96.805+222.104L96.805+222.104Z" fill="#000000" stroke-linecap="butt" fill-opacity="0" opacity="1" stroke-linejoin="miter"/>
<path stroke="#000000" stroke-width="1" d="M87.4245+230.175C80.7858+225.677+73.553+221.001+69.2879+214.061C70.0132+211.834+73.6855+215.011+75.0773+215.494C82.0689+215.488+89.0606+215.51+96.0522+215.481C115.616+215.857+134.757+210.632+154.189+209.427C163.212+212.044+171.019+218.727+176.041+226.579C177.128+228.587+177.718+230.91+177.46+233.198C171.139+295.611+165.065+360.318+180.745+421.835C181.869+433.586+180.467+448.27+183.556+458.794C174.987+456.283+168.066+449.438+161.811+443.259C161.301+430.434+160.8+417.275+161.115+404.32C146.595+343.335+147.677+278.457+157.344+217.058C161.304+217.147+166.673+221.086+167.648+224.734C141.562+231.019+114.233+230.486+87.4245+230.175L87.4245+230.175Z" fill="#527689" stroke-linecap="round" opacity="1" stroke-linejoin="round"/>
<path stroke="#000000" stroke-width="1" d="M179.252+454.84C172.618+450.303+165.242+445.648+161.09+438.606C162.271+436.547+165.571+439.996+167.251+440.16C182.508+440.169+198.26+440.362+213.144+437.854C213.148+433.388+218.774+431.329+217.014+426.019C217.2+420.331+217.203+414.625+216.658+408.954C207.007+352.052+215.516+294.569+214.949+237.37C214.868+229.256+215.486+221.157+216.973+213.177C218.947+210.018+217.006+206.694+217.085+204.078C225.951+206.776+234.018+213.898+239.669+220.948C234.885+247.931+235.318+275.326+235.097+302.645C229.914+352.311+233.837+402.074+237.878+451.487C237.472+453.012+236.043+453.952+234.602+454.342C216.232+454.109+197.73+455.403+179.252+454.84L179.252+454.84Z" fill="#527689" stroke-linecap="round" opacity="1" stroke-linejoin="round"/>
<path stroke="#000000" stroke-width="1" d="M231.35+229.389C224.711+224.891+217.479+220.214+213.214+213.274C214.159+210.869+217.866+214.801+219.585+214.708C245.084+213.122+271.114+217.857+296.234+212.853C297.383+210.296+298.885+208.458+301.283+206.819C300.98+195.321+291.623+184.918+292.533+173.792C294.98+173.76+298.284+175.99+298.552+178.409C259.652+179.427+220.473+179.234+181.598+182.821C151.22+181.702+120.937+177.69+90.4162+180.017C88.1052+179.815+86.7612+181.285+88.3923+183.004C87.4772+183.858+85.8737+183.019+85.0306+183.816C88.4605+193.669+90.5684+204.223+90.8059+214.749C90.8231+218.876+91.5028+222.958+91.7028+227.075C91.1692+228.543+94.7014+230.423+92.9354+231.5C82.9672+226.854+68.2012+219.454+71.025+206.325C70.7953+203.054+70.9872+199.771+70.7662+196.499C70.5825+191.892+69.9443+187.306+70.0232+182.688C70.1651+176.545+64.0256+171.733+65.2851+165.575C65.8815+164.513+67.2304+164.268+68.3265+164.237C94.533+165.611+121.051+164.027+147.068+168.303C190.422+166.472+233.678+162.562+277.173+164.749C282.06+165.035+287.083+165.418+291.646+167.341C314.697+176.481+311.024+204.741+321.595+223.4C321.829+225.175+321.784+227.418+320.15+228.56C290.95+231.518+260.897+228.165+231.35+229.389L231.35+229.389Z" fill="#527689" stroke-linecap="round" opacity="1" stroke-linejoin="round"/>
<path stroke="#000000" stroke-width="1" d="M349.467+357.892C357.62+362.427+366.792+368.064+371.209+376.38C370.679+377.038+369.671+376.457+369.024+376.286C351.775+388.9+329.988+392.918+312.601+404.879C310.852+405.071+309.891+402.902+308.214+403.129C307.589+404.435+308.815+405.814+309.441+406.849C322.748+419.773+336.097+434.151+353.581+441.343C369.51+446.923+386.47+449.894+403.354+447.79C404.819+447.62+406.286+447.332+407.651+446.757C410.271+445.355+413.082+444.375+415.861+443.344C423.21+447.967+433.956+453.749+436.48+461.773C435.583+461.87+434.737+461.419+433.929+461.093C380.526+471.253+328.227+440.176+295.687+399.576C293.421+396.058+290.761+392.574+289.702+388.461C289.645+387.528+289.784+386.66+290.461+385.968C310.668+377.688+330.2+368.042+349.467+357.892L349.467+357.892Z" fill="#527689" stroke-linecap="round" opacity="1" stroke-linejoin="round"/>
<path stroke="#000000" stroke-width="1" d="M356.814+372.569C355.02+370.309+346.916+365.387+349.68+362.967C362.131+367.135+368.804+379.962+380.931+384.592C399.256+385.59+430.806+386.066+430.306+360.115C431.266+356.472+431.284+352.652+431.27+348.958C414.577+341.957+395.589+337.091+381.273+324.786C376.591+321.686+371.883+318.621+367.411+315.219C326.345+290.481+299.373+228.093+335.537+187.919C341.298+178.297+345.864+167.817+353.383+159.357C385.254+131.486+433.849+148.459+466.119+166.85C480.31+178.976+491.725+194.141+504.554+207.616C504.967+208.107+505.007+209.216+504.101+209.044C484.168+202.155+476.732+178.618+459.125+168.714C440.334+162.772+419.543+155.001+399.994+162.418C379.711+168.561+368.826+188.565+359.537+206.025C337.014+231.326+330.334+271.056+353.862+298.007C373.291+315.382+395.791+330.343+421.332+337.165C429.215+340.323+436.244+345.538+441.668+352.06C450.693+363.208+454.875+381.503+447.843+394.206C416.988+406.383+378.662+398.477+356.814+372.569L356.814+372.569Z" fill="#527689" stroke-linecap="round" opacity="1" stroke-linejoin="round"/>
<path stroke="#000000" stroke-width="1" d="M480.034+197.533C488.74+201.706+497.618+207.822+502.699+216.104C501.539+217.284+498.733+216.659+497.695+218.85C494.803+220.663+491.955+222.556+489.285+224.686C479.542+232.906+468.066+239.443+456.198+243.665C448.084+239.135+439.185+233.548+434.596+225.347C436.636+224.6+439.589+225.402+441.53+222.964C444.934+221.265+448.267+219.413+451.437+217.306C461.056+210.825+469.695+202.93+480.034+197.533L480.034+197.533Z" fill="#527689" stroke-linecap="round" opacity="1" stroke-linejoin="round"/>
<path stroke="#000000" stroke-width="1" d="M452.226+244.03C452.724+244.808+454.921+246.864+453.328+247.442C444.822+244.591+437.862+238.018+431.649+231.713C432.407+229.257+431.897+222.229+434.977+223.083C427.248+222.743+419.172+222.482+411.644+224.265C404.992+231.061+400.686+240.312+397.021+248.323C398.037+251.183+399.27+254.143+401.561+256.229C435.024+279.042+479.898+285.217+507.156+317.102C507.67+317.632+508.204+319.236+506.919+319.029C491.776+312.429+480.848+298.614+464.735+293.377C438.802+282.994+411.362+273.09+391.139+253.051C382.12+243.163+373.728+229.394+380.421+215.882C381.72+213.091+383.784+210.538+386.677+209.31C412.043+204.071+449.381+213.603+452.226+244.03L452.226+244.03Z" fill="#527689" stroke-linecap="round" opacity="1" stroke-linejoin="round"/>
<path stroke="#000000" stroke-width="1" d="M508.103+315.777C508.596+316.6+510.675+318.406+509.32+319.18C500.8+316.507+493.888+309.821+487.656+303.611C485.708+272.731+489.448+241.83+494.927+211.438C492.849+198.427+490.863+185.359+489.189+172.28C480.703+159.432+476.829+143.984+467.95+131.67C467.617+130.799+468.768+130.694+469.319+130.965C479.297+135.914+490.841+142.802+491.182+155.427C492.136+158.385+493.407+161.237+494.918+163.951C510.439+184.489+512.164+210.898+515.167+235.456C511.712+262.11+506.372+288.705+508.103+315.777L508.103+315.777Z" fill="#527689" stroke-linecap="round" opacity="1" stroke-linejoin="round"/>
<path stroke="#000000" stroke-width="1" d="M489.784+143.606C490.281+144.384+492.478+146.44+490.886+147.018C482.401+144.181+475.465+137.623+469.258+131.349C469.327+128.783+470.288+126.085+470.197+123.435C470.223+121.291+469.92+119.143+469.284+117.095C466.458+108.792+462.418+100.617+457.095+93.6538C449.642+84.9425+438.121+81.6428+429.497+74.3586C410.087+54.5087+386.531+39.4199+360.759+29.0071C348.799+25.8822+337.714+20.3759+326.321+15.7274C317.426+14.3566+306.94+6.92552+303.77-1.14679C347.944+17.4807+397.096+32.3543+430.704+69.0536C459.502+84.2353+485.417+110.142+489.784+143.606L489.784+143.606Z" fill="#527689" stroke-linecap="round" opacity="1" stroke-linejoin="round"/>
<path stroke="#000000" stroke-width="1" d="M308.871+1.03556C315.509+5.55339+322.812+10.2197+327.022+17.2109C327.228+17.7397+326.65+18.0917+326.185+17.9507C309.103+11.1968+289.146+18.5116+271.133+15.2195C264.314+14.5759+257.484+13.9466+250.72+12.8409C199.367-0.898401+138.221+15.6992+104.74+57.8829C97.3738+65.2215+90.6335+73.1447+85.5868+82.2865C83.3481+85.9345+80.7651+89.3635+77.8752+92.5212C63.2606+107.45+46.5058+120.658+34.8768+138.239C34.2255+138.613+34.1599+140.213+33.1226+140.015C23.8111+134.903-0.0118231+123.985+16.4088+112.067C20.2029+107.232+24.3505+102.666+28.9153+98.5462C34.598+93.1038+39.8417+87.2179+45.834+82.0979C69.0276+58.6882+83.3004+25.0885+115.241+11.2229C137.576-0.0690996+162.403-5.35951+187.188-7.35255C227.623-2.29679+267.885+3.88383+308.871+1.03556L308.871+1.03556Z" fill="#527689" stroke-linecap="round" opacity="1" stroke-linejoin="round"/>
<path stroke="#000000" stroke-width="1" d="M14.2135+118.732C13.6035+118.04+11.3037+115.334+13.4483+115.339C24.2537+120.768+39.9053+128.879+34.817+143.79C34.8168+147.584+34.8167+151.379+34.8166+155.173C34.3571+167.054+36.6889+179.461+32.802+190.933C27.63+198.022+20.3058+204.132+18.4537+213.259C15.8422+261.092+21.4224+309.38+31.582+356.099C43.8574+379.967+52.7465+407.151+72.3774+426.234C73.7565+427.191+74.2222+430.106+71.7841+428.843C66.7496+426.756+62.4308+423.286+58.2057+419.912C38.2929+396.296+25.6944+367.47+12.9382+339.629C1.0696+290.943-4.44058+240.132-2.37347+190.121C-1.11232+179.224+11.5229+175.291+12.9659+164.605C15.077+149.413+13.8974+134.017+14.2135+118.732L14.2135+118.732Z" fill="#527689" stroke-linecap="round" opacity="1" stroke-linejoin="round"/>
<path stroke="#000000" stroke-width="1" d="M58.6591+428.388C54.7011+424.885+49.6175+421.754+47.4581+416.781C47.5065+416.132+48.3589+416.269+48.7897+416.39C70.254+426.929+85.7326+446.958+107.867+456.678C142.269+465.974+176.957+477.016+207.713+495.529C212.539+497.318+217.401+499.092+222.436+500.2C262.948+502.553+303.911+502.265+344.169+496.442C355.656+494.541+367.216+491.287+376.955+484.693C384.102+479.478+391.654+474.81+398.649+469.402C400.824+467.515+402.807+465.395+404.454+463.028C406.515+461.151+406.936+457.329+408.954+455.695C418.495+460.518+441.411+471.183+426.706+483.527C422.909+487.789+418.008+490.822+413.156+493.726C404.721+499.593+396.025+505.448+385.911+507.975C338.028+517.791+288.353+517.782+239.849+513.884C231.933+512.443+224.318+509.728+216.924+506.606C186.533+488.938+152.971+477.355+118.978+468.752C96.5784+458.98+77.963+442.924+58.6591+428.388L58.6591+428.388Z" fill="#527689" stroke-linecap="round" opacity="1" stroke-linejoin="round"/>
</g>
</svg>
