<?xml version="1.0" encoding="UTF-8" standalone="no"?>
<!DOCTYPE svg PUBLIC "-//W3C//DTD SVG 1.1//EN" "http://www.w3.org/Graphics/SVG/1.1/DTD/svg11.dtd">
<svg version="1.1" xmlns="http://www.w3.org/2000/svg" xmlns:xlink="http://www.w3.org/1999/xlink" preserveAspectRatio="xMidYMid meet" viewBox="0 0 640 640" width="640" height="640"><defs><path d="M78.5 268.62C78.5 39.38 78.09 48.36 89.53 30.92C92.53 26.36 99.26 19.95 104.49 16.68C105.12 16.28 108.3 14.3 114.01 10.72L326.47 10.74L538.94 10.76C544.43 14.02 547.48 15.83 548.09 16.19C559.1 22.72 565.82 31.3 570.83 45.2C574.49 55.36 574.56 59.24 574.6 266.47C574.6 280.53 574.61 350.84 574.64 477.4L326.57 477.4L78.5 477.4C78.5 366.05 78.5 296.45 78.5 268.62ZM514.22 244.07L514.22 86.59L326.57 86.59L138.92 86.59L138.92 244.07L138.92 401.55L326.57 401.55L514.22 401.55L514.22 244.07Z" id="c8CnEVCTt"></path><path d="M14.87 561.81C12.24 554.3 10.79 544.12 10.15 528.74C9.24 507.19 9.36 506.34 13.95 500.58C14.26 500.18 15.84 498.2 18.68 494.64C90.13 494.64 129.82 494.64 137.76 494.64C243.76 494.64 256.84 495.03 256.84 498.18C256.84 505.72 264.59 520.21 271.84 526.25C279.38 532.51 279.77 532.58 314.58 533.32C337.41 533.8 352.49 533.13 357.64 531.39C367.67 528 376.75 516.69 379.41 504.27C379.55 503.63 380.24 500.42 381.48 494.64L501.41 494.64L621.33 494.64C624.15 498.18 625.72 500.15 626.03 500.54C630.57 506.23 630.71 507.25 629.95 528.7C628.92 557.71 624.54 570.69 610.08 587.5C590.36 610.42 617.77 608.39 323.67 608.8C177.33 609.01 62.55 608.27 58.66 607.11C40.24 601.61 22.3 583.05 14.87 561.81Z" id="h1Wi69zcx"></path></defs><g><g><use xlink:href="#c8CnEVCTt" opacity="1" fill="#0a1a29" fill-opacity="1"></use><g><use xlink:href="#c8CnEVCTt" opacity="1" fill-opacity="0" stroke="#000000" stroke-width="0.26" stroke-opacity="0"></use></g></g><g><use xlink:href="#h1Wi69zcx" opacity="1" fill="#0a1a29" fill-opacity="1"></use><g><use xlink:href="#h1Wi69zcx" opacity="1" fill-opacity="0" stroke="#000000" stroke-width="0.26" stroke-opacity="0"></use></g></g></g></svg>