<?xml version="1.0" encoding="UTF-8" standalone="no"?> <!-- Created with Vectornator for iOS (http://vectornator.io/) --><!DOCTYPE svg PUBLIC "-//W3C//DTD SVG 1.1//EN" "http://www.w3.org/Graphics/SVG/1.1/DTD/svg11.dtd">
<svg height="100%" style="fill-rule:nonzero;clip-rule:evenodd;stroke-linecap:round;stroke-linejoin:round;" xmlns:xlink="http://www.w3.org/1999/xlink" xmlns="http://www.w3.org/2000/svg" xml:space="preserve" width="100%" xmlns:vectornator="http://vectornator.io" version="1.1" viewBox="0 0 640 640">
<metadata>
<vectornator:setting key="DimensionsVisible" value="1"/>
<vectornator:setting key="PencilOnly" value="0"/>
<vectornator:setting key="SnapToPoints" value="0"/>
<vectornator:setting key="OutlineMode" value="0"/>
<vectornator:setting key="CMYKEnabledKey" value="0"/>
<vectornator:setting key="RulersVisible" value="1"/>
<vectornator:setting key="SnapToEdges" value="0"/>
<vectornator:setting key="GuidesVisible" value="1"/>
<vectornator:setting key="DisplayWhiteBackground" value="0"/>
<vectornator:setting key="doHistoryDisabled" value="0"/>
<vectornator:setting key="SnapToGuides" value="1"/>
<vectornator:setting key="TimeLapseWatermarkDisabled" value="0"/>
<vectornator:setting key="Units" value="Points"/>
<vectornator:setting key="DynamicGuides" value="0"/>
<vectornator:setting key="IsolateActiveLayer" value="0"/>
<vectornator:setting key="SnapToGrid" value="0"/>
</metadata>
<defs>
<linearGradient y1="10.03" id="LinearGradient" x1="326.57" y2="476.71" x2="326.57" gradientUnits="userSpaceOnUse" gradientTransform="matrix(1 0 0 1 0 0)">
<stop stop-color="#6b4f7a" offset="0"/>
<stop stop-color="#010000" offset="1"/>
</linearGradient>
<linearGradient y1="493.95" id="LinearGradient_2" x1="320" y2="608.14" x2="320" gradientUnits="userSpaceOnUse" gradientTransform="matrix(1 0 0 1 0 0)">
<stop stop-color="#6b4f7a" offset="0"/>
<stop stop-color="#010000" offset="1"/>
</linearGradient>
</defs>
<g id="Untitled" vectornator:layerName="Untitled" visibility="hidden">
<g opacity="1">
<g opacity="1">
<path d="M78.5+267.93C78.5+38.69+78.09+47.67+89.53+30.23C92.53+25.67+99.26+19.26+104.49+15.99C105.12+15.59+108.3+13.61+114.01+10.03L326.47+10.05L538.94+10.07C544.43+13.33+547.48+15.14+548.09+15.5C559.1+22.03+565.82+30.62+570.83+44.51C574.49+54.67+574.56+58.55+574.6+265.78C574.6+279.84+574.61+350.15+574.64+476.71L326.57+476.71L78.5+476.71C78.5+365.36+78.5+295.77+78.5+267.93ZM514.22+243.38L514.22+85.9L326.57+85.9L138.92+85.9L138.92+243.38L138.92+400.86L326.57+400.86L514.22+400.86L514.22+243.38Z" opacity="0.78" fill="url(#LinearGradient)"/>
<path stroke="#000000" stroke-opacity="0" stroke-width="0.26" d="M78.5+267.93C78.5+38.69+78.09+47.67+89.53+30.23C92.53+25.67+99.26+19.26+104.49+15.99C105.12+15.59+108.3+13.61+114.01+10.03L326.47+10.05L538.94+10.07C544.43+13.33+547.48+15.14+548.09+15.5C559.1+22.03+565.82+30.62+570.83+44.51C574.49+54.67+574.56+58.55+574.6+265.78C574.6+279.84+574.61+350.15+574.64+476.71L326.57+476.71L78.5+476.71C78.5+365.36+78.5+295.77+78.5+267.93ZM514.22+243.38L514.22+85.9L326.57+85.9L138.92+85.9L138.92+243.38L138.92+400.86L326.57+400.86L514.22+400.86L514.22+243.38Z" fill="#000000" stroke-linecap="butt" fill-opacity="0" opacity="0.78" stroke-linejoin="miter"/>
</g>
<g opacity="1">
<path d="M14.87+561.12C12.24+553.61+10.79+543.43+10.15+528.05C9.24+506.5+9.36+505.65+13.95+499.89C14.26+499.49+15.84+497.51+18.68+493.95C90.13+493.95+129.82+493.95+137.76+493.95C243.76+493.95+256.84+494.34+256.84+497.49C256.84+505.03+264.59+519.52+271.84+525.56C279.38+531.82+279.77+531.89+314.58+532.63C337.41+533.11+352.49+532.44+357.64+530.7C367.67+527.31+376.75+516+379.41+503.58C379.55+502.94+380.24+499.73+381.48+493.95L501.41+493.95L621.33+493.95C624.15+497.49+625.72+499.46+626.03+499.85C630.57+505.54+630.71+506.56+629.95+528.01C628.92+557.02+624.54+570+610.08+586.81C590.36+609.73+617.77+607.7+323.67+608.11C177.33+608.32+62.55+607.58+58.66+606.42C40.24+600.92+22.3+582.36+14.87+561.12Z" opacity="0.79" fill="url(#LinearGradient_2)"/>
<path stroke="#000000" stroke-opacity="0" stroke-width="0.26" d="M14.87+561.12C12.24+553.61+10.79+543.43+10.15+528.05C9.24+506.5+9.36+505.65+13.95+499.89C14.26+499.49+15.84+497.51+18.68+493.95C90.13+493.95+129.82+493.95+137.76+493.95C243.76+493.95+256.84+494.34+256.84+497.49C256.84+505.03+264.59+519.52+271.84+525.56C279.38+531.82+279.77+531.89+314.58+532.63C337.41+533.11+352.49+532.44+357.64+530.7C367.67+527.31+376.75+516+379.41+503.58C379.55+502.94+380.24+499.73+381.48+493.95L501.41+493.95L621.33+493.95C624.15+497.49+625.72+499.46+626.03+499.85C630.57+505.54+630.71+506.56+629.95+528.01C628.92+557.02+624.54+570+610.08+586.81C590.36+609.73+617.77+607.7+323.67+608.11C177.33+608.32+62.55+607.58+58.66+606.42C40.24+600.92+22.3+582.36+14.87+561.12Z" fill="#000000" stroke-linecap="butt" fill-opacity="0" opacity="0.79" stroke-linejoin="miter"/>
</g>
</g>
</g>
<g id="Layer 1" vectornator:layerName="Layer 1">
<path stroke="#000000" stroke-opacity="0" stroke-width="0.26" d="M131.501+43.604C134.8+56.8041+112.922+61.317+110.734+47.8873C110.261+46.4153+115.241+46.6062+113.837+44.85C117.697+40.5994+128.142+29.6346+131.093+40.5029C132.185+43.2191+133.094+46.0483+133.372+48.9779C136.768+127.149+123.654+205.444+132.228+283.446C132.535+286.036+131.836+288.726+130.307+290.839C126.331+296.884+116.347+296.586+112.737+290.316C111.003+287.587+110.891+284.203+110.214+281.139C103.578+203.417+114.857+125.807+112.437+48.0666C118.375+45.29+125.173+45.1142+131.501+43.604L131.501+43.604Z" fill="#000000" stroke-linecap="butt" fill-opacity="0" opacity="1" stroke-linejoin="miter"/>
<path stroke="#000000" stroke-opacity="0" stroke-width="0.26" d="M88.6115+60.2197C95.1299+44.8136+117.03+59.7339+106.863+72.4021C107.188+77.0232+107.481+81.6571+108.214+86.2358C122.932+174.45+112.9+263.999+120.456+352.658C120.476+355.563+122.642+357.811+123.143+360.601C123.591+362.764+123.335+365.066+122.423+367.079C119.592+374.192+108.892+375.501+104.43+369.279C101.974+365.745+100.66+361.462+99.794+357.297C91.4624+263.91+101.73+169.567+85.9195+76.6516C85.301+71.0423+86.2629+65.342+88.6115+60.2197L88.6115+60.2197Z" fill="#000000" stroke-linecap="butt" fill-opacity="0" opacity="1" stroke-linejoin="miter"/>
<path d="M87.1971+42.9477C91.7822+16.3067+133.374+13.8953+140.976+39.8445C142.084+42.9508+142.637+46.2537+142.601+49.5515C135.918+92.4463+138.109+136.342+137.253+179.696C132.278+259.52+153.482+339.8+140.217+419.069C138.173+424.549+134.359+429.347+129.481+432.575C119.755+439.245+105.853+438.709+96.6695+431.31C91.3374+427.167+87.6059+421.033+86.3791+414.394C85.0657+397.938+89.918+381.473+88.8729+364.917C82.002+264.311+77.6846+163.325+83.8624+62.5378C84.4521+55.9288+85.6255+49.3901+87.1971+42.9477L87.1971+42.9477Z" fill-opacity="0" fill="#000000" opacity="1"/>
<path stroke="#000000" stroke-width="1" d="M81.0142+58.0042C86.0884+36.2839+117.973+30.3858+130.451+48.8857C133.514+52.9604+135.43+57.8858+135.923+62.96C136.49+67.8665+135.399+72.772+133.756+77.3715C138.274+162.63+134.827+248.362+137.751+333.777C137.498+350.79+134.799+367.725+135.608+384.759C137.308+394.805+140.134+404.654+141.392+414.803C140.975+414.283+140.409+413.9+140.011+413.364C142.471+413.984+146.966+414.232+150.135+413.734C202.998+406.159+256.45+409.03+309.528+411.684C380.377+406.858+451.196+410.035+521.815+415.681C515.281+417.062+511.163+422.554+507.846+427.867C524.082+302.226+549.926+176.513+543.587+49.2812C547+60.3599+555.954+68.4498+567.784+68.4368C561.973+70.2081+555.788+70.6706+549.782+71.5242C479.283+75.2703+408.652+72.2736+338.07+72.8395C265.957+66.1382+192.796+66.3924+120.857+74.9241C110.804+75.9732+102.634+82.2413+92.9845+84.3809C86.7746+85.4451+80.2205+84.3235+74.7178+81.2551C56.7465+72.3038+55.4251+44.1547+72.4789+33.5592C83.5466+26.5877+96.3241+23.1017+108.93+20.0882C185.41+9.94394+263.415+9.87492+340.198+16.7593C414.828+15.0524+490.128+21.569+564.274+12.9357C574.422+13.2375+585.221+16.7669+591.252+25.4411C594.895+30.6766+597.969+36.5304+599.202+42.837C606.68+177.612+580.377+311.048+561.498+443.849C558.955+451.021+554.838+457.843+548.976+462.783C542.32+468.097+533.968+471.115+525.483+471.544C520.026+471.87+514.545+471.793+509.085+471.594C441.654+464.38+373.898+464.236+306.201+467.809C255.18+464.809+203.78+462.555+152.955+469.745C147.725+470.053+142.457+470.224+137.242+469.597C124.608+468.342+112.153+463.181+102.757+454.584C95.9184+448.342+90.9982+440.176+88.1058+431.419C85.0101+417.376+81.6521+403.38+79.6958+389.127C78.3026+370.28+81.0835+351.497+81.6302+332.681C78.8586+246.947+81.7646+161.018+77.8277+75.3745C77.76+69.4232+79.4485+63.6832+81.0142+58.0042L81.0142+58.0042Z" fill="#4f6d7a" stroke-linecap="butt" opacity="1" stroke-linejoin="round"/>
<path stroke="#000000" stroke-width="1" d="M18.5742+540.368C-10.7924+542.039-20.2015+496.672+7.42384+486.554C35.8477+479.563+66.0452+486.938+94.5828+490.399C128.378+492.687+162.481+492.552+195.903+486.677C210.439+486.51+224.878+484.89+239.376+484.255C247.839+484.52+256.605+484.815+264.429+488.43C282.218+495.814+288.754+517.518+283.937+535.08C283.346+531.656+282.033+527.706+279.887+525.2C304.801+529.563+332.242+530.444+356.61+522.739C356.945+522.57+357.241+522.308+357.605+522.194C352.31+528.316+354.64+537.639+360.159+542.833C360.739+533.831+357.585+524.953+356.607+516.081C355.688+509.021+358.042+499.656+365.84+497.302C423.564+489.886+482.558+496.151+540.314+486.776C553.815+487.196+567.142+484.812+580.612+484.892C588.142+485.055+595.596+486.756+602.464+489.846C635.832+503.452+639.669+552.11+614.607+575.4C606.121+584.588+593.986+588.955+582.133+591.852C576.857+593.124+571.591+594.527+566.197+595.216C551.256+596.886+536.212+596.858+521.232+597.766C462.502+607.892+402.94+610.946+344.033+619.367C262.945+623.136+181.673+618.229+100.83+611.387C94.8999+610.651+89.015+609.463+83.3064+607.686C63.2363+599.881+44.7816+588.142+27.6029+575.256C14.8074+565.292+8.7483+549.338+5.85679+533.86C5.13432+530.287+4.37187+526.723+3.60496+523.159C-0.522062+507.429+11.7242+490.146+27.9544+488.903C43.9009+486.723+58.4481+500.293+59.4742+515.96C60.4308+521.255+62.0501+528.16+63.2755+532.625C63.1722+532.608+62.6029+531.809+63.1672+532.11C74.6415+540.099+86.5588+547.563+99.0986+553.79C137.329+559.695+176.509+561.989+215.302+561.974C257.454+564.685+299.608+566.419+341.816+563.308C398.653+554.648+456.273+552.329+512.964+542.212C529.433+540.3+546.203+541.629+562.573+538.885C567.024+537.905+571.397+536.43+575.863+535.61C574.343+536.853+576.097+534.749+574.822+537.119C574.791+536.037+574.879+534.94+574.897+533.861C575.658+536.606+577.941+538.577+579.21+541.066C576.48+539.532+581.452+540.868+579.135+540.899C567.51+541.49+555.937+543.123+544.251+542.742C494.056+550.937+443.065+547.41+392.559+550.981C387.036+550.828+381.548+550.086+376.111+549.139C374.813+548.286+375.979+547.542+376.695+546.778C396.886+541.873+392.75+518.996+397.03+503.765C397.627+503.544+398.223+503.323+398.82+503.102C414.254+517.78+413.538+543.941+399.417+559.226C367.214+591.038+317.506+584.505+276.218+582.169C269.509+580.944+263.023+578.701+256.726+576.13C249.078+572.449+242.012+567.259+236.759+560.547C227.822+549.355+226.091+533.888+229.694+520.397C231.334+529.069+236.66+538.323+245.422+540.742C186.655+541.763+127.584+555.146+68.8435+543.23C61.5713+542.462+54.3546+541.237+47.0798+540.494C37.5847+540.188+28.075+540.459+18.5742+540.368L18.5742+540.368Z" fill="#4f6d7a" stroke-linecap="butt" opacity="1" stroke-linejoin="round"/>
</g>
</svg>
