<?xml version="1.0" encoding="UTF-8" standalone="no"?>
<!DOCTYPE svg PUBLIC "-//W3C//DTD SVG 1.1//EN" "http://www.w3.org/Graphics/SVG/1.1/DTD/svg11.dtd">
<svg version="1.1" xmlns="http://www.w3.org/2000/svg" xmlns:xlink="http://www.w3.org/1999/xlink" preserveAspectRatio="xMidYMid meet" viewBox="0 0 640 640" width="640" height="640"><defs><path d="M78.5 267.93C78.5 38.69 78.09 47.67 89.53 30.23C92.53 25.67 99.26 19.26 104.49 15.99C105.12 15.59 108.3 13.61 114.01 10.03L326.47 10.05L538.94 10.07C544.43 13.33 547.48 15.14 548.09 15.5C559.1 22.03 565.82 30.62 570.83 44.51C574.49 54.67 574.56 58.55 574.6 265.78C574.6 279.84 574.61 350.15 574.64 476.71L326.57 476.71L78.5 476.71C78.5 365.36 78.5 295.77 78.5 267.93ZM514.22 243.38L514.22 85.9L326.57 85.9L138.92 85.9L138.92 243.38L138.92 400.86L326.57 400.86L514.22 400.86L514.22 243.38Z" id="a3bVG1QF9U"></path><linearGradient id="gradientcLfoyZmHq" gradientUnits="userSpaceOnUse" x1="326.57" y1="10.03" x2="326.57" y2="476.71"><stop style="stop-color: #6b4f7a;stop-opacity: 1" offset="0%"></stop><stop style="stop-color: #010000;stop-opacity: 1" offset="100%"></stop></linearGradient><path d="M14.87 561.12C12.24 553.61 10.79 543.43 10.15 528.05C9.24 506.5 9.36 505.65 13.95 499.89C14.26 499.49 15.84 497.51 18.68 493.95C90.13 493.95 129.82 493.95 137.76 493.95C243.76 493.95 256.84 494.34 256.84 497.49C256.84 505.03 264.59 519.52 271.84 525.56C279.38 531.82 279.77 531.89 314.58 532.63C337.41 533.11 352.49 532.44 357.64 530.7C367.67 527.31 376.75 516 379.41 503.58C379.55 502.94 380.24 499.73 381.48 493.95L501.41 493.95L621.33 493.95C624.15 497.49 625.72 499.46 626.03 499.85C630.57 505.54 630.71 506.56 629.95 528.01C628.92 557.02 624.54 570 610.08 586.81C590.36 609.73 617.77 607.7 323.67 608.11C177.33 608.32 62.55 607.58 58.66 606.42C40.24 600.92 22.3 582.36 14.87 561.12Z" id="fvY3tBvTe"></path><linearGradient id="gradiente2DQA9DiGS" gradientUnits="userSpaceOnUse" x1="320" y1="493.95" x2="320" y2="608.14"><stop style="stop-color: #6b4f7a;stop-opacity: 1" offset="0%"></stop><stop style="stop-color: #010000;stop-opacity: 1" offset="100%"></stop></linearGradient></defs><g><g><g><use xlink:href="#a3bVG1QF9U" opacity="0.78" fill="url(#gradientcLfoyZmHq)"></use><g><use xlink:href="#a3bVG1QF9U" opacity="0.78" fill-opacity="0" stroke="#000000" stroke-width="0.26" stroke-opacity="0"></use></g></g><g><use xlink:href="#fvY3tBvTe" opacity="0.79" fill="url(#gradiente2DQA9DiGS)"></use><g><use xlink:href="#fvY3tBvTe" opacity="0.79" fill-opacity="0" stroke="#000000" stroke-width="0.26" stroke-opacity="0"></use></g></g></g></g></svg>