<?xml version="1.0" encoding="UTF-8" standalone="no"?>
<svg
   xmlns:dc="http://purl.org/dc/elements/1.1/"
   xmlns:cc="http://creativecommons.org/ns#"
   xmlns:rdf="http://www.w3.org/1999/02/22-rdf-syntax-ns#"
   xmlns:svg="http://www.w3.org/2000/svg"
   xmlns="http://www.w3.org/2000/svg"
   xmlns:sodipodi="http://sodipodi.sourceforge.net/DTD/sodipodi-0.dtd"
   xmlns:inkscape="http://www.inkscape.org/namespaces/inkscape"
   inkscape:version="1.0beta2 (2b71d25, 2019-12-03)"
   sodipodi:docname="html5.svg"
   id="svg12"
   version="1.1"
   viewBox="0 0 166.29921 117.16535"
   role="img"
   class="svg-inline--fa fa-html5 fa-w-12"
   data-icon="html5"
   data-prefix="fab"
   focusable="false"
   aria-hidden="true"
   width="44mm"
   height="31mm">
  <metadata
     id="metadata18">
    <rdf:RDF>
      <cc:Work
         rdf:about="">
        <dc:format>image/svg+xml</dc:format>
        <dc:type
           rdf:resource="http://purl.org/dc/dcmitype/StillImage" />
        <dc:title></dc:title>
      </cc:Work>
    </rdf:RDF>
  </metadata>
  <defs
     id="defs16" />
  <sodipodi:namedview
     inkscape:pagecheckerboard="true"
     inkscape:current-layer="svg12"
     inkscape:window-maximized="0"
     inkscape:window-y="124"
     inkscape:window-x="163"
     inkscape:cy="87.451142"
     inkscape:cx="34.032462"
     inkscape:zoom="4.5971406"
     showgrid="false"
     id="namedview14"
     inkscape:window-height="1171"
     inkscape:window-width="1618"
     inkscape:pageshadow="2"
     inkscape:pageopacity="0"
     guidetolerance="10"
     gridtolerance="10"
     objecttolerance="10"
     borderopacity="1"
     inkscape:document-rotation="0"
     bordercolor="#666666"
     pagecolor="#ffffff"
     units="mm" />
  <path
     style="stroke-width:0.168799"
     inkscape:connector-curvature="0"
     id="path10"
     d="m 10.016337,21.996023 5.996533,65.636346 26.9071,8.65644 27.078921,-8.65644 5.996529,-65.636346 z M 62.971428,43.205947 H 31.390814 l 0.704464,8.192108 h 30.171686 l -2.336757,24.609481 -16.821234,4.477471 v 0.04974 H 42.91997 L 25.961282,76.007522 24.93036,63.437452 h 8.195841 l 0.60137,6.318196 9.192399,2.404572 9.226764,-2.404572 1.030923,-10.314756 H 24.500807 L 22.301506,35.295749 h 41.425933 z"
     fill="#f4511e" />
  <path
     style="fill:#9eaec7;stroke-width:0.531304"
     d="M 29.377412,91.617659 C 22.238691,89.304389 16.362214,87.385139 16.318576,87.352679 16.274936,87.320199 14.994165,73.435511 13.472418,56.497803 11.950672,39.560092 10.575997,24.938595 10.417587,24.005585 l -0.288019,-1.69638 h 32.743644 c 18.009004,0 32.745623,0.176162 32.74805,0.391472 0.0099,0.883017 -5.437308,60.587424 -5.711515,62.601112 l -0.297383,2.18385 -13.087133,4.2102 c -7.197925,2.31561 -13.330403,4.19165 -13.62773,4.16899 -0.297328,-0.0227 -6.381367,-1.93389 -13.520089,-4.24717 z m 22.443707,-13.126637 8.38259,-2.239934 0.890447,-9.615664 c 0.489746,-5.288611 1.033587,-10.966238 1.208536,-12.616947 l 0.318087,-3.001289 H 47.559839 32.498899 L 32.154983,48.595502 C 31.96583,47.263574 31.811068,45.61939 31.811068,44.941758 v -1.232057 h 15.612793 15.612792 l 0.335215,-1.957363 c 0.184368,-1.076549 0.337893,-3.073059 0.341166,-4.436688 l 0.006,-2.479326 H 42.897718 c -16.299882,0 -20.819883,0.141682 -20.814881,0.652455 0.0035,0.35885 0.487369,5.819891 1.075235,12.135647 0.587866,6.315756 1.071721,11.659356 1.075235,11.874666 0.0036,0.21531 6.463957,0.391473 14.35654,0.391473 h 14.350151 l -0.312427,2.740307 c -0.171834,1.507169 -0.431368,3.692701 -0.576741,4.85674 l -0.264315,2.116428 -4.419752,1.123245 -4.419751,1.123252 -4.456403,-1.139392 -4.456402,-1.139399 -0.363354,-3.274699 -0.363355,-3.274703 h -4.315537 -4.315537 l 0.393275,5.611107 c 0.2163,3.086107 0.571005,6.080872 0.788234,6.655035 0.309275,0.817447 2.083138,1.512636 8.17656,3.204447 4.27988,1.18828 8.146648,2.177955 8.592819,2.199261 0.44617,0.02131 4.583383,-0.969212 9.193807,-2.201172 z"
     id="path852"
     inkscape:connector-curvature="0" />
  <path
     style="fill:#9eaec7;stroke-width:0.0774051"
     d="m 29.511584,91.923569 c -7.380234,-2.37438 -13.429133,-4.32721 -13.441997,-4.33963 -0.03654,-0.0353 -5.8675,-63.946459 -5.857574,-64.202941 0.04573,-1.181628 0.84904,6.967549 2.709851,27.489987 0.456971,5.039831 1.167379,12.876188 1.578684,17.414125 1.136821,12.542586 1.757239,19.029649 1.825951,19.092059 0.128089,0.11633 21.378146,6.98005 24.950203,8.05885 1.554716,0.46955 1.569374,0.47231 2.006001,0.378 1.144555,-0.24721 6.659514,-1.96376 18.09677,-5.63267 l 8.274582,-2.65437 0.176838,-1.351128 c 0.09726,-0.743117 0.335139,-3.010783 0.528619,-5.039268 0.939915,-9.854324 4.221607,-45.838968 4.920385,-53.953374 0.172883,-2.007567 0.332429,-3.844341 0.354554,-4.08172 0.03925,-0.420971 0.03492,-0.432677 -0.174637,-0.475383 C 74.369956,22.404005 55.980532,22.266032 31.1027,22.2933 11.092111,22.31524 10.045994,22.30977 10.045995,22.183302 c 0,-0.126528 1.620829,-0.133077 32.934342,-0.133077 26.29242,0 32.9353,0.01917 32.939083,0.09506 0.0028,0.05228 -1.335845,14.801753 -2.974335,32.776606 l -2.979072,32.681558 -8.706327,2.78292 c -4.78848,1.5306 -10.87154,3.47397 -13.517911,4.3186 l -4.811584,1.53568 z"
     id="path854"
     inkscape:connector-curvature="0" />
  <path
     style="fill:#9eaec7;stroke-width:0.0774051"
     d="m 23.243369,35.196844 c 1.497864,-0.210795 3.898784,-0.240717 21.884004,-0.27273 l 18.574812,-0.03306 v 0.195434 0.195434 l -20.465779,-0.0093 c -12.04199,-0.0055 -20.271196,-0.03666 -19.993037,-0.0758 z"
     id="path856"
     inkscape:connector-curvature="0" />
  <path
     style="fill:#9eaec7;stroke-width:0.0774051"
     d="m 39.657722,43.665798 c 4.304416,-0.01086 11.324631,-0.01086 15.600478,2e-6 4.275847,0.01087 0.754052,0.01976 -7.826211,0.01976 -8.580262,-1e-6 -12.078683,-0.0089 -7.774267,-0.01976 z"
     id="path858"
     inkscape:connector-curvature="0" />
  <path
     style="fill:#9eaec7;stroke-width:0.0774051"
     d="m 51.558371,78.283704 c 4.609581,-1.229384 8.389062,-2.245333 8.398846,-2.257671 0.02017,-0.02542 2.333134,-24.45702 2.329256,-24.603728 -0.002,-0.0757 -3.074049,-0.09506 -15.090855,-0.09506 -14.317028,0 -15.08838,-0.0068 -15.089111,-0.133077 -4.23e-4,-0.07319 -0.142245,-1.77513 -0.315161,-3.782083 -0.172915,-2.006953 -0.314392,-3.760723 -0.314392,-3.897267 v -0.248261 h 15.75806 c 8.666931,0 15.75967,-0.0086 15.761641,-0.01901 0.002,-0.01046 0.157595,-1.576017 0.345833,-3.479024 0.331746,-3.35382 0.442304,-3.757423 0.281212,-1.026597 -0.100236,1.699187 -0.350274,3.693091 -0.593621,4.733753 l -0.04001,0.1711 H 47.391093 31.792116 v 1.01854 c 0,1.181894 0.06508,1.896352 0.407696,4.475655 l 0.250002,1.882094 h 15.078224 15.078223 l -0.04451,0.247144 c -0.0815,0.452598 -0.576691,5.487233 -1.299556,13.212684 -1.067919,11.413125 -1.098164,11.729596 -1.122481,11.745141 -0.02497,0.01596 -2.91085,0.784728 -8.33487,2.220327 -3.782263,1.001068 -8.196758,2.083038 -8.466993,2.075214 -0.0883,-0.0027 3.610931,-1.010502 8.220514,-2.239879 z"
     id="path860"
     inkscape:connector-curvature="0" />
  <path
     style="fill:#9eaec7;stroke-width:0.0380233"
     d="M 25.774447,74.868931 C 25.493016,73.44293 25.264055,71.13988 24.935156,66.426728 24.829061,64.906385 24.73112,63.523788 24.717509,63.35429 l -0.02475,-0.308178 h 4.300702 c 3.413702,0 4.301109,0.0096 4.302681,0.04669 0.0011,0.02568 0.162937,1.490948 0.359662,3.256147 0.279304,2.506174 0.370041,3.216208 0.414086,3.240275 0.03102,0.01692 2.041169,0.537107 4.466995,1.155903 l 4.410591,1.125074 4.391103,-1.114846 c 2.415107,-0.613165 4.411328,-1.134364 4.436047,-1.158219 0.02472,-0.02384 0.06503,-0.217457 0.08959,-0.430214 0.02456,-0.212765 0.148756,-1.235728 0.276,-2.273263 0.199527,-1.626928 0.815479,-6.904102 0.815479,-6.986625 0,-0.01579 -4.785242,-0.03703 -10.633872,-0.04719 -9.972457,-0.01732 -11.937005,-0.03544 -14.949348,-0.137843 -1.69829,-0.05774 -2.880015,-0.138164 -3.07138,-0.209038 -0.03294,-0.0122 -0.07986,-0.395554 -0.154043,-1.258609 -0.05867,-0.682584 -0.418791,-4.636621 -0.800273,-8.786747 -0.738167,-8.030508 -0.928165,-10.136021 -1.128776,-12.508894 l -0.125904,-1.489208 0.09541,-0.07494 0.09541,-0.07494 0.01011,0.08863 c 0.02947,0.258287 2.176656,23.907136 2.176656,23.973335 v 0.07845 h 14.339762 c 9.42792,0 14.339763,0.01265 14.339763,0.03695 0,0.05025 -1.005043,10.12893 -1.016526,10.193828 -0.0062,0.03528 -1.454622,0.428282 -4.576174,1.241791 -2.511878,0.654618 -4.596357,1.190334 -4.632176,1.190478 -0.133018,5.35e-4 -9.109191,-2.363624 -9.147448,-2.409264 -0.02188,-0.0261 -0.166768,-1.398331 -0.321988,-3.049401 -0.155219,-1.651075 -0.291657,-3.056585 -0.303195,-3.123357 l -0.02097,-0.121404 h -4.113966 -4.113966 l 0.01725,0.140081 c 0.04574,0.371432 0.943431,11.505689 0.932879,11.570668 -0.0067,0.04111 -0.04199,-0.07658 -0.07848,-0.26148 z"
     id="path862"
     inkscape:connector-curvature="0" />
  <path
     style="fill:#9eaec7;stroke-width:0.0380233"
     d="M 13.576957,57.396188 C 13.5657,57.329414 13.32915,54.753331 13.051295,51.671553 11.963772,39.609447 10.98859,29.188683 10.592514,25.397079 10.483079,24.34947 10.351813,23.428467 10.16984,22.431478 l -0.01885,-0.103274 21.770042,0.0099 c 11.973523,0.0054 21.77004,-0.0027 21.77004,-0.01813 0,-0.01541 -3.026154,-0.02794 -6.724787,-0.02785 -16.606038,4.14e-4 -36.468122,-0.03327 -36.662188,-0.06218 -0.168461,-0.02509 -0.196722,-0.03838 -0.135463,-0.06366 0.179296,-0.074 6.874985,-0.09387 31.601664,-0.09376 23.055966,9.7e-5 34.064189,0.02378 34.113968,0.0734 0.01803,0.01795 -0.244503,2.937993 -1.932403,21.495134 -0.691467,7.602151 -1.257219,13.834345 -1.257219,13.849319 0,0.01498 -0.02612,0.02723 -0.05806,0.02723 -0.07655,0 -0.07589,-0.02108 0.03939,-1.254643 0.565901,-6.054257 2.380929,-26.263553 2.964852,-33.011955 0.05324,-0.615345 0.05416,-0.613507 -0.338029,-0.660484 -0.723373,-0.08664 -4.76817,-0.166616 -11.239126,-0.222229 -7.176891,-0.06168 -9.675954,-0.07266 -9.675954,-0.04252 0,0.01573 1.911485,0.04001 4.247744,0.05395 9.997509,0.05966 16.802833,0.194473 16.949218,0.335754 0.01228,0.01185 -0.01555,0.480325 -0.06182,1.041062 -0.272328,3.299445 -1.661431,18.797562 -2.770958,30.915354 -0.137925,1.506362 -0.250778,2.762886 -0.250778,2.792277 0,0.04609 -0.72468,0.05344 -5.266507,0.05344 h -5.266502 l 0.02329,-0.196113 c 0.01281,-0.107863 0.09294,-0.90212 0.178076,-1.765018 0.08514,-0.862898 0.223948,-2.215469 0.308477,-3.005716 0.08453,-0.790245 0.153689,-1.45843 0.153689,-1.484856 0,-0.03908 -2.810698,-0.04804 -15.054029,-0.04804 H 32.523594 l -0.0214,-0.121404 c -0.01177,-0.06677 -0.107317,-0.734957 -0.212325,-1.484856 -0.338045,-2.414088 -0.425456,-3.308971 -0.455184,-4.66002 l -0.02239,-1.017921 H 47.43485 c 8.592406,0 15.622555,-0.008 15.622555,-0.01782 0,-0.0098 0.08593,-0.518298 0.190965,-1.129985 0.338449,-1.97111 0.420234,-2.898911 0.466837,-5.295906 0.01917,-0.986168 0.03576,-1.948523 0.03686,-2.138566 l 0.002,-0.345533 -11.71758,0.0012 c -23.585852,0.0023 -28.793178,0.09361 -29.801936,0.5224 -0.154024,0.06547 -0.164492,0.07943 -0.164492,0.219316 0,0.295426 0.412239,4.951159 1.083601,12.237945 0.499344,5.419752 0.890294,9.683673 0.890294,9.710056 0,0.01149 -2.350468,0.02089 -5.223261,0.02089 h -5.223261 z"
     id="path864"
     inkscape:connector-curvature="0" />
  <path
     style="fill:#9eaec7;stroke-width:0.0380233"
     d="m 26.579051,90.687199 c -6.811688,-2.21592 -10.209021,-3.32651 -10.231508,-3.34467 -0.04549,-0.03672 -0.965088,-9.908588 -2.308539,-24.78203 -0.764535,-8.464198 -1.672465,-18.453562 -1.955622,-21.516407 -0.1491,-1.612796 -0.348641,-3.772842 -0.443424,-4.800101 -0.09478,-1.027259 -0.181251,-1.939185 -0.192151,-2.026502 l -0.01982,-0.158758 H 43.02937 74.630749 l -0.02058,0.140081 c -0.01129,0.07704 -0.177589,1.896693 -0.369509,4.043665 -1.266823,14.171938 -3.81139,41.787173 -4.237113,45.983851 -0.05314,0.523899 -0.166063,1.460563 -0.250925,2.081476 -0.08486,0.620905 -0.154292,1.136555 -0.154292,1.145875 0,0.009 -3.715071,1.2117 -8.25571,2.67193 l -8.255709,2.65498 -10.041518,-0.001 -10.041519,-0.001 z M 43.31845,80.604477 c 1.765913,-0.345642 4.839865,-1.115113 10.624197,-2.659455 5.180037,-1.382999 6.261623,-1.673389 6.271442,-1.683782 0.0053,-0.0055 0.151742,-1.548266 0.325449,-3.428152 1.141983,-12.358734 1.884357,-20.078538 2.0781,-21.609793 0.01657,-0.130964 0.01136,-0.175612 -0.01743,-0.14942 -0.08863,0.08064 -0.415718,3.368179 -1.748626,17.575469 -0.384542,4.098761 -0.707708,7.479142 -0.71815,7.511951 -0.01339,0.04206 -0.255639,0.122793 -0.821364,0.273736 -9.255711,2.469585 -14.87345,3.911891 -15.034662,3.860031 -0.05059,-0.01631 1.75042,-0.507731 7.652637,-2.088238 5.145835,-1.377956 7.492501,-2.0092 7.827455,-2.105549 0.151971,-0.04371 0.207507,-0.07907 0.221564,-0.141051 0.02024,-0.08924 0.104245,-0.960409 0.870685,-9.029203 0.542527,-5.711548 1.379659,-14.637288 1.415395,-15.09137 0.01212,-0.154089 0.02979,-0.316367 0.03927,-0.360618 0.01544,-0.07217 -0.0037,-0.08284 -0.185782,-0.103607 -0.111649,-0.01274 -6.7691,-0.03927 -14.794335,-0.05896 -8.025236,-0.0197 -14.71623,-0.04879 -14.868877,-0.06464 -0.152646,-0.01586 -0.289564,-0.04044 -0.304262,-0.05462 -0.0147,-0.01419 -0.05874,-0.417549 -0.09788,-0.896361 -0.03914,-0.478813 -0.169086,-2.022033 -0.288774,-3.429378 -0.119687,-1.407345 -0.227639,-2.789781 -0.239892,-3.072079 l -0.02228,-0.513269 15.735605,-0.0097 c 8.654583,-0.0053 15.745431,-0.01918 15.757441,-0.03077 0.01201,-0.01159 0.127216,-1.079008 0.25601,-2.372034 0.227362,-2.282629 0.371007,-3.599604 0.405136,-3.714409 0.02841,-0.09556 -0.01931,1.059825 -0.08023,1.942453 -0.111962,1.622268 -0.36596,3.583207 -0.564902,4.361182 L 62.9708,43.621598 H 47.373062 31.775326 l 0.02027,1.279405 c 0.01248,0.788111 0.04409,1.487397 0.08229,1.82105 0.08513,0.743574 0.522965,4.145364 0.546888,4.249117 l 0.01938,0.08405 15.006667,-0.0093 15.006665,-0.0093 -14.966955,-0.0094 -14.966955,-0.0094 -0.02197,-0.121355 c -0.03146,-0.173799 -0.311521,-2.1784 -0.403148,-2.885617 -0.184403,-1.423313 -0.274121,-2.591652 -0.274659,-3.576729 l -3.83e-4,-0.700404 h 15.616988 c 8.589344,0 15.616989,-0.008 15.616989,-0.01783 0,-0.0098 0.08581,-0.518298 0.190686,-1.129985 0.340443,-1.985619 0.418767,-2.896455 0.466645,-5.426647 0.01963,-1.037532 0.03651,-1.991482 0.03751,-2.11989 l 0.0018,-0.233468 -11.678876,9.6e-4 c -12.126823,0.001 -21.472307,0.04352 -24.238263,0.110204 -3.474375,0.08377 -5.115655,0.204266 -5.600199,0.411132 -0.156351,0.06675 -0.166669,0.08041 -0.166669,0.220552 0,0.319032 0.330939,4.039326 1.199943,13.489334 0.639639,6.955761 0.872844,9.538847 0.912912,10.111831 0.01887,0.269846 0.04213,0.386627 0.07979,0.400573 0.185572,0.06873 1.425165,0.150485 3.167837,0.208931 2.994906,0.100443 5.115943,0.119974 14.949348,0.137662 5.795412,0.01043 10.537113,0.0234 10.537113,0.02884 0,0.06667 -0.641485,5.549594 -0.815207,6.967791 -0.127096,1.037535 -0.250379,2.054518 -0.273965,2.259973 -0.02359,0.205447 -0.06249,0.392247 -0.08644,0.415102 -0.02396,0.02288 -2.011646,0.541203 -4.417088,1.151895 l -4.373531,1.110345 -3.75427,-0.960752 c -5.071955,-1.297967 -5.18415,-1.326014 -5.142264,-1.285588 0.06331,0.06111 8.773471,2.29398 8.915886,2.285615 0.126375,-0.0074 7.510846,-1.890353 8.678246,-2.212825 0.185407,-0.05124 0.186413,-0.05515 0.33874,-1.325604 0.716218,-5.973464 0.995024,-8.410464 0.965474,-8.438985 -0.0098,-0.0095 -3.997179,-0.02751 -8.860844,-0.04013 -12.20264,-0.03164 -15.677108,-0.07451 -18.346178,-0.226344 -1.093681,-0.06222 -1.385736,-0.09614 -1.43058,-0.166171 -0.0464,-0.07246 -0.05095,-0.118159 -0.464749,-4.669509 -0.213878,-2.352423 -0.597927,-6.563251 -0.853443,-9.357395 -0.255516,-2.794145 -0.559396,-6.172864 -0.675289,-7.508266 -0.206693,-2.381657 -0.209317,-2.429351 -0.1375,-2.498666 0.07182,-0.06931 0.07366,-0.06753 0.09645,0.09332 0.02621,0.185016 1.072422,11.693479 1.724718,18.972164 0.236595,2.640056 0.43752,4.835172 0.446501,4.878038 l 0.01633,0.07794 14.309869,0.02625 c 7.870427,0.01443 14.318105,0.03419 14.328168,0.04391 0.03144,0.03034 -0.974558,10.126106 -1.012686,10.162902 -0.07647,0.07381 -8.959528,2.40512 -9.164294,2.40512 -0.120458,0 -0.948369,-0.210531 -4.332461,-1.101714 -4.632262,-1.219882 -4.765266,-1.257102 -4.802655,-1.343963 -0.03514,-0.08161 -0.161996,-1.302735 -0.442525,-4.259524 -0.09746,-1.027259 -0.1845,-1.888756 -0.193416,-1.914437 -0.02206,-0.06354 -8.262553,-0.06913 -8.262553,-0.0056 0,0.02259 0.04338,0.5479 0.09639,1.16734 0.05302,0.619439 0.226476,2.739983 0.385468,4.712319 0.453215,5.622269 0.454229,5.63721 0.347186,5.117621 -0.213812,-1.037851 -0.467254,-3.73345 -0.807792,-8.591621 -0.09505,-1.355982 -0.181776,-2.548037 -0.192726,-2.649011 l -0.01991,-0.183589 4.26456,0.02529 c 2.345508,0.01391 4.276256,0.03769 4.290551,0.05285 0.01429,0.01516 0.08994,0.615903 0.168104,1.334984 0.32355,2.976577 0.582103,5.121224 0.597715,4.957942 0.0025,-0.02617 -0.152198,-1.461591 -0.343782,-3.189785 -0.191584,-1.728197 -0.348334,-3.156608 -0.348334,-3.174247 0,-0.01767 -1.946745,-0.03208 -4.334828,-0.03208 -3.931299,0 -4.334827,0.0055 -4.334827,0.05922 0,0.149062 0.435189,6.224024 0.504192,7.038197 0.204335,2.410984 0.463037,4.454931 0.645373,5.098944 0.05496,0.194131 0.100126,0.259131 0.337458,0.485686 0.755205,0.720899 2.855639,1.446087 9.291989,3.208112 3.643782,0.997534 6.857148,1.806904 7.19891,1.813241 0.06386,0.0014 0.368653,-0.04727 0.677316,-0.107687 z"
     id="path866"
     inkscape:connector-curvature="0" />
  <path
     style="fill:#9eaec7;stroke-width:0.0380233"
     d=""
     id="path868"
     inkscape:connector-curvature="0" />
  <path
     style="fill:#9eaec7;stroke-width:0.0380233"
     d="m 42.447614,80.652282 c -2.03009,-0.437018 -8.369856,-2.127849 -11.537845,-3.077174 -1.445782,-0.433242 -3.049089,-0.970596 -2.970976,-0.995725 0.02297,-0.0074 3.412687,0.886476 7.532699,1.986367 4.120013,1.099891 7.527496,1.999801 7.572185,1.999801 0.04469,0 0.08125,-0.01404 0.08125,-0.03124 0,-0.03186 0.423138,-0.157917 0.512241,-0.152648 0.02693,0.0014 -0.03812,0.03391 -0.144555,0.07182 -0.118598,0.04227 -0.163551,0.07173 -0.116111,0.07619 0.108244,0.01014 -0.59311,0.145791 -0.735373,0.142201 -0.06386,-0.0014 -0.150945,-0.01041 -0.193519,-0.01959 z"
     id="path870"
     inkscape:connector-curvature="0" />
</svg>
