<?xml version="1.0" encoding="UTF-8" standalone="no"?>
<svg
   xmlns:dc="http://purl.org/dc/elements/1.1/"
   xmlns:cc="http://creativecommons.org/ns#"
   xmlns:rdf="http://www.w3.org/1999/02/22-rdf-syntax-ns#"
   xmlns:svg="http://www.w3.org/2000/svg"
   xmlns="http://www.w3.org/2000/svg"
   xmlns:sodipodi="http://sodipodi.sourceforge.net/DTD/sodipodi-0.dtd"
   xmlns:inkscape="http://www.inkscape.org/namespaces/inkscape"
   height="44mm"
   width="31mm"
   inkscape:version="1.0beta2 (2b71d25, 2019-12-03)"
   sodipodi:docname="js.svg"
   id="svg32"
   version="1.1"
   viewBox="0 0 117.16535 166.29921"
   role="img"
   class="svg-inline--fa fa-js fa-w-14"
   data-icon="js"
   data-prefix="fab"
   focusable="false"
   aria-hidden="true">
  <metadata
     id="metadata38">
    <rdf:RDF>
      <cc:Work
         rdf:about="">
        <dc:format>image/svg+xml</dc:format>
        <dc:type
           rdf:resource="http://purl.org/dc/dcmitype/StillImage" />
        <dc:title></dc:title>
      </cc:Work>
    </rdf:RDF>
  </metadata>
  <defs
     id="defs36" />
  <sodipodi:namedview
     units="mm"
     inkscape:current-layer="svg32"
     inkscape:window-maximized="0"
     inkscape:window-y="23"
     inkscape:window-x="148"
     inkscape:cy="67.796796"
     inkscape:cx="17.107421"
     inkscape:zoom="3.2796446"
     showgrid="false"
     id="namedview34"
     inkscape:window-height="1012"
     inkscape:window-width="1690"
     inkscape:pageshadow="2"
     inkscape:pageopacity="0"
     guidetolerance="10"
     gridtolerance="10"
     objecttolerance="10"
     borderopacity="1"
     inkscape:document-rotation="0"
     bordercolor="#666666"
     pagecolor="#ffffff"
     inkscape:lockguides="true" />
  <path
     style="fill:#9eaec7;stroke-width:0.373072"
     d="M 13.661278,83.795849 V 54.060809 H 43.244894 72.828511 V 83.795849 113.5309 H 43.244894 13.661278 Z m 28.212717,24.413131 c 1.861735,-0.873 3.211981,-2.72156 3.762312,-5.1508 0.209715,-0.92571 0.385393,-6.185461 0.390397,-11.688311 l 0.009,-10.00519 h -2.95543 -2.955408 l -0.114586,10.43414 c -0.105902,9.643701 -0.168291,10.493731 -0.823475,11.220781 -1.164126,1.2918 -3.036686,1.05809 -4.514382,-0.56343 -0.676673,-0.74253 -1.370494,-1.28956 -1.541825,-1.21559 -1.263654,0.54553 -4.211791,2.44128 -4.212097,2.70852 -10e-4,0.88004 1.723642,2.95655 3.156619,3.80063 2.952287,1.73901 6.695438,1.91444 9.79876,0.45925 z m 22.321675,-0.17387 c 2.624155,-1.24559 3.881764,-3.1313 4.098702,-6.14573 0.32492,-4.515031 -1.424397,-6.812351 -7.282534,-9.563881 -4.903934,-2.30335 -5.921561,-3.60451 -4.184529,-5.35043 1.140289,-1.14613 2.897064,-0.97263 4.334892,0.42809 l 1.207294,1.17615 2.249286,-1.45666 c 1.237104,-0.80117 2.250749,-1.58733 2.252536,-1.74703 0.0082,-0.73467 -3.39615,-3.61591 -4.703593,-3.98081 -4.430264,-1.23646 -8.998018,0.13424 -10.811337,3.24427 -1.92051,3.29387 -1.063206,8.10708 1.839306,10.32656 0.667057,0.51008 2.830755,1.68137 4.808221,2.60286 1.992395,0.92845 3.775918,2.01449 4.0003,2.435891 0.655088,1.23031 0.470808,2.19935 -0.575578,3.02665 -1.988474,1.57213 -5.824918,0.6958 -7.376986,-1.68508 l -0.619937,-0.95099 -2.116443,1.18576 c -2.827403,1.58407 -2.886141,1.65831 -2.175042,2.74914 2.972926,4.56049 9.743302,6.22671 15.055442,3.70524 z"
     id="path1040"
     inkscape:connector-curvature="0" />
  <path
     style="fill:#9eaec7;stroke-width:0.0400484"
     d="m 45.236782,104.83785 c 0,-0.008 0.04326,-0.11342 0.09614,-0.23359 0.156518,-0.35574 0.373582,-1.08643 0.480759,-1.61838 0.228654,-1.13487 0.222023,-0.78713 0.222023,-11.642577 v -9.978624 h 0.139812 0.139813 l -5.17e-4,5.731531 c -6.76e-4,7.271428 -0.06123,11.086043 -0.221403,13.94238 -0.07314,1.30416 -0.116842,1.72778 -0.223751,2.16815 -0.152753,0.62924 -0.522461,1.64619 -0.598472,1.64619 -0.01893,0 -0.03441,-0.007 -0.03441,-0.0151 z"
     id="path1042"
     inkscape:connector-curvature="0" />
  <path
     style="fill:#9eaec7;stroke-width:0.0400484"
     d="m 37.001492,103.96681 c -1.019284,-0.10969 -1.8033,-0.67634 -2.568748,-1.8567 -0.126202,-0.19461 -0.221842,-0.3615 -0.212533,-0.37085 0.0093,-0.009 0.303286,0.26816 0.65328,0.6167 0.930752,0.92691 1.522015,1.28869 2.354045,1.44044 0.973524,0.17755 2.029885,-0.29189 2.509192,-1.11508 0.407028,-0.69905 0.494409,-2.2635 0.587361,-10.516067 0.02376,-2.108923 0.04728,-4.132526 0.05227,-4.496893 0.005,-0.36437 0.01303,2.490354 0.01788,6.343834 0.0061,4.912549 -0.0043,7.114306 -0.03524,7.367676 -0.153244,1.25692 -0.652573,2.05041 -1.500334,2.38422 -0.447646,0.17626 -1.269396,0.26596 -1.857162,0.20272 z"
     id="path1044"
     inkscape:connector-curvature="0" />
  <path
     style="fill:#9eaec7;stroke-width:0.0400484"
     d="m 29.477942,103.66941 c 0.745845,-0.6493 3.757164,-2.4672 4.012557,-2.42232 0.05991,0.0106 -3.950042,2.47835 -4.085271,2.51417 -0.02592,0.007 0.0067,-0.0345 0.07272,-0.0919 z"
     id="path1046"
     inkscape:connector-curvature="0" />
  <path
     style="fill:#9eaec7;stroke-width:0.0400484"
     d="m 58.342529,104.00161 c -0.434783,-0.0485 -1.141626,-0.22872 -1.522381,-0.38804 -1.127542,-0.4718 -2.07447,-1.3187 -2.935213,-2.62517 -0.127305,-0.19323 -0.243587,-0.35132 -0.258406,-0.35132 -0.01481,0 -0.995507,0.5621 -2.179304,1.24912 -1.183797,0.68701 -2.180117,1.25921 -2.214043,1.27156 -0.09919,0.0361 0.06808,-0.13827 0.320295,-0.33389 0.122205,-0.0948 0.427796,-0.29686 0.679089,-0.44906 0.490678,-0.29718 3.383544,-1.92556 3.457412,-1.94616 0.02447,-0.007 0.228811,0.26765 0.454097,0.60994 0.80866,1.22863 1.739062,1.96375 3.070713,2.4262 1.377482,0.47837 2.88542,0.44757 3.931867,-0.0803 0.999631,-0.50425 1.546689,-1.24701 1.546689,-2.10001 0,-0.57318 -0.280574,-1.307261 -0.60731,-1.588911 -0.591918,-0.510246 -2.039257,-1.349596 -3.666951,-2.126559 -1.888378,-0.901389 -3.862098,-1.950495 -4.613806,-2.452401 -1.53576,-1.025419 -2.609985,-2.795601 -3.021473,-4.978986 -0.104673,-0.555376 -0.146782,-1.90681 -0.07775,-2.495101 0.150174,-1.279869 0.601462,-2.526784 1.247628,-3.44722 0.251736,-0.358589 1.183717,-1.345053 1.270765,-1.345053 0.02495,0 -0.149149,0.194228 -0.386909,0.43162 -0.94675,0.945286 -1.542396,1.995046 -1.866969,3.290314 -0.317471,1.26693 -0.286679,2.985905 0.07776,4.341649 0.54726,2.035794 1.890197,3.623988 4.183577,4.947602 0.697086,0.402319 1.344343,0.712495 2.827653,1.355056 1.759848,0.762353 2.514189,1.116083 3.062412,1.436063 0.97612,0.56972 1.428358,1.046786 1.678434,1.770597 0.095,0.27495 0.108844,0.37712 0.110616,0.81618 0.0018,0.42236 -0.01246,0.54405 -0.08946,0.76791 -0.501537,1.45841 -2.261394,2.24203 -4.479042,1.99436 z"
     id="path1048"
     inkscape:connector-curvature="0" />
  <path
     style="fill:#9eaec7;stroke-width:0.0400484"
     d="m 62.194014,92.828247 c -0.241676,-0.117277 -0.969698,-0.44196 -1.617826,-0.721518 -1.384101,-0.597004 -2.489087,-1.135345 -2.936058,-1.430423 -0.175765,-0.116034 -0.463582,-0.356975 -0.639595,-0.535425 -0.506672,-0.513686 -0.696884,-0.996421 -0.698019,-1.771484 -6.77e-4,-0.478468 0.06673,-0.769533 0.267083,-1.152744 0.468683,-0.896469 1.549946,-1.37761 2.795302,-1.243856 0.569952,0.06122 0.837683,0.135292 1.271205,0.351724 0.448261,0.22379 0.847354,0.553973 1.194719,0.988434 0.287898,0.360084 0.645493,0.908131 0.613517,0.940271 -0.01075,0.01081 -0.308457,-0.258985 -0.661588,-0.599516 -0.899167,-0.867083 -1.442409,-1.214357 -2.176231,-1.391187 -1.187656,-0.286192 -2.232459,0.154841 -2.981544,1.258568 -0.285395,0.420511 -0.365151,0.969929 -0.2033,1.400476 0.176053,0.468325 0.691338,1.003237 1.498075,1.555136 0.780082,0.533664 1.732904,1.047597 3.635119,1.960706 0.46138,0.221475 0.919765,0.449372 1.018632,0.506438 0.306041,0.176646 0.08231,0.108495 -0.379491,-0.1156 z"
     id="path1050"
     inkscape:connector-curvature="0" />
  <path
     style="fill:#9eaec7;stroke-width:0.0400484"
     d="m 62.600645,88.439186 c -0.06178,-0.06861 0.04747,-0.144783 2.114119,-1.474468 1.19859,-0.771169 2.186182,-1.413393 2.194647,-1.427164 0.02714,-0.0441 -0.454993,-0.805755 -0.799344,-1.262808 -0.18337,-0.243389 -0.489562,-0.609264 -0.680425,-0.813053 -0.190863,-0.203791 -0.33419,-0.370528 -0.318503,-0.370528 0.05826,0 0.815317,0.691069 1.241565,1.133326 0.453031,0.470042 0.656182,0.731372 0.756905,0.973673 0.05602,0.134688 0.05398,0.142947 -0.06925,0.28401 -0.145671,0.16676 -0.58346,0.51531 -1.198667,0.954331 -0.366159,0.261296 -3.132168,2.075022 -3.164498,2.075022 -0.0063,0 -0.04073,-0.03256 -0.07654,-0.07234 z"
     id="path1052"
     inkscape:connector-curvature="0" />
  <path
     style="fill:#9eaec7;stroke-width:0.0400484"
     d="m 63.348742,81.927288 c -0.822174,-0.423346 -1.727351,-0.689632 -2.812503,-0.827384 -0.69416,-0.08812 -1.772545,-0.114301 -2.430704,-0.05901 -0.315261,0.02649 -0.581171,0.04014 -0.590914,0.03034 -0.05185,-0.05212 1.022701,-0.127645 1.763308,-0.123942 1.444772,0.0072 2.921966,0.26741 3.671744,0.646721 0.293271,0.148365 0.982008,0.566509 0.982008,0.596191 0,0.03333 -0.06119,0.0057 -0.582939,-0.262913 z"
     id="path1054"
     inkscape:connector-curvature="0" />
  <path
     style="fill:#9eaec7;stroke-width:0.0269488"
     d="M 13.626153,64.419504 V 53.869122 h 22.525471 22.525472 v 0.06755 0.06755 H 36.312905 13.948712 v 10.482839 10.482838 h -0.161279 -0.16128 z"
     id="path1056"
     inkscape:connector-curvature="0" />
</svg>
