<?xml version="1.0" encoding="UTF-8" standalone="no"?>
<svg
   xmlns:dc="http://purl.org/dc/elements/1.1/"
   xmlns:cc="http://creativecommons.org/ns#"
   xmlns:rdf="http://www.w3.org/1999/02/22-rdf-syntax-ns#"
   xmlns:svg="http://www.w3.org/2000/svg"
   xmlns="http://www.w3.org/2000/svg"
   xmlns:sodipodi="http://sodipodi.sourceforge.net/DTD/sodipodi-0.dtd"
   xmlns:inkscape="http://www.inkscape.org/namespaces/inkscape"
   inkscape:version="1.0beta2 (2b71d25, 2019-12-03)"
   height="31mm"
   width="44mm"
   sodipodi:docname="php.svg"
   id="svg17"
   version="1.1"
   viewBox="0 0 166.29921 117.16535"
   role="img"
   class="svg-inline--fa fa-php fa-w-20"
   data-icon="php"
   data-prefix="fab"
   focusable="false"
   aria-hidden="true">
  <metadata
     id="metadata23">
    <rdf:RDF>
      <cc:Work
         rdf:about="">
        <dc:format>image/svg+xml</dc:format>
        <dc:type
           rdf:resource="http://purl.org/dc/dcmitype/StillImage" />
        <dc:title></dc:title>
      </cc:Work>
    </rdf:RDF>
  </metadata>
  <defs
     id="defs21" />
  <sodipodi:namedview
     units="mm"
     inkscape:current-layer="svg17"
     inkscape:window-maximized="0"
     inkscape:window-y="95"
     inkscape:window-x="28"
     inkscape:cy="65.022709"
     inkscape:cx="75.792439"
     inkscape:zoom="4.702462"
     showgrid="false"
     id="namedview19"
     inkscape:window-height="928"
     inkscape:window-width="1478"
     inkscape:pageshadow="2"
     inkscape:pageopacity="0"
     guidetolerance="10"
     gridtolerance="10"
     objecttolerance="10"
     borderopacity="1"
     inkscape:document-rotation="0"
     bordercolor="#666666"
     pagecolor="#ffffff" />
  <path
     style="stroke-width:0.136192"
     inkscape:connector-curvature="0"
     id="path15"
     d="m 43.188353,33.039863 c 20.64585,0.129661 36.460749,11.34665 36.39377,23.557184 C 79.515145,68.80758 63.566248,79.825083 42.932436,79.695498 22.286574,79.565836 6.4716867,68.348849 6.5386637,56.138314 6.6056417,43.92778 22.554537,32.910278 43.188353,33.039863 m 0.01419,-2.586846 C 21.918271,30.319346 4.5935817,41.805562 4.5150317,56.125606 4.4364837,70.445651 21.633976,82.148675 42.918247,82.282345 64.202503,82.416016 81.527203,70.9298 81.605747,56.609755 81.684299,42.289711 64.486799,30.586687 43.202543,30.453017 Z m -12.392988,23.75894 c -0.985793,6.230174 -4.342921,5.562354 -8.474503,5.536406 l 1.709856,-10.860554 c 4.577263,0.02874 7.688442,-0.583047 6.764647,5.324148 z m -14.641921,16.507552 4.42067,0.02776 1.085788,-6.891676 c 4.950675,0.03109 8.019724,0.512319 10.88111,-2.872765 3.16413,-3.675755 4.01928,-10.245511 1.796906,-13.554734 -1.158948,-1.7319 -3.033387,-2.590586 -5.58702,-2.606623 l -8.516113,-0.05349 z m 22.548763,-32.749436 4.396586,0.02761 -1.08579,6.891676 c 3.794303,0.02382 7.31351,-0.308234 9.000935,1.704164 1.771242,2.105312 0.901319,4.779173 -1.095294,17.408746 l -4.456807,-0.02799 c 1.922057,-12.214285 2.276947,-13.22835 1.607474,-14.156462 -0.645557,-0.897164 -2.128155,-0.721692 -5.705648,-0.744161 l -2.346128,14.860152 -4.396579,-0.02761 z m 26.639438,16.458843 c -0.998351,6.322484 -4.451321,5.561673 -8.4745,5.536407 l 1.709856,-10.860554 c 4.601343,0.02889 7.688434,-0.583047 6.764644,5.324147 z m -14.641916,16.507553 4.432722,0.02783 1.085785,-6.891677 c 5.203618,0.03268 8.080358,0.435707 10.8811,-2.872765 3.164132,-3.675754 4.019276,-10.245512 1.796901,-13.554733 -1.158942,-1.731901 -3.033392,-2.590585 -5.587016,-2.606623 l -8.516103,-0.05348 z"
     fill="#f4511e" />
  <path
     style="fill:#9eaec7;stroke-width:0.168739"
     d="M 38.869802,82.016025 C 28.613697,81.205843 19.257338,77.656138 12.769794,72.113953 11.37753,70.924566 10.46529,69.948453 9.1239097,68.212786 6.6948577,65.069736 5.5104937,62.611257 4.9037257,59.452611 4.4697227,57.193323 4.5937347,53.93113 5.1987077,51.69299 6.6856847,46.191816 10.661782,41.332215 16.852786,37.449333 c 5.548368,-3.479834 11.956939,-5.608316 19.87348,-6.600588 2.793748,-0.350172 10.69073,-0.245613 13.580404,0.17981 14.981472,2.205604 26.22997,9.370012 30.005313,19.111023 1.085705,2.801286 1.468429,6.376441 0.983675,9.188686 C 78.855048,73.4871 59.812426,83.670386 38.869802,82.016025 Z M 47.8762,79.595967 C 65.801804,78.027271 79.447756,68.22778 79.602469,56.812566 79.631028,54.709539 79.421533,53.465587 78.695081,51.423104 75.881262,43.511822 66.726327,36.944607 54.762845,34.255512 50.602205,33.320304 48.97208,33.160322 43.206003,33.121323 36.801382,33.078001 34.201694,33.365459 29.243028,34.665252 15.349818,38.307017 5.9913497,47.42395 6.4906947,56.830364 7.0888917,68.098903 20.37071,77.745843 37.72789,79.51878 c 2.412229,0.246394 7.750767,0.287 10.14831,0.07718 z"
     id="path902"
     inkscape:connector-curvature="0" />
  <path
     style="fill:#9eaec7;stroke-width:0.168739"
     d="m 17.468737,62.956706 c 0.66402,-4.219313 1.571788,-10.008679 2.017262,-12.865258 l 0.809953,-5.193782 4.93034,0.03383 c 3.826642,0.02623 5.139848,0.09835 5.866242,0.322204 1.819739,0.560795 3.026034,1.635282 3.708874,3.303623 0.873299,2.133674 0.936761,4.505996 0.195431,7.305577 -1.003386,3.78922 -3.250447,6.541474 -6.135172,7.514505 -0.631077,0.212866 -1.836683,0.326912 -4.06524,0.384557 -2.74656,0.07104 -3.177788,0.122972 -3.240896,0.39026 -0.04004,0.169573 -0.216254,1.251794 -0.391595,2.404937 -0.175342,1.153144 -0.392535,2.546887 -0.482654,3.097211 l -0.163853,1.000587 -2.128,-0.01336 -2.128,-0.01336 z m 9.890099,-3.417251 c 1.102501,-0.359509 1.940396,-1.036838 2.510202,-2.029173 1.011635,-1.761795 1.481575,-5.61082 0.854138,-6.995783 -0.578465,-1.276862 -1.889824,-1.736834 -5.027382,-1.763401 -0.964458,-0.0082 -1.753971,0.06018 -1.754474,0.151884 -9.47e-4,0.16651 -1.475927,9.647481 -1.627212,10.459256 l -0.0799,0.428762 2.135482,0.0134 c 1.408546,0.0088 2.426079,-0.08134 2.989152,-0.264956 z"
     id="path904"
     inkscape:connector-curvature="0" />
  <path
     style="fill:#9eaec7;stroke-width:0.168739"
     d="m 34.754817,63.754623 c 7.19e-4,-0.135268 3.819693,-24.502266 3.946421,-25.180329 0.07839,-0.419462 0.125396,-0.428477 2.166665,-0.415657 1.571333,0.0099 2.085463,0.07197 2.082214,0.251556 -0.0024,0.13115 -0.211243,1.524947 -0.464154,3.097328 -0.252912,1.57238 -0.460922,3.009107 -0.462245,3.192729 -0.0022,0.305998 0.231105,0.3356 2.795845,0.354745 3.922466,0.02927 5.369266,0.486081 6.413243,2.024877 0.252911,0.372787 0.504488,0.994132 0.559058,1.38077 0.189498,1.342607 -0.120232,4.391329 -1.004552,9.888013 l -0.889221,5.527156 -2.176438,0.03896 -2.176438,0.03896 0.822661,-5.103242 c 1.287077,-7.984177 1.326787,-8.705609 0.517363,-9.399329 -0.415811,-0.356371 -5.63119,-0.582304 -5.633045,-0.244025 -0.0013,0.246287 -2.149072,13.892216 -2.260376,14.361701 -0.07037,0.296834 -0.306956,0.331945 -2.158352,0.320317 -1.143623,-0.0072 -2.079015,-0.06773 -2.078649,-0.13453 z"
     id="path906"
     inkscape:connector-curvature="0" />
  <path
     style="fill:#9eaec7;stroke-width:0.168739"
     d="m 50.835074,70.740021 c 7.24e-4,-0.134576 3.859676,-24.623329 3.970439,-25.196361 l 0.08288,-0.428744 4.871446,0.03389 c 3.611699,0.02513 5.127468,0.104994 5.861508,0.308792 2.893954,0.803473 4.43778,3.303569 4.416668,7.152418 -0.02781,5.070141 -2.900381,9.806278 -6.662865,10.985368 -0.627251,0.19657 -1.974849,0.321486 -4.08606,0.37876 l -3.150136,0.08546 -0.517771,3.406248 -0.517764,3.406252 -2.134461,-0.0134 c -1.173952,-0.0073 -2.1342,-0.06079 -2.133883,-0.118696 z M 62.65432,59.486573 c 1.784506,-0.999095 2.806637,-3.388557 2.82815,-6.611437 0.0097,-1.483599 -0.03571,-1.832461 -0.299443,-2.29129 -0.682338,-1.187004 -1.911599,-1.596727 -4.853273,-1.617633 -1.531792,-0.01089 -1.753235,0.02809 -1.823526,0.320979 -0.123406,0.514155 -1.639704,10.221252 -1.641272,10.507155 -0.0011,0.202542 0.494147,0.240925 2.498808,0.193668 2.224506,-0.05244 2.587344,-0.107734 3.290556,-0.501442 z"
     id="path908"
     inkscape:connector-curvature="0" />
  <path
     style="fill:#9eaec7;stroke-width:0.0390672"
     d="m 57.77302,64.039313 c 0.161579,-0.0055 0.861419,-0.02749 1.555213,-0.04897 2.024248,-0.0627 3.208399,-0.163851 3.875921,-0.331074 1.094605,-0.274209 2.413118,-1.093007 3.411137,-2.118324 0.357377,-0.367148 1.091682,-1.301962 1.383405,-1.761151 0.769962,-1.211982 1.463493,-2.954506 1.761364,-4.425526 0.382587,-1.889385 0.384738,-3.859454 0.006,-5.433015 -0.141889,-0.589395 -0.462359,-1.414681 -0.72316,-1.862259 -0.285341,-0.489712 -0.794147,-1.117368 -1.163606,-1.43542 -0.75566,-0.650526 -1.785722,-1.135826 -2.712763,-1.278097 -0.82623,-0.126799 -1.612896,-0.154057 -5.844529,-0.202508 l -4.445921,-0.0509 -0.03216,0.148035 c -0.01769,0.08142 -0.151412,0.888346 -0.297169,1.793169 -0.145763,0.904823 -0.270446,1.62385 -0.277076,1.597839 -0.0066,-0.02602 0.114349,-0.850719 0.268838,-1.832684 l 0.280892,-1.785393 4.530052,0.0283 c 2.786641,0.01741 4.701429,0.04683 4.975362,0.07643 1.479411,0.159919 2.645675,0.626183 3.599387,1.439009 0.405874,0.345915 1.045951,1.164246 1.298776,1.66048 1.04379,2.048655 1.196126,4.976588 0.412687,7.932056 -0.886282,3.343415 -2.85909,6.051044 -5.206851,7.146259 -1.286365,0.600077 -2.76792,0.805926 -5.550159,0.771146 -0.769636,-0.0096 -1.26715,-0.02195 -1.105588,-0.0274 z"
     id="path910"
     inkscape:connector-curvature="0" />
  <path
     style="fill:#9eaec7;stroke-width:0.0390672"
     d=""
     id="path912"
     inkscape:connector-curvature="0" />
  <path
     style="fill:#9eaec7;stroke-width:0.0390672"
     d="m 40.672768,82.205894 c -1.404608,-0.07218 -2.503696,-0.160032 -2.538613,-0.202907 -0.02173,-0.02668 0.05437,-0.03166 0.207399,-0.01357 0.527535,0.06238 1.489027,0.120403 3.005211,0.181358 2.729269,0.109728 5.847469,-0.01796 8.605901,-0.352421 9.119856,-1.105773 17.278461,-4.366252 23.115515,-9.237809 2.735823,-2.283291 4.826922,-4.801795 6.276117,-7.558864 0.474332,-0.902419 0.676404,-1.347317 1.014507,-2.233631 0.532545,-1.396037 0.896453,-2.844344 1.063615,-4.233071 0.07858,-0.653275 0.112657,-2.014362 0.06879,-2.751588 -0.218764,-3.676554 -1.212806,-6.602188 -3.359563,-9.887608 -0.42355,-0.648203 -1.439697,-1.97096 -1.997622,-2.600361 -2.522077,-2.8452 -5.703994,-5.26418 -9.568906,-7.27455 -1.298249,-0.675296 -2.629459,-1.279954 -4.101716,-1.863071 -0.553899,-0.219385 -0.705919,-0.293817 -0.601328,-0.294439 0.30347,-0.0018 2.821076,1.092942 4.479594,1.947886 5.387707,2.777302 9.559786,6.394461 12.200763,10.577982 3.022636,4.788093 3.82117,10.174301 2.266348,15.286725 -1.09447,3.59873 -3.296198,6.961556 -6.508754,9.941202 -4.656397,4.318809 -11.300606,7.60109 -18.797475,9.286068 -3.045582,0.684519 -6.030422,1.088443 -9.404741,1.272705 -0.986341,0.05387 -4.447176,0.06021 -5.425047,0.01 z"
     id="path914"
     inkscape:connector-curvature="0" />
  <path
     style="fill:#9eaec7;stroke-width:0.0390672"
     d="m 75.899943,66.587841 c 1.26e-4,-0.02429 0.10984,-0.181555 0.243789,-0.349469 0.133957,-0.167915 0.243449,-0.285423 0.243315,-0.261129 -1.34e-4,0.02429 -0.109847,0.181554 -0.243804,0.349468 -0.133949,0.167915 -0.243442,0.285423 -0.2433,0.26113 z"
     id="path916"
     inkscape:connector-curvature="0" />
  <path
     style="fill:#9eaec7;stroke-width:0.0189348"
     d="m 63.321005,75.790547 c 0.07846,-0.0353 0.312693,-0.140178 0.520453,-0.233067 2.785829,-1.245539 5.351828,-2.773466 7.510638,-4.472227 1.63214,-1.284321 3.045746,-2.663209 4.186597,-4.083776 0.196115,-0.244206 0.359467,-0.432676 0.363001,-0.418821 0.0039,0.01572 0.02706,0.0033 0.06122,-0.03309 0.03014,-0.03206 0.0583,-0.05376 0.06256,-0.04824 0.01168,0.01508 -0.688047,0.878781 -0.99569,1.22905 -2.377974,2.707426 -5.570686,5.095299 -9.375153,7.011819 -0.959488,0.483344 -2.349604,1.117725 -2.441066,1.11398 -0.01941,-7.87e-4 0.02889,-0.03033 0.107416,-0.06562 z"
     id="path918"
     inkscape:connector-curvature="0" />
  <path
     style="fill:#9eaec7;stroke-width:0.0189348"
     d="m 76.320511,65.995501 c 4.7e-5,-0.0087 0.05948,-0.09864 0.131992,-0.199822 0.593757,-0.828108 1.221571,-1.910873 1.683691,-2.903808 0.203349,-0.436912 0.550249,-1.310815 0.695132,-1.751139 0.275787,-0.838155 0.479026,-1.700925 0.619459,-2.629679 0.02911,-0.192491 0.04023,-0.242163 0.03369,-0.149335 -0.0047,0.07651 -0.03329,0.288271 -0.06193,0.470601 -0.315327,2.008309 -1.022276,3.929144 -2.138236,5.809707 -0.368366,0.620764 -0.878404,1.381612 -0.898253,1.339968 -0.0098,-0.02057 -0.01838,-0.02023 -0.03905,0.0015 -0.01459,0.01532 -0.02651,0.0207 -0.02651,0.01198 z"
     id="path920"
     inkscape:connector-curvature="0" />
  <path
     style="fill:#9eaec7;stroke-width:0.0189348"
     d="m 47.777462,63.92684 c 1.165324,-0.02184 2.121125,-0.04239 2.124002,-0.04568 0.0065,-0.0075 0.938106,-5.793289 1.077779,-6.693967 0.557533,-3.595256 0.804267,-5.705373 0.870505,-7.444723 0.01338,-0.351396 -0.0098,-0.987092 -0.04506,-1.233818 -0.06703,-0.469522 -0.314223,-1.074095 -0.616749,-1.508457 -0.794587,-1.140859 -1.861997,-1.645707 -3.902039,-1.845531 -0.675913,-0.06621 -1.150942,-0.08552 -2.829689,-0.115094 -1.634773,-0.02879 -2.002902,-0.04673 -2.2017,-0.107298 -0.0783,-0.02386 0.131878,-0.02919 1.415356,-0.03594 1.495862,-0.0078 2.288284,0.0058 2.964019,0.05109 2.30996,0.15484 3.652185,0.694249 4.512151,1.813327 0.750144,0.976165 0.952926,2.125229 0.762397,4.320123 -0.105523,1.215621 -0.291904,2.517758 -0.846518,5.914159 -0.455504,2.789448 -1.098685,6.751777 -1.117853,6.886545 l -0.01521,0.106948 -2.135079,-0.01097 -2.135079,-0.01096 z"
     id="path922"
     inkscape:connector-curvature="0" />
  <path
     style="fill:#9eaec7;stroke-width:0.0189348"
     d="m 47.399302,51.09538 c -10e-4,-0.206064 -0.0093,-0.436701 -0.01856,-0.512523 -0.03972,-0.327294 -0.136026,-0.569088 -0.321141,-0.806239 -0.128053,-0.164048 -0.233935,-0.253366 -0.435882,-0.367684 -0.152376,-0.08626 -0.140707,-0.09155 0.06361,-0.02884 0.178561,0.0548 0.297263,0.149338 0.446238,0.355397 0.221162,0.305905 0.290134,0.646569 0.275342,1.359955 l -0.0077,0.374601 z"
     id="path924"
     inkscape:connector-curvature="0" />
  <path
     style="fill:#9eaec7;stroke-width:0.0189348"
     d="m 35.434788,63.890837 c 5.3e-5,-0.0097 0.53702,-0.01 1.19326,-7.42e-4 1.2502,0.01761 1.834567,7.39e-4 2.069602,-0.05976 0.212061,-0.05458 0.270828,-0.114166 0.312776,-0.317125 0.131362,-0.635556 1.962396,-12.242596 2.224462,-14.101013 0.02373,-0.168347 0.03855,-0.225642 0.06255,-0.241841 0.01729,-0.01167 0.03743,-0.01816 0.04477,-0.01441 0.0073,0.0037 -0.510998,3.327214 -1.151854,7.385469 l -1.165189,7.378646 -1.795238,-0.0059 c -0.987381,-0.0031 -1.795194,-0.01373 -1.79514,-0.02339 z"
     id="path926"
     inkscape:connector-curvature="0" />
  <path
     style="fill:#9eaec7;stroke-width:0.0290902"
     d="m 7.9288267,45.648054 c 10e-4,-0.196268 1.363015,-1.952074 2.3152043,-2.984752 5.85796,-6.353134 15.609535,-10.722236 26.493413,-11.870128 2.337214,-0.246499 3.914618,-0.321016 6.459812,-0.305164 2.161928,0.01346 2.977052,0.0507 4.990298,0.227994 0.672029,0.05918 0.732914,0.06936 0.732624,0.12238 -1.29e-4,0.02356 -0.04992,0.02858 -0.148028,0.01497 -0.167582,-0.02327 -1.03354,-0.07809 -2.115528,-0.133929 -1.223864,-0.06317 -5.283969,-0.109708 -6.586371,-0.07552 -1.967649,0.05165 -2.783485,0.109494 -4.110487,0.291393 -4.764979,0.653163 -8.92669,1.713196 -12.697438,3.234175 -4.805516,1.938368 -9.229898,4.78821 -12.368192,7.966627 -0.9814353,0.99398 -1.9649673,2.160394 -2.6519833,3.1451 -0.3317,0.475429 -0.313804,0.454476 -0.313324,0.36686 z"
     id="path928"
     inkscape:connector-curvature="0" />
  <path
     style="fill:#9eaec7;stroke-width:0.0290902"
     d="m 34.750707,63.24976 c 0.0063,-0.03162 0.904082,-5.731691 1.994957,-12.666831 l 1.983409,-12.609343 2.184541,0.01372 2.18454,0.01372 -0.0143,0.09036 c -0.0078,0.04969 -0.228304,1.45069 -0.489858,3.113316 -0.261556,1.662626 -0.478715,2.993316 -0.482577,2.957089 -0.0085,-0.07954 0.09805,-0.801505 0.448487,-3.039529 0.145735,-0.930714 0.297786,-1.92547 0.33789,-2.21057 0.06791,-0.482784 0.07001,-0.522127 0.03055,-0.573179 -0.09768,-0.126367 -0.351878,-0.149493 -1.939509,-0.176441 -1.857666,-0.03153 -2.158013,-0.004 -2.247385,0.206179 -0.01662,0.03907 -0.136636,0.731518 -0.266702,1.538747 -0.440073,2.731217 -3.196682,20.311883 -3.549369,22.636614 -0.08407,0.554144 -0.125544,0.763848 -0.151052,0.76376 -0.02063,-6.4e-5 -0.03038,-0.02389 -0.02361,-0.05761 z"
     id="path930"
     inkscape:connector-curvature="0" />
  <path
     style="fill:#9eaec7;stroke-width:0.0290902"
     d="m 24.277517,44.9297 c 0.265358,-0.0037 0.69953,-10e-4 0.964828,0.0061 0.265299,0.0071 0.04819,0.01002 -0.482467,0.0068 -0.530655,-0.0033 -0.747717,-0.0091 -0.482361,-0.01275 z"
     id="path932"
     inkscape:connector-curvature="0" />
  <path
     style="fill:#9eaec7;stroke-width:0.0290902"
     d="m 17.378515,63.150688 c 2.45e-4,-0.04444 2.838273,-18.117295 2.870591,-18.280212 l 0.01486,-0.0749 4.788935,0.04126 c 5.13785,0.04427 4.888611,0.03509 5.662823,0.208536 1.194858,0.267675 2.184558,0.79839 2.976042,1.595864 0.324622,0.32708 0.752944,0.927022 0.981487,1.374751 0.342859,0.671677 0.547343,1.283064 0.709921,2.122578 0.153524,0.792762 0.186838,1.207813 0.179602,2.237695 -0.0065,0.919093 -0.031,1.242435 -0.153449,2.021813 -0.54234,3.451942 -2.234619,6.490052 -4.506253,8.089977 -0.534071,0.37615 -1.359161,0.788177 -1.569062,0.783545 -0.09906,-0.0021 -0.08604,-0.01217 0.163185,-0.125212 1.66011,-0.752942 3.021723,-2.021366 4.080558,-3.801274 0.988741,-1.662082 1.672471,-3.832938 1.894664,-6.015587 0.04358,-0.428097 0.05036,-1.591141 0.01159,-1.989813 -0.180542,-1.857095 -0.800968,-3.484257 -1.70088,-4.460838 -0.567168,-0.615488 -1.176059,-1.039804 -1.9764,-1.377291 -1.201187,-0.506514 -1.671509,-0.542119 -7.668853,-0.580541 l -3.851052,-0.02467 -0.02877,0.172496 c -0.01583,0.09487 -0.290994,1.850741 -0.61149,3.901928 -1.565448,10.018965 -2.230612,14.227659 -2.248593,14.227546 -0.01085,-6.9e-5 -0.0196,-0.02152 -0.01945,-0.04764 z"
     id="path934"
     inkscape:connector-curvature="0" />
  <path
     style="fill:#9eaec7;stroke-width:0.0290902"
     d="m 24.770791,48.880702 c 0.03915,-0.0073 0.09704,-0.0067 0.128641,0.0013 0.0316,0.0079 -4.3e-4,0.01399 -0.07118,0.01329 -0.07076,-6.67e-4 -0.09661,-0.0073 -0.05746,-0.01456 z"
     id="path936"
     inkscape:connector-curvature="0" />
  <path
     style="fill:#9eaec7;stroke-width:0.0290902"
     d="m 27.696961,48.921041 c -0.13436,-0.01399 -0.996837,-0.03378 -1.916616,-0.04401 -1.8815,-0.02091 -2.069931,-0.06724 -0.360081,-0.08856 1.071571,-0.01336 1.936006,0.02701 2.52121,0.117749 0.315246,0.04888 0.168338,0.05777 -0.244513,0.01481 z"
     id="path938"
     inkscape:connector-curvature="0" />
  <path
     style="fill:#9eaec7;stroke-width:0.0290902"
     d="m 22.267182,59.701392 c 0.231433,-1.291135 1.671847,-10.523907 1.67294,-10.72323 3.17e-4,-0.0578 0.07131,-0.139978 0.08981,-0.103954 0.0024,0.005 -0.376834,2.426562 -0.843076,5.381329 -0.46624,2.954766 -0.848166,5.405603 -0.848724,5.446301 -6.56e-4,0.0459 -0.01681,0.0739 -0.04261,0.07374 -0.02979,-1.87e-4 -0.03783,-0.02125 -0.02835,-0.07419 z"
     id="path940"
     inkscape:connector-curvature="0" />
  <path
     style="fill:#9eaec7;stroke-width:0.0403498"
     d="M 37.5798,81.981806 C 31.326274,81.328791 25.57247,79.745351 20.564224,77.299145 12.428079,73.32516 6.8949237,67.406474 5.1380967,60.798182 3.8288001,55.873271 4.6604517,50.798977 7.5268887,46.223055 c 0.196331,-0.313418 0.37011,-0.559336 0.386178,-0.546485 0.01606,0.01285 -0.07297,0.180783 -0.197855,0.373185 -1.327277,2.04481 -2.317445,4.407323 -2.737131,6.530723 -0.424604,2.148285 -0.45874,4.921621 -0.08489,6.896113 0.607653,3.209258 1.871085,5.770081 4.481979,9.084431 1.2606853,1.600353 2.2038103,2.586762 3.5620453,3.725522 5.678347,4.760793 13.400005,8.010558 22.146437,9.320629 0.551294,0.08257 1.781438,0.237928 2.514299,0.317529 0.274637,0.02983 0.505985,0.06278 0.514107,0.07323 0.01571,0.0202 -0.266027,0.01167 -0.532266,-0.01613 z"
     id="path942"
     inkscape:connector-curvature="0" />
  <path
     style="fill:#9eaec7;stroke-width:0.0403498"
     d=""
     id="path944"
     inkscape:connector-curvature="0" />
  <path
     style="fill:#9eaec7;stroke-width:0.0403498"
     d=""
     id="path946"
     inkscape:connector-curvature="0" />
  <path
     style="fill:#9eaec7;stroke-width:0.0205688"
     d="m 23.215633,63.859888 -0.418338,-0.01673 0.354841,-0.01549 c 0.195162,-0.0085 0.776522,-0.02802 1.291912,-0.04334 3.022369,-0.08982 3.874344,-0.180732 4.722743,-0.503976 0.05133,-0.01956 0.09836,-0.02576 0.109234,-0.01438 0.0105,0.01097 0.03544,0.02416 0.05542,0.0293 0.04078,0.01048 -0.291907,0.125514 -0.611087,0.211291 -0.683913,0.183796 -1.429312,0.29164 -2.402855,0.347644 -0.444614,0.02557 -2.509504,0.02935 -3.10187,0.0057 z"
     id="path948"
     inkscape:connector-curvature="0" />
  <path
     style="fill:#9eaec7;stroke-width:0.0205688"
     d="m 16.188108,70.656349 c 0.0053,-0.03514 0.2713,-1.729037 0.591024,-3.764215 0.435423,-2.771668 0.587109,-3.697434 0.604408,-3.688817 0.01289,0.0064 0.02319,-0.0052 0.0233,-0.02652 1.15e-4,-0.02091 0.0047,-0.03212 0.01036,-0.02489 0.0056,0.0073 -0.253322,1.68661 -0.575343,3.731974 -0.322024,2.045365 -0.585528,3.724468 -0.585565,3.731342 -3.7e-5,0.0068 0.961832,0.01853 2.137489,0.02592 1.175656,0.0073 2.137601,0.0054 2.137656,-0.0044 5.3e-5,-0.0098 0.05551,-0.35742 0.123264,-0.772487 0.06774,-0.415066 0.25863,-1.629983 0.424198,-2.699813 0.165568,-1.069833 0.338987,-2.17282 0.385378,-2.451083 0.07954,-0.477078 0.137973,-0.718025 0.153135,-0.631417 0.0036,0.02031 -0.227141,1.51908 -0.512657,3.330607 -0.285517,1.811528 -0.519173,3.303067 -0.519236,3.314532 -6.7e-5,0.01217 -0.916615,0.01511 -2.203619,0.007 l -2.203503,-0.01384 z"
     id="path950"
     inkscape:connector-curvature="0" />
  <path
     style="fill:#9eaec7;stroke-width:0.0205688"
     d="m 50.738475,70.850172 c 0.01475,-0.09859 3.447023,-21.869979 3.483126,-22.093898 0.0183,-0.113554 0.02868,-0.14013 0.04849,-0.124196 0.02111,0.01697 0.01569,0.08035 -0.03305,0.388593 -1.989148,12.577996 -3.383867,21.463649 -3.399939,21.660767 -0.0066,0.08048 -0.0063,0.08075 0.08428,0.09855 0.234763,0.04612 1.027045,0.07142 2.541147,0.08115 l 1.650099,0.0106 0.01338,-0.08713 c 0.0073,-0.04791 0.239771,-1.576991 0.516496,-3.39794 0.479229,-3.153488 0.505014,-3.311154 0.54262,-3.317963 0.03437,-0.0062 0.03815,0.0013 0.02901,0.05832 -0.0057,0.03601 -0.250008,1.58665 -0.542786,3.445869 l -0.532332,3.380398 -2.206792,-0.0079 -2.206791,-0.0079 z"
     id="path952"
     inkscape:connector-curvature="0" />
  <path
     style="fill:#9eaec7;stroke-width:0.0205688"
     d="m 45.491968,63.952574 c 1.76e-4,-0.03204 0.283337,-1.814799 0.819486,-5.159442 0.777719,-4.851641 0.853558,-5.34688 0.990872,-6.47056 0.02968,-0.24284 0.05444,-0.407707 0.05503,-0.366373 0.0016,0.107003 -0.08075,0.82737 -0.170587,1.49356 -0.173112,1.283691 -0.413305,2.828033 -1.159174,7.453001 -0.264366,1.639268 -0.480778,3.000997 -0.480916,3.026067 -1.37e-4,0.02507 -0.01252,0.04551 -0.02754,0.04541 -0.015,-9.4e-5 -0.02723,-0.0098 -0.02718,-0.02167 z"
     id="path954"
     inkscape:connector-curvature="0" />
  <path
     style="fill:#9eaec7;stroke-width:0.0205688"
     d="m 56.879539,59.725787 c 0.07324,-0.614507 0.868879,-5.776779 1.317378,-8.547522 0.234599,-1.449295 0.307587,-1.864328 0.340353,-1.935291 l 0.02723,-0.059 -0.0089,0.06972 c -0.04147,0.325883 -1.663031,10.559388 -1.673189,10.559324 -0.0073,-4.5e-5 -0.0086,-0.0393 -0.0029,-0.08723 z"
     id="path956"
     inkscape:connector-curvature="0" />
  <path
     style="fill:#9eaec7;stroke-width:0.0205688"
     d="m 63.546278,49.364465 c -0.168017,-0.05455 -0.512049,-0.129047 -0.7541,-0.163307 -0.575143,-0.0814 -0.745686,-0.08833 -2.434516,-0.09894 -1.405126,-0.0088 -1.693265,-0.01578 -1.628017,-0.03961 0.155295,-0.05658 0.398539,-0.07467 1.125653,-0.08373 1.085489,-0.01355 2.216219,0.05037 2.869032,0.1621 0.376396,0.06442 1.022025,0.230982 1.021846,0.263615 -9.4e-5,0.01718 -0.06108,0.0049 -0.199898,-0.04013 z"
     id="path958"
     inkscape:connector-curvature="0" />
  <path
     style="fill:#9eaec7;stroke-width:0.0205688"
     d="m 51.141334,68.825216 c 5.31e-4,-0.09029 3.162469,-20.14463 3.579164,-22.700281 0.05104,-0.313054 0.111118,-0.665876 0.133498,-0.78405 l 0.04068,-0.214863 3.041118,0.0153 3.041112,0.0153 -3.037956,-0.03833 c -1.670872,-0.02109 -3.046729,-0.03429 -3.05745,-0.02933 -0.02498,0.01152 -0.06536,0.234411 -0.290234,1.601334 -0.101233,0.615351 -0.184687,1.098734 -0.185455,1.074186 -0.0012,-0.04481 0.04019,-0.317957 0.282433,-1.854292 0.072,-0.45655 0.130945,-0.840776 0.131017,-0.853832 1.64e-4,-0.02988 8.06832,0.02012 8.995934,0.05576 0.745438,0.02863 1.157924,0.08667 1.754228,0.246826 0.764169,0.205241 1.396155,0.501105 1.992855,0.932968 0.399517,0.289151 0.618429,0.503347 0.987606,0.96633 0.484655,0.607796 0.680551,0.938809 0.932597,1.575796 0.31562,0.797654 0.496338,1.587403 0.594245,2.596771 0.04405,0.454272 0.04735,1.493737 0.0063,2.024365 -0.26515,3.433261 -1.72614,6.685077 -3.874248,8.623148 -0.325003,0.293226 -0.659552,0.547371 -1.035587,0.786694 -1.464431,0.932028 -2.989407,1.222453 -6.24658,1.18963 -0.81567,-0.0083 -0.843826,-0.0098 -0.427402,-0.02407 2.878817,-0.09857 3.812713,-0.166173 4.586022,-0.33194 1.064933,-0.22828 2.44433,-1.053314 3.450504,-2.063798 0.485257,-0.487338 1.236565,-1.45407 1.604834,-2.064981 0.682251,-1.13178 1.352391,-2.861517 1.621609,-4.185637 0.372707,-1.833088 0.389842,-3.744518 0.04756,-5.303801 -0.167823,-0.764518 -0.50856,-1.634424 -0.856251,-2.186001 -0.261078,-0.414191 -0.683539,-0.927421 -1.005355,-1.22137 -0.5928,-0.541479 -1.476228,-1.016407 -2.298628,-1.235732 -0.275696,-0.07353 -0.737991,-0.145219 -1.162003,-0.180207 -0.497333,-0.04103 -1.725428,-0.08165 -2.428279,-0.08031 -0.591272,0.0011 -0.599188,0.0017 -0.136488,0.0094 0.270134,0.0045 0.839011,0.02172 1.26417,0.03827 1.517808,0.05912 2.088745,0.12934 2.712515,0.333664 1.105102,0.361985 1.996745,0.980131 2.67004,1.851033 0.243798,0.315354 0.385304,0.538904 0.578615,0.914091 0.446308,0.866229 0.728526,1.926721 0.839189,3.153498 0.03838,0.424838 0.0366,1.741939 -0.0028,2.174414 -0.125917,1.381621 -0.403887,2.594121 -0.878451,3.831717 -0.209954,0.547522 -0.359063,0.874608 -0.655434,1.437752 -1.135746,2.158022 -2.774591,3.755894 -4.608488,4.493266 -0.614957,0.247261 -1.162432,0.351942 -2.294667,0.438752 -0.881257,0.06757 -1.509189,0.09274 -3.839484,0.153948 -0.860635,0.0226 -1.567927,0.04444 -1.571754,0.04852 -0.0051,0.0053 -0.735901,4.772568 -0.737837,4.812677 -0.0011,0.01834 -4.257184,-0.02412 -4.257083,-0.04249 z m 9.108461,-8.850127 c 1.201687,-0.05156 1.57991,-0.105815 2.020965,-0.289873 1.629547,-0.680028 2.736422,-2.476493 3.09317,-5.020197 0.09465,-0.674938 0.112673,-0.975015 0.118428,-1.972457 0.0083,-1.438634 -0.03298,-1.694664 -0.359366,-2.227006 -0.518472,-0.845741 -1.440342,-1.27776 -3.057585,-1.432896 -1.000624,-0.09599 -2.883293,-0.107708 -3.255789,-0.02029 -0.130435,0.03062 -0.2366,0.09517 -0.272845,0.165902 -0.01459,0.02853 -0.0435,0.135475 -0.06418,0.237672 -0.140319,0.693456 -1.344158,8.364683 -1.566993,9.985327 -0.04759,0.346147 -0.05167,0.406481 -0.03029,0.448863 0.02838,0.05629 0.127187,0.09708 0.309012,0.127611 0.160394,0.02693 2.421583,0.02496 3.065463,-0.0027 z"
     id="path960"
     inkscape:connector-curvature="0" />
  <path
     style="fill:#9eaec7;stroke-width:0.0205688"
     d="m 61.465441,59.82822 c 0.730233,-0.163579 1.337678,-0.445337 1.834602,-0.850959 0.06894,-0.05631 0.129568,-0.09702 0.134637,-0.09047 0.01888,0.02444 -0.397203,0.34647 -0.643785,0.498236 -0.450315,0.277167 -0.754652,0.394181 -1.217849,0.468247 -0.320537,0.05125 -0.38316,0.03667 -0.107606,-0.02506 z"
     id="path962"
     inkscape:connector-curvature="0" />
  <path
     style="fill:#9eaec7;stroke-width:0.0205688"
     d="m 61.639152,33.87471 c -1.242675,-0.489751 -3.608361,-1.225269 -5.40308,-1.679877 -2.278984,-0.577274 -5.209527,-1.127709 -6.827109,-1.282318 -0.404315,-0.03864 -0.466409,-0.04966 -0.481145,-0.08543 -0.02077,-0.0504 -0.04505,-0.05017 0.360741,-0.0035 4.323852,0.49772 8.314997,1.430582 12.133462,2.835989 0.319547,0.11761 0.585056,0.219113 0.590022,0.225562 0.0047,0.0065 -0.03513,0.0038 -0.08912,-0.0057 -0.08603,-0.01537 -0.09679,-0.01289 -0.0871,0.02007 0.01471,0.05003 -0.01713,0.04603 -0.19667,-0.02473 z"
     id="path964"
     inkscape:connector-curvature="0" />
  <path
     style="fill:#9eaec7;stroke-width:0.0205688"
     d=""
     id="path966"
     inkscape:connector-curvature="0" />
  <path
     style="fill:#9eaec7;stroke-width:0.0205688"
     d="m 64.501972,37.649646 c -1.977606,-0.959213 -4.522483,-1.919968 -6.862583,-2.590797 -3.006363,-0.861824 -5.880013,-1.407788 -9.277661,-1.76266 -0.540309,-0.05643 -0.422593,-0.06172 0.263858,-0.01187 1.866623,0.135574 3.282987,0.355147 5.644005,0.874965 3.720765,0.819192 6.84144,1.851313 9.929107,3.283929 0.644937,0.299236 0.684697,0.319593 0.684528,0.350461 -2.06e-4,0.03756 -0.03044,0.02612 -0.381254,-0.144025 z"
     id="path968"
     inkscape:connector-curvature="0" />
  <path
     style="fill:#9eaec7;stroke-width:0.0278455"
     d="m 19.122824,38.712487 c 0.147813,-0.09866 1.343738,-0.727005 1.914235,-1.005755 2.494811,-1.218979 5.147157,-2.203733 7.971319,-2.959564 3.167658,-0.847761 5.324726,-1.246558 7.848414,-1.451006 0.775939,-0.06286 0.827218,-0.04583 0.102129,0.03393 -4.617341,0.507873 -8.633347,1.458826 -12.626316,2.989794 -1.664159,0.638067 -3.77095,1.617543 -5.070276,2.357243 -0.183558,0.1045 -0.279545,0.128827 -0.139505,0.03535 z"
     id="path970"
     inkscape:connector-curvature="0" />
  <path
     style="fill:#9eaec7;stroke-width:0.0278455"
     d="m 18.183944,39.255662 c 0.115554,-0.07547 0.226721,-0.13709 0.247039,-0.136962 0.02032,1.28e-4 -0.0576,0.06197 -0.173154,0.137425 -0.115554,0.07546 -0.226722,0.137089 -0.24704,0.136962 -0.02031,-1.28e-4 0.0576,-0.06198 0.173155,-0.137425 z"
     id="path974"
     inkscape:connector-curvature="0" />
  <path
     style="fill:#9eaec7;stroke-width:0.0120212"
     d="m 7.2178137,60.717347 c -0.403889,-1.272529 -0.632184,-2.477512 -0.716078,-3.779592 -0.02153,-0.334163 -0.02608,-1.138588 -0.0084,-1.481547 0.04324,-0.837564 0.15164,-1.624716 0.338513,-2.457972 0.02176,-0.09705 0.08525,-0.347413 0.141087,-0.556374 0.548845,-2.054078 1.542725,-4.047404 2.989408,-5.995553 0.3152983,-0.424591 0.8741143,-1.114743 1.1537763,-1.424942 0.05409,-0.05999 0.07679,-0.07695 0.09831,-0.07345 0.02499,0.0041 0.0047,0.03133 -0.189514,0.254629 -0.264271,0.303855 -0.883123,1.082336 -1.1181093,1.406517 -0.982434,1.355345 -1.729413,2.691888 -2.285951,4.090176 -1.073762,2.697793 -1.353446,5.462228 -0.830614,8.209901 0.117958,0.619913 0.314393,1.373323 0.512343,1.965047 0.03621,0.108236 0.03952,0.125971 0.02352,0.125871 -0.01422,-9e-5 -0.03986,-0.06702 -0.108318,-0.282709 z"
     id="path976"
     inkscape:connector-curvature="0" />
  <path
     style="fill:#9eaec7;stroke-width:0.0120212"
     d="m 5.1847697,60.942433 c -0.0078,-0.02434 -0.04258,-0.154533 -0.07733,-0.289308 -0.264041,-1.024588 -0.4395,-2.080902 -0.516411,-3.108947 -0.04099,-0.547933 -0.04489,-0.685853 -0.04055,-1.434179 0.0044,-0.768335 0.01274,-0.955568 0.06757,-1.528641 0.250041,-2.612563 1.066556,-5.141325 2.441715,-7.562038 0.348366,-0.613236 0.838659,-1.379932 0.83828,-1.310863 -1.36e-4,0.0248 -0.10264,0.201175 -0.274225,0.471845 -1.217085,1.91991 -2.119385,4.032939 -2.568642,6.015317 -0.383602,1.692674 -0.518708,3.869057 -0.36033,5.804533 0.07271,0.888531 0.216555,1.726924 0.458169,2.670364 0.04268,0.166661 0.07759,0.306024 0.07757,0.309699 -2e-5,0.0036 -0.0071,0.0067 -0.01585,0.0065 -0.0087,-5.4e-5 -0.02218,-0.02002 -0.02998,-0.04436 z"
     id="path978"
     inkscape:connector-curvature="0" />
  <path
     style="fill:#9eaec7;stroke-width:0.0120212"
     d="m 5.1703477,60.616142 c -0.340413,-1.340023 -0.476025,-2.334108 -0.513575,-3.764728 -0.0107,-0.40742 -0.0014,-1.104431 0.02019,-1.522143 0.07317,-1.412755 0.261488,-2.679309 0.555207,-3.734231 0.629369,-2.260442 1.648827,-4.369206 3.087097,-6.385701 l 0.20026,-0.280771 1.320785,0.0086 1.3207853,0.0086 -0.04322,0.05035 c -0.02376,0.0277 -0.10563,0.122775 -0.181911,0.211286 -1.7454013,2.025219 -3.0347463,4.251802 -3.7562083,6.486631 -0.37027,1.146961 -0.584304,2.233904 -0.680599,3.456318 -0.0288,0.365546 -0.03438,1.394393 -0.0096,1.76686 0.08953,1.34504 0.318472,2.560447 0.715745,3.799791 0.04386,0.136804 0.08207,0.256396 0.08494,0.265758 0.0041,0.01356 -0.202146,0.01571 -1.010235,0.01064 l -1.015436,-0.0064 -0.09424,-0.370955 z"
     id="path980"
     inkscape:connector-curvature="0" />
  <path
     style="fill:#9eaec7;stroke-width:0.0120212"
     d=""
     id="path982"
     inkscape:connector-curvature="0" />
  <path
     style="fill:#9eaec7;stroke-width:0.0120212"
     d="m 5.1896817,60.962852 c -0.01921,-0.04711 -0.17038,-0.652891 -0.226439,-0.907452 -0.237779,-1.079725 -0.372086,-2.130963 -0.412606,-3.229512 -0.02212,-0.599484 0.0049,-1.566683 0.06119,-2.190204 0.256743,-2.844466 1.237106,-5.69414 2.858597,-8.309237 0.220236,-0.35519 0.442497,-0.674764 0.424124,-0.609816 -0.01318,0.0466 -0.09745,0.191847 -0.263885,0.454848 -0.913547,1.443595 -1.624543,2.927936 -2.136424,4.460196 -0.49702,1.487777 -0.738456,2.831359 -0.840449,4.677063 -0.01941,0.351287 -0.02591,1.521271 -0.0103,1.855201 0.06344,1.357601 0.197698,2.281837 0.508403,3.499918 0.04331,0.169808 0.07873,0.311958 0.07872,0.31589 -9.7e-5,0.01775 -0.03219,0.0046 -0.04092,-0.0169 z"
     id="path984"
     inkscape:connector-curvature="0" />
  <path
     style="fill:#9eaec7;stroke-width:0.0217887"
     d="m 34.653862,63.848256 c 0.0061,-0.0287 0.02713,-0.161606 0.04687,-0.295328 0.02945,-0.19947 0.04202,-0.243093 0.06998,-0.242918 0.04133,2.6e-4 0.04128,-0.0042 0.0027,0.246302 -0.01713,0.111244 -0.02622,0.208649 -0.02018,0.216457 0.02014,0.02605 0.209415,0.05195 0.540058,0.07388 0.417734,0.02771 0.288312,0.05373 -0.267527,0.05377 -0.38112,7.1e-5 -0.382813,-1.7e-4 -0.371885,-0.05217 z"
     id="path986"
     inkscape:connector-curvature="0" />
</svg>
