<?xml version="1.0" encoding="UTF-8" standalone="no"?>
<svg
   xmlns:dc="http://purl.org/dc/elements/1.1/"
   xmlns:cc="http://creativecommons.org/ns#"
   xmlns:rdf="http://www.w3.org/1999/02/22-rdf-syntax-ns#"
   xmlns:svg="http://www.w3.org/2000/svg"
   xmlns="http://www.w3.org/2000/svg"
   xmlns:sodipodi="http://sodipodi.sourceforge.net/DTD/sodipodi-0.dtd"
   xmlns:inkscape="http://www.inkscape.org/namespaces/inkscape"
   inkscape:version="1.0beta2 (2b71d25, 2019-12-03)"
   height="44mm"
   width="31mm"
   sodipodi:docname="python.svg"
   id="svg27"
   version="1.1"
   viewBox="0 0 117.16535 166.29921"
   role="img"
   class="svg-inline--fa fa-python fa-w-14"
   data-icon="python"
   data-prefix="fab"
   focusable="false"
   aria-hidden="true">
  <metadata
     id="metadata33">
    <rdf:RDF>
      <cc:Work
         rdf:about="">
        <dc:format>image/svg+xml</dc:format>
        <dc:type
           rdf:resource="http://purl.org/dc/dcmitype/StillImage" />
        <dc:title></dc:title>
      </cc:Work>
    </rdf:RDF>
  </metadata>
  <defs
     id="defs31" />
  <sodipodi:namedview
     inkscape:current-layer="svg27"
     inkscape:window-maximized="0"
     inkscape:window-y="77"
     inkscape:window-x="282"
     inkscape:cy="67.783428"
     inkscape:cx="59.56676"
     inkscape:zoom="2.5847549"
     units="mm"
     showgrid="false"
     id="namedview29"
     inkscape:window-height="1102"
     inkscape:window-width="1350"
     inkscape:pageshadow="2"
     inkscape:pageopacity="0"
     guidetolerance="10"
     gridtolerance="10"
     objecttolerance="10"
     borderopacity="1"
     inkscape:document-rotation="0"
     bordercolor="#666666"
     pagecolor="#ffffff" />
  <path
     style="stroke-width:0.150173"
     inkscape:connector-curvature="0"
     id="path25"
     d="m 70.762822,68.932356 c -1.09409,-4.904324 -3.168614,-8.602407 -7.587623,-8.602407 h -5.697825 v 7.523137 c 0,5.840749 -4.433221,10.760944 -9.491637,10.760944 H 32.810483 c -4.14904,0 -7.587628,3.967898 -7.587628,8.618277 V 103.3896 c 0,4.60277 3.580678,7.30094 7.587628,8.61828 4.802655,1.57129 9.420593,1.85698 15.175254,0 3.82223,-1.23799 7.587628,-3.72983 7.587628,-8.61828 V 96.929855 H 40.412318 v -2.158537 h 22.762881 c 4.419009,0 6.053052,-3.444137 7.587623,-8.60241 1.591414,-5.316984 1.520367,-10.427637 0,-17.236552 z m -21.82508,32.298694 c 1.577204,0 2.856018,1.44433 2.856018,3.22194 0,1.7935 -1.278814,3.23781 -2.856018,3.23781 -1.562993,0 -2.856016,-1.46019 -2.856016,-3.23781 0.01421,-1.79349 1.293023,-3.22194 2.856016,-3.22194 z M 32.11424,76.487234 h 15.175254 c 4.220084,0 7.587626,-3.88854 7.587626,-8.618277 V 51.695801 c 0,-4.602764 -3.467006,-8.046901 -7.587626,-8.824609 -5.086837,-0.936424 -10.614153,-0.888809 -15.175254,0.01587 -6.422486,1.269728 -7.587628,3.920285 -7.587628,8.824609 v 6.459739 h 15.189463 v 2.158538 H 18.828788 c -4.419012,0 -8.283871,2.967988 -9.4916387,8.602405 -1.3924864,6.459739 -1.4493219,10.491122 0,17.236551 1.0798867,5.015433 3.6517227,8.602412 8.0707347,8.602412 h 5.214717 v -7.745341 c 0,-5.602675 4.333758,-10.538744 9.491639,-10.538744 z M 31.162234,53.854338 c -1.577204,0 -2.856017,-1.444315 -2.856017,-3.221935 0.0142,-1.793491 1.278813,-3.237805 2.856017,-3.237805 1.562995,0 2.856017,1.460186 2.856017,3.237805 0,1.77762 -1.278813,3.221935 -2.856017,3.221935 z"
     fill="#f4511e" />
  <path
     style="fill:#9eaec7;stroke-width:0.363872"
     d="M 15.481733,94.273709 C 11.707443,93.004276 9.6838646,89.070875 8.6771301,81.047024 8.1926312,77.185479 8.586402,72.489943 9.7483105,68.273706 10.537477,65.410042 12.501986,62.779411 14.7922,61.519545 c 1.598211,-0.879189 1.872006,-0.899926 13.423333,-1.016618 l 11.791846,-0.119121 v -1.130735 -1.130736 h -7.574324 -7.574324 v -4.627211 c 0,-4.976888 0.332896,-6.473772 1.767837,-7.949152 1.25659,-1.292005 3.097868,-2.005863 6.767462,-2.623727 5.891959,-0.992051 13.045194,-0.534007 16.33298,1.045851 2.109425,1.013628 4.192268,3.613542 4.700288,5.867151 0.224821,0.997302 0.384442,5.198428 0.384442,10.118155 0,9.351542 -0.295801,11.332973 -2.002792,13.415691 -2.104171,2.567319 -2.326785,2.615335 -13.145856,2.835422 -8.264395,0.168119 -10.02064,0.303751 -11.133637,0.859835 -2.116916,1.057669 -3.80269,2.769961 -4.892323,4.969276 -0.96109,1.939864 -1.020611,2.324739 -1.134378,7.335145 l -0.120066,5.287857 -2.9795,-0.03303 c -1.638725,-0.01819 -3.403379,-0.175613 -3.921455,-0.349856 z m 17.827691,-41.32561 c 1.877176,-2.096819 0.54585,-5.593768 -2.129608,-5.593768 -1.803152,0 -2.87821,1.200842 -2.87821,3.214966 0,2.10439 1.037669,3.322751 2.829963,3.322751 0.956006,0 1.571687,-0.266856 2.177855,-0.943949 z"
     id="path993"
     inkscape:connector-curvature="0" />
  <path
     style="fill:#9eaec7;stroke-width:0.363872"
     d="m 35.531642,112.51841 c -4.435934,-1.06348 -7.204754,-2.63912 -8.837963,-5.02942 L 25.71945,106.06316 25.610884,96.033461 c -0.119536,-11.043066 0.01076,-12.105777 1.756509,-14.326724 2.081897,-2.64859 2.762631,-2.799596 12.66357,-2.809094 9.839868,-0.0094 11.258142,-0.259845 13.816338,-2.439351 0.936802,-0.798126 1.885596,-2.141371 2.597349,-3.677171 1.095924,-2.364752 1.12139,-2.532467 1.12139,-7.385528 v -4.96583 h 3.219356 c 3.837218,0 5.138687,0.423219 6.829773,2.220951 1.582663,1.682459 2.589514,4.255179 3.416162,8.72896 1.21755,6.589368 0.72071,12.154485 -1.580267,17.700666 -1.226849,2.95716 -2.486726,4.471422 -4.276002,5.139392 -0.782979,0.292302 -5.084482,0.436896 -12.996853,0.436896 H 40.351667 v 1.153714 1.153712 h 7.612411 7.61241 l -0.13236,4.134146 c -0.152477,4.76249 -0.847316,6.66526 -3.059224,8.37746 -3.926199,3.03922 -11.308534,4.37205 -16.853262,3.04275 z m 15.634475,-5.96956 c 0.973615,-1.29247 1.107284,-2.26014 0.490799,-3.55307 -0.598754,-1.25574 -1.364237,-1.7756 -2.634624,-1.7892 -1.530816,-0.0164 -2.29317,0.49602 -2.80952,1.88847 -0.875548,2.36108 0.45726,4.63701 2.715476,4.63701 1.080966,0 1.522341,-0.23336 2.237869,-1.18321 z"
     id="path995"
     inkscape:connector-curvature="0" />
  <path
     style="fill:#9eaec7;stroke-width:0.0659146"
     d="m 50.105133,94.699486 c 11.549215,-0.05952 14.242996,-0.147397 15.18639,-0.495316 1.520394,-0.560728 2.774907,-1.981967 3.863704,-4.377206 1.215903,-2.674856 1.98919,-5.464071 2.375689,-8.569015 0.135237,-1.086429 0.189962,-4.2077 0.09588,-5.468663 C 71.344802,72.009702 70.471324,67.896085 69.437512,65.478941 68.523034,63.340812 66.94351,61.577085 65.410001,60.981734 64.280272,60.543142 63.747714,60.484091 60.458074,60.43265 l -2.962437,-0.04633 3.087172,-0.01171 c 1.697944,-0.0065 3.294959,0.01842 3.548923,0.05524 2.507355,0.363536 4.343032,2.059777 5.594152,5.169242 0.920762,2.2884 1.83992,6.86186 2.08859,10.392209 0.104051,1.477238 0.04054,4.397801 -0.122137,5.614969 -0.247567,1.85252 -0.651875,3.628641 -1.244859,5.468663 -1.584569,4.916904 -3.036975,6.809741 -5.760732,7.507629 l -0.580196,0.148662 -11.880934,0.0093 -11.880933,0.0093 z"
     id="path997"
     inkscape:connector-curvature="0" />
  <path
     style="fill:#9eaec7;stroke-width:0.0659146"
     d="m 33.331659,76.425957 c 0.02629,-0.02772 2.344403,-0.09278 9.102321,-0.255451 7.457955,-0.17952 8.391009,-0.397288 10.04011,-2.343295 0.621298,-0.733156 0.990044,-1.266827 1.271046,-1.839529 0.626356,-1.276555 0.92315,-3.203236 1.033845,-6.711339 l 0.04637,-1.469349 0.0095,2.33376 c 0.01063,2.617025 -0.03954,3.210681 -0.368433,4.359872 -0.736423,2.573154 -2.551055,4.669097 -4.759309,5.497119 -1.159696,0.434849 -0.607397,0.407805 -8.860184,0.433845 -4.148729,0.0131 -7.530585,0.01055 -7.515236,-0.0056 z"
     id="path999"
     inkscape:connector-curvature="0" />
  <path
     style="fill:#9eaec7;stroke-width:0.0659146"
     d="m 25.470128,105.22254 -0.155918,-0.59215 v -9.404709 -9.404709 l 0.168983,-0.669236 c 0.513288,-2.03282 1.670172,-3.884209 3.121568,-4.995521 0.655337,-0.501783 1.652809,-1.023156 2.395008,-1.25186 l 0.613518,-0.189052 7.858256,-0.0066 c 4.322039,-0.0036 7.50744,0.01584 7.078666,0.04326 -0.428774,0.02744 -3.123034,0.07088 -5.987243,0.09655 -8.610062,0.07717 -9.799809,0.181819 -11.288445,0.992931 -0.534242,0.291092 -0.666345,0.405693 -1.343786,1.165746 -1.87146,2.099681 -2.187027,3.07726 -2.340669,7.251051 -0.04483,1.21802 -0.04252,3.997075 0.0077,9.23155 0.03952,4.118909 0.06205,7.677029 0.05006,7.906929 l -0.02179,0.41798 z"
     id="path1001"
     inkscape:connector-curvature="0" />
  <path
     style="fill:#9eaec7;stroke-width:0.0659146"
     d=""
     id="path1003"
     inkscape:connector-curvature="0" />
  <path
     style="fill:#9eaec7;stroke-width:0.0659146"
     d="M 16.769917,94.6965 C 13.931125,94.462849 11.752313,92.638752 10.343224,89.316087 9.5995663,87.562524 8.8295772,84.041583 8.47436,80.770297 8.3344052,79.481426 8.2842473,76.805056 8.3757382,75.507961 8.5568036,72.940943 9.2254473,69.111321 9.7882158,67.418069 10.976888,63.84161 13.540796,61.319392 16.70755,60.611247 c 1.073573,-0.24007 1.579849,-0.251577 10.384123,-0.236006 4.819417,0.0086 8.103045,0.02262 7.29695,0.03131 -16.721177,0.180484 -17.492271,0.207551 -18.718094,0.657054 -1.703813,0.624778 -3.673393,2.455488 -4.825211,4.484997 -0.682714,1.202943 -1.1210305,2.48276 -1.5866226,4.632688 -0.5567456,2.570835 -0.7748067,4.628189 -0.7789933,7.349604 -0.0033,2.139762 0.043034,2.753464 0.3753943,4.973054 1.0153252,6.780615 2.9184516,10.331565 6.2543726,11.669732 0.280138,0.112377 0.767911,0.225893 1.247343,0.290298 0.700844,0.09414 3.828632,0.230223 5.442345,0.236774 l 0.601175,0.0026 0.04141,-1.48037 c 0.02277,-0.814206 0.06362,-2.35815 0.09076,-3.430981 0.04873,-1.92574 0.04948,-1.906426 0.05904,1.515205 l 0.0097,3.46581 -2.572643,-0.01 c -1.414954,-0.0052 -2.88136,-0.03533 -3.258681,-0.06641 z"
     id="path1005"
     inkscape:connector-curvature="0" />
  <path
     style="fill:#9eaec7;stroke-width:0.0659146"
     d=""
     id="path1007"
     inkscape:connector-curvature="0" />
  <path
     style="fill:#9eaec7;stroke-width:0.0659146"
     d=""
     id="path1009"
     inkscape:connector-curvature="0" />
  <path
     style="fill:#9eaec7;stroke-width:0.0659146"
     d="m 22.757816,84.810838 c 0.06141,-0.653906 0.215834,-1.187609 0.594652,-2.055102 0.866438,-1.984149 2.015869,-3.475584 3.580655,-4.646047 0.730694,-0.546561 1.660118,-1.063648 2.227498,-1.239274 0.571349,-0.176855 0.919256,-0.180592 0.394552,-0.0042 -3.285483,1.104255 -5.784218,3.984024 -6.681909,7.700837 -0.135718,0.561935 -0.147696,0.58723 -0.115448,0.243825 z"
     id="path1011"
     inkscape:connector-curvature="0" />
  <path
     style="fill:#9eaec7;stroke-width:0.0659146"
     d="m 24.551435,54.106212 c 0.03233,-4.257529 0.05962,-4.705229 0.362063,-5.938897 0.567317,-2.314104 2.134463,-3.769106 5.061115,-4.698943 2.338392,-0.742939 5.310522,-1.143805 8.921037,-1.203224 3.998661,-0.06581 7.869016,0.343555 9.837407,1.040486 1.513586,0.535902 2.775638,1.398578 3.897944,2.664441 1.074024,1.211405 1.63094,2.27734 2.010119,3.847369 l 0.165106,0.683631 0.0085,2.995573 c 0.0047,1.647566 2.49e-4,2.63506 -0.0098,2.194432 -0.03288,-1.438055 -0.147563,-3.988781 -0.214568,-4.772017 -0.088,-1.028609 -0.195077,-1.473424 -0.55342,-2.29893 C 53.230024,46.761264 51.6148,44.942042 50.01166,44.086474 47.814019,42.91363 43.9648,42.319143 39.128601,42.405653 c -3.857359,0.069 -7.508397,0.618986 -9.885186,1.489083 -2.070308,0.757902 -3.451407,2.105435 -3.950608,3.854592 -0.362715,1.270927 -0.446273,2.56415 -0.446273,6.906901 v 3.473108 h -0.162866 -0.162785 z"
     id="path1013"
     inkscape:connector-curvature="0" />
  <path
     style="fill:#9eaec7;stroke-width:0.0281647"
     d="m 31.859798,53.772399 c 0.28231,-0.08785 0.403405,-0.141336 0.644959,-0.284872 1.684006,-1.00066 2.043054,-3.558911 0.716051,-5.101926 -0.321049,-0.373311 -0.614915,-0.59535 -1.044541,-0.789237 -0.287355,-0.129681 -0.23125,-0.143066 0.07583,-0.01809 0.886781,0.360893 1.582165,1.22078 1.824143,2.255668 0.08363,0.357662 0.112024,0.936127 0.0628,1.279333 -0.12387,0.863637 -0.564532,1.647319 -1.238133,2.20192 -0.300691,0.24757 -0.762039,0.459362 -1.085108,0.498143 l -0.142544,0.01711 z"
     id="path1015"
     inkscape:connector-curvature="0" />
  <path
     style="fill:#9eaec7;stroke-width:0.0281647"
     d="m 28.383699,49.752666 c -0.0036,-0.09893 0.118196,-0.512849 0.227152,-0.771869 0.320656,-0.762284 0.875875,-1.266368 1.630284,-1.480131 0.291077,-0.08248 0.453052,-0.0932 0.192956,-0.01278 -0.257337,0.07957 -0.390024,0.138472 -0.612331,0.271812 -0.645683,0.387282 -1.12284,1.024777 -1.374748,1.836696 -0.03396,0.109461 -0.06245,0.179784 -0.06332,0.156271 z"
     id="path1017"
     inkscape:connector-curvature="0" />
  <path
     style="fill:#9eaec7;stroke-width:0.0281647"
     d="m 30.224325,53.752224 c -0.704274,-0.20804 -1.210205,-0.645867 -1.535418,-1.328734 -0.112286,-0.235773 -0.22732,-0.556282 -0.226442,-0.630912 2.11e-4,-0.0179 0.05823,0.101403 0.128949,0.265121 0.366939,0.849572 1.066967,1.490584 1.869325,1.711729 0.149004,0.04107 0.17613,0.05528 0.106595,0.05582 -0.0513,4.08e-4 -0.205653,-0.03246 -0.343009,-0.07303 z"
     id="path1019"
     inkscape:connector-curvature="0" />
  <path
     style="fill:#9eaec7;stroke-width:0.03923"
     d="m 39.363758,113.24985 c -2.142278,-0.1007 -4.422248,-0.55018 -6.712041,-1.32324 -3.312318,-1.11827 -5.68221,-2.9984 -6.734774,-5.34297 -0.08552,-0.19048 -0.148958,-0.35365 -0.140974,-0.36256 0.008,-0.009 0.271388,0.3615 0.585345,0.82316 0.925583,1.36101 1.748039,2.20737 2.902969,2.98734 2.141102,1.44595 5.664676,2.60434 8.936544,2.9379 0.70377,0.0718 3.238211,0.0725 3.990234,9e-4 3.466005,-0.32863 6.420641,-1.18522 8.791298,-2.54875 2.524729,-1.45214 3.643765,-2.94141 4.119786,-5.48282 0.240794,-1.28557 0.298716,-2.07825 0.430161,-5.886864 0.0221,-0.640322 0.02978,-0.253072 0.03374,1.699924 0.0054,2.69034 -0.02139,3.46132 -0.144029,4.13787 -0.499999,2.75827 -2.361298,4.89499 -5.537142,6.35645 -1.927944,0.88722 -4.764311,1.63366 -7.229832,1.90269 -0.533923,0.0583 -2.190788,0.15002 -2.486936,0.13772 -0.07145,-0.004 -0.433409,-0.0197 -0.804347,-0.0371 z"
     id="path1021"
     inkscape:connector-curvature="0" />
  <path
     style="fill:#9eaec7;stroke-width:0.03923"
     d="m 51.511094,105.93491 c 0.270712,-0.80401 0.34032,-1.26398 0.277971,-1.83677 -0.04801,-0.44102 -0.122599,-0.73403 -0.271262,-1.06555 -0.297766,-0.66399 -0.73009,-1.15326 -1.307111,-1.47926 -0.25917,-0.14641 -0.333527,-0.20291 -0.243314,-0.18484 0.07145,0.0143 0.268256,0.10193 0.437341,0.19471 1.013654,0.55625 1.801387,2.2591 1.552429,3.3559 -0.06406,0.28222 -0.303466,0.87372 -0.411135,1.01581 l -0.06284,0.0829 z"
     id="path1023"
     inkscape:connector-curvature="0" />
  <path
     style="fill:#9eaec7;stroke-width:0.03923"
     d="m 47.565462,107.38834 c -0.306118,-0.15919 -0.606915,-0.40613 -0.853758,-0.70088 -0.775647,-0.92619 -0.959122,-2.23265 -0.495936,-3.53137 0.332169,-0.93137 0.781416,-1.46026 1.466732,-1.72675 0.420197,-0.1634 0.557958,-0.14937 0.187685,0.0191 -1.69791,0.77259 -2.327662,3.11073 -1.302003,4.83407 0.229211,0.38512 0.666408,0.83034 1.019618,1.03833 0.307067,0.1808 0.290693,0.23029 -0.02234,0.0675 z"
     id="path1025"
     inkscape:connector-curvature="0" />
  <path
     style="fill:#9eaec7;stroke-width:0.03923"
     d="m 49.804289,107.5564 c 0.145075,-0.0526 0.36089,-0.15421 0.479589,-0.22603 0.267294,-0.16171 0.312661,-0.13889 0.06825,0.0344 -0.186485,0.13216 -0.592004,0.29228 -0.732007,0.28901 -0.04379,-9e-4 0.03909,-0.0448 0.184167,-0.0973 z"
     id="path1027"
     inkscape:connector-curvature="0" />
  <path
     style="fill:#9eaec7;stroke-width:0.03923"
     d="m 44.463738,94.731091 c 0.0659,-0.0092 0.182817,-0.0093 0.25983,-3.36e-4 0.07701,0.0089 0.0231,0.01648 -0.119807,0.01668 -0.142907,1.85e-4 -0.205916,-0.0072 -0.140023,-0.01628 z"
     id="path1029"
     inkscape:connector-curvature="0" />
  <path
     style="fill:#9eaec7;stroke-width:0.03923"
     d="m 50.585926,78.196199 c 1.908382,-0.655008 3.719543,-2.078893 4.917122,-3.865705 0.126212,-0.188312 0.236906,-0.334088 0.245985,-0.323946 0.02239,0.02501 -0.303382,0.546288 -0.610741,0.977293 -0.914791,1.28279 -2.419181,2.496051 -3.727055,3.005795 -0.422389,0.164626 -1.048157,0.352718 -1.165471,0.350315 -0.04083,-8.56e-4 0.112241,-0.06552 0.34016,-0.143752 z"
     id="path1031"
     inkscape:connector-curvature="0" />
  <path
     style="fill:#9eaec7;stroke-width:0.03923"
     d="m 44.167619,78.853769 c 0.02552,-0.0115 0.06728,-0.0115 0.0928,0 0.02552,0.0115 0.0047,0.02091 -0.0464,0.02091 -0.05103,0 -0.07192,-0.0094 -0.0464,-0.02091 z"
     id="path1033"
     inkscape:connector-curvature="0" />
</svg>
