<?xml version="1.0" encoding="UTF-8" standalone="no"?>
<svg
   xmlns:dc="http://purl.org/dc/elements/1.1/"
   xmlns:cc="http://creativecommons.org/ns#"
   xmlns:rdf="http://www.w3.org/1999/02/22-rdf-syntax-ns#"
   xmlns:svg="http://www.w3.org/2000/svg"
   xmlns="http://www.w3.org/2000/svg"
   xmlns:sodipodi="http://sodipodi.sourceforge.net/DTD/sodipodi-0.dtd"
   xmlns:inkscape="http://www.inkscape.org/namespaces/inkscape"
   height="44mm"
   width="31mm"
   id="svg2"
   viewBox="0 0 117.16535 166.29922"
   version="1.0"
   sodipodi:docname="stydying.svg"
   inkscape:version="1.0beta2 (2b71d25, 2019-12-03)">
  <defs
     id="defs30" />
  <sodipodi:namedview
     units="mm"
     pagecolor="#ffffff"
     bordercolor="#666666"
     inkscape:document-rotation="0"
     borderopacity="1"
     objecttolerance="10"
     gridtolerance="10"
     guidetolerance="10"
     inkscape:pageopacity="0"
     inkscape:pageshadow="2"
     inkscape:window-width="1694"
     inkscape:window-height="1240"
     id="namedview28"
     showgrid="false"
     inkscape:zoom="2.5094511"
     inkscape:cx="123.96759"
     inkscape:cy="149.58993"
     inkscape:window-x="443"
     inkscape:window-y="57"
     inkscape:window-maximized="0"
     inkscape:current-layer="svg2" />
  <g
     id="layer1"
     transform="matrix(0.55391826,0,0,0.55391826,-20.128853,1.5783387)"
     style="fill:#ff6600">
    <path
       id="path1872"
       d="m 86.368,50.038 a 18.9405,18.9405 0 1 1 -37.881,0 18.9405,18.9405 0 1 1 37.881,0 z"
       stroke-dasharray="1, 2"
       transform="matrix(1.0559,0,0,1.0559,-5.7431,12.545)"
       style="fill:#ff6600"
       inkscape:connector-curvature="0" />
    <rect
       id="rect1874"
       rx="17.173"
       ry="17.173"
       height="114.7"
       width="48.992001"
       stroke-dasharray="1, 2"
       y="87.667"
       x="40"
       style="fill:#ff6600" />
    <rect
       id="rect1880"
       rx="14.647"
       ry="14.647"
       height="29.294001"
       width="110.11"
       stroke-dasharray="1, 2"
       y="173.78999"
       x="40.405998"
       style="fill:#ff6600" />
    <rect
       id="rect1884"
       rx="11.112"
       ry="11.112"
       height="92.933998"
       width="22.223"
       stroke-dasharray="1, 2"
       y="179.35001"
       x="128.28999"
       style="fill:#ff6600" />
    <rect
       id="rect1890"
       rx="7.8287001"
       ry="7.8287001"
       height="16.162001"
       width="145.97"
       stroke-dasharray="1, 2"
       y="142.98"
       x="100.09"
       style="fill:#ff6600" />
    <rect
       id="rect1892"
       rx="8.3554001"
       ry="7.8287001"
       height="14.647"
       width="37.881001"
       stroke-dasharray="1, 2"
       y="127.04"
       x="108.09"
       style="fill:#ff6600" />
    <rect
       id="rect1900"
       transform="rotate(44.49)"
       rx="10.376"
       ry="6.9960999"
       height="15.152"
       width="64.650002"
       stroke-dasharray="1, 2"
       y="6.8154998"
       x="117.04"
       style="fill:#ff6600" />
    <rect
       id="rect1906"
       rx="5.0507998"
       ry="11.112"
       height="13.637"
       width="28.789"
       stroke-dasharray="1, 2"
       y="127.55"
       x="147.5"
       style="fill:#ff6600" />
    <rect
       id="rect1910"
       rx="1.5152"
       ry="9.5964003"
       height="9.5964003"
       width="45.962002"
       stroke-dasharray="1, 2"
       y="132.07001"
       x="193.77"
       style="fill:#ff6600" />
    <rect
       id="rect1912"
       rx="1.5152"
       ry="9.5964003"
       height="17.422001"
       width="18.183001"
       stroke-dasharray="1, 2"
       y="118.94"
       x="208.5"
       style="fill:#ff6600" />
    <rect
       id="rect1914"
       rx="1.5152"
       ry="9.5964003"
       height="69.700996"
       width="10.607"
       stroke-dasharray="1, 2"
       y="63.661999"
       x="179.75"
       style="fill:#ff6600" />
    <path
       id="path1938"
       d="m 187.83,70.816 59.28,16.163 V 118.8 l -58.77,8.58 z"
       stroke="#000"
       stroke-width="1px"
       fill-rule="evenodd"
       style="fill:#ff6600"
       inkscape:connector-curvature="0" />
    <rect
       id="rect2827"
       rx="1.5152"
       ry="9.5964003"
       height="11.112"
       width="66.669998"
       stroke-dasharray="1, 2"
       y="205.87"
       x="42.910999"
       style="fill:#ff6600" />
    <rect
       id="rect2829"
       rx="1.5152"
       ry="9.5964003"
       height="60.104"
       width="11.617"
       stroke-dasharray="1, 2"
       y="211.42999"
       x="70.225998"
       style="fill:#ff6600" />
  </g>
  <metadata
     id="metadata25">
    <rdf:RDF>
      <cc:Work>
        <dc:format>image/svg+xml</dc:format>
        <dc:type
           rdf:resource="http://purl.org/dc/dcmitype/StillImage" />
        <cc:license
           rdf:resource="http://creativecommons.org/publicdomain/zero/1.0/" />
        <dc:publisher>
          <cc:Agent
             rdf:about="http://openclipart.org/">
            <dc:title>Openclipart</dc:title>
          </cc:Agent>
        </dc:publisher>
        <dc:title>LAN-Party pictogram</dc:title>
        <dc:date>2008-05-23T12:18:33</dc:date>
        <dc:description>A pictogram of a LAN-Party.</dc:description>
        <dc:source>http://openclipart.org/detail/16905/lan-party-pictogram-by-katzenbaer</dc:source>
        <dc:creator>
          <cc:Agent>
            <dc:title>Katzenbaer</dc:title>
          </cc:Agent>
        </dc:creator>
        <dc:subject>
          <rdf:Bag>
            <rdf:li>clip art</rdf:li>
            <rdf:li>clipart</rdf:li>
            <rdf:li>computer</rdf:li>
            <rdf:li>icon</rdf:li>
            <rdf:li>image</rdf:li>
            <rdf:li>line art</rdf:li>
            <rdf:li>media</rdf:li>
            <rdf:li>people</rdf:li>
            <rdf:li>public domain</rdf:li>
            <rdf:li>sign</rdf:li>
            <rdf:li>svg</rdf:li>
            <rdf:li>symbol</rdf:li>
          </rdf:Bag>
        </dc:subject>
      </cc:Work>
      <cc:License
         rdf:about="http://creativecommons.org/publicdomain/zero/1.0/">
        <cc:permits
           rdf:resource="http://creativecommons.org/ns#Reproduction" />
        <cc:permits
           rdf:resource="http://creativecommons.org/ns#Distribution" />
        <cc:permits
           rdf:resource="http://creativecommons.org/ns#DerivativeWorks" />
      </cc:License>
    </rdf:RDF>
  </metadata>
  <rect
     style="fill:#ff6600;stroke-width:0.380998"
     id="rect38"
     width="33.990498"
     height="1.8495208"
     x="92.067268"
     y="18.104548"
     ry="0.33291376"
     transform="matrix(0.96644722,0.25686527,-0.28049828,0.95985453,0,0)" />
  <path
     style="fill:#ff6600;stroke-width:0.127082"
     d="m 83.886929,60.550958 c -0.0448,-6.521206 -0.11681,-13.154256 -0.15996,-14.740112 -0.0782,-2.875905 -0.0778,-2.883195 0.18585,-2.814259 0.19792,0.05176 0.28134,0.201397 0.33218,0.595904 0.0373,0.289734 0.0828,6.741095 0.1011,14.336355 0.0183,7.595263 0.0639,13.840183 0.10128,13.877602 0.0684,0.06842 31.998211,-4.557648 32.089831,-4.649259 0.027,-0.02696 0.0558,-3.96341 0.064,-8.747666 l 0.015,-8.698649 -0.61451,-0.22237 c -0.59864,-0.216631 -0.60185,-0.220516 -0.12438,-0.150549 0.26957,0.0395 0.62699,0.123856 0.79426,0.187455 l 0.30414,0.115632 v 8.956644 8.956643 l -0.41302,0.07149 c -0.38537,0.0667 -16.15599,2.365568 -27.100161,3.950359 -2.65601,0.384609 -4.97873,0.729041 -5.16162,0.765404 l -0.33252,0.06612 z"
     id="path40"
     inkscape:connector-curvature="0" />
  <path
     style="fill:#ff6600;stroke-width:0.127082"
     d="m 80.118519,75.184098 c -0.0768,-0.14344 -0.23273,-0.64383 -0.34657,-1.11196 -0.18425,-0.75762 -0.21232,-2.60384 -0.25545,-16.799906 -0.0494,-16.253773 -0.006,-18.23921 0.4266,-19.697221 l 0.19055,-0.641662 2.24948,0.03468 2.24947,0.03468 0.16459,0.502737 c 0.18891,0.577041 0.4862,3.083402 0.37851,3.191097 -0.0618,0.06183 -0.58621,-0.04258 -1.40002,-0.278757 -0.19801,-0.05746 -0.22134,0.03743 -0.21273,0.865365 0.009,0.863624 0.0203,0.900867 0.15885,0.522492 0.0821,-0.224078 0.20637,-0.463575 0.27627,-0.532215 0.0835,-0.08199 5.6846,1.353887 16.329991,4.186297 8.91161,2.371104 16.20292,4.311891 16.20292,4.312859 0,5.465216 -0.0891,17.225798 -0.13086,17.267532 -0.087,0.08696 -31.756671,4.700666 -31.825081,4.636335 -0.0321,-0.03022 -0.0932,-3.812515 -0.13561,-8.40509 l -0.0772,-8.350138 -0.0213,8.323849 c -0.0117,4.578116 0.0229,8.393376 0.0769,8.478356 0.11027,0.173531 -0.16068,0.208477 12.60609,-1.625923 10.101571,-1.451449 19.067301,-2.776013 19.327491,-2.855375 0.17868,-0.0545 0.21132,-0.71636 0.28593,-5.799061 0.0463,-3.155647 0.0842,-7.100634 0.0842,-8.766638 0,-1.934678 0.0459,-3.029097 0.12709,-3.029097 0.20415,0 0.1725,17.783666 -0.0318,17.854462 -0.11526,0.03994 -28.363261,4.18172 -32.263631,4.730554 l -0.46145,0.06493 -0.0765,-4.621415 c -0.0421,-2.54178 -0.11091,-9.135886 -0.15293,-14.65357 -0.0693,-9.104222 -0.058,-10.016846 0.12297,-9.866686 0.17064,0.141618 0.20454,0.671706 0.23523,3.678068 l 0.0358,3.512604 0.0297,-3.656743 0.0297,-3.656743 -0.32598,-0.123936 c -0.17929,-0.06817 -0.35154,-0.123937 -0.3828,-0.123937 -0.0312,0 -0.0274,1.701306 0.009,3.78068 0.0922,5.320746 0.1883,16.176758 0.19019,21.477911 l 0.002,4.480738 0.6937,-0.08153 0.6937,-0.08153 -0.0641,0.493435 c -0.15807,1.216052 -0.34051,2.040272 -0.5101,2.304352 -0.17819,0.27748 -0.24535,0.28593 -2.27306,0.28593 -1.97713,0 -2.09695,-0.014 -2.22903,-0.26081 z"
     id="path42"
     inkscape:connector-curvature="0" />
  <path
     style="fill:#ff6600;stroke-width:0.127082"
     d="m 80.118519,75.184098 c -0.0768,-0.14344 -0.23273,-0.64383 -0.34657,-1.11196 -0.18425,-0.75762 -0.21232,-2.60384 -0.25545,-16.799906 -0.0494,-16.253773 -0.006,-18.23921 0.4266,-19.697221 l 0.19055,-0.641662 2.24948,0.03468 2.24947,0.03468 0.16459,0.502737 c 0.18891,0.577041 0.4862,3.083402 0.37851,3.191097 -0.0618,0.06183 -0.58621,-0.04258 -1.40002,-0.278757 -0.19676,-0.0571 -0.22169,0.03532 -0.21629,0.801824 l 0.006,0.866365 0.22157,-0.444786 c 0.15213,-0.305388 0.29957,-0.436612 0.47046,-0.418705 0.19243,0.02016 31.256851,8.241888 32.082831,8.491263 0.16713,0.05046 0.18942,1.118951 0.18081,8.668893 -0.008,7.212375 0.004,7.878435 0.0782,4.099942 0.0484,-2.48127 0.0957,-6.384265 0.10513,-8.673323 0.011,-2.678514 0.0624,-4.161925 0.14416,-4.161925 0.20414,0 0.1725,17.783551 -0.0318,17.854865 -0.0874,0.0305 -3.10397,0.484176 -6.70356,1.008167 -3.59958,0.523991 -10.908081,1.590438 -16.241091,2.369883 -5.33301,0.779444 -9.7202,1.393351 -9.74931,1.364235 -0.0743,-0.07426 -0.1704,-7.062816 -0.26181,-19.03277 -0.071,-9.297041 -0.0599,-10.208915 0.12215,-10.05781 0.16769,0.139174 0.20626,0.582086 0.23737,2.726163 l 0.0371,2.559991 0.029,-2.70363 0.029,-2.703631 -0.33533,-0.127492 c -0.18443,-0.07012 -0.34863,-0.111595 -0.36488,-0.09217 -0.0162,0.01943 0.0167,4.410112 0.0732,9.757073 0.0565,5.346961 0.10633,12.024013 0.11071,14.837894 l 0.008,5.116147 0.70334,-0.08266 0.70333,-0.08266 -0.0784,0.55811 c -0.37642,2.681449 -0.20703,2.527879 -2.78822,2.527879 -1.97712,0 -2.09695,-0.014 -2.22902,-0.26081 z m 4.49069,-3.456327 c -0.0566,-0.08737 -0.13448,-3.561463 -0.17318,-7.720211 l -0.0704,-7.561358 -0.025,7.32308 c -0.0243,7.130947 0.006,8.117341 0.2526,8.117341 0.0653,0 0.0724,-0.07148 0.0159,-0.158852 z m 10.58645,-1.369635 c 15.550421,-2.230344 21.071991,-3.062118 21.208231,-3.194821 0.083,-0.08081 0.0168,-0.09909 -0.19062,-0.05268 -0.17474,0.03911 -4.46374,0.67429 -9.53112,1.41152 -16.145901,2.348992 -21.930431,3.213197 -21.589481,3.225449 0.18266,0.0066 4.72901,-0.618698 10.10299,-1.389471 z"
     id="path44"
     inkscape:connector-curvature="0" />
  <path
     style="fill:#ff6600;stroke-width:0.127082"
     d="m 99.565569,45.123344 c -11.79674,-3.148797 -15.4929,-4.090678 -15.66281,-3.991309 -0.19097,0.111685 -0.22239,0.07701 -0.22239,-0.245411 v -0.375471 l 0.60363,0.17556 c 0.33201,0.09656 7.35168,2.011947 15.59928,4.256419 8.247601,2.244472 15.138601,4.130816 15.313331,4.191874 1.47655,0.515952 -2.29601,-0.452265 -15.631041,-4.011662 z"
     id="path46"
     inkscape:connector-curvature="0" />
  <path
     style="fill:#ff6600;stroke-width:0.0537075"
     d=""
     id="path48"
     inkscape:connector-curvature="0" />
  <path
     style="fill:#ff6600;stroke-width:0.0537075"
     d="m 80.158679,75.340648 c -0.22938,-0.22938 -0.46984,-1.32831 -0.60667,-2.772498 -0.10522,-1.110605 -0.10472,-31.633888 5.4e-4,-32.815269 0.12597,-1.413765 0.36112,-2.528951 0.58619,-2.779957 0.0787,-0.08781 0.24089,-0.09358 2.26452,-0.08056 l 2.17972,0.01402 0.11924,0.241684 c 0.14939,0.302812 0.25863,0.734055 0.36054,1.423248 0.0877,0.593051 0.2218,2.216524 0.18605,2.252276 -0.0125,0.01245 -0.3607,-0.07152 -0.77389,-0.186609 -0.41319,-0.115084 -0.78147,-0.210036 -0.81839,-0.211002 -0.074,-0.0019 -0.0872,0.716114 -0.0222,1.206028 l 0.0356,0.267905 0.0962,-0.306591 c 0.0529,-0.168625 0.13545,-0.345812 0.18339,-0.393748 0.0804,-0.0804 0.075,-0.08573 -0.0694,-0.06873 -0.15561,0.01832 -0.15663,0.01658 -0.17279,-0.295306 -0.009,-0.17677 0.005,-0.30068 0.0321,-0.283831 0.0266,0.01645 6.92119,1.905083 15.32128,4.196968 8.400091,2.291885 15.283691,4.177858 15.296881,4.19105 0.0132,0.01319 -0.0105,0.02398 -0.0526,0.02398 -0.11991,0 -4.86911,-1.246054 -14.09327,-3.69767 -11.567981,-3.074564 -15.171371,-4.009683 -15.293721,-3.968897 -0.0259,0.0086 2.885,0.794967 6.46863,1.747426 3.58362,0.952457 10.692951,2.84194 15.798501,4.19885 5.10555,1.35691 9.31689,2.495381 9.35853,2.529937 0.0596,0.04943 0.0757,0.04518 0.0757,-0.01993 0,-0.05426 -0.12486,-0.124995 -0.36252,-0.205388 -0.20176,-0.06825 -0.32048,-0.131549 -0.26772,-0.142744 0.11001,-0.02334 0.88951,0.198164 0.93044,0.264392 0.0313,0.05065 0.037,17.826072 0.006,17.857349 -0.0242,0.02422 -5.94323,0.894383 -18.232851,2.680456 -10.9443,1.590554 -13.69112,1.993448 -14.23256,2.087581 -0.22775,0.03959 -0.42616,0.06085 -0.44094,0.04724 -0.0148,-0.01361 -0.0433,-2.578551 -0.0634,-5.699864 -0.0598,-9.288893 -0.14916,-18.183441 -0.20943,-20.848099 -0.0643,-2.842073 -0.0525,-2.959005 0.27118,-2.696888 0.0647,0.05241 0.13742,0.179288 0.16158,0.281964 0.0417,0.177326 0.0442,0.172654 0.0494,-0.0932 l 0.005,-0.279883 -0.27768,-0.08246 c -0.15271,-0.04535 -0.28884,-0.07129 -0.30249,-0.05764 -0.0304,0.03037 0.23338,29.560998 0.26429,29.591909 0.0121,0.0121 0.29368,-0.01648 0.62573,-0.06352 0.33204,-0.04704 0.61929,-0.06995 0.63834,-0.0509 0.10139,0.101381 -0.24575,2.299971 -0.43102,2.729891 -0.16817,0.39024 -0.0238,0.36787 -2.37392,0.36787 -2.00007,0 -2.12321,-0.006 -2.21846,-0.10085 z m 4.28777,-9.328932 c -0.0304,-3.158418 -0.0628,-6.262198 -0.072,-6.897289 -0.009,-0.635091 -0.009,1.902587 -5e-5,5.639285 0.0148,6.033374 0.0311,7.096786 0.10761,7.02026 0.0108,-0.01082 -0.005,-2.603839 -0.0356,-5.762256 z m 3.54331,5.345051 c 4.3245,-0.603348 15.689831,-2.244961 22.131131,-3.196628 4.89724,-0.72354 6.25313,-0.938037 6.31062,-0.99831 0.0372,-0.03895 0.004,-0.04671 -0.10741,-0.02519 -0.0886,0.01712 -3.82263,0.564491 -8.2978,1.216392 -16.833561,2.452152 -22.765001,3.320548 -22.879391,3.349676 -0.31668,0.08063 0.48178,-0.01653 2.84285,-0.345944 z M 116.60914,56.91242 c 0.002,-3.803224 -0.0173,-6.693483 -0.0434,-6.632873 -0.0254,0.05908 -0.0438,3.345976 -0.0409,7.304217 0.003,3.958241 0.0224,6.943034 0.0434,6.632873 0.0209,-0.310161 0.0394,-3.597058 0.0409,-7.304217 z M 84.810119,41.251096 c -0.0178,-0.01785 -0.0642,-0.01975 -0.10294,-0.0043 -0.0428,0.01714 -0.0301,0.02987 0.0325,0.03245 0.0566,0.0023 0.0883,-0.01036 0.0705,-0.02821 z"
     id="path50"
     inkscape:connector-curvature="0" />
  <path
     style="fill:#ff6600;stroke-width:0.0537075"
     d="m 80.217809,75.405448 c -0.23772,-0.0956 -0.48005,-1.09144 -0.66427,-2.729883 -0.0908,-0.807538 -0.13513,-30.389907 -0.048,-32.055524 0.0937,-1.791437 0.32982,-3.235648 0.58528,-3.579387 l 0.0998,-0.134269 h 2.19621 2.1962 l 0.11924,0.241684 c 0.14838,0.300752 0.2599,0.735123 0.3595,1.400156 0.0842,0.562204 0.22252,2.23995 0.18755,2.274903 -0.012,0.01198 -0.37004,-0.07191 -0.79568,-0.186441 -0.42564,-0.114526 -0.7942,-0.19567 -0.81904,-0.180322 -0.0524,0.03238 -0.0512,0.719063 0.002,1.149424 l 0.0365,0.295392 0.076,-0.283029 c 0.0418,-0.155665 0.12257,-0.332997 0.17947,-0.394069 0.10304,-0.110594 0.10283,-0.110969 -0.0507,-0.09292 -0.15226,0.0179 -0.15435,0.01436 -0.17017,-0.28765 l -0.016,-0.305767 0.36511,0.106128 c 0.20082,0.05837 6.87849,1.884535 14.83928,4.058142 7.960791,2.173608 14.701881,4.014265 14.980201,4.090351 0.27832,0.07609 0.4785,0.147516 0.44485,0.158733 -0.0821,0.02737 -3.23003,-0.79312 -13.00821,-3.390534 -12.847971,-3.412851 -15.849341,-4.194577 -15.961351,-4.157242 -0.0314,0.01048 0.36283,0.130666 0.87613,0.267082 0.51331,0.136416 7.49501,1.990151 15.514871,4.119412 8.01987,2.12926 14.64805,3.906671 14.72928,3.949803 0.1139,0.06048 0.14769,0.06283 0.14769,0.01029 0,-0.03747 -0.16313,-0.126205 -0.36252,-0.197184 -0.20231,-0.07202 -0.32062,-0.137557 -0.26771,-0.148297 0.11077,-0.02248 0.88987,0.199632 0.93044,0.265262 0.0302,0.04888 0.0375,17.825494 0.007,17.855669 -0.033,0.03296 -3.86555,0.596717 -19.883961,2.924835 -11.72718,1.70443 -12.76322,1.857243 -12.92283,1.90608 -0.0658,0.02014 -0.0948,-0.02235 -0.12025,-0.17618 -0.0184,-0.111498 -0.0339,-1.326553 -0.0343,-2.700122 -10e-4,-3.838778 -0.0976,-15.018718 -0.17373,-20.167157 -0.0856,-5.793286 -0.0859,-6.180399 -0.004,-6.26229 0.0963,-0.09617 0.32403,0.0736 0.38583,0.287612 0.0495,0.171271 0.0504,0.169949 0.0552,-0.0768 l 0.005,-0.25107 -0.28002,-0.08208 c -0.154,-0.04514 -0.29001,-0.07207 -0.30224,-0.05984 -0.0274,0.02744 0.1939,25.999696 0.23954,28.106269 0.0329,1.518073 0.0332,1.521432 0.14755,1.494879 0.27802,-0.06456 1.11371,-0.155403 1.14469,-0.124426 0.0475,0.04753 -0.0775,1.187587 -0.20077,1.830887 -0.12745,0.66498 -0.23719,1.00021 -0.37638,1.1496 -0.10726,0.11514 -0.12284,0.11592 -2.21395,0.11171 -1.15826,-0.002 -2.13678,-0.0166 -2.1745,-0.0318 z m 4.22869,-9.285849 c -0.0299,-3.099597 -0.0625,-5.937736 -0.0726,-6.306975 -0.01,-0.369239 -0.01,2.08385 0.001,5.451309 0.017,5.423109 0.0361,6.581135 0.10717,6.510033 0.0103,-0.0103 -0.006,-2.554769 -0.0356,-5.654367 z m 0.92969,5.580856 c -0.0364,-0.01471 -0.10887,-0.01561 -0.16112,-0.002 -0.0522,0.01362 -0.0225,0.02565 0.0661,0.02675 0.0886,0.0011 0.13137,-0.01005 0.095,-0.02476 z m 5.24888,-0.725632 c 1.81666,-0.2619 3.33323,-0.479811 3.37015,-0.484248 0.0369,-0.0044 0.0671,-0.03083 0.0671,-0.05864 0,-0.02782 -0.0544,-0.03838 -0.12084,-0.02347 -0.0665,0.01491 -1.68572,0.253169 -3.59835,0.52947 -1.91263,0.276301 -3.47754,0.518193 -3.47756,0.537536 -6e-5,0.04357 -0.20149,0.0704 3.75947,-0.500639 z m 3.93408,-0.553748 c 0.14031,-0.01907 0.25511,-0.05478 0.25511,-0.07937 0,-0.02459 -0.0982,-0.02264 -0.21827,0.0043 -0.12005,0.02698 -0.23922,0.03609 -0.26483,0.02027 -0.0256,-0.01582 -0.062,-0.0038 -0.0808,0.02669 -0.0188,0.0305 -0.0568,0.04156 -0.0843,0.02456 -0.0275,-0.017 -0.05,-0.0037 -0.05,0.0296 0,0.03327 0.0423,0.04882 0.094,0.03454 0.0517,-0.01427 0.20879,-0.04156 0.3491,-0.06062 z m 1.02044,-0.134902 c 0.0517,-3.22e-4 0.094,-0.02036 0.094,-0.04452 0,-0.06956 -0.50311,-0.01025 -0.57581,0.06787 -0.023,0.02473 0.0548,0.02972 0.173,0.01109 0.11816,-0.01863 0.25713,-0.03413 0.30882,-0.03445 z m 0.78107,-0.135106 c 0.0649,-0.05501 -0.16382,-0.05162 -0.33799,0.005 l -0.21482,0.06985 0.26853,-0.03076 c 0.1477,-0.01692 0.27562,-0.03676 0.28428,-0.0441 z m 0.22595,-0.112915 c 0,-0.01161 -0.0362,-0.02111 -0.0806,-0.02111 -0.0443,0 -0.0806,0.02341 -0.0806,0.05202 0,0.02861 0.0362,0.03811 0.0806,0.02111 0.0443,-0.01701 0.0806,-0.04041 0.0806,-0.05202 z m 0.21482,0.02633 c 0,-0.03495 0.0482,-0.04735 0.1156,-0.02974 0.11961,0.03127 3.220321,-0.389804 3.267971,-0.443795 0.0148,-0.01673 0.0752,-0.03876 0.13427,-0.04895 0.17434,-0.03008 0.16512,-0.06203 -0.0179,-0.06203 -0.0935,0 -0.17007,0.02014 -0.17007,0.04476 0,0.02462 -0.0785,0.04605 -0.174551,0.04762 -0.096,0.0016 -0.25914,0.01911 -0.36253,0.03896 -0.10338,0.01985 -0.27256,0.0449 -0.37595,0.05564 -0.10339,0.01075 -0.30882,0.03414 -0.45651,0.05197 -0.23954,0.02893 -0.3732,0.04887 -0.7519,0.112188 -0.0591,0.0099 -0.19201,0.03115 -0.2954,0.04726 -0.10339,0.01612 -0.2484,0.04336 -0.32225,0.06054 -0.0738,0.01718 -0.23093,0.03626 -0.34909,0.0424 -0.22457,0.01167 -0.52477,0.13822 -0.33568,0.141506 0.0517,8.86e-4 0.094,-0.02535 0.094,-0.05834 z m 4.028061,-0.617118 c 0,-0.01161 -0.0785,-0.01941 -0.17454,-0.01733 -0.14214,0.003 -0.15461,0.01167 -0.0671,0.04628 0.0984,0.03893 0.24168,0.02177 0.24168,-0.02894 z m 0.63182,-0.05063 c 0.18456,0.02646 0.18809,0.02467 0.044,-0.02231 -0.18444,-0.06015 -0.70905,-0.0077 -0.53925,0.05391 0.0578,0.02098 0.14775,0.01598 0.19985,-0.01112 0.0521,-0.02709 0.18503,-0.03631 0.29539,-0.02048 z m 0.44234,-0.07789 c -0.0443,-0.02864 -0.14099,-0.05003 -0.21484,-0.04753 l -0.13427,0.0045 0.13427,0.043 c 0.0739,0.02365 0.17053,0.04504 0.21484,0.04753 0.0716,0.004 0.0716,-0.0013 0,-0.04753 z m 0.48336,-0.0478 c 0,-0.0263 0.0875,-0.03602 0.19439,-0.02161 0.14682,0.01979 0.18419,0.0097 0.15272,-0.04122 -0.0298,-0.04834 -0.0106,-0.05928 0.0682,-0.03868 0.0604,0.0158 0.14275,0.0079 0.18295,-0.01757 0.0499,-0.03158 0.0186,-0.04656 -0.0983,-0.04713 -0.0943,-4.29e-4 -0.18383,0.01932 -0.19904,0.04393 -0.0152,0.02462 -0.10123,0.03395 -0.19115,0.02076 -0.10287,-0.0151 -0.16349,-6.65e-4 -0.16349,0.03898 0,0.03464 -0.0225,0.04907 -0.05,0.03207 -0.0275,-0.017 -0.0652,-0.0063 -0.0837,0.02368 -0.0187,0.03022 0.0156,0.05458 0.0769,0.05458 0.0608,0 0.11059,-0.02151 0.11059,-0.0478 z m 3.11504,-0.439561 c 0.98956,-0.147448 1.88379,-0.280776 1.98717,-0.296287 0.10339,-0.01551 0.2484,-0.03552 0.32225,-0.04446 0.7416,-0.0898 2.2884,-0.326003 2.30942,-0.352664 0.0148,-0.01873 0.1477,-0.04021 0.29539,-0.04773 0.24389,-0.01242 3.64548,-0.507728 5.20192,-0.757458 0.57024,-0.0915 0.83195,-0.160387 0.62087,-0.163433 -0.20916,-0.003 -13.14176,1.908851 -13.09745,1.936238 0.0845,0.05225 0.46992,0.0075 2.36043,-0.274206 z m 11.11093,-12.053331 c 0.003,-4.213317 -0.0135,-6.470274 -0.0472,-6.418043 -0.033,0.0511 -0.0492,2.603999 -0.0444,6.981972 0.004,3.795776 0.0255,6.683895 0.0472,6.418043 0.0217,-0.265852 0.0417,-3.407739 0.0444,-6.981972 z M 85.239779,41.358511 c -0.0178,-0.01785 -0.0642,-0.01975 -0.10294,-0.0043 -0.0428,0.01714 -0.0301,0.02987 0.0325,0.03245 0.0566,0.0023 0.0883,-0.01036 0.0705,-0.02821 z"
     id="path54"
     inkscape:connector-curvature="0" />
  <path
     style="fill:#ff6600;stroke-width:0.0537075"
     d="m 80.199589,75.387518 c -0.30171,-0.1763 -0.57895,-1.62014 -0.69091,-3.598127 -0.0719,-1.270516 -0.0718,-30.043634 1.2e-4,-31.311458 0.0946,-1.667883 0.3388,-3.11007 0.58198,-3.437279 l 0.0998,-0.134269 h 2.19319 2.1932 l 0.10412,0.178271 c 0.13537,0.231781 0.2804,0.790819 0.38286,1.475743 0.0916,0.612363 0.22284,2.225229 0.1842,2.263862 -0.0137,0.0137 -0.37177,-0.07001 -0.79571,-0.186038 -0.42394,-0.116026 -0.79155,-0.19813 -0.81691,-0.182454 -0.052,0.03213 -0.052,0.636914 -2e-5,1.123167 l 0.0344,0.322245 0.0964,-0.334351 c 0.053,-0.183893 0.13761,-0.359793 0.18798,-0.390888 0.075,-0.04632 0.0625,-0.05383 -0.0695,-0.0416 -0.1603,0.01486 -0.1612,0.01337 -0.17714,-0.290877 l -0.016,-0.305812 0.17715,0.05252 c 0.0974,0.02889 6.89594,1.887594 15.10782,4.130464 15.067631,4.11535 15.475991,4.228183 15.337111,4.237769 -0.13955,0.0096 -3.21285,-0.794426 -14.424081,-3.773738 -8.13209,-2.161048 -10.3159,-2.736656 -12.54446,-3.30647 -1.56394,-0.399882 -1.87843,-0.471082 -1.81782,-0.411547 0.0123,0.01209 6.20948,1.666574 13.77149,3.676632 7.562011,2.010058 14.518761,3.860077 15.459431,4.111153 0.94068,0.251076 1.7482,0.487766 1.79451,0.525978 0.0703,0.058 0.0799,0.05617 0.0584,-0.01108 -0.0142,-0.04431 -0.1777,-0.140152 -0.36337,-0.212985 -0.18567,-0.07283 -0.31023,-0.141541 -0.2768,-0.152684 0.0754,-0.02513 0.56145,0.08897 0.79618,0.186884 l 0.17455,0.07281 0.007,3.799083 c 0.009,4.788797 -0.0128,14.05204 -0.0326,14.073029 -0.0182,0.01929 -8.43786,1.254332 -21.135051,3.100187 -5.21365,0.757936 -9.9869,1.457084 -10.60723,1.553663 -0.62031,0.09658 -1.13993,0.164951 -1.15471,0.151937 -0.0148,-0.01301 -0.0431,-2.480796 -0.0629,-5.483959 -0.0593,-8.978322 -0.15007,-18.015849 -0.20961,-20.87607 -0.0529,-2.544952 -0.0403,-2.979039 0.0868,-2.979039 0.10188,0 0.2582,0.138805 0.32231,0.286193 l 0.0741,0.170321 0.002,-0.226187 c 0.002,-0.221652 -0.002,-0.227358 -0.22615,-0.284616 -0.12554,-0.03213 -0.25847,-0.06856 -0.29539,-0.08095 -0.086,-0.02885 -0.0881,-0.791344 0.0371,13.387747 0.11826,13.38862 0.15343,16.137228 0.20706,16.187046 0.0208,0.0193 0.2553,0.0018 0.52115,-0.03893 0.80067,-0.12262 0.74511,-0.151623 0.70254,0.366741 -0.0948,1.154103 -0.35542,2.323693 -0.56891,2.552843 l -0.11096,0.1191 -2.10592,-0.002 c -1.22075,-9.4e-4 -2.14241,-0.023 -2.19272,-0.0524 z m 4.24646,-9.186641 c -0.0293,-3.026144 -0.0622,-5.635006 -0.0731,-5.797471 -0.0109,-0.162465 -0.009,2.230203 0.004,5.317041 0.021,4.999947 0.0396,6.065557 0.10443,6.000673 0.01,-0.01 -0.006,-2.494099 -0.0351,-5.520243 z m 0.90114,5.502358 c -0.0178,-0.01785 -0.0642,-0.01975 -0.10294,-0.0042 -0.0428,0.01714 -0.0301,0.02987 0.0325,0.03245 0.0566,0.0023 0.0883,-0.01036 0.0705,-0.02821 z m 5.22721,-0.720163 c 1.87741,-0.265463 3.43023,-0.48266 3.45071,-0.48266 0.0205,0 0.0372,-0.02526 0.0372,-0.05614 0,-0.03366 -0.0699,-0.04419 -0.17454,-0.0263 -0.096,0.01641 -1.67299,0.247527 -3.50442,0.513589 -1.83142,0.266062 -3.3782,0.506151 -3.43728,0.533529 -0.0868,0.04024 -0.0765,0.04507 0.0537,0.02521 0.0886,-0.01351 1.69718,-0.241764 3.57459,-0.507227 z m 4.14587,-0.586873 c 0.0517,-0.0018 0.094,-0.02677 0.094,-0.05557 0,-0.0288 -0.0665,-0.0419 -0.1477,-0.0291 -0.0812,0.01279 -0.23832,0.03746 -0.3491,0.0548 -0.11077,0.01734 -0.2014,0.05078 -0.2014,0.07429 0,0.02352 0.1148,0.02386 0.25511,7.75e-4 0.14031,-0.0231 0.29741,-0.04343 0.3491,-0.04519 z m 0.82575,-0.110617 c 0.0702,0 0.12756,-0.02692 0.12756,-0.05981 0,-0.07393 -0.48388,-0.01272 -0.56393,0.07133 -0.0373,0.03913 0.002,0.046 0.12756,0.02243 0.0997,-0.01868 0.23866,-0.03395 0.30881,-0.03395 z m 0.73176,-0.106824 c 0.0517,-3.25e-4 0.094,-0.02476 0.094,-0.0543 0,-0.07204 -0.14247,-0.06143 -0.4028,0.02999 l -0.21483,0.07544 0.21483,-0.02527 c 0.11816,-0.0139 0.25712,-0.02554 0.30881,-0.02586 z m 0.28197,-0.108006 c 0.0183,-0.02954 -0.004,-0.05371 -0.0505,-0.05371 -0.046,0 -0.0837,0.02417 -0.0837,0.05371 0,0.02954 0.0228,0.05371 0.0505,0.05371 0.0278,0 0.0655,-0.02417 0.0837,-0.05371 z m 2.08275,-0.241429 c 0.90919,-0.131103 1.694661,-0.262605 1.745491,-0.292228 0.14017,-0.0817 0.0614,-0.074 -1.323201,0.12939 -2.17877,0.320039 -2.33457,0.346543 -2.39371,0.407219 -0.0418,0.04286 -0.006,0.05016 0.13035,0.02655 0.10339,-0.01791 0.93187,-0.139829 1.84107,-0.270931 z m 2.160141,-0.349353 c 0.0189,-0.03058 -0.0274,-0.05371 -0.10741,-0.05371 -0.0801,0 -0.12632,0.02313 -0.10742,0.05371 0.0183,0.02954 0.0666,0.05371 0.10742,0.05371 0.0408,0 0.0892,-0.02417 0.10741,-0.05371 z m 0.63778,-0.05534 c 0.13361,-0.0013 0.14975,-0.01219 0.0791,-0.05341 -0.10688,-0.0624 -0.58266,-0.006 -0.58266,0.06905 0,0.03085 0.0704,0.03905 0.16784,0.01955 0.0923,-0.01846 0.24336,-0.0343 0.33567,-0.0352 z m 0.49008,-0.105781 c -0.0183,-0.02954 -0.0936,-0.05371 -0.16746,-0.05371 -0.0758,0 -0.11982,0.02338 -0.10108,0.05371 0.0183,0.02954 0.0936,0.05371 0.16746,0.05371 0.0758,0 0.11982,-0.02338 0.10108,-0.05371 z m 0.82022,-0.08618 c 0.36593,-0.05637 0.34784,-0.149154 -0.0204,-0.104955 -0.43063,0.05167 -0.55809,0.08576 -0.55809,0.149222 0,0.0314 0.0728,0.04077 0.17455,0.02247 0.096,-0.01727 0.2778,-0.0473 0.404,-0.06674 z m 0.98372,-0.13798 c 0.26039,-0.03467 0.46391,-0.07845 0.45227,-0.09728 -0.0393,-0.06356 -0.97924,0.03913 -1.02421,0.111891 -0.0384,0.06219 0.003,0.06113 0.57194,-0.01461 z m 2.53293,-0.368979 c 0.67202,-0.0982 1.22185,-0.198262 1.22185,-0.222364 0,-0.06564 -0.0449,-0.06092 -1.62454,0.171009 -0.80476,0.118156 -1.49494,0.21483 -1.53373,0.21483 -0.0388,0 -0.0587,0.01921 -0.0441,0.04269 0.0355,0.05748 0.52486,0.0065 1.98055,-0.206167 z m 3.07476,-0.454818 c 5.5634,-0.820713 7.04413,-1.053724 6.89917,-1.085668 -0.0455,-0.01004 -1.9911,0.26047 -4.32346,0.601124 -2.33235,0.340655 -4.25877,0.619393 -4.28092,0.619421 -0.0222,2.6e-5 -0.0403,0.02696 -0.0403,0.05985 0,0.04062 0.0818,0.04821 0.25511,0.02365 0.14031,-0.01989 0.81098,-0.118157 1.49038,-0.218382 z m 7.27034,-11.589901 c 0.004,-4.170448 -0.011,-6.26239 -0.0467,-6.240325 -0.0354,0.02189 -0.0507,2.296097 -0.045,6.676324 0.005,3.653722 0.0258,6.461868 0.0467,6.240324 0.0209,-0.221543 0.0412,-3.225889 0.045,-6.676323 z"
     id="path56"
     inkscape:connector-curvature="0" />
  <path
     style="fill:#ff6600;stroke-width:0.553918"
     id="path60"
     d="m 82.209539,42.420733 c 0.77642,-0.03708 1.5544,-0.04495 2.33162,-0.03848 0.5532,0.0046 0.36382,-0.05826 0.65683,0.07288 -0.0814,0.02306 -0.19004,0.134209 -0.24417,0.0692 -0.0495,-0.05941 0.25324,-0.168508 0.17877,-0.14775 -0.19095,0.05323 -0.36907,0.148598 -0.54027,0.248522 -0.16951,0.09894 -1.17445,0.428925 -1.02698,0.972351 0.0349,0.128506 0.15666,0.215352 0.23499,0.323028 0.1597,0.127441 0.78243,0.447888 0.67384,0.754449 -0.0312,0.08799 -0.11784,0.146286 -0.1892,0.206467 -0.09,0.07588 -0.48518,0.322073 -0.58583,0.385949 -0.10839,0.101853 -0.217,0.142336 -0.20405,0.30371 0.005,0.0608 0.0931,0.124412 0.0573,0.173792 -0.0222,0.03058 -0.0668,0.03621 -0.096,0.06013 -0.0721,0.05903 -0.13807,0.125265 -0.2071,0.187897 -0.0725,0.132239 -0.18893,0.248642 -0.21759,0.396719 -0.0833,0.430223 0.0994,0.910929 0.23613,1.298112 0.0951,0.26932 0.23862,0.522007 0.31216,0.798009 0.22586,0.847713 0.14614,1.189763 0.12206,2.085083 -0.0461,0.778605 -0.10424,1.654612 -0.12669,2.436022 -0.0235,0.818426 0.0103,1.111663 -0.0455,1.897742 -0.0413,0.581718 -0.0727,0.669423 -0.17511,1.200479 -0.0341,0.120617 -0.0597,0.243958 -0.1023,0.361853 -0.0827,0.229079 -0.56684,0.799778 0.50306,-0.198883 0.0362,-0.03374 -0.0216,-0.09658 -0.0296,-0.145385 -0.0521,-0.317628 -0.0444,-0.313672 -0.0724,-0.653328 -0.0514,-1.034779 -0.0634,-2.071157 -0.0833,-3.106939 -0.008,-1.025742 -0.04,-2.052145 -0.004,-3.077785 0.008,-0.234855 0.024,-0.469382 0.0361,-0.704073 0.0757,-1.119022 0.25838,-2.225297 0.48275,-3.322835 0.0845,-0.438353 0.21148,-0.866472 0.31367,-1.300684 0.0254,-0.125834 0.059,-0.25116 0.0564,-0.380254 -0.0215,-0.186972 -0.0928,-0.36299 -0.15067,-0.540733 -0.0618,-0.185142 -0.0927,-0.378416 -0.12257,-0.570736 -0.0593,-0.324671 -0.0875,-0.653404 -0.10309,-0.982698 -0.0182,-0.291152 -0.0113,-0.581438 0.0172,-0.871465 0.007,-0.06363 0.0118,-0.135574 0.0447,-0.193159 0.0162,-0.02825 0.0436,-0.02442 0.0345,-0.01888 -0.21874,0.132069 -0.4403,0.259406 -0.66044,0.389108 0.13877,0.02542 0.27132,0.07641 0.40605,0.117198 0.0799,0.02087 0.1499,0.0652 0.22481,0.09791 0.0332,0.02285 0.0749,0.01296 0.10989,0.02334 0.0493,0.02709 0.10439,0.03767 0.15935,0.04598 1.43339,-0.300193 0.71106,-0.456289 0.41983,-0.508274 -0.19821,-0.04205 -0.39831,-0.07254 -0.59937,-0.09689 -0.0566,-0.02103 -0.16496,0.01282 -0.21011,-0.03836 -0.0487,-0.09583 -0.0669,-0.204566 -0.0864,-0.309396 -0.0556,-0.354885 -0.005,-0.321346 -0.73068,0.296929 -0.0459,0.03912 0.008,0.120292 0.0115,0.180509 0.006,0.121858 0.0105,0.243793 0.0157,0.36569 0.0371,1.217865 0.0688,2.435974 0.12543,3.653128 0.0535,1.118853 0.0932,2.238198 0.10298,3.358285 -0.0131,1.587807 -0.0883,3.174137 -0.13994,4.760923 -0.0447,1.372261 -0.0396,1.294273 -0.0695,2.64001 -0.0405,1.764731 0.0889,3.524965 0.20885,5.28387 0.0618,0.757485 0.0513,1.519841 0.11545,2.277002 0.11417,0.595041 0.23753,1.187952 0.3425,1.784877 0.0569,0.317248 0.10138,0.636713 0.16216,0.953288 0.0152,0.0792 0.0306,0.158438 0.0498,0.236776 0.0108,0.04423 -0.002,0.147374 0.0402,0.130577 0.26563,-0.105415 0.49103,-0.292535 0.73653,-0.438802 -0.0191,-0.133081 -0.0359,-0.266515 -0.0573,-0.399241 -0.1094,-0.677256 -0.1535,-0.829807 -0.26548,-1.561177 -0.11964,-0.781304 -0.21363,-1.466007 -0.25554,-2.259289 -0.0217,-0.410624 -0.0153,-0.822249 -0.023,-1.233374 0.007,-1.007122 0.0787,-2.01248 0.19281,-3.012734 0.0494,-0.432298 0.10303,-0.866896 0.20494,-1.290389 -0.23887,0.128223 -0.51421,0.204301 -0.71661,0.38467 -0.0722,0.06433 -0.0217,0.192277 -0.0378,0.287617 -0.0262,0.154705 -0.0573,0.308573 -0.0892,0.462203 -0.14127,0.680123 -0.31692,1.348939 -0.50069,2.018558 -0.0521,0.176896 -0.23951,0.842659 -0.33011,1.05168 -0.033,0.07612 -0.20742,0.248033 -0.13374,0.209901 0.2221,-0.114944 0.45551,-0.246556 0.59956,-0.450979 0.0602,-0.08546 -0.05,-0.203334 -0.0656,-0.30671 -0.0214,-0.141904 -0.0303,-0.285429 -0.0455,-0.428144 -0.0176,-0.322396 -0.0336,-0.466925 -0.023,-0.777126 5.6e-4,-0.01819 0.008,-0.279599 0.0522,-0.337398 0.0112,-0.01477 0.0369,-0.0038 0.0554,-0.0057 0.0177,-0.02705 0.0354,-0.05411 0.0532,-0.08116 0.16222,-0.403509 0.22741,-0.838026 0.3524,-1.253028 0.0219,-0.07258 0.15111,-0.239976 0.0804,-0.212725 -0.25438,0.098 -0.45703,0.297252 -0.68555,0.445878 -0.0188,0.37212 -0.055,0.741885 -0.16171,1.100142 -0.0177,0.05951 -0.0354,0.119969 -0.0651,0.174529 -0.0591,0.108714 -0.15276,-0.283889 0.019,0.164056 0.0561,0.224987 0.12175,0.447801 0.16825,0.674961 0.20952,1.023388 0.32504,1.858741 0.45589,2.911395 0.18542,1.491533 0.31833,2.988963 0.45021,4.485913 0.0261,0.324959 0.0518,0.649955 0.0784,0.974879 0.0193,0.235804 0.0391,0.47157 0.0591,0.707305 0.0125,0.146707 0.0212,0.293829 0.0387,0.440019 0.005,0.04118 -0.008,0.140442 0.0286,0.121104 0.82311,-0.433723 0.73487,-0.279924 0.68479,-0.864398 -0.0172,-0.188671 -0.0362,-0.377174 -0.0515,-0.566012 -0.0536,-0.666201 -0.0932,-1.334723 -0.11347,-2.002828 -0.004,-0.118971 0.11532,-0.364216 -0.003,-0.357061 -0.28034,0.01688 -0.49369,0.267914 -0.74054,0.401871 -0.0147,0.130878 -0.0263,0.262128 -0.044,0.392633 -0.0197,0.145724 -0.15523,1.022376 -0.18295,1.152049 -0.0273,0.127572 -0.0598,0.255061 -0.10899,0.375879 -0.0202,0.04968 -0.14339,0.154893 -0.0965,0.128764 0.22427,-0.125081 0.42567,-0.287356 0.63851,-0.431034 -0.0271,-0.03579 -0.0402,-0.08913 -0.0812,-0.107367 -0.0504,-0.02241 -0.1181,-0.03071 -0.16536,-0.0023 -0.29497,0.177182 -0.58141,0.373828 -0.83687,0.604348 -0.09,0.08124 -0.11368,0.214828 -0.18199,0.315031 -0.16916,0.248146 -0.79517,0.565694 0.55971,-0.300573 0.0724,-0.291379 0.0948,-0.621832 0.2752,-0.874634 0.0224,-0.0314 0.12718,-0.08739 0.0949,-0.06623 -0.92795,0.608789 -0.84204,0.530773 0.097,0.04203 0.008,-0.522734 0.0956,-1.046038 0.0733,-1.56954 -0.006,-0.1235 -0.006,-0.255112 -0.0615,-0.365709 -0.0285,-0.05711 -0.1087,-0.117757 -0.16746,-0.09285 -0.31325,0.132762 -0.58039,0.355194 -0.87058,0.532791 0.32116,-0.174293 -0.42477,0.417177 -0.28875,0.350658 0.22868,-0.111832 0.43565,-0.263525 0.65628,-0.390507 0.0297,-0.01708 0.0728,-0.0145 0.094,-0.04133 0.0432,-0.05455 0.0579,-0.126625 0.0886,-0.189081 0.0346,-0.07037 0.0716,-0.139562 0.10737,-0.209342 0.0298,-0.05266 0.0557,-0.107691 0.0893,-0.157971 0.0108,-0.01608 0.0284,-0.02623 0.0427,-0.03935 -0.2441,0.124977 -0.50281,0.224808 -0.73229,0.37493 -0.0392,0.02566 -0.0241,0.09122 -0.0447,0.13333 -0.0188,0.03847 -0.10052,0.138399 -0.0724,0.106132 0.23338,-0.267556 0.45907,-0.541733 0.6886,-0.812599 -0.0594,-2.544256 0.12049,-5.087782 0.0688,-7.632081 -0.005,-0.273143 -0.0218,-0.545962 -0.0327,-0.818943 0.002,-0.353797 -0.0761,-0.697237 -0.12761,-1.044248 -0.006,-0.03898 0.0253,-0.133581 -0.0108,-0.117733 -0.7247,0.318316 -0.74314,0.179641 -0.6339,0.494711 0.15143,0.469502 0.26557,0.950052 0.39481,1.426002 0.0542,0.185596 0.0553,0.377241 0.0701,0.567577 0.006,0.07411 0.0149,0.206355 0.085,0.170797 0.26425,-0.133993 0.50307,-0.313095 0.75461,-0.469643 0.0552,-0.10894 0.1416,-0.222475 0.14212,-0.351314 2.1e-4,-0.05444 -0.0251,-0.06471 -0.0445,-0.11044 -0.008,-0.01931 -0.0121,-0.04017 -0.0182,-0.06026 -0.002,-0.0073 -0.0302,-0.166059 -0.0951,-0.125088 -0.25859,0.163344 -0.56287,0.298268 -0.73228,0.55293 -0.0708,0.106362 0.056,0.254232 0.12299,0.36297 0.23525,0.381515 0.77304,0.882 1.06472,1.177076 0.25661,0.246155 0.51321,0.49231 0.76982,0.738466 0,0 0.50719,-0.311203 0.50719,-0.311203 v 0 c -0.24665,-0.251424 -0.4933,-0.502849 -0.73994,-0.754274 -0.31535,-0.349714 -0.74102,-0.759459 -0.9572,-1.200287 -0.0506,-0.103119 0.0467,-0.321671 -0.067,-0.33798 -0.21709,-0.03115 -0.40419,0.171663 -0.61241,0.240515 -0.0161,0.0053 0.01,-0.05619 0.0227,-0.04552 0.0219,0.01778 0.0147,0.05451 0.0221,0.08176 0.008,0.026 0.0134,0.05257 0.0227,0.07798 0.004,0.01239 0.0267,0.04034 0.0251,0.05809 -0.0107,0.119165 -0.0892,0.219416 -0.15356,0.314198 0.20534,-0.09925 0.40709,-0.206277 0.61601,-0.297761 0.0148,-0.0065 -0.0173,0.05259 -0.0273,0.03995 -0.0221,-0.02796 -0.019,-0.06892 -0.0235,-0.104267 -0.0248,-0.193614 -0.0223,-0.391879 -0.0833,-0.580306 -0.14629,-0.473599 -0.26906,-0.953295 -0.38112,-1.436132 -0.11955,-0.38563 -0.0376,-0.298188 -0.74175,0.247792 -0.0312,0.0242 0.0168,0.07723 0.0273,0.115294 0.0604,0.218586 0.0789,0.226984 0.13494,0.483611 0.0358,0.164014 0.0625,0.329871 0.0938,0.494807 0.0326,0.260751 0.0744,0.520507 0.0976,0.782251 0.0845,0.951731 0.10136,1.737082 0.0937,2.709231 -0.009,1.126446 -0.061,2.460417 -0.14627,3.58535 -0.0353,0.466013 -0.0927,0.930091 -0.13907,1.395136 0.21851,0.05922 0.4299,0.158929 0.65552,0.177664 0.0443,0.0037 0.0441,-0.07744 0.0622,-0.118062 0.0223,-0.05002 0.11262,-0.164446 0.059,-0.153381 -0.7101,0.146459 -0.62323,0.115608 -0.80817,0.482007 -0.0369,0.07082 -0.0739,0.141581 -0.11077,0.212451 -0.0341,0.06565 -0.0804,0.126356 -0.10204,0.197097 -0.0203,0.06631 -0.0883,0.226139 -0.0217,0.206923 0.56778,-0.16373 0.6605,-0.376222 0.96593,-0.731245 -0.15487,0.06159 -0.32326,0.09643 -0.46459,0.184769 -0.0447,0.02791 0.12529,-0.03444 0.15784,0.007 0.0698,0.0888 0.0929,0.210615 0.10174,0.323224 0.0164,0.210337 -0.008,0.422212 -0.027,0.632362 -0.047,0.528377 -0.0583,0.513984 -0.1727,0.933766 0.22127,-0.101797 0.88011,-0.193421 0.66381,-0.305391 -0.079,-0.04089 -0.68924,0.08178 -0.81055,0.341861 -0.13639,0.292442 -0.19449,0.61671 -0.28109,0.92513 0.73081,-0.234444 0.58438,-0.02383 0.80459,-0.361716 0.0674,-0.103453 0.30839,-0.25111 0.20064,-0.311416 -0.14421,-0.08071 -0.30812,0.12265 -0.46879,0.161344 -0.0435,0.01049 0.0675,-0.08454 0.1113,-0.07525 0.0447,0.0095 0.05,0.07651 0.0749,0.114763 0.24916,-0.09622 0.51098,-0.164507 0.74745,-0.288674 0.0402,-0.02109 0.036,-0.08385 0.0462,-0.128053 0.0276,-0.119197 0.0457,-0.240415 0.0671,-0.360878 0.093,-0.52219 0.16346,-1.05246 0.33247,-1.557492 -0.21193,0.08398 -0.4742,0.09113 -0.63579,0.25194 -0.0791,0.07875 0.0392,0.220065 0.0498,0.331198 0.0194,0.202216 0.0279,0.405332 0.0403,0.6081 0.0402,0.660103 0.0731,1.320901 0.0781,1.982347 -0.0189,0.526557 -0.13,0.514575 0.65019,0.13881 0.0296,-0.01427 -0.0622,-0.03582 -0.0724,-0.06709 -0.0438,-0.133784 -0.0608,-0.274986 -0.0849,-0.413666 -0.0852,-0.489539 -0.17093,-1.157955 -0.23554,-1.630094 -0.13845,-1.079771 -0.21333,-1.634936 -0.33941,-2.752479 -0.20411,-1.809248 -0.37249,-3.622272 -0.54116,-5.435079 -0.0125,-0.143122 -0.004,-0.116531 0.0282,-0.288741 0.071,-0.378171 0.12228,-0.760016 0.19021,-1.138742 -0.23363,0.08029 -0.48822,0.115147 -0.70088,0.240861 -0.0604,0.03572 -0.0347,0.136008 -0.0518,0.204078 -0.10608,0.422626 -0.19466,0.864029 -0.41508,1.244859 -0.023,0.02275 -0.0498,0.04222 -0.069,0.06827 -0.0505,0.06858 -0.0266,0.335064 -0.0248,0.384234 0.007,0.199933 0.0312,0.589244 0.0419,0.77264 0.0104,0.147434 0.0167,0.295223 0.0312,0.442303 0.0121,0.121761 -0.0727,0.348811 0.0487,0.363829 0.79496,0.09832 0.83306,-0.401619 0.97396,-0.909361 0.0546,-0.196718 0.10687,-0.394068 0.1603,-0.591101 0.18093,-0.679794 0.36407,-1.359028 0.53911,-2.040369 0.0409,-0.159345 0.0788,-0.319487 0.12079,-0.478552 0.027,-0.102064 0.19164,-0.303356 0.0861,-0.304762 -0.25085,-0.0033 -0.46111,0.197798 -0.69165,0.296696 -0.005,0.343884 0.003,0.06529 -0.0409,0.610248 -0.017,0.208739 -0.0334,0.417536 -0.0479,0.626465 -0.0688,0.992525 -0.1228,1.986726 -0.11891,2.982068 0.0175,1.262037 -0.008,1.193904 0.10499,2.437002 0.0866,0.953332 0.13283,1.100602 0.22995,2.006684 0.0245,0.22917 0.0516,0.458415 0.0621,0.688657 0.006,0.130984 -0.008,0.262107 -0.0126,0.393161 0.22017,-0.08949 0.4589,-0.142611 0.66048,-0.26848 0.0347,-0.02167 -0.0411,-0.07142 -0.0538,-0.110293 -0.12335,-0.375741 -0.14592,-0.792063 -0.22768,-1.177285 -0.10634,-0.598053 -0.22978,-1.193343 -0.31221,-1.795427 -0.10376,-0.740154 -0.13434,-1.487913 -0.19587,-2.232157 -0.14486,-1.737747 -0.3445,-3.473999 -0.31846,-5.221206 0.0144,-1.20253 0.01,-1.408682 0.0547,-2.631112 0.0594,-1.606575 0.16758,-3.210769 0.24538,-4.816445 0.006,-0.257762 0.0157,-0.515467 0.0191,-0.773286 0.0112,-0.870059 -0.0301,-1.739246 -0.0876,-2.607106 -0.0684,-1.220506 -0.13941,-2.443938 -0.0907,-3.666584 0.006,-0.127399 0.0105,-0.254876 0.018,-0.382197 0.004,-0.06302 0.0774,-0.201152 0.0155,-0.188737 -0.83074,0.166654 -0.74217,0.104074 -0.68104,0.433781 0.0257,0.116537 0.044,0.238049 0.0974,0.345763 0.0675,0.08983 0.14999,0.08044 0.25489,0.08538 0.20069,0.01684 0.40101,0.04178 0.59661,0.09129 0.45227,0.08411 0.15765,0.09763 0.8926,-0.405475 0.004,-0.0025 -0.009,-0.0013 -0.0132,-0.002 -0.0479,-0.003 -0.0973,-0.0052 -0.14253,-0.02241 -0.0494,-0.03202 -0.0617,-0.02807 -0.11603,-0.03152 -0.0824,-0.02205 -0.15402,-0.07268 -0.23646,-0.09583 -0.13668,-0.0374 -0.26899,-0.08782 -0.40451,-0.128798 -0.67147,0.343898 -0.74264,0.154933 -0.77322,0.631066 -0.0174,0.291977 -0.0209,0.583792 -0.004,0.876029 0.0189,0.331967 0.0506,0.662463 0.10288,0.991013 0.0275,0.197939 0.0466,0.400635 0.1203,0.588001 0.0591,0.168376 0.12854,0.338557 0.1305,0.519642 -0.01,0.120789 -0.0237,0.241095 -0.0482,0.359926 -0.0847,0.427755 -0.2022,0.848663 -0.26693,1.280505 -0.18361,1.094776 -0.35426,2.193156 -0.42187,3.302419 -0.0162,0.237745 -0.0371,0.475213 -0.0485,0.713235 -0.049,1.026577 0.002,2.056111 -5.6e-4,3.083086 0.002,0.200077 0.005,0.400155 0.007,0.600233 0.003,0.191603 0.007,0.383194 0.01,0.57481 0.006,0.519789 0.001,1.040017 0.0117,1.559736 0.003,0.132495 0.01,0.264875 0.0144,0.397313 0.007,0.123166 0.0283,0.543055 0.0519,0.678633 0.0154,0.08871 -0.0183,0.277662 0.0702,0.260855 0.74948,-0.142402 0.75583,-0.413044 0.86186,-0.950245 0.0722,-0.529324 0.0946,-0.601666 0.11172,-1.179515 0.0312,-1.050716 -0.0261,-0.728049 -0.0128,-1.867026 0.0116,-0.992165 0.0599,-1.438338 0.13257,-2.439068 0.0476,-0.958521 0.13535,-1.226833 -0.0813,-2.133721 -0.14984,-0.627066 -0.64298,-1.39261 -0.45073,-2.076974 0.042,-0.149451 0.17045,-0.259499 0.25568,-0.389248 0.0825,-0.07315 0.27319,-0.197982 0.30992,-0.338053 0.0269,-0.102447 -0.05,-0.05419 -0.0502,-0.138879 -3e-4,-0.112165 0.11786,-0.172489 0.18549,-0.234044 0.21445,-0.140063 0.70481,-0.404281 0.75403,-0.683043 0.0408,-0.230819 -0.22066,-0.400576 -0.3531,-0.507515 -0.11455,-0.09248 -0.23735,-0.174247 -0.35602,-0.26137 -0.0657,-0.09233 -0.16785,-0.16752 -0.19717,-0.276995 -0.0242,-0.09038 0.10885,-0.204558 0.0489,-0.276415 -0.0507,-0.06082 -0.29809,0.09983 -0.23013,0.05915 0.57888,-0.346491 1.40958,-0.411978 1.78086,-1.032895 -0.39978,-0.07672 -0.10558,-0.03518 -0.75348,-0.02991 -0.74187,0.006 -1.48476,0.0012 -2.22571,-0.03848 0,0 -0.64454,0.468284 -0.64454,0.468284 z"
     inkscape:connector-curvature="0" />
  <path
     style="fill:#ff6600;stroke-width:0.553918"
     id="path62"
     d="m 83.063729,72.118346 c 0.26903,-0.0048 0.53816,-0.0047 0.80721,-8.86e-4 0.26548,0.05151 0.18317,0.04155 0.61712,-0.4644 0.0432,-0.05036 -0.13255,0.0069 -0.19888,0.008 -0.0975,0.0016 -0.19503,8.87e-4 -0.29254,-6.5e-5 -0.27401,-0.0027 -0.37947,-0.0074 -0.64969,-0.01595 0.20835,-0.06825 -0.41477,0.02101 -0.34907,-0.07852 0.0352,-0.05333 0.22432,-0.10572 0.18305,-0.05694 -0.0803,0.09493 -0.43443,0.200584 -0.31024,0.207241 0.16865,0.009 0.3096,-0.135175 0.46601,-0.19889 0.15911,-0.06481 0.32028,-0.124429 0.48043,-0.186644 0.51202,-0.199204 1.10194,-0.351783 1.51809,-0.733505 0.0485,-0.04445 -0.10052,-0.09418 -0.16468,-0.108638 -0.0866,-0.01952 -0.5104,0.0387 -0.57915,0.04681 -0.39036,0.0612 -0.61152,0.0649 -0.96603,0.457747 -0.0598,0.06624 0.15983,0.08606 0.24772,0.101428 0.12436,0.02174 0.25241,0.0063 0.37864,0.0081 0.24886,0.0035 0.49776,0.0037 0.74663,0.0058 -0.37755,9.42e-4 0.2957,-0.0046 0.23091,0.03897 -0.0159,0.01067 -0.0354,-0.02211 -0.0542,-0.01872 -0.0648,0.01171 -0.005,0.09292 0.006,0.103643 0.0201,0.01997 0.05,0.02657 0.075,0.03985 0.17911,-0.154525 0.39305,-0.276106 0.53732,-0.463575 0.0352,-0.04572 -0.11516,-0.0073 -0.17279,-0.01013 -0.23543,-0.01141 -0.24476,-0.0066 -0.48574,-0.02491 -0.0836,-0.0064 -0.16816,-0.0073 -0.25055,-0.02294 -0.062,-0.01177 -0.11994,-0.0392 -0.17991,-0.05881 -0.12484,-0.117436 -0.0788,-0.186489 -0.0708,-0.334783 0.002,-0.0405 0.01,-0.08348 -0.004,-0.121596 -0.0366,-0.100651 -0.11294,-0.131154 -0.19456,-0.184363 -0.0896,-0.0659 -0.24071,-0.03946 -0.31631,-0.128316 -0.0523,-0.06151 -0.006,-0.186317 0.008,-0.249019 0.003,-0.01014 0.0571,-0.207321 0.0631,-0.219037 0.007,-0.01472 0.0258,-0.02068 0.0387,-0.03101 -0.2285,0.131005 -0.47134,0.239673 -0.68549,0.393016 -0.024,0.01722 0.0107,0.0582 0.0144,0.08754 0.006,0.04901 0.0101,0.09828 0.0152,0.147418 0.0128,0.173273 0.0185,0.347123 0.0181,0.520866 -9e-5,0.03749 -0.0371,0.126429 -0.002,0.112444 0.76635,-0.308134 0.72392,-0.15195 0.69318,-0.572843 -0.0223,-0.807622 -0.0482,-1.615331 -0.0687,-2.423103 -0.0156,-0.472235 0.078,-0.419927 -0.72766,0.126037 -0.0269,0.01824 0.002,0.06498 0.003,0.09749 10e-4,0.09543 -0.001,0.171124 -0.002,0.266749 -0.002,0.03445 -0.0346,0.120419 -0.004,0.103368 0.23594,-0.134188 0.47044,-0.282492 0.66041,-0.476361 0.0387,-0.03945 -0.0241,-0.107808 -0.0349,-0.16197 -0.0377,-0.189039 -0.0652,-0.378993 -0.0905,-0.569997 0.0189,0.09192 -0.0135,-0.204919 -0.0503,-0.162018 -0.21569,0.25118 -0.4847,0.481162 -0.60004,0.791499 -0.0665,0.178888 0.0665,0.375875 0.0961,0.564416 0.0516,0.328822 0.12856,0.903279 0.174,1.235398 0.0193,0.139782 0.0356,0.280019 0.058,0.419345 0.0691,0.430575 0.0925,0.485821 0.75749,-0.200426 0.0654,-0.0675 -0.023,-0.186585 -0.0321,-0.280137 -0.0243,-0.251005 -0.0426,-0.502553 -0.065,-0.753733 -0.0383,-0.440149 -0.0216,-0.246679 -0.0561,-0.649396 -0.005,-0.06072 -0.0109,-0.121396 -0.0156,-0.182153 -0.002,-0.02559 0.0185,-0.0882 -0.004,-0.07687 -0.74852,0.368198 -0.75548,0.169574 -0.66284,0.544915 0.0126,0.05072 0.0104,0.107659 0.0378,0.152167 0.0178,0.02887 0.058,0.06804 0.0876,0.05162 0.27462,-0.152068 0.54235,-0.323315 0.77785,-0.530872 0.0667,-0.05876 0.0694,-0.16364 0.10335,-0.245755 0.1335,-0.32266 0.0354,-0.2037 0.23222,-0.377691 -0.20094,0.156944 -0.45262,0.264812 -0.60284,0.47083 -0.0521,0.07143 0.0552,0.16831 0.0738,0.254728 0.0478,0.221882 0.075,0.493327 0.0936,0.7186 0.009,0.111137 0.0234,0.222371 0.0213,0.333866 -0.001,0.06539 -0.0209,0.129131 -0.0314,0.193697 0.17821,-0.145659 0.43587,-0.229079 0.53463,-0.436978 0.044,-0.09256 -0.1587,-0.130335 -0.23031,-0.203632 -0.2015,-0.206225 -0.35101,-0.413471 -0.52762,-0.6406 -0.22608,-0.290747 -0.12041,-0.180506 -0.30937,-0.35834 -0.2468,0.134655 -0.51826,0.231652 -0.74041,0.403964 -0.0407,0.03159 0.0117,0.102563 0.0224,0.152993 0.0286,0.135554 0.0949,0.415829 0.18186,0.524121 0.0204,0.02537 0.0555,0.03402 0.0832,0.05103 0.25212,-0.177495 0.53892,-0.313867 0.75634,-0.532484 0.07,-0.07043 0.0433,-0.193891 0.0629,-0.29126 0.0426,-0.211342 0.0832,-0.446368 0.12052,-0.659027 0.0558,-0.317607 0.0213,-0.180892 0.085,-0.400423 0.18847,-0.227285 0.27634,-0.328401 -0.70917,0.405037 -0.0335,0.02491 -0.008,0.08311 -0.0131,0.124478 -0.006,0.04077 -0.008,0.0822 -0.0193,0.121841 -0.006,0.02245 -0.0515,0.07412 -0.0314,0.06237 0.22555,-0.131813 0.4378,-0.285184 0.6567,-0.427776 -0.0884,-0.22785 -0.12548,-0.47031 -0.17607,-0.707996 -0.0111,-0.05241 0.0153,-0.169185 -0.0368,-0.156485 -0.94889,0.231499 -0.76931,0.210312 -0.6337,0.892684 0.31695,1.933649 0.5151,3.883527 0.74812,5.82829 0.0845,0.175178 0.0155,0.400136 0.0896,0.581835 0.01,0.02397 0.0401,0.06198 0.0615,0.04745 0.24319,-0.16493 0.4864,-0.338083 0.6856,-0.554081 0.0447,-0.04847 0.005,-0.131768 0.008,-0.197672 0.002,-0.07248 0.004,-0.144977 0.006,-0.217466 -0.0116,-0.182562 0.0434,-0.544225 -0.0437,-0.711231 -0.008,-0.01526 -0.0217,-0.02671 -0.0325,-0.04007 -0.21732,-0.136279 -0.95505,-0.61464 -0.75432,0.369337 0.0542,0.265548 0.5018,-0.218006 0.71807,-0.381345 0.0464,-0.03502 0.01,-0.115825 0.0166,-0.173525 0.0378,-0.318712 0.0556,-0.409454 0.10807,-0.744272 0.062,-0.509961 0.19203,-1.013669 0.21795,-1.528048 0.01,-0.188588 -0.002,-0.301194 -0.0134,-0.484155 -0.0229,-0.139985 -0.0317,-0.286389 -0.0875,-0.418901 -0.004,-0.01111 -0.0531,-0.112672 -0.0905,-0.09184 -0.24675,0.13737 -0.4738,0.307458 -0.7107,0.461187 -0.0208,0.07539 -0.0513,0.179955 -0.0643,0.25487 -0.0637,0.367404 -0.10058,0.741575 -0.13542,1.112498 -0.0561,0.576247 -0.0897,1.155108 -0.16597,1.729247 -0.0402,0.155311 -0.0264,0.333271 -0.10441,0.477326 -0.0186,0.0262 -0.006,0.01898 -0.0362,0.02345 0.22278,-0.129688 0.44536,-0.259715 0.66834,-0.389065 0.004,-0.0023 -0.007,0.0091 -0.0112,0.0079 -0.008,-0.0022 -0.013,-0.0099 -0.0181,-0.01611 -0.0116,-0.01425 -0.0213,-0.03003 -0.0319,-0.04505 -0.01,-0.02267 -0.022,-0.04441 -0.0293,-0.06801 -0.0844,-0.276153 -0.0798,-0.634772 -0.09,-0.92186 0.005,-0.279677 -0.0158,-0.571782 0.0464,-0.847264 -0.23338,0.143878 -0.48617,0.260239 -0.70017,0.431636 -0.0332,0.02664 0.002,0.08522 0.002,0.127829 -0.001,0.06953 -0.004,0.139006 -0.006,0.208515 -0.0142,0.514829 -0.0382,1.028983 -0.0609,1.543515 -0.0585,0.838062 -0.0446,1.682595 -0.13045,2.518775 -0.0768,0.29921 -0.1945,0.71341 0.68171,-0.49852 0.0754,-0.10427 -0.0117,-0.25705 -0.0181,-0.38556 -0.0117,-0.2378 -0.0274,-0.47543 -0.0363,-0.713376 -0.0261,-0.69771 -0.0264,-1.108236 -0.0347,-1.809353 -0.0115,-0.872789 -0.0225,-1.745992 0.006,-2.618615 0.0117,-0.357819 0.0351,-0.876614 0.0848,-1.240293 0.026,-0.18992 0.068,-0.377302 0.10202,-0.565953 0.1866,-0.856863 0.5074,-1.672896 0.84968,-2.477119 -0.23476,0.157803 0.23638,-0.339836 0.13335,-0.301561 -0.28404,0.105522 -0.55769,0.240577 -0.82022,0.391863 -0.0817,0.04706 -0.13455,0.132017 -0.2024,0.19742 -0.33447,0.322364 -0.29654,0.283481 -0.66323,0.622284 -0.23854,0.221003 -0.59215,0.546607 -0.82655,0.771819 -0.12271,0.117893 -0.25436,0.227787 -0.36406,0.357873 -0.0823,0.09764 -0.22334,0.194447 -0.2087,0.321322 0.0157,0.135911 0.1533,0.249058 0.28038,0.299749 0.27215,0.108565 0.57658,0.104735 0.86487,0.157102 0.48799,4.99e-4 0.97617,0.01482 1.46398,0.0015 0.57921,-0.01581 1.1578,-0.05143 1.73601,-0.08887 1.19643,-0.07747 2.16369,-0.169871 3.35029,-0.305105 0.94106,-0.107252 1.61728,-0.204495 2.53799,-0.33062 1.07514,-0.156976 0.57778,-0.0792 1.49271,-0.229189 0,0 0.53915,-0.406765 0.53915,-0.406765 v 0 c -0.96602,0.192884 -0.44215,0.0937 -1.57269,0.2919 -0.9883,0.157378 -1.59226,0.26117 -2.61145,0.388061 -1.07871,0.134301 -2.27652,0.255514 -3.36023,0.316269 -0.56154,0.03148 -1.12388,0.05719 -1.68629,0.05659 -0.45501,-4.85e-4 -0.90915,-0.03989 -1.36373,-0.05984 -0.25508,-0.05822 -0.5211,-0.08056 -0.76523,-0.174658 -0.0982,-0.03784 -0.2256,-0.106022 -0.23492,-0.210825 -0.0104,-0.116825 0.11448,-0.20638 0.18985,-0.296245 0.1068,-0.127347 0.23392,-0.236214 0.35351,-0.351636 0.28938,-0.279293 0.54025,-0.50412 0.8377,-0.775332 0.23436,-0.212222 0.46622,-0.427219 0.70168,-0.638231 0.0774,-0.06932 0.33861,-0.211215 0.23494,-0.204717 -0.62915,0.03943 -0.57671,0.147216 -0.71759,0.514434 -0.30859,0.806319 -0.616,1.616777 -0.78981,2.465279 -0.0337,0.191026 -0.078,0.38047 -0.10095,0.573078 -0.0387,0.325224 -0.0419,0.912466 -0.044,1.224732 -0.006,0.869406 0.0206,1.73831 0.0182,2.607713 0.005,0.690938 0.0129,1.137113 5.5e-4,1.826665 -0.004,0.24775 -0.0144,0.49536 -0.0229,0.74301 -0.004,0.13459 -0.14284,0.35744 -0.0163,0.40368 0.78411,0.2867 0.73167,0.0531 0.6916,-0.19912 -0.0347,-0.82548 0.0237,-1.653103 0.0523,-2.477717 0.0289,-0.456688 0.0404,-0.699845 0.0828,-1.147983 0.0281,-0.297778 0.0489,-0.390261 0.0661,-0.648648 0.003,-0.04699 0.0513,-0.150636 0.005,-0.141188 -0.25135,0.05148 -0.4763,0.190953 -0.71445,0.28643 -0.008,0.280765 -0.0277,0.561727 -0.009,0.842644 0.007,0.22157 0.007,0.235431 0.0183,0.455112 0.009,0.16726 0.0146,0.341702 0.0588,0.504768 0.008,0.02901 0.022,0.05595 0.033,0.08392 0.009,0.01416 0.0784,0.145013 0.10501,0.131935 0.60392,-0.296888 0.62638,-0.152121 0.73414,-0.449079 0.0464,-0.156117 0.0412,-0.323568 0.0668,-0.483353 0.0507,-0.571538 0.0767,-1.145263 0.13878,-1.715855 0.0376,-0.299317 0.0724,-0.599131 0.12861,-0.895705 0.0224,-0.118457 0.0482,-0.248128 0.0887,-0.363678 0.0127,-0.03622 0.03,-0.07067 0.0449,-0.106003 -0.21664,0.115037 -0.42774,0.241155 -0.6499,0.345111 -0.0141,0.0066 -0.006,-0.04276 0.01,-0.04569 0.0157,-0.003 0.05,0.07213 0.0663,0.12463 0.0313,0.10098 0.044,0.19832 0.0622,0.302705 0.0174,0.184021 0.0309,0.272412 0.0253,0.464539 -0.0147,0.508845 -0.12877,1.010441 -0.20091,1.512409 -0.0264,0.140411 -0.052,0.280964 -0.079,0.421235 -0.0223,0.115583 -0.0479,0.230523 -0.0691,0.346314 -0.1417,0.774035 0.16855,-0.948603 0.70063,-0.07503 0.13063,0.214455 -0.77465,0.623208 -0.67036,0.343644 0.0498,0.0087 0.0555,0.119239 0.0594,0.15076 0.0214,0.172556 0.0188,0.34782 0.014,0.52113 -0.004,0.07226 -0.005,0.144656 -0.0108,0.216781 -0.005,0.06555 -0.0869,0.205356 -0.0218,0.19604 0.23043,-0.03299 0.41634,-0.212769 0.63788,-0.284219 0.0263,-0.0085 0.007,0.102834 -0.0112,0.08211 -0.12272,-0.139337 -0.0332,-0.41195 -0.16064,-0.533356 -0.3675,-1.925503 -0.60168,-3.877046 -0.7298,-5.832764 0.0189,-0.608947 0.17709,-0.801335 -0.66736,-0.196641 -0.0402,0.02875 0.0421,0.08994 0.0547,0.137681 0.0659,0.248776 0.0828,0.509569 0.15662,0.756759 0.24719,-0.103329 0.50225,-0.189528 0.74156,-0.309988 0.0217,-0.01092 0.0115,-0.04723 0.0156,-0.07115 0.007,-0.0407 0.0116,-0.08179 0.0179,-0.122606 0.007,-0.04311 0.0641,-0.137701 0.0213,-0.129145 -0.74472,0.148939 -0.77119,0.02653 -0.70085,0.285205 -0.0322,0.347416 -0.087,0.702578 -0.17711,1.039818 -0.026,0.09725 -0.19319,0.276177 -0.0931,0.28727 0.21299,0.02361 0.39996,-0.154051 0.59993,-0.231076 -0.0969,0.01363 -0.0759,0.03015 -0.13362,-0.110134 -0.0323,-0.07852 -0.0843,-0.285182 -0.0893,-0.374761 -0.017,-0.301581 0.55423,-0.359987 -0.63161,0.214641 0.0438,0.02411 0.0942,0.03877 0.13124,0.07233 0.14294,0.129638 0.36409,0.439881 0.47046,0.57601 0.0847,0.108365 0.16941,0.216724 0.2572,0.322585 0.0708,0.08536 0.10792,0.260673 0.21839,0.250949 0.28775,-0.02533 0.53131,-0.22689 0.79696,-0.340334 0.002,-0.298957 -0.0306,-0.595816 -0.0643,-0.892795 -0.0139,-0.122742 -0.0259,-0.245867 -0.0465,-0.367662 -0.0167,-0.09833 0.0341,-0.283867 -0.0652,-0.291979 -0.26934,-0.02198 -0.51962,0.148697 -0.77943,0.223045 -0.16362,0.227768 -0.0289,0.02189 -0.20239,0.389755 -0.0386,0.08184 -0.21541,0.240255 -0.12493,0.240974 0.20649,0.0017 0.3787,-0.165297 0.5722,-0.237422 0.0203,-0.0076 -0.0363,0.05992 -0.0492,0.0425 -0.0307,-0.04145 -0.0211,-0.101034 -0.0316,-0.151552 -0.045,-0.375358 0.0151,-0.22408 -0.72404,0.193697 -0.0197,0.01112 0.0162,0.04231 0.0215,0.06428 0.0135,0.05586 0.0259,0.112062 0.0347,0.168856 0.0147,0.09592 0.0247,0.192517 0.0356,0.288945 0.0132,0.116647 0.0245,0.233501 0.0367,0.350252 0.02,0.258184 0.0443,0.501297 0.0435,0.760423 -2.6e-4,0.09229 -0.10749,0.277234 -0.0152,0.276449 0.97528,-0.0083 0.69014,-0.142568 0.59567,-0.478473 -0.0369,-0.131146 -0.0609,-0.265579 -0.0913,-0.398368 -0.0726,-0.506903 -0.10716,-0.72629 -0.16769,-1.238605 -0.0228,-0.193383 0.0938,-0.464665 -0.0625,-0.580831 -0.18597,-0.138228 -0.46345,0.0287 -0.69491,0.01785 -0.017,-7.75e-4 -0.0122,-0.0666 -0.006,-0.05069 0.0124,0.03257 0.017,0.0676 0.0254,0.101403 0.0302,0.191234 0.0594,0.382629 0.0907,0.573694 0.01,0.05809 -0.0295,0.180401 0.029,0.174183 0.76046,-0.08078 0.72956,-0.02183 0.72551,-0.354545 0.002,-0.08288 0.003,-0.184515 0.0117,-0.267222 0.003,-0.02962 0.0434,-0.09779 0.0153,-0.08805 -0.82634,0.28571 -0.72214,0.114187 -0.65712,0.559813 0.0738,0.807457 0.0866,1.619647 0.0463,2.429506 -0.0306,0.414799 -0.0806,0.341997 0.68999,-0.133407 0.0307,-0.01898 -0.005,-0.07213 -0.007,-0.108235 -0.008,-0.175151 -0.0108,-0.350536 -0.0189,-0.525685 -0.003,-0.05227 -0.004,-0.104738 -0.0104,-0.156817 -0.004,-0.04269 0.0209,-0.138438 -0.0206,-0.127163 -0.70431,0.191678 -0.70016,0.162768 -0.80684,0.606018 -0.0177,0.108745 -0.0462,0.235248 0.0329,0.331081 0.0786,0.09523 0.22107,0.0812 0.32387,0.128713 0.0471,0.02478 0.13328,0.0551 0.15413,0.116972 0.0119,0.0353 0.003,0.07447 0.003,0.111713 -0.003,0.185979 -0.0219,0.282285 0.13418,0.417578 0.0661,0.02232 0.12997,0.05303 0.19835,0.06696 0.0574,0.01169 0.44132,0.03923 0.50063,0.0435 0.0743,0.0054 0.14866,0.0093 0.22289,0.01517 0.0542,0.0043 0.11305,0.03845 0.16234,0.01553 0.26444,-0.122998 0.50333,-0.294796 0.75499,-0.442194 -0.0121,0.0042 -0.026,0.0049 -0.0363,0.0125 -0.003,0.0025 -7e-5,0.01535 0.003,0.01224 0.17336,-0.194304 -0.22322,-0.181559 -0.28079,-0.170895 -0.29691,0.0042 -0.44396,0.0096 -0.74791,-0.0011 -0.1157,-0.004 -0.23104,-0.02511 -0.3467,-0.02018 -0.0487,0.0021 -0.0966,0.01943 -0.14036,0.04097 -0.21069,0.103848 -0.43533,0.18948 -0.62048,0.334039 -0.068,0.0531 0.16955,-0.03209 0.25432,-0.04814 0.099,-0.01165 0.19768,-0.02623 0.29697,-0.03494 0.0794,-0.007 0.16068,0.0039 0.23875,-0.01204 0.0326,-0.0067 0.0549,-0.03766 0.084,-0.05384 0.17321,-0.09644 0.36422,-0.164662 0.5226,-0.283901 0.21893,-0.164834 -1.12361,0.571582 -0.76518,0.30072 -0.69804,0.267 -1.25163,0.460904 -1.89995,0.900173 -0.0648,0.04391 -0.12677,0.123894 -0.11999,0.201881 0.0116,0.133481 0.43804,-0.02913 0.39372,0.08098 0.29168,0.0075 0.35075,0.0079 0.64507,0.01985 0.0927,0.0038 0.18527,0.0086 0.2779,0.01278 0.059,0.0027 0.12473,0.03553 0.17694,0.008 0.24752,-0.130607 0.46744,-0.308012 0.69646,-0.468852 0.01,-0.0068 -0.0235,0.003 -0.0352,0.0044 -0.26822,0.0036 -0.53652,0.0041 -0.80472,-8.87e-4 0,0 -0.63732,0.463042 -0.63732,0.463042 z"
     inkscape:connector-curvature="0" />
  <path
     style="fill:#ff6600;stroke-width:0.553918"
     id="path64"
     d="m 104.2939,68.860269 c -0.29433,0.0071 -0.58876,0.0075 -0.88316,0.007 -0.19847,0.0047 -0.39736,-0.01227 -0.59569,-0.003 -0.18479,0.02552 -0.37105,0.03548 -0.5562,0.05764 -0.14689,0.02699 -0.29548,0.0508 -0.43928,0.09188 -0.10904,0.03466 -0.21905,0.06624 -0.32865,0.09911 -0.14633,0.0494 -0.29291,0.09641 -0.4437,0.130364 -0.19814,0.04454 -0.39633,0.08879 -0.59439,0.133662 -0.17835,0.035 -0.35604,0.07308 -0.534791,0.106062 -0.23776,0.04352 -0.47853,0.07054 -0.71885,0.09584 -0.24699,0.03073 -0.49419,0.05917 -0.74251,0.07648 -0.11587,0.0084 -0.23198,0.0098 -0.34808,0.01032 -0.0743,8.86e-4 -0.14286,0.03062 -0.21694,0.04144 -0.15293,0.01412 -0.30672,0.01472 -0.46016,0.01658 -0.21334,0.0085 -0.42619,0.0263 -0.63925,0.0399 -0.18976,0.01202 -0.37923,0.0327 -0.56807,0.05514 -0.3511,0.05869 -0.70371,0.104658 -1.05686,0.148798 -0.30733,0.03381 -0.61346,0.07766 -0.92105,0.109061 -0.23803,0.0091 -0.47365,0.03136 -0.70988,0.0614 -0.34585,0.03563 -0.6889,0.09285 -1.03196,0.148418 -0.30789,0.04899 -0.6161,0.09609 -0.92395,0.145332 -0.30123,0.04815 -0.60147,0.102255 -0.9028,0.149778 -0.22631,0.03778 -0.45535,0.0479 -0.68428,0.05291 -0.22176,-0.0058 -0.44169,0.01609 -0.66104,0.04608 -0.23915,0.04377 -0.4769,0.09386 -0.71615,0.13729 -0.24069,0.04012 -0.48167,0.07835 -0.7228,0.11577 -0.2426,0.03535 -0.48499,0.07228 -0.72425,0.12622 -0.26698,0.05512 -1.03701,0.332698 -0.66071,0.505171 0.0371,0.01698 0.0811,0.0079 0.12181,0.01073 0.6596,0.04657 -0.35189,-0.03074 0.37983,0.02612 0.38251,0.02796 0.76506,0.06638 1.14882,0.07014 0.29528,-0.0035 0.57862,-0.07346 0.85804,-0.162256 0.25564,-0.08923 0.51256,-0.17461 0.76598,-0.270026 0.29818,-0.09839 0.60596,-0.162371 0.9142,-0.21971 0.55191,-0.08826 1.1005,-0.193644 1.6491,-0.300154 0.61172,-0.126193 1.22384,-0.25034 1.83692,-0.369803 0.31618,-0.06565 0.63576,-0.110294 0.95711,-0.14043 0.31537,-0.02705 0.17916,0.06897 0.6324,-0.464409 0.039,-0.0459 -0.11724,0.02782 -0.17548,0.0432 -0.26098,0.06891 -0.32317,0.09049 -0.59489,0.172439 -0.48801,0.149516 -0.97679,0.295905 -1.47195,0.42002 -0.26454,0.06133 -0.53504,0.08997 -0.80313,0.131532 -0.30729,0.05707 -0.61691,0.09925 -0.92443,0.155088 -0.46014,0.09186 -0.92311,0.168254 -1.38889,0.224773 -0.34634,0.04498 -0.69316,0.08609 -1.04175,0.108607 -0.12649,0.0072 -0.25317,0.01006 -0.37985,0.01118 -0.0883,7.75e-4 -0.16301,0.0056 -0.24547,-0.02619 0,0 -0.66108,0.433762 -0.66108,0.433762 v 0 c 0.0256,0.0157 0.0484,0.03778 0.077,0.04711 0.0356,0.0116 0.16732,0.0064 0.19771,0.0059 0.12805,-0.0021 0.25612,-0.0045 0.38409,-0.0099 0.35642,-0.02078 0.70976,-0.07152 1.06343,-0.119002 0.46255,-0.05603 0.92383,-0.122886 1.38107,-0.213253 0.30484,-0.05561 0.6125,-0.09115 0.91631,-0.151904 0.2714,-0.03982 0.54463,-0.07075 0.81274,-0.129263 0.50443,-0.129082 1.00058,-0.286347 1.4989,-0.436816 0.27243,-0.07992 0.30831,-0.09444 0.56692,-0.15675 0.0542,-0.01306 0.11569,-0.0069 0.16346,-0.0357 0.2533,-0.152644 0.48735,-0.335147 0.73072,-0.503165 0.0312,-0.02157 -0.26344,0.177361 -0.11071,0.02678 -0.32814,0.03936 -0.65836,0.06963 -0.98013,0.148694 -0.61795,0.13036 -1.237,0.255275 -1.85521,0.384445 -0.53794,0.104482 -1.07735,0.198322 -1.61941,0.278975 -0.30739,0.05379 -0.61265,0.117069 -0.91333,0.201174 -0.25569,0.09679 -0.51297,0.18869 -0.77111,0.278738 -0.27436,0.09052 -0.55136,0.166918 -0.84204,0.179799 -0.38479,0.0099 -0.7694,-0.02653 -1.15253,-0.05829 -0.12169,-0.01219 -0.24362,-0.02202 -0.36526,-0.03476 -0.0362,-0.0038 -0.0759,-0.03074 -0.10815,-0.01391 -0.0212,0.01109 0.0172,0.0585 -0.003,0.07181 -0.21334,0.142618 -0.44898,0.248759 -0.67053,0.378256 -0.0168,0.0098 0.0369,-0.01249 0.0554,-0.01873 0.2374,-0.06889 0.48202,-0.105061 0.72666,-0.137609 0.24153,-0.03844 0.48348,-0.07398 0.72464,-0.115039 0.23831,-0.04225 0.47611,-0.08576 0.71249,-0.138008 0.21664,-0.03229 0.43401,-0.05914 0.65362,-0.05235 0.23233,-0.0048 0.46545,-0.0093 0.69522,-0.04759 0.30271,-0.04943 0.60456,-0.103628 0.90731,-0.152915 0.30788,-0.05124 0.61733,-0.09277 0.92494,-0.145799 0.34108,-0.05808 0.68258,-0.116711 1.02727,-0.148978 0.23421,-0.02787 0.46776,-0.0527 0.70368,-0.05962 0.31181,-0.02662 0.61947,-0.08843 0.93154,-0.113683 0.34909,-0.045 0.69826,-0.08858 1.04621,-0.141571 0.18632,-0.02238 0.37353,-0.04052 0.56049,-0.05515 0.21435,-0.01265 0.42782,-0.03792 0.64238,-0.04791 0.15127,0.0011 0.30283,0.0064 0.45393,-0.0029 0.0738,-0.0034 0.14748,-0.0035 0.21039,-0.04552 0.12012,-8.31e-4 0.24028,-0.0052 0.36015,-0.01261 0.25107,-0.01887 0.50099,-0.04861 0.75077,-0.07993 0.23946,-0.02264 0.47878,-0.04907 0.71655,-0.08504 0.17903,-0.0368 0.35924,-0.06707 0.53818,-0.105403 0.196691,-0.04557 0.394211,-0.08557 0.590371,-0.133334 0.15184,-0.02669 0.30202,-0.06491 0.44467,-0.124157 0.11027,-0.02741 0.218,-0.06396 0.32774,-0.0932 0.14126,-0.05325 0.29071,-0.07443 0.43725,-0.109337 0.18283,-0.02532 0.36634,-0.03405 0.5495,-0.05543 0.19999,-0.03159 0.40678,-0.002 0.6082,-0.01587 0.28797,-4.75e-4 0.57598,-2.96e-4 0.86387,0.007 0,0 0.64351,-0.467535 0.64351,-0.467535 z"
     inkscape:connector-curvature="0" />
  <path
     style="fill:#ff6600;stroke-width:0.553918"
     id="path66"
     d="m 116.4378,66.739981 c -0.29956,0.144168 -0.62311,0.230619 -0.94332,0.315507 -0.37947,0.104634 -0.76995,0.150492 -1.16162,0.175345 -0.33545,0.02535 -0.67186,0.02929 -1.00783,0.04238 -0.33395,0.02935 -0.66863,0.04431 -1.00339,0.06013 -0.36014,0.02855 -0.72291,0.04022 -1.08011,0.09805 -0.0736,0.01192 -0.14658,0.02736 -0.21987,0.04103 -0.40392,0.08058 -0.79862,0.199144 -1.19694,0.30259 -0.42643,0.115541 -0.85792,0.210734 -1.29092,0.297919 -0.48849,0.09159 -0.98067,0.160997 -1.47273,0.230089 -0.4237,0.06415 -0.8513,0.09489 -1.2763,0.148203 -0.21578,0.03278 -0.43368,0.05976 -0.64364,0.121197 -0.21787,0.07755 -0.41115,0.210312 -0.608,0.328879 -0.1187,0.07149 0.23968,-0.139105 0.35951,-0.208658 -0.0854,0.04696 -0.17483,0.08607 -0.26802,0.114526 -0.079,0.0236 -0.15696,0.05111 -0.23374,0.0811 -0.1644,0.06594 -0.15599,0.07692 -0.38789,0.300079 -0.0145,0.01395 0.04,-0.0044 0.06,-0.0071 0.0633,-0.0085 0.12655,-0.01795 0.18988,-0.02651 0.27656,-0.02808 0.55398,-0.04879 0.83154,-0.0644 0.23126,-0.0163 0.46282,-0.0285 0.69308,-0.05615 0.16459,-0.02044 0.32771,-0.05205 0.48842,-0.09284 0.14871,-0.03947 0.29717,-0.07999 0.44492,-0.122968 0.1426,-0.05053 0.29302,-0.07134 0.43836,-0.111635 0.11409,-0.09476 0.25571,-0.163855 0.34228,-0.284285 0.0273,-0.03797 -0.0936,3.62e-4 -0.14024,0.0032 -0.27236,0.01655 -0.5445,0.05447 -0.8144,0.09322 -0.15128,0.02993 -0.35268,0.04796 -0.35969,0.299002 -0.002,0.0821 0.16421,-0.005 0.24619,-0.0099 0.33538,-0.02016 0.66949,-0.05468 1.00334,-0.09153 0.32246,-0.04052 0.53336,-0.04337 0.80625,-0.295659 0.0282,-0.02611 -0.0644,-0.0471 -0.10237,-0.05318 -0.0325,-0.0052 -0.3373,0.02892 -0.35364,0.03062 -0.32148,0.03965 -0.37662,0.0022 -0.64391,0.316918 -0.0244,0.02866 0.0748,-0.0077 0.1122,-0.01202 0.0476,-0.0056 0.0952,-0.01187 0.14272,-0.0178 0.25217,-0.038 0.53118,-0.02881 0.65451,-0.337839 0.0251,-0.06283 -0.13513,0.0067 -0.20262,0.01134 -0.0866,0.006 -0.17313,0.01385 -0.25969,0.02078 -0.26276,0.02539 -0.52546,0.05315 -0.78703,0.08904 -0.0465,0.0064 -0.0927,0.01432 -0.13904,0.02151 -0.0129,0.002 -0.0283,-0.0018 -0.0388,0.0061 -0.118,0.08816 -0.22847,0.185966 -0.3427,0.278949 0.0362,-0.004 0.0725,-0.0071 0.10863,-0.01204 0.10083,-0.01374 0.20128,-0.03009 0.30175,-0.04623 0.0894,-0.01437 0.18148,-0.02721 0.26828,-0.05428 0.0984,-0.09315 0.25609,-0.14972 0.29531,-0.279441 0.0218,-0.0719 -0.14826,0.02429 -0.22218,0.03762 -0.09,0.01622 -0.17978,0.03344 -0.2695,0.05102 -0.27383,0.05362 -0.54663,0.112418 -0.8198,0.169265 -0.30024,0.06816 -0.61805,0.09629 -0.8272,0.371313 -0.0334,0.04395 0.10977,0.01539 0.16499,0.01492 0.0745,-6.09e-4 0.14857,-0.01214 0.22285,-0.01821 0.2523,-0.02493 0.50381,-0.05728 0.75505,-0.09115 0.0578,-0.0078 0.11559,-0.01546 0.17323,-0.02425 0.0323,-0.0049 0.0703,0.0024 0.0966,-0.0169 0.11312,-0.08305 0.20783,-0.188617 0.31175,-0.282926 -0.52824,-0.01631 -1.05658,0.0172 -1.58279,0.06066 -0.25607,0.02072 -0.50958,0.05531 -0.75827,0.119697 -0.18837,0.04874 -0.2868,0.07023 -0.41259,0.310905 -0.0228,0.04355 0.0973,-0.01347 0.14597,-0.02057 0.0668,-0.0098 0.13352,-0.02001 0.20029,-0.03002 0.39362,-0.0684 0.78807,-0.131258 1.18476,-0.178965 0.28235,-0.03037 0.56178,-0.08517 0.84094,-0.136461 0.57345,-0.09836 1.14732,-0.193539 1.71941,-0.299658 0.32833,-0.05674 0.65518,-0.120946 0.981,-0.190478 0.32862,-0.07343 0.65648,-0.149816 0.98746,-0.212027 0.23054,-0.04438 0.33819,-0.06472 0.50404,-0.329903 0.0231,-0.03693 -0.0867,-0.01009 -0.13029,-0.01017 -0.0895,-1.51e-4 -0.34684,0.01946 -0.43049,0.02528 -0.23885,0.01928 -0.47593,0.0548 -0.71275,0.09044 -0.12404,0.01867 -0.2484,0.03631 -0.37102,0.06295 -0.13412,0.08307 -0.28845,0.140053 -0.40236,0.249203 -0.0253,0.02421 0.0598,0.04061 0.0944,0.04591 0.0642,0.0098 0.12992,-2.13e-4 0.19485,-0.0016 0.0853,-0.0018 0.17055,-0.0036 0.2557,-0.0082 0.16668,-0.0089 0.58254,-0.04159 0.74632,-0.05408 0.30138,-0.02552 0.60248,-0.05419 0.90357,-0.08277 0.13619,-0.01293 0.27051,-0.02241 0.40398,-0.05248 0,0 0.35944,-0.276703 0.35944,-0.276703 v 0 c -0.029,0.0099 -0.0572,0.02279 -0.0871,0.0297 -0.0719,0.01662 -0.27972,0.04107 -0.33813,0.04822 -0.30715,0.03762 -0.61474,0.07204 -0.92304,0.09884 -0.34735,0.02523 -0.38385,0.03211 -0.72451,0.04085 -0.0814,0.0021 -0.16282,0.0027 -0.24423,0.0017 -0.0577,-7.2e-4 -0.11546,-0.01223 -0.17291,-0.007 -0.16423,0.01485 -0.0475,0.851476 -0.4283,0.24757 0.12703,-0.04451 0.25962,-0.06389 0.39218,-0.0861 0.23553,-0.03947 0.47196,-0.07565 0.7103,-0.09324 0.12733,-0.0079 0.28151,-0.0201 0.41058,-0.01852 0.0379,4.66e-4 0.0789,0.02422 0.1134,0.0086 0.14997,-0.06786 0.28503,-0.164838 0.42463,-0.252048 0.0583,-0.03645 -0.34672,0.17429 -0.19783,0.05871 -0.3295,0.06514 -0.65772,0.135805 -0.9854,0.209449 -0.33184,0.06997 -0.66327,0.141888 -0.99682,0.203552 -0.5701,0.111997 -1.14202,0.21435 -1.71692,0.298823 -0.27465,0.04313 -0.54913,0.08716 -0.82436,0.12612 -0.39899,0.05664 -0.79671,0.121827 -1.19455,0.185987 -0.0638,0.0078 -0.12755,0.01571 -0.19132,0.02356 -0.0451,0.0056 -0.0949,-0.0041 -0.13535,0.01663 -0.15847,0.08125 -0.30155,0.189556 -0.45218,0.284576 -0.008,0.0049 0.0152,-0.01068 0.0238,-0.0143 0.0244,-0.01038 0.0949,-0.02978 0.1151,-0.03563 0.02,-0.0056 0.16262,-0.0452 0.17732,-0.04875 0.19685,-0.04765 0.39903,-0.06646 0.59923,-0.0941 0.51297,-0.05203 1.03015,-0.09525 1.54565,-0.05501 0.14202,-0.08291 0.2908,-0.155213 0.42607,-0.24874 0.0303,-0.02096 -0.0709,0.02062 -0.10694,0.02809 -0.30677,0.06346 -0.62085,0.09051 -0.93186,0.122846 -0.36051,0.01872 -0.34745,0.0096 -0.71097,0.267345 -0.0296,0.02098 0.0684,-0.02428 0.10325,-0.03439 0.0919,-0.02668 0.28305,-0.07208 0.36744,-0.09268 0.27323,-0.05993 0.54613,-0.121038 0.82123,-0.171985 0.0864,-0.016 0.17289,-0.03144 0.25968,-0.04508 0.065,-0.01021 0.13638,0.0022 0.1956,-0.02647 0.15518,-0.07517 0.29029,-0.186149 0.43544,-0.279224 -0.0614,0.04502 -0.0317,0.03039 -0.13813,0.05385 -0.17219,0.03798 -0.3481,0.05585 -0.52275,0.0782 -0.13365,0.09143 -0.26954,0.179672 -0.40096,0.274289 -0.0151,0.0109 0.0332,-0.01756 0.0512,-0.02249 0.0496,-0.01362 0.10016,-0.02395 0.15083,-0.03295 0.26097,-0.04637 0.52554,-0.07051 0.78925,-0.09437 0.0829,-0.0047 0.1657,-0.01017 0.24861,-0.01391 0.0584,-0.0027 0.12185,0.01823 0.17545,-0.0052 0.15284,-0.06691 0.28552,-0.172716 0.42828,-0.259074 -0.0232,0.0085 -0.0454,0.0197 -0.0694,0.02535 -0.0445,0.0105 -0.23997,0.03833 -0.281,0.0444 -0.0455,0.0049 -0.0909,0.01064 -0.13644,0.01474 -0.0328,0.0029 -0.07,-0.0098 -0.0988,0.0064 -0.14293,0.08037 -0.27352,0.181119 -0.40617,0.277526 -0.0129,0.0094 0.0298,-0.01147 0.0453,-0.01524 0.10986,-0.02675 0.16236,-0.03065 0.28121,-0.04752 0.0615,-0.0058 0.1229,-0.01294 0.18452,-0.01736 0.0485,-0.0035 0.0985,0.0055 0.14566,-0.0063 0.0189,-0.0048 0.0253,-0.03088 0.0422,-0.04083 0.11957,-0.07063 0.25505,-0.115771 0.36548,-0.199975 0.11226,-0.0856 -0.67892,0.272452 -0.41528,0.08301 -0.30337,0.0349 -0.36797,0.04591 -0.6736,0.06663 -0.10363,0.007 -0.20738,0.01286 -0.31121,0.01594 -0.0742,0.0022 -0.15295,-0.02568 -0.22259,-7.3e-5 -0.167,0.06142 -0.31839,0.160122 -0.46923,0.254503 -0.0342,0.02139 0.0775,-0.02242 0.11623,-0.03363 0.20697,-0.03352 0.4133,-0.06079 0.62239,-0.07783 0.0594,-0.0048 0.11888,-0.0085 0.17838,-0.01188 0.0387,-0.0022 0.0817,0.01289 0.1161,-0.0048 0.14362,-0.07396 0.27086,-0.176127 0.40629,-0.264191 -0.13573,0.07166 -0.3022,0.06032 -0.44284,0.120815 -0.14739,0.04413 -0.29643,0.08254 -0.44448,0.124392 -0.16008,0.04324 -0.32308,0.07473 -0.48706,0.09902 -0.23123,0.03244 -0.46419,0.04592 -0.69692,0.06307 -0.27649,0.01557 -0.55233,0.03989 -0.82861,0.05859 -0.0341,0.0037 -0.0682,0.0074 -0.10227,0.0111 -0.0265,0.0034 -0.053,0.0073 -0.0795,0.01039 -0.0176,0.002 -0.0382,-0.0049 -0.0531,0.0048 -0.13536,0.08864 -0.26107,0.191218 -0.3918,0.286556 -0.0121,0.0088 0.06,-0.04795 0.0389,-0.02262 0.0757,-0.0334 0.15434,-0.06007 0.23256,-0.08675 0.095,-0.02617 0.18588,-0.06128 0.27422,-0.105295 0.67666,-0.39212 0.47367,-0.273828 0.0667,-0.04033 -0.0114,0.0065 0.0227,-0.01318 0.034,-0.01993 0.0468,-0.02805 0.0952,-0.051 0.14603,-0.0712 0.21207,-0.07233 0.43498,-0.103678 0.65539,-0.139946 0.42889,-0.06004 0.86102,-0.09245 1.2893,-0.157653 0.49142,-0.06654 0.98242,-0.138082 1.47059,-0.225465 0.43281,-0.08279 0.86266,-0.180187 1.28867,-0.293062 0.39907,-0.102386 0.79414,-0.220583 1.19733,-0.30641 0.19996,-0.03838 0.22937,-0.04747 0.42977,-0.07245 0.28573,-0.03562 0.57381,-0.04855 0.86094,-0.06722 0.33235,-0.0159 0.66511,-0.02288 0.9965,-0.05517 0.33807,-0.0178 0.67682,-0.0214 1.01456,-0.04649 0.39463,-0.02347 0.78807,-0.06859 1.17087,-0.171761 0.31131,-0.08049 0.6241,-0.162733 0.92148,-0.286633 0,0 0.36269,-0.290114 0.36269,-0.290114 z"
     inkscape:connector-curvature="0" />
  <path
     style="fill:#ff6600;stroke-width:0.553918"
     id="path68"
     d="m 116.33416,66.985441 c -0.88728,0.08049 -1.76047,0.264433 -2.63367,0.434759 -0.75613,0.155712 -1.51231,0.317415 -2.25672,0.523086 -0.19966,0.06505 -0.29323,0.08198 -0.47167,0.309414 -0.0309,0.03932 0.10016,9.7e-5 0.14981,-0.0055 0.0719,-0.0081 0.14282,-0.02283 0.21402,-0.03544 0.24765,-0.04387 0.36981,-0.07012 0.62583,-0.121532 0.5681,-0.116781 1.13794,-0.22502 1.70584,-0.342794 0.28968,-0.06007 0.58174,-0.107355 0.87265,-0.160794 0.27865,-0.05661 0.55794,-0.109268 0.83896,-0.152598 0.18928,-0.02518 0.37836,-0.05172 0.56831,-0.07133 0.22491,-0.01781 0.24829,9.42e-4 0.47338,-0.283544 0.0254,-0.03207 -0.0816,0.0048 -0.12247,0.0071 -0.63477,0.05504 -1.2654,0.148608 -1.89424,0.249628 -0.35857,0.05863 -0.71525,0.130473 -1.07667,0.169724 -0.16011,0.01808 -0.32136,0.0145 -0.48207,0.02052 -0.18735,0.01933 -0.37406,0.04638 -0.56026,0.07479 -0.25775,0.04537 -0.51136,0.112531 -0.76396,0.180441 -0.33303,0.08762 -0.66941,0.162028 -1.00662,0.231649 -0.13079,0.02833 -0.26199,0.05496 -0.39242,0.08497 -0.0199,0.0046 -0.0416,0.0048 -0.0595,0.01456 -0.1381,0.07499 -0.2857,0.138199 -0.40661,0.23857 -0.02,0.01659 0.0409,0.03203 0.0613,0.04804 0.26353,-0.0057 0.52668,-0.03038 0.78917,-0.0543 0.2195,-0.02132 0.43758,-0.05545 0.6549,-0.0926 0.13659,-0.07803 0.29094,-0.130986 0.40975,-0.234076 0.0242,-0.02097 -0.0504,-0.04302 -0.0814,-0.05083 -0.0399,-0.01004 -0.0822,-0.0014 -0.12333,-7.21e-4 -0.24272,0.0038 -0.48522,0.01766 -0.72756,0.03077 -0.39363,0.02002 -0.78625,0.05502 -1.17983,0.0761 -0.10377,0.0045 -0.20691,0.01697 -0.30964,0.03172 -0.0217,0.0031 -0.0434,0.0064 -0.0651,0.0099 -0.013,0.0021 -0.0282,-7.75e-4 -0.0389,0.0068 -0.12374,0.08781 -0.24076,0.184718 -0.36115,0.277076 0.0351,-0.0042 0.0705,-0.0062 0.10531,-0.0124 0.0577,-0.01022 0.35689,-0.07772 0.39627,-0.08663 0.25147,-0.05687 0.50233,-0.1163 0.75321,-0.175708 0.18732,-0.04422 0.37566,-0.08401 0.56475,-0.119881 0.0379,-0.0072 0.0759,-0.0138 0.11386,-0.02081 0.0219,-0.004 0.0478,8.31e-4 0.0657,-0.01238 0.11355,-0.08365 0.21509,-0.182477 0.32264,-0.273716 -0.63075,0.109782 -1.2542,0.256164 -1.87642,0.405994 -0.39999,0.103163 -0.84797,0.162252 -1.17591,0.441311 -0.0244,0.0208 0.0538,0.03504 0.0807,0.05256 0.30939,-0.04943 0.61777,-0.107121 0.92545,-0.166591 0.2496,-0.04764 0.31537,-0.0703 0.54229,-0.325371 0.021,-0.02357 -0.0626,-0.0085 -0.0941,-0.0096 -0.0606,-0.0021 -0.12128,1.46e-4 -0.18192,2.2e-4 0,0 -0.3538,0.255794 -0.3538,0.255794 v 0 c 0.0554,0.0028 0.11078,0.0057 0.16617,0.0083 0.0248,0.0012 0.0528,0.01509 0.0745,0.0029 0.13872,-0.07755 0.26305,-0.178445 0.39577,-0.265878 0.009,-0.0056 -0.0136,0.01617 -0.023,0.02029 -0.0286,0.01262 -0.15363,0.04026 -0.1711,0.04439 -0.30027,0.06511 -0.60306,0.11999 -0.90695,0.165167 -0.0787,0.180429 0.007,0.01134 -0.37995,0.25159 -0.0308,0.01909 0.0663,-0.02929 0.10058,-0.04107 0.22296,-0.0767 0.45458,-0.12686 0.68146,-0.189656 0.60201,-0.151285 1.20726,-0.294627 1.82302,-0.378092 0.13807,-0.09183 0.28154,-0.176027 0.41422,-0.275489 0.02,-0.015 -0.0481,0.01369 -0.0725,0.01931 -0.0399,0.0092 -0.0802,0.01666 -0.12022,0.02517 -0.1941,0.04123 -0.38795,0.08368 -0.58083,0.130364 -0.39961,0.09626 -0.80005,0.189516 -1.20447,0.263372 -0.13055,0.09003 -0.26399,0.176026 -0.39167,0.270099 -0.0116,0.0085 0.0275,-0.0088 0.0415,-0.01209 0.12559,-0.02924 0.25514,-0.0424 0.38321,-0.05421 0.40024,-0.028 0.79949,-0.06858 1.20007,-0.09155 0.21106,-0.01018 0.30098,-0.0168 0.50877,-0.01828 0.0642,-4.58e-4 0.12843,6.64e-4 0.19261,0.0024 0.0371,9.97e-4 0.0752,0.01517 0.11099,0.0057 0.015,-0.0039 0.0147,-0.0272 0.0221,-0.0408 0.13073,-0.07311 0.26145,-0.146227 0.39218,-0.21934 -0.22144,0.04858 -0.44574,0.08548 -0.67103,0.110378 -0.25341,0.02352 -0.5074,0.04267 -0.76201,0.04507 -0.0314,0.190648 0.009,0.01316 -0.3961,0.262309 -0.0193,0.01184 0.0427,-0.01495 0.0645,-0.02104 0.13384,-0.03744 0.27076,-0.0637 0.4057,-0.09657 0.33378,-0.06997 0.66831,-0.137248 0.99867,-0.222277 0.25047,-0.06864 0.50229,-0.135421 0.75785,-0.182133 0.18336,-0.0283 0.36781,-0.04939 0.55166,-0.07423 0.16267,-0.0098 0.3263,-0.0013 0.48852,-0.02141 0.37353,-0.0475 0.74138,-0.127507 1.11191,-0.193582 0.61516,-0.10522 1.23405,-0.203384 1.8584,-0.230174 0.0365,-7e-6 0.077,0.01678 0.10941,-1.9e-5 0.62471,-0.32409 0.51977,-0.281801 0.27021,-0.262344 -0.19472,0.0234 -0.38843,0.05438 -0.58285,0.08 -0.28081,0.04173 -0.55984,0.09406 -0.83812,0.150126 -0.29551,0.0553 -0.59221,0.104426 -0.88589,0.16919 -0.57369,0.129008 -1.15058,0.243455 -1.7269,0.359933 -0.23447,0.04321 -0.3743,0.07097 -0.60301,0.106365 -0.0666,0.01031 -0.13373,0.01732 -0.20032,0.02787 -0.0374,0.0059 -0.0783,0.0034 -0.11154,0.02155 -0.13517,0.07377 -0.26553,0.157412 -0.3878,0.251008 -0.0348,0.02668 0.0817,-0.03201 0.12262,-0.04802 0.75978,-0.236585 1.5385,-0.407748 2.31627,-0.573138 0.83967,-0.165938 1.68366,-0.343182 2.54146,-0.376231 0,0 0.3739,-0.271653 0.3739,-0.271653 z"
     inkscape:connector-curvature="0" />
  <path
     style="fill:#ff6600;stroke-width:0.553918"
     id="path70"
     d="m 116.5732,49.508419 c -0.34683,0.01151 -0.69366,0.0111 -1.04041,-0.0018 -0.38602,-0.01297 -0.77065,-0.0504 -1.1549,-0.08798 -0.10048,-0.01972 -0.21723,-0.01327 -0.3097,-0.0646 0.1423,0.166882 0.0258,0.0096 -0.42779,0.307437 -0.0124,0.0082 0.0292,-0.0056 0.044,-0.0072 0.0831,-0.0088 0.1673,-0.0079 0.25066,-0.0094 0.15874,-0.0077 0.31636,0.0056 0.47398,0.02197 0.13229,0.01239 0.26506,0.01102 0.39721,0.02499 0.14196,0.02003 0.28518,0.02912 0.42798,0.041 0.31565,0.02197 0.41168,0.09739 0.662,-0.326583 0.0286,-0.04837 -0.10821,-0.03018 -0.16232,-0.04527 -0.53204,-0.124838 -1.06891,-0.228674 -1.60429,-0.33831 -0.0452,-0.0097 -0.0905,-0.01876 -0.13563,-0.02896 -0.2298,-0.05202 -0.21814,-0.140835 -0.47774,0.29955 -0.0281,0.04775 0.1098,0.01542 0.16445,0.02471 0.0665,0.01131 0.13263,0.02473 0.19894,0.0371 0.58663,0.09335 1.169,0.208881 1.75085,0.327768 0.17173,0.03739 0.34456,0.06949 0.51623,0.107146 0.0268,0.0059 0.0536,0.0118 0.0802,0.01852 0.0101,0.0025 0.0213,0.01516 0.0299,0.0093 0.1485,-0.101869 0.28745,-0.217006 0.43117,-0.325509 -0.4646,-0.03508 -0.92774,-0.08518 -1.39104,-0.134005 -0.37016,-0.03589 -0.73616,-0.09689 -1.10031,-0.171029 -0.26528,-0.05001 -0.51826,-0.144248 -0.77488,-0.224878 -0.28895,-0.09079 -0.30053,-0.09045 -0.6038,-0.172355 -0.423,-0.11712 -0.85319,-0.205275 -1.27907,-0.310408 -0.004,0.0039 -0.1748,-0.05253 -0.17746,-0.05066 -0.48242,0.338397 -0.59219,0.364842 -0.36931,0.296877 0.35873,-0.06305 0.72484,-0.05328 1.08706,-0.03629 0.2177,0.01248 0.4359,0.0349 0.64931,0.08084 0.13253,0.02996 0.26461,0.06307 0.39541,0.09992 0.18955,0.04844 0.37401,0.113679 0.561,0.170483 0.16767,0.05415 0.33222,0.115983 0.50104,0.166618 0.15998,0.05076 0.32243,0.09126 0.48647,0.126249 0.16227,0.04026 0.32566,0.0746 0.48922,0.109118 0.16925,0.03237 0.33825,0.06517 0.50697,0.100184 0.0656,0.01541 0.1321,0.02637 0.19796,0.04041 0.0115,0.0024 0.0228,0.0054 0.0342,0.0082 0.007,0.0017 0.014,0.0093 0.0195,0.0054 0.14766,-0.103774 0.2892,-0.216012 0.43379,-0.324018 -0.57147,-0.06275 -1.13896,-0.156643 -1.70781,-0.23893 -0.60944,-0.07764 -1.21598,-0.172017 -1.81871,-0.290757 -0.41307,-0.08603 -0.82066,-0.196771 -1.22289,-0.323775 -0.31205,-0.103287 -0.61119,-0.24173 -0.92229,-0.347741 -0.10009,-0.03411 -0.20161,-0.06385 -0.30241,-0.09578 -0.52718,-0.156052 -1.06014,-0.293247 -1.5976,-0.409089 -0.12071,-0.02148 -0.24187,-0.04045 -0.36321,-0.05794 -0.0635,-0.0092 -0.12614,-0.01535 -0.18751,-0.03449 0.16083,0.121456 0.0147,7.2e-4 -0.41619,0.30217 -0.0152,0.01062 0.0348,-0.01284 0.0528,-0.01725 0.0419,-0.01026 0.10382,-0.01803 0.1461,-0.01806 0.0327,-2.9e-5 0.0654,0.0038 0.0981,0.0058 0.30858,0.04248 0.61054,0.122015 0.91423,0.189704 0.40433,0.09828 0.81161,0.183595 1.21678,0.278298 0.3889,0.09416 0.77312,0.206567 1.15229,0.334198 0.29262,0.09717 0.58786,0.184692 0.87772,0.290079 0.24614,0.0866 0.48563,0.190399 0.72713,0.288858 0,0 0.44985,-0.302199 0.44985,-0.302199 v 0 c -0.24737,-0.09003 -0.4894,-0.193437 -0.73694,-0.283022 -0.28829,-0.109664 -0.58108,-0.203551 -0.87598,-0.293842 -0.38467,-0.122045 -0.77346,-0.231065 -1.16436,-0.331314 -0.40361,-0.09613 -0.8098,-0.180943 -1.21229,-0.281771 -0.30055,-0.07119 -0.59977,-0.148985 -0.90354,-0.205464 -0.0331,-0.0047 -0.066,-0.01143 -0.0993,-0.01407 -0.21774,-0.01724 -0.8297,0.121587 -0.6871,0.372439 0.18012,0.05292 0.39048,0.04272 0.57458,0.08282 0.54722,0.0924 1.08907,0.217497 1.61781,0.387107 0.0973,0.03323 0.19551,0.06414 0.29203,0.09969 0.30634,0.11281 0.59889,0.261943 0.9109,0.359426 0.40749,0.127907 0.8224,0.231123 1.24027,0.319008 0.60913,0.115808 1.222,0.206405 1.83763,0.280493 0.36318,0.05145 0.72504,0.107904 1.08655,0.170061 0.12917,0.02221 0.33958,0.05788 0.47763,0.0888 0.0307,0.0069 0.0607,0.01656 0.0911,0.02484 0.59887,-0.399839 0.61461,-0.286996 0.22139,-0.372308 -0.1694,-0.0384 -0.34083,-0.06357 -0.51121,-0.09702 -0.16211,-0.03727 -0.32452,-0.07244 -0.48602,-0.112233 -0.16377,-0.03267 -0.32584,-0.07193 -0.48562,-0.120708 -0.16827,-0.05204 -0.3344,-0.109684 -0.50086,-0.167191 -0.18785,-0.0545 -0.37259,-0.119672 -0.56198,-0.169336 -0.12899,-0.04239 -0.26036,-0.08037 -0.39344,-0.107392 -0.22249,-0.04439 -0.44902,-0.06526 -0.67571,-0.07268 -0.35775,-0.01539 -0.71602,-0.02507 -1.07326,0.0079 -0.24595,0.03778 -0.10101,0.0069 -0.54227,0.344136 -0.012,0.0092 0.0163,0.01488 0.063,0.02535 0.0569,0.01279 0.0769,0.01682 0.13849,0.02988 0.43913,0.088 0.88248,0.157789 1.3134,0.283488 0.10447,0.02971 0.20957,0.0573 0.31341,0.08912 0.34881,0.106894 0.6841,0.258465 1.0441,0.327118 0.17855,0.03621 0.35641,0.07837 0.53672,0.105096 0.10945,0.01622 0.24601,0.02876 0.35493,0.03984 0.0743,0.0076 0.14856,0.0151 0.22285,0.02265 0.4518,0.04124 0.90463,0.08371 1.35237,0.157598 0.16167,-0.1057 0.32792,-0.204706 0.48501,-0.317101 0.0102,-0.0073 -0.0253,-0.0012 -0.0378,-0.0029 -0.0294,-0.0039 -0.0585,-0.0092 -0.0877,-0.01384 -0.18014,-0.02826 -0.36026,-0.05677 -0.53955,-0.09012 -0.58016,-0.108233 -1.15896,-0.223704 -1.73832,-0.336106 -0.0643,-0.014 -0.12878,-0.02767 -0.19305,-0.04202 -0.051,-0.01138 -0.1041,-0.05416 -0.15279,-0.03517 -0.8383,0.326928 -0.62013,0.287308 -0.26723,0.347068 0.53606,0.08772 1.07333,0.18247 1.59457,0.337604 0.32548,0.109624 0.11383,0.07741 0.65979,-0.239015 0.01,-0.0056 -0.0216,0.0057 -0.0327,0.0061 -0.0802,0.0027 -0.16101,-0.01293 -0.24108,-0.01355 -0.14092,-0.01168 -0.2812,-0.02841 -0.42176,-0.04368 -0.13207,-0.01483 -0.26427,-0.01746 -0.39683,-0.0261 -0.16066,-0.01436 -0.32132,-0.03002 -0.48288,-0.02271 -0.21097,1.57e-4 -0.92007,-0.03709 -0.78296,0.333584 0.0903,0.06756 0.23673,0.05841 0.34196,0.07761 0.39277,0.02351 0.78499,0.05601 1.1781,0.07366 0.33559,0.01615 0.67111,0.02313 1.00699,0.02874 0,0 0.45182,-0.328271 0.45182,-0.328271 z"
     inkscape:connector-curvature="0" />
  <path
     style="fill:#ff6600;stroke-width:0.553918"
     id="path72"
     d="m 85.040559,41.7671 c 0.19365,-0.0088 0.38699,-0.0019 0.5802,0.0116 0.18628,0.01025 0.37052,0.03944 0.55285,0.07784 0.16609,0.03677 0.33254,0.07205 0.4991,0.106681 0.21557,0.03972 0.43307,0.06829 0.64884,0.107135 0.18785,0.0379 0.37722,0.06591 0.56274,0.114423 0.13708,0.04494 0.27612,0.08317 0.41404,0.125313 0.21604,0.05969 0.43621,0.10482 0.65522,0.152682 0.23514,0.05434 0.46903,0.114078 0.70365,0.1708 0.2122,0.05525 0.42133,0.120453 0.62657,0.197557 0.28428,0.09115 0.57127,0.172719 0.85348,0.270418 0.31809,0.110959 0.629,0.241125 0.93992,0.37048 0.25297,0.12079 0.52048,0.204928 0.78405,0.298514 0.28961,0.09889 0.58563,0.176956 0.87866,0.264669 0.28117,0.08324 0.56104,0.168681 0.83398,0.276211 0.23953,0.08489 0.47839,0.171031 0.71384,0.266835 0,0 0.45317,-0.304434 0.45317,-0.304434 v 0 c -0.23996,-0.08748 -0.47789,-0.180414 -0.71975,-0.262596 -0.27559,-0.106421 -0.55546,-0.196524 -0.83963,-0.277195 -0.29099,-0.09147 -0.58763,-0.163468 -0.87593,-0.263564 -0.26241,-0.09454 -0.52833,-0.179908 -0.78218,-0.296739 -0.31383,-0.12766 -0.62885,-0.252217 -0.94701,-0.368795 -0.27739,-0.101809 -0.56025,-0.186577 -0.84137,-0.277409 -0.20747,-0.07849 -0.41711,-0.149065 -0.633,-0.201047 -0.23442,-0.05835 -0.46873,-0.117397 -0.704,-0.172154 -0.21569,-0.04765 -0.43229,-0.09291 -0.6447,-0.153864 -0.13868,-0.04578 -0.27956,-0.08392 -0.41983,-0.124497 -0.18625,-0.0505 -0.37556,-0.08661 -0.56595,-0.117756 -0.21553,-0.03801 -0.43203,-0.07018 -0.64785,-0.106134 -0.16612,-0.03344 -0.32913,-0.0794 -0.49612,-0.108721 -0.18476,-0.03696 -0.37088,-0.07424 -0.55954,-0.0825 -0.19022,-0.01046 -0.38033,-0.02197 -0.5709,-0.02255 0,0 -0.45255,0.328796 -0.45255,0.328797 z"
     inkscape:connector-curvature="0" />
  <path
     style="fill:#ff6600;stroke-width:0.553918"
     id="path74"
     d="m 93.039859,43.652316 c 0.18163,-0.0094 0.36187,-0.0013 0.54213,0.02128 0.13272,0.02235 0.26302,0.05745 0.39295,0.0922 0.17841,0.06106 0.35613,0.124339 0.53275,0.190441 0.28279,0.12236 0.58001,0.205125 0.87492,0.29225 0.32938,0.09361 0.65123,0.209597 0.97057,0.332537 0.17711,0.07773 0.35508,0.151208 0.53748,0.215689 0.21918,0.08678 0.44345,0.159495 0.66909,0.227367 0.27159,0.06019 0.54783,0.09766 0.8228,0.139084 0,0 0.44418,-0.313805 0.44418,-0.313805 v 0 c -0.27491,-0.03206 -0.54924,-0.07176 -0.81972,-0.131151 -0.22555,-0.06431 -0.44772,-0.139782 -0.66604,-0.225591 -0.18235,-0.06604 -0.35919,-0.144668 -0.54071,-0.212853 -0.32517,-0.114992 -0.64936,-0.232714 -0.98055,-0.329743 -0.29058,-0.08896 -0.58376,-0.172814 -0.86244,-0.295576 -0.17432,-0.07055 -0.35063,-0.135605 -0.52758,-0.199149 -0.13101,-0.04395 -0.26639,-0.07192 -0.40221,-0.09691 -0.17808,-0.02265 -0.35606,-0.03773 -0.53579,-0.03435 0,0 -0.45183,0.32827 -0.45183,0.32827 z"
     inkscape:connector-curvature="0" />
  <path
     style="fill:#ff6600;stroke-width:0.553918"
     id="path76"
     d="m 96.663069,44.634493 c 0.17907,0.01785 0.34922,0.08092 0.51405,0.149957 0.12601,0.05234 0.24698,0.115775 0.37133,0.171801 0.0837,0.03939 0.1749,0.05685 0.26376,0.08029 0.0991,0.02857 0.20023,0.04902 0.29933,0.07753 0.094,0.03105 0.19155,0.04857 0.28922,0.06302 0.0867,0.01115 0.17333,0.01785 0.25924,0.03408 0.0728,0.01503 0.14693,0.02027 0.22104,0.02323 0.0726,-0.0028 0.14147,0.0077 0.21203,0.02347 0.12231,0.02843 0.2448,0.05795 0.36344,0.09942 0.0764,0.03947 0.15808,0.06374 0.24059,0.08699 0.16858,0.06274 0.340741,0.106648 0.518551,0.132672 0.18699,0.02786 0.37418,0.05281 0.55933,0.09139 0.12897,0.02411 0.25416,0.06048 0.3777,0.103906 0.10244,0.03768 0.20709,0.06797 0.30934,0.10636 0.16161,0.05983 0.33014,0.09769 0.49622,0.142733 0.10595,0.02933 0.20841,0.06927 0.31266,0.103825 0.18952,0.04479 0.37431,0.106425 0.5605,0.163032 0.26829,0.08702 0.54053,0.161246 0.81188,0.238054 0.16721,0.05045 0.33374,0.103019 0.50261,0.147732 0.0916,0.01846 0.18145,0.04338 0.27102,0.06982 0.0936,0.02316 0.18493,0.0524 0.27428,0.08849 0.0878,0.03535 0.17625,0.0691 0.26202,0.109238 0.10624,0.05002 0.21967,0.08207 0.33151,0.116825 0.15872,0.04629 0.31929,0.08559 0.47873,0.129282 0.14974,0.03842 0.30159,0.06738 0.45201,0.10296 0,0 0.45162,-0.312913 0.45162,-0.312913 v 0 c -0.15119,-0.03314 -0.30286,-0.06371 -0.45352,-0.09928 -0.15805,-0.04201 -0.31467,-0.08909 -0.4726,-0.131416 -0.10971,-0.03249 -0.21909,-0.06661 -0.32399,-0.112649 -0.0862,-0.03932 -0.17323,-0.0766 -0.26118,-0.111702 -0.0901,-0.04061 -0.18528,-0.06678 -0.28088,-0.09083 -0.0898,-0.02967 -0.17935,-0.06109 -0.27357,-0.07257 -0.17292,-0.03756 -0.34177,-0.09014 -0.51167,-0.139244 -0.27305,-0.07394 -0.54688,-0.145552 -0.81588,-0.233502 -0.18124,-0.05619 -0.3585,-0.123893 -0.54042,-0.177784 -0.10977,-0.02749 -0.21625,-0.06596 -0.32508,-0.09679 -0.16363,-0.04274 -0.32804,-0.08531 -0.48728,-0.142472 -0.10205,-0.03749 -0.20572,-0.07065 -0.30643,-0.111031 -0.12919,-0.03905 -0.25801,-0.07802 -0.39133,-0.101186 -0.18582,-0.04291 -0.37351,-0.06923 -0.56248,-0.09425 -0.17476,-0.02369 -0.34447,-0.06377 -0.50855,-0.129733 -0.0798,-0.02492 -0.159291,-0.05105 -0.234801,-0.08687 -0.11932,-0.04494 -0.24588,-0.0685 -0.36813,-0.104166 -0.0725,-0.01782 -0.13955,-0.04386 -0.21555,-0.03464 -0.0724,-0.0015 -0.14494,-0.0037 -0.2164,-0.01609 -0.0877,-0.01586 -0.17454,-0.03045 -0.26387,-0.03404 -0.0958,-0.01193 -0.1905,-0.02982 -0.28312,-0.05764 -0.0998,-0.02822 -0.20084,-0.05055 -0.30093,-0.07791 -0.087,-0.02256 -0.17435,-0.04359 -0.25897,-0.07385 -0.12795,-0.05072 -0.24972,-0.115495 -0.37663,-0.168662 -0.16708,-0.06913 -0.33899,-0.130044 -0.51608,-0.16762 0,0 -0.45467,0.322704 -0.45467,0.322704 z"
     inkscape:connector-curvature="0" />
  <path
     style="fill:#ff6600;stroke-width:0.553918"
     id="path78"
     d="m 106.1628,47.310146 c 0.12965,-0.0062 0.25861,-0.002 0.38739,0.01337 0.0732,0.009 0.14513,0.01542 0.21425,0.04211 0.0521,0.02437 0.1075,0.04031 0.16129,0.06034 0.0783,0.02822 0.15186,0.06721 0.22614,0.104275 0.1096,0.04578 0.21932,0.09133 0.33096,0.131939 0.0956,0.03808 0.19075,0.07732 0.28823,0.110464 0.11866,0.04171 0.24221,0.06369 0.36616,0.08236 0.13241,0.01907 0.2646,0.03757 0.39531,0.06618 0.12475,0.02485 0.25039,0.04409 0.37476,0.07096 0.0994,0.02786 0.20333,0.03922 0.30089,0.07327 0.0272,-0.0087 0.18841,0.100527 0.20081,0.100907 0.008,2.54e-4 -0.0132,-0.01012 -0.0198,-0.01518 0.62757,-0.393512 0.54881,-0.261925 0.26084,-0.278083 -0.11338,-0.0064 -0.22539,-0.02308 -0.33776,-0.03858 -0.17613,-0.03193 -0.35012,-0.07557 -0.52012,-0.131569 -0.0821,-0.02815 -0.1623,-0.06024 -0.23883,-0.101181 -0.0692,-0.03844 -0.13808,-0.07693 -0.21035,-0.109331 -0.0732,-0.034 -0.14495,-0.07122 -0.21708,-0.107481 -0.0528,-0.03344 -0.11265,-0.04677 -0.17293,-0.0589 -0.21488,-0.06632 -0.01,-0.07155 -0.47616,0.298674 -0.0103,0.0082 0.0258,-0.0053 0.0388,-0.0069 0.0174,-0.0022 0.035,-0.0031 0.0526,-0.0047 0.31742,0.0088 0.61771,0.139971 0.90388,0.265823 0.43623,0.208637 0.85301,0.464017 1.22774,0.770515 0.0833,0.06815 0.16252,0.141189 0.24378,0.211783 0.46897,0.431033 0.84081,0.949825 1.2272,1.452326 0.254,0.32327 0.52052,0.636961 0.79782,0.940489 0.14992,0.164099 0.34217,0.369876 0.51346,0.514874 0.0852,0.07212 0.17811,0.134572 0.26715,0.201857 0.34828,0.212098 0.16317,0.134814 0.55465,0.233528 0,0 0.41674,-0.288564 0.41674,-0.288564 v 0 c -0.38463,-0.0804 -0.20103,-0.01103 -0.54924,-0.212177 -0.089,-0.06525 -0.18155,-0.12586 -0.26692,-0.195758 -0.16793,-0.137485 -0.37563,-0.347565 -0.522,-0.50415 -0.27958,-0.299053 -0.54077,-0.61509 -0.78597,-0.94281 -0.37795,-0.513603 -0.7532,-1.032991 -1.22728,-1.464556 -0.17824,-0.15478 -0.31318,-0.277853 -0.50307,-0.418971 -0.30071,-0.22348 -0.62725,-0.416803 -0.9613,-0.585122 -0.28262,-0.136087 -0.57535,-0.26541 -0.88908,-0.30765 -0.005,5.3e-5 -0.0905,4.94e-4 -0.0933,0.0022 -0.41416,0.257128 -0.67499,0.265703 -0.43106,0.356012 0.0548,0.01876 0.11606,0.01524 0.16647,0.04808 0.0714,0.0407 0.15068,0.06816 0.22159,0.110413 0.0717,0.02939 0.13798,0.06875 0.20672,0.104302 0.0782,0.04693 0.16187,0.08071 0.24899,0.107454 0.17411,0.05858 0.35432,0.09533 0.53358,0.134439 0.11268,0.01585 0.22477,0.03181 0.33799,0.04326 0.0336,0.0034 0.0671,0.0073 0.10066,0.01024 0.0249,0.0022 0.0526,0.01628 0.075,0.005 0.17716,-0.08931 0.34213,-0.201005 0.51319,-0.301508 -0.005,-0.01343 -0.007,-0.02873 -0.0153,-0.04029 -0.0253,-0.03434 -0.16856,-0.08219 -0.20854,-0.109159 -0.0987,-0.04443 -0.20802,-0.04736 -0.31167,-0.07661 -0.12276,-0.02908 -0.24713,-0.05047 -0.37077,-0.07495 -0.13366,-0.0263 -0.26755,-0.04713 -0.4028,-0.06392 -0.11966,-0.02081 -0.23934,-0.0404 -0.35505,-0.0784 -0.0973,-0.03442 -0.19484,-0.0681 -0.28964,-0.109249 -0.11007,-0.03726 -0.21684,-0.08334 -0.32427,-0.127515 -0.0743,-0.03862 -0.14879,-0.07808 -0.22692,-0.108509 -0.0528,-0.02497 -0.10792,-0.03957 -0.16211,-0.06098 -0.0798,-0.03331 -0.13774,-0.04951 -0.22562,-0.05229 -0.12917,-0.0146 -0.258,-0.02316 -0.3881,-0.02078 0,0 -0.45183,0.32827 -0.45183,0.32827 z"
     inkscape:connector-curvature="0" />
  <path
     style="fill:#ff6600;stroke-width:0.553918"
     id="path80"
     d="m 116.78303,63.349114 c -0.006,-0.17613 -0.006,-0.352495 -0.006,-0.528728 0.009,-0.177642 -0.004,-0.353964 -0.0167,-0.530921 -0.0218,-0.211914 -0.0487,-0.42327 -0.0695,-0.63528 -0.0248,-0.216969 -0.0621,-0.431998 -0.0821,-0.649502 -0.0191,-0.273104 -0.0228,-0.547052 -0.0262,-0.820718 10e-4,-0.310916 7e-5,-0.621833 0.002,-0.932748 0.009,-0.280032 0.0213,-0.559888 0.0443,-0.839148 0.014,-0.16839 0.0309,-0.336395 0.0371,-0.505277 0.002,-0.122669 0.003,-0.245269 0.002,-0.367938 -0.002,-0.152352 -0.002,-0.304734 3.3e-4,-0.457079 -0.002,-0.141199 -0.001,-0.282403 -5.5e-4,-0.423607 0.001,-0.173436 -0.003,-0.346884 -0.004,-0.52032 5.6e-4,-0.202229 0.002,-0.40445 0.003,-0.606677 5.6e-4,-0.206633 -0.003,-0.413213 -0.003,-0.619844 -0.003,-0.400019 -0.0103,-0.799985 -0.0125,-1.200008 -0.0129,-0.544314 -0.0262,-1.088646 -0.0279,-1.633129 -0.003,-0.29667 -0.001,-0.593369 0.007,-0.889944 0.01,-0.129351 -0.007,-0.25759 -0.0183,-0.386197 -0.009,-0.111711 -0.0122,-0.223764 -0.0151,-0.335775 0.008,-0.0403 0.0139,-0.101457 0.0502,-0.128843 0.008,-0.0064 0.0382,-0.01812 0.0291,-0.01266 -0.14997,0.09018 -0.30136,0.177959 -0.45203,0.266939 0.003,-0.0023 0.007,-0.0096 0.01,-0.0068 0.014,0.01429 0.0279,0.09927 0.0284,0.103462 0.0179,0.135107 0.005,0.27391 -0.002,0.409103 -0.0311,0.554558 -0.0618,1.109185 -0.0831,1.664217 -0.0213,0.46705 -0.0258,0.934521 -0.0238,1.40197 0.008,0.351093 -0.004,0.702417 0.006,1.053442 0.002,0.07869 0.0183,0.40881 0.0223,0.493169 0.0338,0.473334 0.0808,0.945975 0.13907,1.416932 0.0466,0.325237 0.1026,0.648955 0.13863,0.975627 0.0174,0.158754 0.019,0.318462 0.0219,0.47794 5.5e-4,0.167597 3.8e-4,0.335194 -0.003,0.502756 -0.003,0.08164 -0.003,0.163295 -0.003,0.244969 0.003,0.141793 -0.007,0.283388 -0.0279,0.423634 -0.0294,0.216071 -0.0715,0.429483 -0.12979,0.639536 -0.0371,0.123049 -0.0724,0.24577 -0.11738,0.366202 0.0602,0.03491 -0.0366,0.03148 -0.026,0.02551 0.1688,-0.09527 0.35064,-0.168445 0.51149,-0.276601 0.0199,-0.01338 0.005,-0.04769 0.006,-0.07163 0.008,-0.146197 0.004,-0.186691 0.002,-0.351638 -0.0188,-0.657128 -0.0656,-1.313149 -0.0988,-1.969638 -0.0273,-0.540376 -0.0395,-0.896786 -0.0606,-1.43834 -0.0303,-1.079875 -0.0453,-2.160102 -0.0627,-3.240243 -0.0169,-0.605665 -0.0332,-1.211381 -0.035,-1.817302 -0.005,-0.190257 0.008,-0.380058 0.0129,-0.569973 4.9e-4,-0.272688 0.028,-0.544296 0.0531,-0.815533 0.0148,-0.07078 0.0167,-0.182464 0.0845,-0.228376 0.19755,-0.03603 0.0194,-0.006 -0.4424,0.264575 -0.007,0.0038 0.014,-0.0058 0.0208,-0.0089 0.0239,-0.01069 0.0476,-0.01984 0.0706,-0.03243 0.19731,-0.101245 0.38783,-0.215861 0.57208,-0.339206 0.0217,-0.05231 0.0562,-0.02051 0.009,-0.09444 -0.0521,-0.02854 -0.12001,-0.03189 -0.17905,-0.04101 -0.0573,-0.0073 -0.11442,-0.01263 -0.16916,-0.03185 0.11786,0.153422 0.004,-0.002 -0.43877,0.31567 -0.009,0.0064 0.0213,-0.0053 0.0319,-0.0079 0.0312,-0.0078 0.0624,-0.01556 0.0938,-0.02226 0.18646,-0.01 0.71081,-0.342786 0.44803,-0.346724 -0.0947,-0.0022 -0.18908,0.01075 -0.28235,0.02596 -0.20648,0.05438 -0.45783,0.129213 -0.56071,0.321088 0,0 0.51855,-0.217733 0.51855,-0.217733 v 0 c 0.19565,-0.106495 -0.67558,0.362239 -0.40124,0.235235 0.0866,-0.02849 0.18341,-0.03315 0.27378,-0.0374 0.21835,0.0045 0.73708,-0.406058 0.44999,-0.318405 -0.19854,0.03871 -0.73531,0.160786 -0.60173,0.36361 0.056,0.02891 0.12029,0.03678 0.18226,0.04199 0.0178,0.0023 0.14421,0.02941 0.15157,0.02649 0.003,-0.0011 0.003,-0.005 0.004,-0.0075 -0.0219,-0.05041 -0.0214,-0.0091 -0.0538,0.0021 -0.23237,0.178144 0.64386,-0.352917 0.38838,-0.218558 -0.008,0.004 -0.0159,0.0079 -0.0237,0.0119 -0.007,0.005 -0.0124,0.0114 -0.0198,0.01516 -0.008,0.0038 -0.0164,0.0042 -0.0244,0.0072 -0.19192,0.07323 -0.4139,0.144118 -0.53429,0.313265 -0.0387,0.07988 -0.0546,0.164769 -0.058,0.253565 -0.0136,0.271968 -0.03,0.543763 -0.0513,0.81525 -0.003,0.03494 -0.013,0.120246 -0.0131,0.162924 -4e-4,0.134001 0.0203,0.268187 0.0197,0.402226 0.026,0.59914 0.0516,1.19832 0.0736,1.797616 0.0357,1.071033 0.0729,2.142064 0.11745,3.212766 0.0419,1.149689 0.0988,2.300002 0.0689,3.450784 -0.0149,0.239458 -0.006,0.16805 -0.0301,0.360506 -0.003,0.02583 -0.0357,0.08308 -0.0104,0.07741 0.76325,-0.170424 0.44576,-0.02029 0.51697,-0.235519 0.0392,-0.12093 0.0714,-0.243722 0.10638,-0.365931 0.0519,-0.212711 0.0921,-0.427655 0.1253,-0.644089 0.0209,-0.144257 0.0341,-0.290548 0.0356,-0.436353 1.3e-4,-0.08091 5.6e-4,-0.161791 -0.002,-0.242679 -0.003,-0.166891 -0.002,-0.333792 -0.002,-0.500698 5.5e-4,-0.161222 -0.001,-0.322839 -0.0281,-0.482279 -0.0484,-0.322708 -0.11409,-0.642566 -0.1568,-0.966156 -0.0651,-0.468253 -0.11211,-0.93917 -0.14174,-1.411007 -0.0307,-0.514206 -0.0382,-1.028915 -0.0274,-1.543979 0.004,-0.465373 0.005,-0.930808 0.016,-1.396091 0.0187,-0.558496 0.0465,-1.116404 0.10307,-1.672554 0.0113,-0.138867 0.0553,-0.454633 -0.0317,-0.580849 -0.01,-0.01419 -0.0261,-0.02249 -0.0392,-0.03373 -0.27732,0.15846 -0.55247,0.173451 -0.56324,0.47573 0.004,0.111736 0.0167,0.222962 0.0234,0.334531 0.009,0.127584 0.0161,0.25488 0.0157,0.382834 0.01,0.292131 0.0157,0.584371 0.0208,0.876626 0.0151,0.542965 0.0287,1.086069 0.0339,1.629222 -0.002,0.404247 -0.009,0.808439 -0.0125,1.212683 -5.6e-4,0.207797 -0.004,0.415545 -0.003,0.623343 0.001,0.201214 0.002,0.402421 0.003,0.603637 -0.002,0.175004 -0.006,0.350022 -0.004,0.525027 2.6e-4,0.141413 0.001,0.282826 -5.2e-4,0.424235 0.003,0.152114 0.002,0.304272 0.001,0.456398 -0.002,0.122326 -5e-5,0.244655 -0.004,0.366947 -0.005,0.165869 -0.0143,0.331603 -0.026,0.497122 -0.0195,0.28013 -0.0317,0.560661 -0.0397,0.841356 0.002,0.310257 -3.7e-4,0.620512 0.003,0.930762 -5.2e-4,0.276543 -0.004,0.553488 0.0193,0.829354 0.0188,0.218133 0.0553,0.433448 0.0808,0.650855 0.0219,0.211862 0.047,0.42336 0.0652,0.635588 0.0118,0.175289 0.0205,0.350507 0.0174,0.526297 -1.6e-4,0.17829 -4.2e-4,0.356705 -0.006,0.534895 0,0 0.49761,-0.253547 0.49761,-0.253547 z"
     inkscape:connector-curvature="0" />
</svg>
