<?xml version="1.0" encoding="UTF-8" standalone="no"?>
<svg
   xmlns:dc="http://purl.org/dc/elements/1.1/"
   xmlns:cc="http://creativecommons.org/ns#"
   xmlns:rdf="http://www.w3.org/1999/02/22-rdf-syntax-ns#"
   xmlns:svg="http://www.w3.org/2000/svg"
   xmlns="http://www.w3.org/2000/svg"
   xmlns:sodipodi="http://sodipodi.sourceforge.net/DTD/sodipodi-0.dtd"
   xmlns:inkscape="http://www.inkscape.org/namespaces/inkscape"
   height="31mm"
   width="44mm"
   aria-hidden="true"
   focusable="false"
   data-prefix="fas"
   data-icon="laptop"
   class="svg-inline--fa fa-laptop fa-w-20"
   role="img"
   viewBox="0 0 166.29921 117.16535"
   version="1.1"
   id="svg1086"
   sodipodi:docname="uxui.svg"
   inkscape:version="1.0beta2 (2b71d25, 2019-12-03)">
  <metadata
     id="metadata1092">
    <rdf:RDF>
      <cc:Work
         rdf:about="">
        <dc:format>image/svg+xml</dc:format>
        <dc:type
           rdf:resource="http://purl.org/dc/dcmitype/StillImage" />
        <dc:title></dc:title>
      </cc:Work>
    </rdf:RDF>
  </metadata>
  <defs
     id="defs1090" />
  <sodipodi:namedview
     units="mm"
     pagecolor="#ffffff"
     bordercolor="#666666"
     inkscape:document-rotation="0"
     borderopacity="1"
     objecttolerance="10"
     gridtolerance="10"
     guidetolerance="10"
     inkscape:pageopacity="0"
     inkscape:pageshadow="2"
     inkscape:window-width="1796"
     inkscape:window-height="972"
     id="namedview1088"
     showgrid="false"
     inkscape:zoom="5.0130588"
     inkscape:cx="38.048506"
     inkscape:cy="52.4061"
     inkscape:window-x="199"
     inkscape:window-y="117"
     inkscape:window-maximized="0"
     inkscape:current-layer="svg1086" />
  <path
     style="fill:#9eaec7;stroke-width:0.255839"
     d="m 19.985771,50.932782 c 0,-27.250225 -0.05452,-26.18256 1.443332,-28.25605 0.39131,-0.541668 1.271695,-1.303395 1.956406,-1.692722 l 1.244933,-0.707878 27.795564,0.002 27.795578,0.002 1.19753,0.645987 c 1.43929,0.776377 2.31927,1.796465 2.97445,3.447953 0.47931,1.208231 0.48796,1.669302 0.49312,26.303723 l 0.005,25.073934 H 52.438561 19.985476 Z M 76.988234,48.014601 V 29.29455 H 52.438856 27.889475 v 18.720051 18.720051 h 24.549381 24.549378 z"
     id="path1094"
     inkscape:connector-curvature="0" />
  <path
     style="fill:#9eaec7;stroke-width:0.255839"
     d="m 18.107268,94.097746 c -2.409774,-0.654313 -4.75617,-2.859992 -5.728076,-5.384588 -0.343713,-0.892825 -0.533998,-2.102888 -0.618186,-3.931361 -0.118,-2.562421 -0.103154,-2.662673 0.49728,-3.34774 l 0.618928,-0.70623 h 15.578792 c 13.867271,0 15.578781,0.04623 15.578781,0.420819 0,0.896871 1.012847,2.618991 1.962344,3.336551 0.985881,0.745067 1.036345,0.752654 5.591441,0.840605 2.986352,0.05766 4.959395,-0.02266 5.632243,-0.229448 1.312239,-0.403186 2.500373,-1.747694 2.848667,-3.223573 l 0.270199,-1.144954 h 15.689306 15.689319 l 0.615076,0.70184 c 0.592909,0.676518 0.611364,0.797216 0.512138,3.34775 -0.134152,3.448003 -0.707953,4.990619 -2.599727,6.989086 -2.579787,2.725274 1.006155,2.482937 -37.469023,2.532163 -19.144385,0.02448 -34.159795,-0.06252 -34.669502,-0.20092 z"
     id="path1096"
     inkscape:connector-curvature="0" />
  <path
     style="fill:#9eaec7;stroke-width:0.0372046"
     d="m 44.330313,82.172325 c -0.175145,-0.414424 -0.280181,-0.789092 -0.280181,-0.999511 0,-0.09004 -0.02316,-0.123945 -0.114289,-0.167405 -0.530735,-0.253029 -3.269887,-0.295568 -19.372746,-0.300879 -10.95968,-0.003 -11.659416,-0.0081 -11.528553,-0.07051 0.129634,-0.06211 1.211618,-0.06748 15.57494,-0.07688 l 15.435631,-0.01032 0.02253,0.22873 c 0.0599,0.60709 0.144916,0.964277 0.351865,1.476971 0.183093,0.453616 0.10789,0.385897 -0.0892,-0.08032 z"
     id="path1098"
     inkscape:connector-curvature="0" />
  <path
     style="fill:#9eaec7;stroke-width:0.0372046"
     d="m 52.644307,85.327319 c 0.0622,-0.0091 0.164139,-0.0091 0.22639,0 0.06233,0.0091 0.01152,0.01608 -0.113265,0.01608 -0.124528,0 -0.175453,-0.0071 -0.113138,-0.01608 z"
     id="path1100"
     inkscape:connector-curvature="0" />
  <path
     style="fill:#9eaec7;stroke-width:0.0372046"
     d="m 50.00598,85.274411 c -2.67772,-0.07041 -2.155893,-0.09732 2.281317,-0.117187 l 4.458174,-0.01993 0.405925,-0.125341 c 0.223267,-0.06899 0.543111,-0.198685 0.710795,-0.288346 0.167671,-0.08963 0.31265,-0.154111 0.322159,-0.143267 0.009,0.01032 -0.145773,0.108295 -0.345081,0.216631 -0.601228,0.326676 -0.986765,0.406625 -2.312827,0.479655 -0.781249,0.04299 -3.849536,0.04188 -5.520462,-0.002 z"
     id="path1102"
     inkscape:connector-curvature="0" />
  <path
     style="fill:#9eaec7;stroke-width:0.0372046"
     d="m 59.618904,82.917554 c 0,-0.0081 0.05286,-0.146454 0.117488,-0.308002 0.06463,-0.161547 0.150138,-0.403286 0.19003,-0.537196 0.08434,-0.283105 0.21491,-0.98716 0.21491,-1.158692 0,-0.06495 0.01024,-0.17394 0.02176,-0.242356 l 0.02176,-0.124421 15.642746,0.01032 c 14.557255,0.0091 15.652397,0.01477 15.782057,0.07688 0.130747,0.06262 -0.826594,0.06687 -15.573008,0.0695 l -15.712318,0.002 -0.112626,0.486827 c -0.06194,0.267769 -0.151993,0.629902 -0.200166,0.804773 -0.10661,0.386949 -0.392768,1.057023 -0.392768,0.919654 z"
     id="path1104"
     inkscape:connector-curvature="0" />
  <path
     style="fill:#9eaec7;stroke-width:0.0372046"
     d="m 39.998344,66.766893 c 6.746197,-0.0061 17.795849,-0.0061 24.554768,0 6.758931,0.0061 1.239314,0.01032 -12.265815,0.01032 -13.505116,0 -19.035138,-0.0051 -12.288953,-0.01032 z"
     id="path1106"
     inkscape:connector-curvature="0" />
  <path
     style="fill:#9eaec7;stroke-width:0.0372046"
     d="m 27.749948,48.436027 c 0,-18.294438 1.02e-4,-18.320923 0.06962,-18.320923 0.06949,0 0.06962,0.02651 0.06962,18.241439 v 18.241438 h 24.43287 24.432877 V 48.356543 c 0,-12.134464 0.01152,-18.241439 0.03481,-18.241439 0.02316,0 0.03481,6.133459 0.03481,18.320923 V 66.756959 H 52.287221 27.749871 Z"
     id="path1108"
     inkscape:connector-curvature="0" />
  <path
     style="fill:#9eaec7;stroke-width:0.0323053"
     d="m 29.407358,20.320442 c 2.708436,-0.0051 7.13144,-0.0051 9.82887,0 2.697429,0.0051 0.481435,0.0091 -4.924443,0.0091 -5.405891,0 -7.612876,-0.003 -4.904427,-0.0091 z"
     id="path1110"
     inkscape:connector-curvature="0" />
  <path
     style="fill:#9eaec7;stroke-width:0.0323053"
     d="m 19.757691,33.433487 c 0.01152,-7.648154 -6.65e-4,-7.153264 0.190427,-8.019412 0.46449,-2.10572 1.763944,-3.848417 3.513822,-4.71236 0.356255,-0.175892 0.867088,-0.36791 0.922594,-0.346797 0.01459,0.0061 -0.263057,0.172807 -0.616969,0.371704 -0.353887,0.198886 -0.776988,0.451602 -0.940205,0.561586 -0.418928,0.282266 -0.988736,0.780696 -1.309539,1.14546 -0.303295,0.344855 -0.729364,0.940412 -0.888345,1.241727 -0.241607,0.457904 -0.413297,1.166157 -0.514686,2.123191 -0.181301,1.711356 -0.237063,3.852979 -0.264362,10.153994 -0.01625,3.747233 -0.02585,4.442902 -0.06105,4.442902 -0.03545,0 -0.04019,-1.054899 -0.03174,-6.961995 z"
     id="path1112"
     inkscape:connector-curvature="0" />
  <path
     style="fill:#9eaec7;stroke-width:0.0323053"
     d="m 24.630442,20.276132 c 0.04787,-0.01629 0.249862,-0.05382 0.44885,-0.08326 0.324643,-0.04805 3.122847,-0.05362 27.242011,-0.05362 24.119151,0 26.917354,0.0061 27.241997,0.05362 0.198989,0.02944 0.400985,0.06697 0.448863,0.08326 0.04889,0.01679 -12.091718,0.02974 -27.69086,0.02974 -15.599143,0 -27.739751,-0.01305 -27.690861,-0.02974 z"
     id="path1114"
     inkscape:connector-curvature="0" />
  <path
     style="fill:#9eaec7;stroke-width:0.05961"
     d="m 19.13358,94.390765 c -2.487844,-0.243226 -4.792326,-1.805508 -6.149424,-4.168871 -0.390784,-0.680534 -0.781223,-1.578741 -0.830778,-1.911143 -0.01817,-0.122488 0.04812,0.0061 0.156754,0.303156 0.853252,2.334854 2.953051,4.468475 5.260924,5.345691 0.424163,0.161224 0.534139,0.173151 2.204284,0.238957 2.700143,0.106343 59.799402,0.102559 62.501093,-0.0051 3.08952,-0.122094 4.547033,-0.254516 5.4631,-0.496357 0.196326,-0.0519 0.367171,-0.08265 0.379624,-0.06839 0.0407,0.04633 -0.891583,0.403034 -1.406256,0.538097 -0.276239,0.07253 -0.746105,0.162063 -1.044153,0.199058 -0.375324,0.04654 -10.649473,0.06404 -33.426923,0.05655 -18.086769,-0.0061 -32.985471,-0.02054 -33.108245,-0.03247 z"
     id="path1116"
     inkscape:connector-curvature="0" />
  <path
     style="fill:#9eaec7;stroke-width:0.05961"
     d=""
     id="path1118"
     inkscape:connector-curvature="0" />
  <path
     style="fill:#9eaec7;stroke-width:0.05961"
     d="m 90.300186,91.743731 c 0.498816,-0.569093 1.038586,-1.235302 1.199499,-1.480451 0.996735,-1.518539 1.365302,-3.284594 1.396491,-6.691697 0.01331,-1.449 -0.01792,-1.561149 -0.639226,-2.292164 -0.429333,-0.505218 -0.443526,-0.608617 -0.03455,-0.252392 0.297292,0.259018 0.560311,0.68969 0.687002,1.124904 0.130952,0.449862 0.08997,4.112321 -0.05414,4.832086 -0.427708,2.137283 -1.365058,3.907365 -2.79023,5.269111 -0.302374,0.288932 -0.577231,0.52532 -0.610763,0.52532 -0.03353,0 0.347142,-0.465624 0.845958,-1.034717 z"
     id="path1120"
     inkscape:connector-curvature="0" />
  <path
     style="fill:#9eaec7;stroke-width:0.05961"
     d="m 84.758159,71.638332 c 0,-2.293894 0.0064,-3.232303 0.01549,-2.085366 0.009,1.146957 0.009,3.023775 0,4.170722 -0.009,1.146947 -0.01549,0.208538 -0.01549,-2.085356 z"
     id="path1122"
     inkscape:connector-curvature="0" />
</svg>
